<svg width="3023" height="3020" viewBox="0 0 3023 3020" fill="none" xmlns="http://www.w3.org/2000/svg">
<path d="M1309.04 2699.61L1966.63 2450.99C1974.93 2447.92 1984.32 2451.35 1988.47 2459.29L2002.56 2486.01C2006.53 2493.42 2015.01 2497.03 2022.96 2494.68L2214.17 2439.07C2223.19 2436.54 2228.43 2427.33 2226.44 2418.31L2219.58 2387.61C2217.6 2379.12 2222.29 2370.64 2230.24 2367.39L2659.42 2199.29C2663.75 2197.67 2667.36 2194.24 2669.17 2189.9L2686.86 2148.56C2689.57 2142.06 2695.89 2137.9 2702.93 2137.9H2758C2766.49 2137.9 2773.71 2131.94 2775.33 2123.64L2809.64 1944.17C2810.9 1937.67 2808.38 1930.99 2803.14 1927.01L2744.28 1881.15C2739.22 1877.18 2736.69 1870.86 2737.6 1864.54L2909.85 776.153C2911.11 767.666 2918.51 761.347 2927.18 761.347H3000.49C3010.24 761.347 3018 753.403 3018 743.833V538.903C3018 530.055 3011.5 522.653 3002.83 521.389L2601.82 464.875C2592.43 463.611 2583.76 469.93 2582.14 479.139L2304.44 2046.54C2303.36 2052.68 2299.21 2057.74 2293.25 2059.9L1212.44 2466.69C1203.06 2470.31 1198.54 2480.78 1202.51 2489.99L1286.65 2689.86C1290.26 2698.53 1300.19 2702.86 1309.04 2699.61Z" fill="#F3E2DB" stroke="#4C5A51" stroke-width="9.40026"/>
<path d="M2392.92 5H846.459C837.792 5 830.75 10.7778 830.75 18V345.889C830.75 352.931 837.792 358.889 846.459 358.889H2393.1C2401.76 358.889 2408.81 353.111 2408.81 345.889V18C2408.63 10.7778 2401.58 5 2392.92 5Z" fill="#F3E2DB" stroke="#4C5A51" stroke-width="9.40026"/>
<path d="M1154.49 413.056H2072.79C2095.22 413.056 2113.42 431.249 2113.42 453.681V474.444C2113.42 496.876 2095.22 515.07 2072.79 515.07H1154.49C1132.05 515.07 1113.86 496.876 1113.86 474.444V453.681C1113.86 431.249 1132.05 413.056 1154.49 413.056Z" fill="#D5D4DF" stroke="black" stroke-width="1.80556"/>
<path d="M1514.69 471.375V473.722C1514.69 477.695 1515.42 480.583 1516.86 482.208C1518.31 483.833 1520.29 484.917 1522.82 484.917C1525.35 484.917 1527.33 484.014 1528.78 482.208C1530.22 480.403 1531.12 477.514 1531.12 473.542C1531.12 471.917 1530.94 470.472 1530.58 469.389C1530.22 468.125 1529.68 467.222 1528.96 466.319C1528.24 465.417 1527.33 464.694 1526.07 464.153C1524.81 463.611 1523.36 463.069 1521.37 462.708C1518.85 462.167 1516.32 461.625 1514.15 460.903C1511.81 460.181 1509.82 459.458 1508.01 458.375C1506.21 457.292 1504.94 456.028 1503.86 454.403C1502.78 452.778 1502.24 450.792 1502.24 448.445C1502.24 446.458 1502.78 444.653 1504.04 443.208C1505.12 441.764 1506.75 440.5 1508.56 439.597C1510.54 438.694 1512.71 437.792 1515.06 437.431C1517.58 436.889 1520.11 436.708 1522.82 436.708C1526.07 436.708 1528.96 437.07 1531.49 437.611C1534.01 438.153 1536.36 439.056 1538.17 440.32C1540.15 441.403 1541.6 442.847 1542.5 444.653C1543.58 446.278 1544.12 448.264 1544.12 450.431V452.597H1530.4V450.792C1530.4 448.625 1530.22 447 1529.86 445.556C1529.5 444.111 1528.96 443.028 1528.24 442.125C1527.51 441.222 1526.79 440.5 1525.89 440.139C1524.99 439.778 1523.9 439.597 1522.64 439.597C1521.56 439.597 1520.65 439.778 1519.75 440.139C1518.85 440.5 1518.12 441.042 1517.4 441.764C1516.68 442.486 1516.14 443.569 1515.78 444.653C1515.42 445.736 1515.24 447.181 1515.24 448.806C1515.24 451.875 1516.14 454.222 1517.76 456.208C1519.39 458.194 1522.28 459.458 1526.25 460.361C1528.78 460.903 1531.12 461.445 1533.29 462.167C1535.46 462.708 1537.26 463.611 1538.89 464.514C1540.51 465.417 1541.78 466.861 1542.68 468.306C1543.58 469.75 1544.12 471.736 1544.12 474.083C1544.12 476.431 1543.58 478.597 1542.5 480.403C1541.6 482.208 1540.15 483.653 1538.17 484.736C1536.36 485.82 1534.01 486.722 1531.49 487.264C1528.96 487.806 1525.89 488.167 1522.82 488.167C1519.57 488.167 1516.68 487.806 1514.15 487.264C1511.62 486.722 1509.28 486 1507.47 484.736C1505.67 483.653 1504.22 482.208 1503.14 480.403C1502.24 478.597 1501.69 476.611 1501.69 474.083V471.736H1514.69V471.375ZM1547.92 438.514H1589.44V441.222H1547.92V438.514ZM1562.18 447.181H1547.92V444.472H1589.44V447.181H1575.18V486.181H1562.18V447.181ZM1603.53 438.514H1618.33L1634.76 486.181H1621.04L1619.24 480.222H1602.62L1600.82 486.181H1587.1L1603.53 438.514ZM1616.53 471.556L1610.93 453.5L1605.33 471.556H1616.53ZM1618.33 477.514L1617.25 474.264H1604.43L1603.35 477.514H1618.33ZM1660.4 464.514H1684.42V467.042C1684.42 470.833 1683.87 474.083 1682.79 476.792C1681.71 479.5 1680.26 481.667 1678.1 483.292C1676.11 484.917 1673.76 486 1670.87 486.722C1667.99 487.444 1664.74 487.806 1661.12 487.806C1653.36 487.806 1647.22 485.639 1643.07 481.486C1638.92 477.333 1636.75 470.833 1636.75 462.167C1636.75 453.5 1638.92 447 1643.07 442.847C1647.22 438.694 1653.36 436.528 1661.12 436.528C1664.37 436.528 1667.44 436.889 1670.15 437.611C1672.86 438.333 1675.39 439.417 1677.37 440.681C1679.36 442.125 1681.17 443.931 1682.25 446.097C1683.51 448.264 1684.24 450.792 1684.42 453.861H1670.87C1670.87 450.792 1670.69 448.264 1670.15 446.458C1669.61 444.472 1668.89 442.847 1667.99 441.764C1667.08 440.681 1666 439.778 1664.92 439.417C1663.65 438.875 1662.57 438.694 1661.31 438.694C1659.86 438.694 1658.42 439.056 1656.97 439.778C1655.53 440.5 1654.44 441.583 1653.36 443.389C1652.28 445.195 1651.56 447.542 1650.83 450.431C1650.29 453.5 1649.93 457.292 1649.93 461.986C1649.93 466.681 1650.29 470.472 1650.83 473.542C1651.56 476.611 1652.28 478.958 1653.36 480.764C1654.44 482.569 1655.53 483.653 1656.97 484.375C1658.42 485.097 1659.86 485.458 1661.31 485.458C1662.75 485.458 1664.01 485.278 1665.28 484.736C1666.54 484.195 1667.62 483.292 1668.53 482.028C1669.43 480.764 1670.15 478.958 1670.69 476.431C1671.24 474.083 1671.6 471.014 1671.6 467.042H1660.76V464.514H1660.4ZM1660.4 458.375H1684.42V461.083H1660.4V458.375ZM1691.64 438.514H1727.21V441.222H1704.82V448.806H1727.21V451.514H1704.82V460H1727.21V462.708H1704.82V471.375H1727.21V474.083H1704.82V483.292H1727.21V486H1691.64V438.514Z" fill="#383448"/>
<path d="M2185.82 413.056H2367.1C2389.53 413.056 2407.72 431.249 2407.72 453.681V474.444C2407.72 496.876 2389.53 515.07 2367.1 515.07H2185.82C2163.39 515.07 2145.19 496.876 2145.19 474.444V453.681C2145.19 431.249 2163.39 413.056 2185.82 413.056Z" fill="#D5D4DF" stroke="black" stroke-width="1.80556"/>
<path d="M2193.58 484.917C2196.29 484.917 2198.82 484.375 2200.99 483.292C2203.15 482.208 2205.14 480.764 2206.76 478.597C2208.39 476.611 2209.65 474.083 2210.56 471.195C2211.46 468.306 2212 464.875 2212 461.083V439.778H2194.31V437.07H2224.1C2224.64 437.07 2225 437.25 2225.36 437.611C2225.72 437.972 2225.9 438.333 2225.9 438.875V460.181C2225.9 463.792 2225.36 467.042 2224.28 469.75C2223.38 472.458 2221.93 474.806 2220.31 476.792C2218.68 478.778 2216.7 480.403 2214.53 481.667C2212.36 482.931 2210.01 484.014 2207.67 484.917C2205.32 485.639 2202.97 486.181 2200.63 486.542C2198.28 486.903 2195.93 487.083 2193.95 487.083V484.917H2193.58ZM2231.86 437.25H2245.04V487.083H2231.86V437.25ZM2251.9 440.5H2262.2V436.167H2275.38V440.5H2285.67V443.208H2252.08V440.5H2251.9ZM2250.82 466.32H2262.01V462.889C2258.58 462.347 2256.06 461.264 2254.43 459.639C2252.81 458.014 2252.08 456.208 2252.08 453.861C2252.08 450.972 2253.53 448.625 2256.24 447C2258.95 445.375 2263.1 444.472 2268.7 444.472C2274.29 444.472 2278.26 445.375 2280.97 447C2283.68 448.625 2285.13 450.972 2285.13 453.861C2285.13 456.208 2284.4 458.014 2282.78 459.639C2281.15 461.264 2278.81 462.167 2275.2 462.889V466.32H2277.18C2278.08 466.32 2279.17 466.32 2280.07 466.32C2281.15 466.32 2282.06 466.139 2282.96 466.139C2283.86 465.958 2284.76 465.958 2285.67 465.778C2286.57 465.597 2287.29 465.417 2287.83 465.236V437.25H2301.01V470.833H2287.83V468.125C2286.57 468.486 2284.76 468.847 2282.78 469.028C2280.79 469.208 2278.81 469.208 2276.82 469.208H2250.64V466.32H2250.82ZM2268.7 461.083C2269.42 461.083 2269.96 461.083 2270.5 460.903C2271.04 460.722 2271.4 460.361 2271.58 459.82C2271.76 459.278 2272.13 458.556 2272.13 457.653C2272.31 456.75 2272.31 455.486 2272.31 454.042C2272.31 452.597 2272.31 451.333 2272.13 450.431C2271.95 449.528 2271.76 448.806 2271.58 448.264C2271.22 447.722 2270.86 447.361 2270.5 447.181C2270.14 447 2269.42 446.82 2268.7 446.82C2267.97 446.82 2267.43 447 2266.89 447.181C2266.53 447.361 2266.17 447.722 2265.81 448.264C2265.45 448.806 2265.26 449.528 2265.26 450.431C2265.08 451.333 2265.08 452.597 2265.08 454.042C2265.08 455.486 2265.08 456.75 2265.26 457.653C2265.45 458.556 2265.63 459.278 2265.81 459.82C2266.17 460.361 2266.53 460.722 2266.89 460.903C2267.43 461.083 2267.97 461.083 2268.7 461.083ZM2250.82 472.82H2299.57C2300.11 472.82 2300.47 473 2300.65 473.361C2301.01 473.722 2301.2 474.083 2301.2 474.625V487.083H2288.01V475.528H2250.82V472.82ZM2305.17 483.833C2306.43 483.833 2307.51 483.472 2308.78 482.75C2310.04 482.028 2311.13 481.125 2312.03 479.861C2312.93 478.597 2313.83 476.972 2314.38 475.167C2314.92 473.361 2315.28 471.195 2315.28 468.847V437.25H2327.56V468.847C2327.56 471.556 2327.01 473.903 2325.75 476.07C2324.49 478.236 2322.86 480.042 2320.88 481.486C2318.89 482.931 2316.54 484.014 2313.83 484.736C2311.13 485.458 2308.24 486 2305.17 486V483.833ZM2340.74 437.25H2353.92V458.556H2359.15V461.806H2353.92V487.083H2340.74V437.25ZM2327.01 479.861C2327.01 478.056 2327.56 476.611 2328.64 475.528C2329.72 474.445 2331.35 473.722 2333.15 473.722C2334.96 473.722 2336.4 474.264 2337.49 475.528C2338.57 476.611 2339.29 478.056 2339.29 479.861C2339.29 481.667 2338.75 483.111 2337.49 484.195C2336.4 485.278 2334.96 486 2333.15 486C2331.35 486 2329.9 485.458 2328.64 484.195C2327.56 483.292 2327.01 481.667 2327.01 479.861Z" fill="#383448"/>
<path d="M1536.72 163.167H1543.94V156.667H1555.86V162.986H1563.08V165.694H1536.72V163.167ZM1578.79 157.75H1589.26V207.764H1578.79V157.75ZM1566.51 195.667H1562C1561.64 198.014 1560.92 200 1560.01 201.625C1559.11 203.25 1558.21 204.514 1557.13 205.597C1556.04 206.681 1554.78 207.403 1553.51 207.944C1552.25 208.486 1550.99 208.667 1549.72 208.667C1548.1 208.667 1546.65 208.306 1545.03 207.403C1543.4 206.681 1542.14 205.417 1540.88 203.792C1539.61 202.167 1538.71 200 1537.99 197.472C1537.26 194.944 1536.9 191.875 1536.9 188.444C1536.9 184.833 1537.26 181.944 1537.99 179.417C1538.71 176.889 1539.79 174.722 1540.88 173.097C1542.14 171.472 1543.4 170.208 1545.03 169.486C1546.65 168.764 1548.1 168.403 1549.72 168.403C1551.71 168.403 1553.69 169.125 1555.68 170.389C1557.67 171.653 1559.29 173.639 1560.38 176.347H1566.51V157.75H1576.26V207.764H1566.51V195.667ZM1549.72 206.139C1550.26 206.139 1550.63 205.958 1550.99 205.417C1551.35 205.056 1551.71 204.153 1551.89 202.889C1552.07 201.625 1552.25 200 1552.25 197.653C1552.25 195.306 1552.43 192.417 1552.43 188.625C1552.43 185.014 1552.43 181.944 1552.25 179.778C1552.25 177.431 1552.07 175.806 1551.89 174.542C1551.71 173.278 1551.35 172.556 1550.99 172.194C1550.63 171.833 1550.26 171.472 1549.72 171.472C1549.18 171.472 1548.82 171.653 1548.46 172.194C1548.1 172.556 1547.92 173.458 1547.74 174.542C1547.56 175.806 1547.38 177.611 1547.38 179.778C1547.38 182.125 1547.19 185.014 1547.19 188.625C1547.19 192.417 1547.19 195.306 1547.38 197.653C1547.38 200 1547.56 201.625 1547.74 202.889C1547.92 204.153 1548.28 205.056 1548.46 205.417C1549 205.958 1549.36 206.139 1549.72 206.139ZM1566.51 192.958V179.236H1561.46C1562.18 181.944 1562.72 185.014 1562.72 188.625C1562.72 189.347 1562.72 190.069 1562.72 190.792C1562.72 191.514 1562.54 192.056 1562.54 192.778H1566.51V192.958ZM1592.33 172.736C1592.33 167.861 1593.78 163.889 1596.67 161.181C1599.56 158.472 1603.89 157.208 1609.49 157.208C1615.08 157.208 1619.42 158.472 1622.31 161.181C1625.19 163.889 1626.64 167.681 1626.64 172.736C1626.64 177.611 1625.19 181.403 1622.31 184.292C1619.42 187 1615.08 188.264 1609.49 188.264C1603.89 188.264 1599.56 187 1596.67 184.292C1593.78 181.403 1592.33 177.611 1592.33 172.736ZM1631.15 157.75H1644.33V197.472H1631.15V157.75ZM1609.49 186.097C1610.39 186.097 1610.93 185.917 1611.47 185.375C1612.01 184.833 1612.38 184.111 1612.74 183.028C1613.1 181.944 1613.28 180.681 1613.46 178.875C1613.64 177.25 1613.64 175.083 1613.64 172.556C1613.64 170.028 1613.64 168.042 1613.46 166.417C1613.28 164.792 1613.1 163.347 1612.74 162.264C1612.38 161.181 1612.01 160.458 1611.47 159.917C1610.93 159.375 1610.21 159.194 1609.49 159.194C1608.76 159.194 1608.04 159.375 1607.5 159.917C1606.96 160.458 1606.6 161.181 1606.24 162.264C1605.88 163.347 1605.69 164.611 1605.51 166.417C1605.33 168.042 1605.33 170.208 1605.33 172.556C1605.33 174.903 1605.33 177.069 1605.51 178.875C1605.69 180.5 1605.88 181.944 1606.24 183.028C1606.6 184.111 1606.96 184.833 1607.5 185.375C1608.04 185.736 1608.76 186.097 1609.49 186.097ZM1606.78 190.431V203.25C1606.78 203.792 1606.96 204.153 1607.14 204.514C1607.5 204.875 1607.86 205.056 1608.4 205.056H1644.51V207.764H1600.28C1598.29 207.764 1596.67 207.222 1595.4 205.958C1594.14 204.694 1593.6 203.25 1593.6 201.264V190.611H1606.78V190.431ZM1668.71 160.639H1649.03V157.931H1678.64C1679.54 157.931 1680.44 158.292 1680.99 158.833C1681.53 159.375 1681.89 160.278 1681.89 161.181V181.403H1668.89V160.639H1668.71ZM1647.94 185.556H1652.64V169.667H1665.82V184.472C1665.82 185.194 1666.18 185.556 1666.9 185.556H1674.49C1676.47 185.556 1678.28 185.556 1680.08 185.375C1681.89 185.194 1683.51 184.833 1684.6 184.472V157.931H1697.78V174.722H1702.47V177.972H1697.78V197.653H1684.6V187.361C1683.33 187.722 1681.71 188.083 1679.9 188.264C1678.1 188.444 1676.11 188.444 1674.13 188.444H1647.94V185.556ZM1661.85 191.333V203.431C1661.85 203.972 1662.03 204.333 1662.21 204.694C1662.57 205.056 1662.93 205.236 1663.47 205.236H1697.96V207.944H1655.35C1654.44 207.944 1653.54 207.764 1652.64 207.403C1651.92 207.042 1651.19 206.5 1650.47 205.778C1649.93 205.056 1649.57 204.333 1649.21 203.431C1648.85 202.528 1648.67 201.625 1648.67 200.722V191.514H1661.85V191.333Z" fill="#383448"/>
<path d="M748.056 941L756.542 735.528C756.903 728.486 755.097 721.445 751.306 715.306L695.153 623.042C690.097 614.556 688.653 604.445 691.181 594.875L736.5 427.861C741.736 408.903 730.542 389.042 711.583 383.806L210.722 241.347C191.222 235.75 171 247.306 165.945 266.986L6.15291 884.847C0.736248 905.792 15.0001 926.917 36.4862 929.625L216.681 952.556C232.57 954.542 245.208 967 247.736 982.889L248.097 985.597C250.445 1000.76 262.181 1012.86 277.347 1015.57L394.167 1036.33C404.097 1038.14 414.389 1035.61 422.333 1029.47L424.681 1027.67C434.25 1020.44 446.708 1018.28 458.083 1022.07L572.736 1060.53C583.389 1064.14 595.125 1062.51 604.333 1056.19L732.347 969.528C741.736 962.847 747.695 952.375 748.056 941Z" fill="#F3E2DB" stroke="#4C5A51" stroke-width="9.40026"/>
<path d="M290.348 673.055C291.792 673.055 293.056 672.694 294.5 671.972C295.945 671.25 297.028 670.166 298.112 668.903C299.195 667.639 300.098 666.014 300.639 664.028C301.181 662.222 301.542 660.055 301.362 657.708L301.181 653.916L290.528 654.278L290.348 651.569L301 651.208L300.82 646.875L313.82 646.514L314 650.847L325.375 650.486V653.194L313.278 653.555L313.459 657.347C313.639 660.055 312.917 662.403 311.834 664.569C310.57 666.736 308.945 668.541 306.778 670.166C304.612 671.791 302.084 672.875 299.375 673.778C296.487 674.68 293.598 675.222 290.348 675.222V673.055ZM328.806 660.236L319.598 660.597L319.417 657.347L328.625 656.986L328.264 646.875L341.445 646.514L342.348 674.139L329.167 674.5L328.806 660.236ZM312.556 668.361C312.556 666.555 312.917 665.111 314 663.847C315.084 662.583 316.528 662.041 318.334 662.041C320.139 662.041 321.584 662.583 322.667 663.666C323.931 664.75 324.473 666.194 324.473 668C324.473 669.805 323.931 671.25 322.848 672.514C321.764 673.778 320.32 674.319 318.514 674.319C316.709 674.319 315.084 673.778 314 672.694C313.278 671.611 312.556 670.166 312.556 668.361ZM292.334 688.403C292.334 686.778 292.695 685.153 293.598 683.889C294.5 682.625 295.945 681.361 297.931 680.458C299.917 679.555 302.625 678.653 305.695 678.111C308.945 677.569 312.737 677.208 317.25 677.028C321.764 676.847 325.556 677.028 328.806 677.389C332.056 677.75 334.584 678.291 336.75 679.194C338.737 679.916 340.362 681 341.264 682.264C342.348 683.528 342.709 684.972 342.889 686.597C342.889 688.222 342.528 689.847 341.625 691.111C340.723 692.375 339.278 693.639 337.292 694.541C335.306 695.444 332.778 696.347 329.528 696.889C326.278 697.43 322.487 697.791 317.973 697.972C313.459 698.153 309.667 697.972 306.417 697.611C303.167 697.25 300.639 696.708 298.473 695.805C296.487 695.083 294.862 694 293.959 692.736C292.875 691.653 292.334 690.028 292.334 688.403ZM305.334 688.041C305.514 690.75 306.598 692.736 308.764 693.819C310.931 695.083 314 695.625 317.792 695.444C321.584 695.264 324.653 694.541 326.639 693.278C328.806 692.014 329.709 690.028 329.709 687.319C329.709 684.611 328.445 682.625 326.278 681.541C324.112 680.278 321.042 679.736 317.25 679.916C313.459 680.097 310.389 680.819 308.403 682.083C306.237 683.347 305.334 685.333 305.334 688.041ZM347.223 656.805C347.223 655 347.584 653.375 348.487 651.93C349.389 650.486 350.834 649.222 352.82 648.139C354.806 647.055 357.514 646.333 360.764 645.611C364.014 645.069 367.987 644.528 372.681 644.528C377.375 644.347 381.348 644.528 384.598 644.889C387.848 645.25 390.556 645.972 392.542 646.875C394.709 647.778 396.153 648.861 397.056 650.305C398.139 651.75 398.5 653.194 398.681 655C398.862 656.805 398.32 658.43 397.417 659.875C396.514 661.319 395.07 662.583 393.084 663.666C391.098 664.75 388.389 665.472 385.139 666.194C381.889 666.736 377.917 667.097 373.403 667.278C368.709 667.458 364.737 667.278 361.487 666.916C358.237 666.555 355.528 665.833 353.542 664.93C351.556 664.028 349.931 662.944 349.028 661.5C347.764 660.055 347.223 658.611 347.223 656.805ZM360.223 656.264C360.223 657.347 360.584 658.43 361.125 659.333C361.667 660.236 362.57 661.139 363.653 662.041C364.737 662.764 366 663.305 367.625 663.847C369.25 664.208 371.056 664.389 373.042 664.389C375.028 664.389 376.834 664.028 378.459 663.486C380.084 662.944 381.348 662.222 382.431 661.5C383.514 660.597 384.237 659.694 384.778 658.611C385.32 657.528 385.5 656.444 385.5 655.361C385.32 652.472 384.237 650.486 382.07 649.041C379.903 647.597 376.653 647.055 372.681 647.236C368.528 647.416 365.459 648.139 363.292 649.764C361.125 651.389 360.042 653.555 360.223 656.264ZM347.584 672.514L398.862 670.889V673.597L381.709 674.139L382.07 686.055L368.348 686.597L367.987 674.68L347.403 675.403L347.584 672.514ZM361.667 680.278L362.028 691.111C362.028 691.653 362.209 692.014 362.57 692.375C362.931 692.736 363.292 692.736 363.834 692.736L399.403 691.472V694.18L355.709 695.625C353.723 695.625 352.098 695.083 350.834 694C349.57 692.916 349.028 691.291 348.848 689.305L348.487 680.639L361.667 680.278ZM422.153 646.514L402.473 647.236L402.292 644.528L431.903 643.625C432.806 643.625 433.709 643.805 434.25 644.528C434.792 645.069 435.153 645.972 435.153 646.875L435.875 667.097L422.875 667.458L422.153 646.514ZM402.112 672.153L406.806 671.972L406.264 656.083L419.445 655.722L419.987 670.528C419.987 671.25 420.348 671.611 421.07 671.611L428.653 671.43C430.639 671.43 432.445 671.25 434.25 671.069C436.056 670.889 437.5 670.528 438.764 669.986L437.862 643.444L451.042 643.083L451.584 659.875L456.278 659.694L456.459 662.944L451.764 663.125L452.487 682.805L439.306 683.166L438.945 672.875C437.681 673.416 436.056 673.778 434.25 673.958C432.445 674.139 430.459 674.319 428.473 674.319L402.473 675.222L402.112 672.153ZM416.375 677.389L416.737 689.305C416.737 689.847 416.917 690.208 417.278 690.569C417.639 690.93 418 690.93 418.542 690.93L453.028 689.847V692.555L410.417 694C409.514 694 408.612 693.819 407.709 693.458C406.987 693.097 406.264 692.555 405.542 692.014C405 691.472 404.459 690.75 404.098 689.847C403.737 688.944 403.556 688.041 403.556 687.139L403.195 677.93L416.375 677.389Z" fill="#383448"/>
<path d="M1812.79 2373.89C1812.25 2372.26 1812.07 2370.64 1812.43 2369.01C1812.79 2367.39 1813.88 2365.76 1815.32 2364.14C1816.94 2362.51 1819.11 2360.89 1822 2359.44C1824.89 2357.82 1828.5 2356.19 1832.83 2354.75C1837.17 2353.12 1840.96 2352.04 1844.21 2351.5C1847.46 2350.78 1850.17 2350.6 1852.51 2350.96C1854.68 2351.14 1856.49 2351.86 1857.93 2352.76C1859.38 2353.67 1860.28 2355.11 1860.82 2356.74C1861.36 2358.36 1861.54 2359.99 1861.18 2361.61C1860.82 2363.24 1859.74 2364.86 1858.11 2366.49C1856.49 2368.11 1854.32 2369.74 1851.43 2371.18C1848.54 2372.81 1844.93 2374.25 1840.6 2375.87C1836.26 2377.5 1832.47 2378.58 1829.22 2379.31C1825.97 2379.85 1823.26 2380.21 1820.92 2379.85C1818.75 2379.67 1816.94 2378.94 1815.5 2378.04C1814.42 2376.96 1813.33 2375.51 1812.79 2373.89ZM1825.07 2369.37C1825.43 2370.46 1825.97 2371.36 1826.88 2372.08C1827.78 2372.81 1828.86 2373.35 1830.13 2373.89C1831.39 2374.25 1832.83 2374.43 1834.46 2374.43C1836.08 2374.25 1837.89 2373.89 1839.88 2373.17C1841.86 2372.44 1843.49 2371.72 1844.75 2370.64C1846.01 2369.74 1847.1 2368.65 1847.82 2367.57C1848.54 2366.49 1848.9 2365.22 1849.08 2364.14C1849.26 2363.06 1849.08 2361.97 1848.72 2360.89C1847.82 2358.18 1846.01 2356.56 1843.49 2356.01C1840.96 2355.47 1837.71 2355.83 1833.92 2357.1C1830.13 2358.54 1827.42 2360.17 1825.79 2362.33C1824.35 2364.32 1823.99 2366.67 1825.07 2369.37ZM1818.21 2389.24L1866.6 2371.72L1867.5 2374.25L1819.11 2391.76L1818.21 2389.24ZM1833.74 2391.76L1837.35 2402.06C1837.53 2402.42 1837.71 2402.78 1838.07 2403.14C1838.43 2403.32 1838.97 2403.32 1839.33 2403.14L1872.74 2391.04L1873.64 2393.57L1832.47 2408.37C1830.67 2409.1 1828.86 2408.92 1827.42 2408.19C1825.97 2407.47 1824.71 2406.21 1824.17 2404.4L1821.28 2396.28L1833.74 2391.76ZM1870.03 2367.21C1872.56 2366.31 1874.9 2365.04 1876.71 2363.78C1878.51 2362.33 1879.96 2360.53 1881.04 2358.72C1882.13 2356.74 1882.67 2354.57 1882.67 2352.04C1882.67 2349.51 1882.13 2346.62 1881.04 2343.56L1880.14 2341.21L1863.71 2347.17L1862.81 2344.64L1909.03 2327.85L1909.93 2330.37L1893.32 2336.33L1894.22 2338.68C1895.67 2342.65 1896.03 2346.26 1895.31 2349.51C1894.58 2352.58 1892.96 2355.47 1890.61 2358C1888.26 2360.35 1885.38 2362.69 1881.76 2364.5C1878.33 2366.31 1874.54 2367.93 1870.57 2369.37L1870.03 2367.21ZM1901.99 2350.42C1901.26 2348.43 1901.26 2346.62 1901.99 2345C1902.71 2343.37 1904.15 2342.11 1906.14 2341.39C1908.13 2340.67 1909.93 2340.67 1911.56 2341.57C1913.18 2342.29 1914.26 2343.74 1914.99 2345.54C1915.71 2347.53 1915.71 2349.33 1914.99 2350.96C1914.26 2352.58 1912.82 2353.67 1911.01 2354.39C1909.03 2355.11 1907.22 2355.11 1905.42 2354.39C1903.97 2353.85 1902.71 2352.58 1901.99 2350.42ZM1872.92 2374.97L1921.31 2357.46L1922.21 2359.99L1904.51 2366.49L1909.57 2380.75L1896.75 2385.44L1891.69 2371.18L1874 2377.68L1872.92 2374.97ZM1939.9 2323.15L1933.4 2330.37L1930.15 2328.21L1938.64 2318.28L1950.56 2313.94L1966.81 2358.72L1954.53 2363.24L1939.9 2323.15ZM1978.54 2305.64L1959.94 2312.32L1959.04 2309.79L1986.85 2299.68C1987.75 2299.32 1988.65 2299.32 1989.38 2299.86C1990.1 2300.22 1990.64 2300.76 1991 2301.85L1997.86 2320.99L1985.58 2325.5L1978.54 2305.64ZM1967.53 2336.15L1971.86 2334.53L1966.44 2319.54L1978.72 2315.03L1983.78 2328.93C1983.96 2329.65 1984.5 2329.83 1985.22 2329.65L1992.44 2327.12C1994.25 2326.4 1996.06 2325.68 1997.68 2324.96C1999.31 2324.24 2000.75 2323.33 2001.65 2322.43L1992.63 2297.51L2004.9 2293L2010.68 2308.71L2015.01 2307.08L2016.1 2310.15L2011.76 2311.78L2018.44 2330.19L2006.17 2334.71L2002.56 2324.96C2001.47 2325.86 2000.21 2326.58 1998.4 2327.49C1996.78 2328.21 1994.97 2328.93 1992.99 2329.65L1968.43 2338.5L1967.53 2336.15ZM1982.69 2336.87L1986.85 2348.07C1987.03 2348.43 1987.21 2348.79 1987.57 2348.97C1987.93 2349.15 1988.47 2349.15 1988.83 2348.97L2021.33 2337.24L2022.24 2339.76L1982.15 2354.21C1981.25 2354.57 1980.35 2354.57 1979.44 2354.57C1978.54 2354.57 1977.82 2354.21 1976.92 2353.85C1976.19 2353.49 1975.47 2352.94 1974.93 2352.22C1974.39 2351.5 1973.85 2350.78 1973.49 2349.87L1970.24 2341.21L1982.69 2336.87Z" fill="#383448"/>
<path d="M2527.07 1288.93C2527.07 1287.12 2527.61 1285.5 2528.51 1284.24C2529.42 1282.79 2530.86 1281.71 2533.03 1280.62C2535.01 1279.72 2537.72 1278.82 2540.97 1278.46C2544.22 1277.92 2548.2 1277.74 2552.89 1277.74C2557.58 1277.74 2561.56 1277.92 2564.81 1278.46C2568.06 1279 2570.76 1279.72 2572.75 1280.62C2574.74 1281.53 2576.36 1282.79 2577.26 1284.24C2578.17 1285.68 2578.71 1287.12 2578.71 1288.93C2578.71 1290.74 2578.17 1292.36 2577.26 1293.62C2576.36 1295.07 2574.92 1296.15 2572.75 1297.24C2570.76 1298.14 2568.06 1298.86 2564.81 1299.4C2561.56 1299.94 2557.58 1300.12 2552.89 1300.12C2548.2 1300.12 2544.22 1299.94 2540.97 1299.4C2537.72 1298.86 2535.01 1298.14 2533.03 1297.24C2531.04 1296.33 2529.6 1295.07 2528.51 1293.62C2527.43 1292.18 2527.07 1290.74 2527.07 1288.93ZM2540.07 1288.93C2540.07 1290.01 2540.25 1291.1 2540.79 1292C2541.33 1292.9 2542.24 1293.99 2543.14 1294.71C2544.22 1295.43 2545.49 1296.15 2547.11 1296.69C2548.74 1297.24 2550.54 1297.42 2552.53 1297.42C2554.51 1297.42 2556.32 1297.24 2557.95 1296.69C2559.57 1296.15 2560.83 1295.61 2561.92 1294.71C2563 1293.81 2563.72 1292.9 2564.26 1292C2564.81 1290.92 2565.17 1289.83 2565.17 1288.93C2565.17 1286.04 2564.08 1283.87 2561.92 1282.43C2559.75 1280.99 2556.68 1280.26 2552.53 1280.26C2548.38 1280.26 2545.31 1280.99 2543.14 1282.43C2541.15 1283.87 2540.07 1286.04 2540.07 1288.93ZM2527.07 1305.18H2578.35V1307.89H2527.07V1305.18ZM2540.61 1312.94V1323.78C2540.61 1324.32 2540.79 1324.68 2540.97 1325.04C2541.33 1325.4 2541.7 1325.58 2542.24 1325.58H2577.81V1328.29H2534.11C2532.13 1328.29 2530.5 1327.75 2529.42 1326.49C2528.15 1325.22 2527.61 1323.78 2527.61 1321.79V1313.12H2540.61V1312.94ZM2583.04 1302.29C2585.75 1302.29 2588.28 1301.93 2590.63 1301.21C2592.79 1300.49 2594.78 1299.4 2596.4 1297.96C2598.03 1296.51 2599.29 1294.53 2600.2 1292.18C2601.1 1289.83 2601.64 1286.94 2601.64 1283.69V1281.17H2584.13V1278.46H2633.42V1281.17H2615.9V1283.69C2615.9 1288.03 2615 1291.46 2613.2 1294.17C2611.39 1296.87 2609.04 1299.04 2605.97 1300.49C2602.9 1301.93 2599.47 1303.01 2595.5 1303.56C2591.53 1304.1 2587.56 1304.46 2583.22 1304.46V1302.29H2583.04ZM2618.97 1297.24C2618.97 1295.25 2619.51 1293.44 2620.78 1292.18C2622.04 1290.92 2623.85 1290.19 2626.01 1290.19C2628 1290.19 2629.81 1290.92 2631.07 1292.18C2632.33 1293.44 2633.06 1295.07 2633.06 1297.24C2633.06 1299.4 2632.33 1301.03 2631.07 1302.29C2629.81 1303.56 2628.18 1304.28 2626.01 1304.28C2623.85 1304.28 2622.22 1303.56 2620.78 1302.29C2619.51 1301.03 2618.97 1299.4 2618.97 1297.24ZM2583.04 1310.42H2634.32V1313.12H2615.54V1328.29H2601.82V1313.12H2583.04V1310.42ZM2652.92 1321.97C2652.92 1319.26 2653.46 1316.92 2654.54 1314.93C2655.63 1312.94 2657.07 1311.32 2658.88 1309.87C2660.5 1308.43 2662.49 1306.99 2664.47 1305.9C2666.46 1304.64 2668.26 1303.37 2670.07 1302.11C2671.88 1300.85 2673.14 1299.4 2674.22 1297.78C2675.31 1296.15 2675.85 1294.35 2675.85 1292.18C2675.85 1288.03 2675.49 1284.96 2674.58 1283.15C2673.86 1281.35 2672.6 1280.44 2670.79 1280.44C2669.17 1280.44 2667.9 1281.35 2667.18 1283.15C2666.46 1284.96 2665.92 1288.03 2665.92 1292.36H2652.74C2652.74 1290.01 2653.1 1288.03 2654 1286.04C2654.9 1284.24 2656.17 1282.61 2657.79 1281.53C2659.42 1280.26 2661.22 1279.36 2663.39 1278.64C2665.56 1277.92 2668.08 1277.74 2670.79 1277.74C2673.5 1277.74 2675.85 1278.1 2678.01 1278.64C2680.18 1279.36 2682.17 1280.26 2683.79 1281.53C2685.42 1282.79 2686.68 1284.24 2687.58 1286.04C2688.49 1287.85 2689.03 1290.01 2689.03 1292.36C2689.03 1295.25 2688.49 1297.6 2687.22 1299.58C2686.14 1301.57 2684.7 1303.19 2683.07 1304.64C2681.45 1306.08 2679.46 1307.35 2677.47 1308.43C2675.49 1309.51 2673.68 1310.78 2671.88 1312.04C2670.25 1313.31 2668.81 1314.75 2667.54 1316.19C2666.46 1317.82 2665.92 1319.81 2665.92 1322.15V1324.5H2688.31V1327.21H2652.74V1321.97H2652.92ZM2712.86 1280.99H2693.18V1278.28H2722.79C2723.7 1278.28 2724.6 1278.64 2725.14 1279.18C2725.68 1279.72 2726.04 1280.62 2726.04 1281.53V1301.75H2713.04V1280.99H2712.86ZM2692.1 1306.08H2696.79V1290.19H2709.97V1305C2709.97 1305.72 2710.33 1306.08 2711.06 1306.08H2718.64C2720.63 1306.08 2722.43 1306.08 2724.24 1305.9C2726.04 1305.72 2727.49 1305.36 2728.75 1305V1278.46H2741.93V1295.25H2746.63V1298.5H2741.93V1318.18H2728.75V1307.89C2727.49 1308.25 2725.86 1308.61 2724.06 1308.79C2722.25 1308.97 2720.26 1308.97 2718.28 1308.97H2692.1V1306.08ZM2706 1311.86V1323.96C2706 1324.5 2706.18 1324.86 2706.36 1325.22C2706.72 1325.58 2707.08 1325.76 2707.63 1325.76H2742.11V1328.47H2699.5C2698.42 1328.47 2697.51 1328.29 2696.79 1327.93C2696.07 1327.57 2695.35 1327.03 2694.63 1326.31C2694.08 1325.58 2693.54 1324.86 2693.36 1323.96C2693 1323.06 2692.82 1322.15 2692.82 1321.25V1312.04H2706V1311.86Z" fill="#383448"/>
<path d="M178.945 1267.62L562.264 1218.87C572.556 1217.61 582.306 1223.93 585.195 1233.86L598.014 1277.38C600.723 1286.58 609.389 1292.9 618.959 1292.54L654.348 1291.28C664.098 1290.92 672.764 1297.24 675.473 1306.63L735.237 1519.14C737.403 1526.72 735.056 1535.03 729.278 1540.44L714.653 1553.99C709.598 1558.68 707.07 1565.54 708.153 1572.4L794.278 2209.4C794.278 2210.12 794.459 2210.85 794.459 2211.57C794.82 2224.75 807.278 2234.32 820.098 2231.43L833.459 2228.54C845.014 2226.01 856.389 2233.42 858.737 2244.97L905.5 2475C907.848 2486.56 900.264 2497.93 888.528 2500.1L877.334 2502.08C866.139 2504.07 858.556 2514.72 860.181 2525.92L922.473 2948.78C924.098 2960.33 916.153 2971.17 904.598 2972.79L619.139 3014.14C607.945 3015.76 597.473 3008.18 595.306 2996.99L542.584 2716.04C540.959 2707.56 534.278 2700.69 525.792 2699.25L485.528 2691.49C476.862 2689.86 470 2682.82 468.556 2674.15L385.681 2159.93C383.695 2147.65 392.723 2136.28 405.181 2135.37L428.112 2133.93C440.931 2133.03 450.139 2120.93 447.431 2108.47L390.737 1842.33C388.57 1832.4 379.723 1825.36 369.612 1825.54L251.348 1827.71C240.514 1827.89 231.487 1819.94 230.042 1809.47L160.709 1291.46C159.084 1279.9 167.209 1269.25 178.945 1267.62Z" fill="#F3E2DB" stroke="#4C5A51" stroke-width="9.40026"/>
<path d="M595.125 2442.5C594.042 2443.04 592.597 2443.58 591.153 2443.76C589.708 2444.12 588.264 2444.31 586.819 2444.31L577.431 2444.67C575.444 2444.67 573.819 2444.13 572.556 2443.04C571.292 2441.96 570.75 2440.33 570.569 2438.35L569.125 2395.56L591.333 2394.83L591.514 2397.54L581.403 2397.9L582.847 2440.15C582.847 2440.69 583.028 2441.06 583.389 2441.24C583.75 2441.6 584.111 2441.6 584.653 2441.6H587.361C588.806 2441.6 590.25 2441.42 591.514 2441.06C592.958 2440.69 594.222 2440.33 595.306 2439.79L593.861 2394.83L605.417 2394.47L606.139 2416.32L608.847 2416.14L608.125 2394.29L620.042 2393.93L621.667 2443.76L609.75 2444.13L608.847 2418.85L606.139 2419.03L607.042 2443.76L595.667 2444.13L595.125 2442.5ZM624.194 2404.58C624.014 2400.61 625.458 2397.72 628.167 2395.74C631.056 2393.75 635.389 2392.67 640.986 2392.49C646.583 2392.31 650.917 2393.03 653.986 2394.83C657.056 2396.64 658.5 2399.53 658.681 2403.32C658.861 2407.29 657.417 2410.18 654.528 2412.17C651.639 2414.15 647.486 2415.24 641.708 2415.42C636.111 2415.6 631.778 2414.87 628.708 2413.07C626 2411.44 624.375 2408.56 624.194 2404.58ZM662.653 2392.49L675.833 2392.12L676.556 2414.69L663.375 2415.06L662.653 2392.49ZM641.889 2413.61C642.792 2413.61 643.333 2413.43 643.875 2413.07C644.417 2412.71 644.778 2412.17 645.139 2411.44C645.5 2410.72 645.681 2409.64 645.681 2408.56C645.681 2407.29 645.861 2405.85 645.681 2404.22C645.5 2400.79 645.139 2398.44 644.597 2397C644.056 2395.56 642.972 2394.83 641.347 2395.01C639.722 2395.01 638.639 2395.74 638.097 2397.18C637.556 2398.63 637.375 2400.97 637.556 2404.4C637.556 2406.03 637.736 2407.47 637.917 2408.74C638.097 2410 638.278 2410.9 638.639 2411.63C639 2412.35 639.361 2412.89 639.903 2413.25C640.264 2413.43 640.986 2413.61 641.889 2413.61ZM678 2439.25L678.181 2441.96L632.139 2443.4C630.694 2443.4 629.431 2443.04 628.528 2442.32C627.625 2441.6 627.083 2440.69 627.083 2439.43C627.083 2438.17 627.444 2437.08 628.347 2436.36C629.25 2435.64 630.514 2435.1 631.958 2435.1L664.458 2434.01L664.278 2431.12L631.417 2432.21C629.972 2432.21 628.889 2431.85 627.986 2431.12C627.083 2430.4 626.722 2429.32 626.722 2428.24C626.722 2427.15 627.083 2426.07 627.806 2425.35C628.708 2424.44 629.792 2424.08 631.236 2423.9L664.097 2422.82L663.917 2419.93L627.625 2421.19L627.444 2418.49L672.222 2417.04C673.667 2417.04 674.75 2417.4 675.653 2418.13C676.556 2418.85 677.097 2419.75 677.097 2421.01C677.097 2422.28 676.736 2423.18 675.833 2424.08C675.111 2424.81 673.847 2425.35 672.583 2425.35L639.722 2426.43L639.903 2429.32L672.764 2428.24C674.208 2428.24 675.292 2428.6 676.194 2429.32C677.097 2430.04 677.639 2431.13 677.639 2432.21C677.639 2433.29 677.278 2434.38 676.375 2435.28C675.653 2436.18 674.389 2436.54 673.125 2436.54L640.264 2437.63L640.444 2440.51L678 2439.25ZM700.389 2393.93L680.708 2394.65L680.528 2391.94L710.139 2391.04C711.042 2391.04 711.944 2391.22 712.486 2391.94C713.028 2392.49 713.389 2393.39 713.389 2394.29L714.111 2414.51L701.111 2414.87L700.389 2393.93ZM680.347 2419.75L685.042 2419.57L684.5 2403.68L697.681 2403.32L698.222 2418.13C698.222 2418.85 698.583 2419.21 699.306 2419.21L706.889 2419.03C708.875 2419.03 710.681 2418.85 712.486 2418.67C714.292 2418.31 715.736 2418.12 717 2417.58L716.097 2391.04L729.278 2390.68L729.819 2407.47L734.514 2407.29L734.694 2410.54L730 2410.72L730.722 2430.4L717.542 2430.76L717.181 2420.47C715.917 2421.01 714.292 2421.38 712.486 2421.56C710.681 2421.74 708.694 2421.92 706.708 2421.92L680.708 2422.82L680.347 2419.75ZM694.611 2424.99L694.972 2436.9C694.972 2437.44 695.153 2437.81 695.514 2438.17C695.875 2438.53 696.236 2438.53 696.778 2438.53L731.264 2437.44V2440.15L688.653 2441.6C687.75 2441.6 686.847 2441.42 685.944 2441.06C685.222 2440.69 684.5 2440.33 683.778 2439.61C683.236 2439.07 682.694 2438.17 682.333 2437.44C681.972 2436.54 681.792 2435.64 681.792 2434.74L681.431 2425.53L694.611 2424.99Z" fill="#383448"/>
<path d="M395.25 1503.43L408.431 1503.07L408.792 1516.25L413.486 1516.07L413.667 1519.32L408.972 1519.5L409.334 1532.86L396.153 1533.22L395.25 1503.43ZM360.042 1531.24C361.306 1531.24 362.57 1530.88 363.834 1530.15C365.097 1529.43 366.181 1528.35 367.084 1527.08C367.986 1525.82 368.889 1524.19 369.431 1522.21C369.972 1520.4 370.334 1518.24 370.153 1515.89L369.792 1504.33L382.07 1503.97L382.431 1515.53C382.611 1518.24 382.07 1520.58 380.806 1522.75C379.722 1524.92 378.097 1526.72 375.931 1528.35C373.945 1529.79 371.597 1531.06 368.709 1531.96C366 1532.86 363.111 1533.22 359.861 1533.4L360.042 1531.24ZM382.25 1526.36C382.25 1524.56 382.611 1523.11 383.695 1521.85C384.778 1520.58 386.222 1520.04 388.028 1520.04C389.834 1520.04 391.278 1520.58 392.542 1521.67C393.806 1522.75 394.347 1524.19 394.347 1526C394.347 1527.81 393.806 1529.25 392.722 1530.51C391.639 1531.6 390.195 1532.32 388.389 1532.32C386.584 1532.32 385.139 1531.96 383.875 1530.88C382.972 1529.79 382.25 1528.35 382.25 1526.36ZM361.486 1545.5C361.486 1543.88 361.847 1542.43 362.75 1541.17C363.653 1539.9 365.097 1538.82 366.903 1537.92C368.889 1537.01 371.417 1536.29 374.306 1535.75C377.375 1535.21 380.986 1534.85 385.139 1534.67C389.292 1534.49 393.084 1534.67 396.153 1535.03C399.222 1535.39 401.75 1535.93 403.736 1536.65C405.722 1537.38 407.167 1538.46 408.25 1539.72C409.153 1540.99 409.695 1542.25 409.875 1543.88C409.875 1545.5 409.514 1546.94 408.611 1548.21C407.709 1549.47 406.264 1550.56 404.459 1551.46C402.472 1552.36 400.125 1553.08 397.056 1553.63C393.986 1554.17 390.375 1554.53 386.222 1554.71C382.07 1554.89 378.278 1554.71 375.209 1554.35C372.139 1553.99 369.611 1553.44 367.625 1552.72C365.639 1552 364.195 1550.92 363.111 1549.83C362.028 1548.57 361.486 1547.13 361.486 1545.5ZM374.667 1545.14C374.667 1546.22 375.028 1547.31 375.57 1548.21C376.111 1549.11 377.014 1549.83 377.917 1550.38C379 1550.92 380.084 1551.46 381.528 1551.64C382.972 1552 384.417 1552 386.042 1552C387.667 1552 389.292 1551.64 390.556 1551.28C391.82 1550.92 393.084 1550.38 393.986 1549.65C394.889 1549.11 395.611 1548.21 396.153 1547.31C396.695 1546.4 396.875 1545.32 396.875 1544.24C396.875 1543.15 396.514 1542.07 395.972 1541.17C395.431 1540.26 394.709 1539.54 393.625 1539C392.542 1538.46 391.459 1537.92 390.014 1537.74C388.57 1537.38 387.125 1537.38 385.5 1537.38C383.875 1537.38 382.431 1537.74 380.986 1538.1C379.722 1538.46 378.459 1539 377.556 1539.72C376.653 1540.26 375.931 1541.17 375.389 1542.07C374.847 1542.97 374.486 1543.88 374.667 1545.14ZM418 1522.57C420.709 1522.57 423.236 1522.03 425.403 1521.13C427.57 1520.22 429.556 1519.14 431 1517.88C432.625 1516.43 433.709 1514.99 434.611 1513.18C435.514 1511.38 435.875 1509.39 435.875 1507.4L435.695 1501.99L449.778 1501.44L449.959 1506.86C450.139 1509.75 449.236 1512.46 447.611 1514.63C445.986 1516.79 443.639 1518.6 440.75 1520.04C437.861 1521.49 434.431 1522.57 430.459 1523.29C426.486 1524.01 422.514 1524.56 418.181 1524.74L418 1522.57ZM459.709 1523.29C457.542 1523.29 455.917 1522.75 454.472 1521.49C453.209 1520.22 452.486 1518.6 452.486 1516.43C452.486 1514.44 453.028 1512.64 454.292 1511.38C455.556 1510.11 457.181 1509.39 459.347 1509.39C461.334 1509.39 463.139 1509.93 464.403 1511.19C465.667 1512.46 466.389 1514.08 466.389 1516.07C466.389 1518.24 465.847 1519.86 464.584 1521.31C463.32 1522.57 461.695 1523.29 459.709 1523.29ZM417.82 1528.35L469.097 1526.72V1529.43L417.82 1531.06V1528.35ZM418.903 1543.88C418.903 1542.25 419.264 1540.81 420.167 1539.54C421.07 1538.28 422.514 1537.19 424.5 1536.29C426.486 1535.39 429.014 1534.67 432.264 1534.13C435.514 1533.58 439.306 1533.22 443.82 1533.04C448.334 1532.86 452.125 1533.04 455.375 1533.22C458.625 1533.58 461.153 1534.13 463.139 1534.85C465.125 1535.57 466.75 1536.47 467.653 1537.74C468.556 1539 469.097 1540.26 469.278 1541.89C469.278 1543.51 468.917 1544.96 468.014 1546.22C467.111 1547.49 465.667 1548.57 463.681 1549.47C461.695 1550.38 459.167 1551.1 455.917 1551.64C452.847 1552.18 448.875 1552.54 444.361 1552.72C439.847 1552.9 436.056 1552.72 432.806 1552.54C429.556 1552.18 427.028 1551.64 425.042 1550.92C423.056 1550.19 421.611 1549.29 420.528 1548.03C419.445 1546.94 419.084 1545.5 418.903 1543.88ZM432.084 1543.33C432.084 1545.86 433.167 1547.67 435.334 1548.57C437.5 1549.65 440.389 1550.01 444.361 1550.01C448.153 1549.83 451.222 1549.29 453.209 1548.03C455.195 1546.94 456.278 1545.14 456.097 1542.61C456.097 1540.08 454.834 1538.46 452.847 1537.38C450.681 1536.29 447.792 1535.93 444 1535.93C440.209 1536.11 437.139 1536.65 435.153 1537.92C432.986 1539.18 431.903 1540.99 432.084 1543.33ZM492.389 1502.89L472.709 1503.61V1500.9L502.32 1500C503.222 1500 504.125 1500.18 504.667 1500.9C505.209 1501.44 505.57 1502.35 505.57 1503.25L506.292 1523.47L493.292 1523.83L492.389 1502.89ZM472.347 1528.53L477.042 1528.35L476.5 1512.64L489.681 1512.28L490.222 1527.08C490.222 1527.81 490.584 1528.17 491.306 1528.17L498.889 1527.99C500.875 1527.99 502.681 1527.81 504.486 1527.63C506.292 1527.44 507.736 1527.08 509 1526.54L508.097 1500L521.278 1499.64L521.82 1516.43L526.514 1516.25L526.695 1519.5L522 1519.68L522.722 1539.36L509.542 1539.72L509 1528.89C507.736 1529.43 506.111 1529.79 504.306 1529.97C502.5 1530.15 500.514 1530.33 498.528 1530.33L472.528 1531.24L472.347 1528.53ZM486.611 1533.94L486.972 1545.86C486.972 1546.4 487.153 1546.76 487.514 1546.94C487.875 1547.31 488.236 1547.31 488.778 1547.31L523.264 1546.22V1548.93L480.653 1550.38C479.75 1550.38 478.847 1550.19 477.945 1549.83C477.222 1549.47 476.5 1548.93 475.778 1548.39C475.236 1547.85 474.695 1546.94 474.334 1546.22C473.972 1545.32 473.792 1544.42 473.792 1543.51L473.431 1534.31L486.611 1533.94Z" fill="#383448"/>
<rect x="1171" y="2364.01" width="273.917" height="84.5008" rx="42.2504" transform="rotate(-20.6025 1171 2364.01)" fill="#D5D4DF" stroke="black" stroke-width="1.80556"/>
<path d="M1268.61 2367.99C1269.98 2367.47 1271.18 2366.84 1272.19 2366.09C1273.23 2365.33 1274.07 2364.5 1274.71 2363.6C1275.34 2362.67 1275.76 2361.71 1275.97 2360.7C1276.2 2359.68 1276.2 2358.65 1275.95 2357.62L1266.55 2361.15L1266 2359.67L1275.46 2356.11L1274.46 2353.44L1282.57 2350.39L1283.57 2353.07L1292.65 2349.65L1293.21 2351.13L1283.61 2354.74C1283.96 2356.25 1283.81 2357.7 1283.16 2359.1C1282.52 2360.46 1281.53 2361.76 1280.17 2362.98C1278.84 2364.19 1277.21 2365.32 1275.27 2366.36C1273.34 2367.41 1271.27 2368.35 1269.06 2369.18L1268.61 2367.99ZM1287.21 2359.23C1286.82 2358.18 1286.82 2357.21 1287.22 2356.32C1287.64 2355.41 1288.39 2354.74 1289.49 2354.33C1290.54 2353.94 1291.51 2353.95 1292.4 2354.37C1293.29 2354.78 1293.93 2355.5 1294.33 2356.55C1294.73 2357.63 1294.73 2358.62 1294.34 2359.52C1293.94 2360.41 1293.21 2361.05 1292.16 2361.45C1291.07 2361.86 1290.07 2361.87 1289.16 2361.47C1288.26 2361.05 1287.62 2360.3 1287.21 2359.23ZM1270 2372.09L1280.66 2368.08L1279.35 2364.61L1286.76 2361.82L1287.84 2364.72C1287.99 2365.11 1288.26 2365.23 1288.64 2365.08L1297.82 2361.63L1298.37 2363.12L1270.56 2373.57L1270 2372.09ZM1273.1 2380.33C1272.79 2379.49 1272.76 2378.67 1273.02 2377.86C1273.29 2377.02 1273.9 2376.19 1274.83 2375.35C1275.78 2374.48 1277.09 2373.6 1278.77 2372.73C1280.47 2371.84 1282.57 2370.93 1285.08 2369.98C1287.59 2369.04 1289.77 2368.34 1291.61 2367.9C1293.47 2367.44 1295.04 2367.24 1296.3 2367.27C1297.58 2367.28 1298.58 2367.52 1299.32 2367.98C1300.07 2368.41 1300.6 2369.04 1300.91 2369.87C1301.23 2370.71 1301.24 2371.54 1300.96 2372.35C1300.71 2373.18 1300.11 2374.02 1299.15 2374.87C1298.22 2375.71 1296.9 2376.57 1295.2 2377.46C1293.53 2378.33 1291.43 2379.24 1288.92 2380.19C1286.41 2381.13 1284.22 2381.83 1282.36 2382.29C1280.52 2382.73 1278.96 2382.95 1277.68 2382.94C1276.43 2382.92 1275.42 2382.69 1274.67 2382.24C1273.94 2381.8 1273.42 2381.17 1273.1 2380.33ZM1280.18 2377.67C1280.66 2378.93 1281.58 2379.63 1282.95 2379.75C1284.33 2379.89 1286.13 2379.55 1288.36 2378.71C1290.59 2377.87 1292.18 2376.94 1293.12 2375.93C1294.07 2374.93 1294.31 2373.8 1293.83 2372.54C1293.35 2371.25 1292.42 2370.54 1291.05 2370.42C1289.68 2370.28 1287.87 2370.63 1285.64 2371.46C1283.41 2372.3 1281.82 2373.23 1280.88 2374.25C1279.93 2375.24 1279.7 2376.38 1280.18 2377.67ZM1300.3 2360.4L1310.67 2356.51L1309.47 2353.32L1302.94 2355.78C1301.86 2356.18 1300.88 2356.18 1300 2355.78C1299.11 2355.38 1298.47 2354.64 1298.07 2353.57L1295.33 2346.29L1321.82 2336.34L1322.38 2337.82L1303 2345.1L1305.63 2352.09C1305.72 2352.34 1305.88 2352.53 1306.09 2352.64C1306.32 2352.73 1306.56 2352.72 1306.82 2352.63L1325.78 2345.5L1326.34 2346.98L1316.87 2350.54L1317.84 2353.11C1318 2353.52 1318.27 2353.65 1318.65 2353.51L1328.12 2349.95L1328.67 2351.43L1300.86 2361.89L1300.3 2360.4ZM1303.39 2368.61C1303.08 2367.78 1303.05 2366.95 1303.31 2366.15C1303.58 2365.31 1304.18 2364.47 1305.12 2363.63C1306.07 2362.78 1307.39 2361.92 1309.07 2361.04C1310.77 2360.16 1312.87 2359.24 1315.38 2358.3C1317.89 2357.36 1320.07 2356.66 1321.91 2356.21C1323.77 2355.76 1325.33 2355.54 1326.59 2355.56C1327.86 2355.57 1328.87 2355.8 1329.61 2356.26C1330.35 2356.69 1330.89 2357.32 1331.2 2358.16C1331.52 2359 1331.53 2359.82 1331.25 2360.64C1331 2361.47 1330.4 2362.31 1329.44 2363.15C1328.52 2364.02 1327.2 2364.89 1325.5 2365.77C1323.83 2366.65 1321.73 2367.56 1319.22 2368.5C1316.71 2369.45 1314.52 2370.15 1312.66 2370.6C1310.82 2371.05 1309.26 2371.26 1307.97 2371.23C1306.72 2371.21 1305.71 2370.97 1304.95 2370.52C1304.23 2370.09 1303.7 2369.45 1303.39 2368.61ZM1310.47 2365.95C1310.96 2367.24 1311.88 2367.94 1313.25 2368.07C1314.63 2368.21 1316.43 2367.86 1318.66 2367.02C1320.89 2366.18 1322.48 2365.26 1323.42 2364.24C1324.37 2363.25 1324.6 2362.11 1324.12 2360.82C1323.64 2359.55 1322.72 2358.86 1321.35 2358.74C1319.98 2358.59 1318.17 2358.94 1315.94 2359.78C1313.71 2360.62 1312.12 2361.55 1311.18 2362.56C1310.23 2363.55 1310 2364.68 1310.47 2365.95ZM1350.59 2339.92L1347.4 2341.12C1347.15 2342.61 1346.46 2343.95 1345.31 2345.14C1344.17 2346.33 1342.58 2347.31 1340.54 2348.07C1337.47 2349.23 1334.86 2349.36 1332.72 2348.48C1330.57 2347.59 1329 2345.83 1328.01 2343.19C1327.01 2340.53 1327.03 2338.17 1328.07 2336.12C1329.1 2334.04 1331.15 2332.42 1334.22 2331.27C1336.37 2330.46 1338.27 2330.15 1339.93 2330.34C1341.61 2330.51 1343.05 2331.15 1344.25 2332.24L1347.27 2331.1L1345.83 2327.27L1352.95 2324.6L1361.04 2346.13L1353.93 2348.81L1350.59 2339.92ZM1340.09 2346.88C1340.54 2346.71 1340.87 2346.44 1341.07 2346.07C1341.27 2345.7 1341.35 2345.19 1341.31 2344.55C1341.26 2343.91 1341.1 2343.12 1340.83 2342.2C1340.54 2341.25 1340.16 2340.12 1339.66 2338.81C1339.17 2337.5 1338.72 2336.4 1338.31 2335.5C1337.9 2334.6 1337.5 2333.91 1337.12 2333.41C1336.73 2332.9 1336.34 2332.57 1335.94 2332.42C1335.54 2332.28 1335.12 2332.29 1334.67 2332.46C1334.22 2332.63 1333.89 2332.9 1333.69 2333.27C1333.5 2333.63 1333.44 2334.14 1333.48 2334.78C1333.52 2335.4 1333.68 2336.19 1333.96 2337.13C1334.25 2338.08 1334.63 2339.21 1335.13 2340.52C1335.62 2341.83 1336.07 2342.93 1336.48 2343.83C1336.88 2344.71 1337.28 2345.4 1337.67 2345.92C1338.06 2346.43 1338.44 2346.77 1338.82 2346.92C1339.21 2347.06 1339.64 2347.05 1340.09 2346.88ZM1350.03 2338.44L1347.83 2332.58L1345.38 2333.5C1345.95 2334.29 1346.41 2335.17 1346.78 2336.14C1347.19 2337.23 1347.43 2338.32 1347.49 2339.4L1350.03 2338.44ZM1339.31 2349.89L1341.94 2356.88C1342.03 2357.14 1342.19 2357.32 1342.4 2357.44C1342.64 2357.54 1342.9 2357.54 1343.18 2357.44L1362.71 2350.1L1363.27 2351.58L1339.29 2360.59C1338.2 2361 1337.2 2361 1336.31 2360.57C1335.42 2360.17 1334.78 2359.43 1334.38 2358.36L1332.2 2352.57L1339.31 2349.89Z" fill="#383448"/>
<rect x="1447.67" y="2260" width="124.981" height="84.5008" rx="42.2504" transform="rotate(-20.6025 1447.67 2260)" fill="#D5D4DF" stroke="black" stroke-width="1.80556"/>
<path d="M1514.82 2267.57L1511.16 2271.81L1509.29 2270.64L1514.11 2264.78L1520.93 2262.22L1530.64 2288.03L1523.52 2290.71L1514.82 2267.57Z" fill="#383448"/>
<rect x="1584.94" y="2208.4" width="124.981" height="84.5008" rx="42.2504" transform="rotate(-20.6025 1584.94 2208.4)" fill="#D5D4DF" stroke="black" stroke-width="1.80556"/>
<path d="M1652.45 2239.05C1651.89 2237.57 1651.72 2236.2 1651.93 2234.94C1652.16 2233.66 1652.59 2232.44 1653.21 2231.3C1653.83 2230.14 1654.55 2229.03 1655.38 2227.99C1656.2 2226.92 1656.95 2225.87 1657.61 2224.83C1658.27 2223.78 1658.74 2222.72 1659.03 2221.66C1659.34 2220.59 1659.27 2219.46 1658.82 2218.28C1657.97 2216.01 1657.14 2214.45 1656.33 2213.6C1655.54 2212.74 1654.68 2212.49 1653.73 2212.85C1652.85 2213.18 1652.37 2213.92 1652.29 2215.08C1652.23 2216.21 1652.63 2217.94 1653.51 2220.28L1646.4 2222.95C1645.92 2221.69 1645.74 2220.47 1645.84 2219.31C1645.96 2218.13 1646.32 2217.05 1646.93 2216.07C1647.53 2215.06 1648.36 2214.16 1649.41 2213.37C1650.48 2212.58 1651.74 2211.91 1653.18 2211.37C1654.61 2210.83 1655.99 2210.51 1657.3 2210.41C1658.63 2210.3 1659.85 2210.43 1660.97 2210.79C1662.1 2211.12 1663.08 2211.7 1663.93 2212.51C1664.79 2213.31 1665.46 2214.34 1665.94 2215.61C1666.53 2217.17 1666.71 2218.6 1666.48 2219.88C1666.27 2221.14 1665.84 2222.33 1665.21 2223.45C1664.58 2224.57 1663.84 2225.63 1662.99 2226.63C1662.14 2227.64 1661.39 2228.66 1660.72 2229.69C1660.05 2230.7 1659.57 2231.75 1659.27 2232.85C1658.99 2233.93 1659.09 2235.11 1659.56 2236.37L1660.03 2237.63L1672.17 2233.07L1672.73 2234.55L1653.48 2241.78L1652.45 2239.05Z" fill="#383448"/>
<rect x="1908.8" y="2086.65" width="146.366" height="84.5008" rx="42.2504" transform="rotate(-20.6025 1908.8 2086.65)" fill="#D5D4DF" stroke="black" stroke-width="1.80556"/>
<path d="M1980.58 2110.4L1985.61 2087.54L1992.69 2084.87L1999.64 2103.35L2003.34 2101.96L2003.9 2103.44L2000.19 2104.83L2002.4 2110.69L1995.31 2113.35L1993.11 2107.49L1981.17 2111.98L1980.58 2110.4ZM1992.56 2106.01L1987.63 2092.91L1984.12 2109.18L1992.56 2106.01Z" fill="#383448"/>
<rect x="2066.08" y="2027.53" width="146.366" height="84.5008" rx="42.2504" transform="rotate(-20.6025 2066.08 2027.53)" fill="#D5D4DF" stroke="black" stroke-width="1.80556"/>
<path d="M2145.91 2051.19C2146.53 2052.52 2147.25 2053.47 2148.07 2054.01C2148.89 2054.56 2149.71 2054.69 2150.52 2054.38C2151.62 2053.97 2152.21 2052.99 2152.29 2051.44C2152.36 2049.87 2151.94 2047.88 2151.04 2045.48C2150.16 2043.14 2149.19 2041.46 2148.15 2040.43C2147.12 2039.4 2146.06 2039.08 2144.97 2039.5C2143.44 2040.07 2142.9 2041.68 2143.33 2044.33L2136.77 2046.8L2132.37 2032.37L2149.65 2025.87L2150.21 2027.35L2139.33 2031.44L2142.08 2040.21C2142.35 2039.65 2142.73 2039.12 2143.22 2038.65C2143.7 2038.17 2144.31 2037.79 2145.07 2037.51C2148.07 2036.38 2150.66 2036.23 2152.83 2037.05C2155.02 2037.87 2156.7 2039.82 2157.86 2042.91C2158.97 2045.88 2158.95 2048.46 2157.79 2050.65C2156.67 2052.87 2154.43 2054.6 2151.08 2055.86C2149.64 2056.4 2148.28 2056.75 2147 2056.92C2145.74 2057.1 2144.59 2057.09 2143.54 2056.9C2142.51 2056.72 2141.62 2056.37 2140.86 2055.84C2140.09 2055.3 2139.51 2054.59 2139.11 2053.71L2145.91 2051.19Z" fill="#383448"/>
<rect x="1722.2" y="2156.8" width="177.681" height="84.5008" rx="42.2504" transform="rotate(-20.6025 1722.2 2156.8)" fill="#D5D4DF" stroke="black" stroke-width="1.80556"/>
<path d="M1815.02 2173.37C1815.74 2175.28 1816.65 2176.66 1817.75 2177.49C1818.85 2178.33 1819.94 2178.54 1821.04 2178.13C1822.13 2177.72 1822.82 2176.84 1823.09 2175.49C1823.37 2174.13 1823.15 2172.5 1822.43 2170.59C1821.72 2168.7 1820.77 2167.35 1819.57 2166.52C1818.37 2165.67 1817.07 2165.52 1815.65 2166.05L1813.88 2166.71L1813.32 2165.23L1815.09 2164.57C1816.38 2164.08 1817.17 2163.25 1817.46 2162.06C1817.76 2160.85 1817.59 2159.39 1816.96 2157.7C1816.32 2156 1815.52 2154.78 1814.55 2154.04C1813.61 2153.3 1812.65 2153.11 1811.66 2153.48C1810.63 2153.87 1810.02 2154.69 1809.84 2155.96C1809.65 2157.21 1809.87 2158.68 1810.51 2160.38L1803.7 2162.9C1802.86 2160.65 1803.06 2158.57 1804.31 2156.68C1805.58 2154.79 1807.84 2153.22 1811.1 2152C1812.63 2151.43 1814.07 2151.06 1815.42 2150.89C1816.78 2150.72 1818 2150.78 1819.09 2151.05C1820.19 2151.3 1821.13 2151.77 1821.93 2152.45C1822.72 2153.13 1823.33 2154.03 1823.75 2155.14C1823.97 2155.72 1824.08 2156.36 1824.1 2157.07C1824.14 2157.76 1824.09 2158.46 1823.93 2159.15C1823.78 2159.85 1823.53 2160.53 1823.19 2161.19C1822.85 2161.84 1822.41 2162.39 1821.87 2162.86C1822.59 2162.87 1823.31 2163.01 1824.06 2163.29C1824.82 2163.57 1825.54 2163.95 1826.21 2164.43C1826.89 2164.88 1827.5 2165.43 1828.03 2166.06C1828.58 2166.66 1828.99 2167.32 1829.25 2168.03C1830.18 2170.49 1829.97 2172.73 1828.61 2174.73C1827.29 2176.75 1824.95 2178.39 1821.61 2179.64C1818.26 2180.9 1815.42 2181.21 1813.1 2180.56C1810.78 2179.94 1809.16 2178.4 1808.23 2175.93L1815.02 2173.37Z" fill="#383448"/>
<rect x="2202.63" y="1940.09" width="134.33" height="90.8648" rx="45.4324" transform="rotate(-79.8632 2202.63 1940.09)" fill="#D5D4DF" stroke="#4C5A51" stroke-width="1.80556"/>
<path d="M2246.55 1877.23C2246.18 1879.26 2246.76 1880.98 2248.29 1882.38C2249.81 1883.77 2252.26 1884.77 2255.63 1885.38C2254.43 1883.84 2254.01 1882.04 2254.38 1879.98C2255.01 1876.46 2256.37 1873.9 2258.45 1872.3C2260.52 1870.7 2263.38 1870.22 2267.04 1870.87C2268.63 1871.16 2269.99 1871.69 2271.1 1872.46C2272.22 1873.21 2273.1 1874.17 2273.74 1875.34C2274.38 1876.5 2274.78 1877.85 2274.93 1879.37C2275.11 1880.91 2275.03 1882.59 2274.7 1884.43C2274.28 1886.81 2273.62 1888.71 2272.75 1890.12C2271.87 1891.54 2270.76 1892.61 2269.44 1893.32C2268.11 1894.01 2266.58 1894.39 2264.85 1894.45C2263.09 1894.49 2261.14 1894.31 2259.01 1893.93C2256.39 1893.46 2254.09 1892.84 2252.11 1892.06C2250.12 1891.28 2248.5 1890.25 2247.26 1888.98C2246.01 1887.71 2245.17 1886.13 2244.73 1884.25C2244.29 1882.37 2244.31 1880.09 2244.79 1877.4L2246.04 1870.38L2247.71 1870.68L2246.55 1877.23ZM2273.02 1884.17C2273.15 1883.44 2273.05 1882.78 2272.71 1882.16C2272.39 1881.56 2271.9 1881.02 2271.23 1880.55C2270.57 1880.08 2269.76 1879.69 2268.82 1879.37C2267.85 1879.02 2266.8 1878.75 2265.66 1878.54C2262.88 1878.04 2260.67 1877.99 2259.06 1878.37C2257.44 1878.74 2256.5 1879.67 2256.23 1881.17C2255.95 1882.74 2256.52 1883.97 2257.93 1884.85C2259.33 1885.72 2261.41 1886.41 2264.17 1886.9C2265.31 1887.11 2266.39 1887.22 2267.41 1887.26C2268.41 1887.26 2269.3 1887.16 2270.09 1886.95C2270.88 1886.74 2271.52 1886.42 2272.02 1885.98C2272.55 1885.53 2272.89 1884.92 2273.02 1884.17Z" fill="#383448"/>
<rect x="2268.01" y="1574.39" width="134.33" height="90.8648" rx="45.4324" transform="rotate(-79.8632 2268.01 1574.39)" fill="#D5D4DF" stroke="#4C5A51" stroke-width="1.80556"/>
<path d="M2322.17 1523.03C2321.29 1524.2 2320.19 1525.04 2318.87 1525.55C2317.56 1526.07 2316.1 1526.18 2314.5 1525.9C2313.16 1525.66 2312.06 1525.2 2311.18 1524.52C2310.28 1523.83 2309.6 1522.96 2309.14 1521.9C2308.68 1520.82 2308.41 1519.57 2308.34 1518.16C2308.27 1516.74 2308.39 1515.19 2308.69 1513.49C2308.99 1511.8 2309.42 1510.3 2309.98 1509C2310.54 1507.67 2311.22 1506.58 2312.03 1505.73C2312.83 1504.87 2313.77 1504.28 2314.86 1503.94C2315.92 1503.58 2317.12 1503.52 2318.46 1503.76C2320.05 1504.05 2321.41 1504.66 2322.51 1505.61C2323.62 1506.56 2324.33 1507.74 2324.66 1509.15C2325.06 1508.44 2325.56 1507.82 2326.15 1507.28C2326.73 1506.7 2327.39 1506.25 2328.12 1505.9C2328.87 1505.54 2329.68 1505.29 2330.58 1505.18C2331.48 1505.04 2332.43 1505.06 2333.42 1505.24C2334.85 1505.49 2336.05 1506.03 2337.03 1506.86C2338.01 1507.66 2338.77 1508.67 2339.3 1509.89C2339.83 1511.11 2340.15 1512.5 2340.24 1514.07C2340.36 1515.64 2340.26 1517.31 2339.95 1519.08C2339.63 1520.85 2339.14 1522.45 2338.49 1523.89C2337.86 1525.3 2337.09 1526.48 2336.16 1527.45C2335.24 1528.41 2334.18 1529.09 2332.98 1529.5C2331.78 1529.91 2330.47 1529.99 2329.04 1529.74C2327.03 1529.38 2325.41 1528.61 2324.2 1527.44C2322.96 1526.25 2322.29 1524.78 2322.17 1523.03ZM2322.65 1515.99C2322.76 1515.36 2322.7 1514.79 2322.47 1514.27C2322.21 1513.75 2321.82 1513.29 2321.29 1512.9C2320.76 1512.5 2320.11 1512.17 2319.36 1511.91C2318.61 1511.63 2317.8 1511.41 2316.93 1511.25C2316.06 1511.1 2315.24 1511.03 2314.49 1511.04C2313.72 1511.03 2313.04 1511.12 2312.45 1511.32C2311.85 1511.48 2311.36 1511.77 2310.99 1512.18C2310.59 1512.58 2310.33 1513.11 2310.21 1513.77C2310.1 1514.42 2310.16 1514.99 2310.39 1515.49C2310.61 1515.97 2310.97 1516.41 2311.47 1516.8C2311.96 1517.17 2312.57 1517.47 2313.29 1517.73C2314 1517.98 2314.79 1518.19 2315.66 1518.34C2316.53 1518.5 2317.37 1518.58 2318.17 1518.6C2318.97 1518.59 2319.68 1518.51 2320.31 1518.35C2320.94 1518.16 2321.47 1517.88 2321.89 1517.5C2322.28 1517.12 2322.53 1516.62 2322.65 1515.99ZM2338.42 1518.81C2338.68 1517.33 2338.27 1516.06 2337.19 1514.99C2336.11 1513.92 2334.46 1513.19 2332.26 1512.79C2331.17 1512.6 2330.16 1512.54 2329.25 1512.63C2328.31 1512.71 2327.48 1512.92 2326.78 1513.24C2326.05 1513.53 2325.46 1513.94 2325.02 1514.46C2324.58 1514.98 2324.29 1515.58 2324.17 1516.26C2324.06 1516.92 2324.11 1517.56 2324.35 1518.21C2324.59 1518.82 2325 1519.41 2325.57 1519.96C2326.13 1520.49 2326.83 1520.95 2327.69 1521.35C2328.52 1521.75 2329.48 1522.05 2330.57 1522.24C2332.77 1522.64 2334.57 1522.53 2335.95 1521.93C2337.34 1521.3 2338.16 1520.26 2338.42 1518.81Z" fill="#383448"/>
<rect x="2295.73" y="1419.39" width="134.33" height="90.8648" rx="45.4324" transform="rotate(-79.8632 2295.73 1419.39)" fill="#D5D4DF" stroke="#4C5A51" stroke-width="1.80556"/>
<path d="M2363.31 1372.64L2364.48 1366.14C2364.85 1364.08 2364.27 1362.35 2362.74 1360.95C2361.22 1359.55 2358.77 1358.55 2355.4 1357.95C2356.6 1359.52 2357.01 1361.32 2356.65 1363.35C2356.02 1366.86 2354.68 1369.42 2352.61 1371.03C2350.55 1372.64 2347.68 1373.11 2343.99 1372.45C2342.39 1372.17 2341.04 1371.65 2339.92 1370.9C2338.81 1370.13 2337.93 1369.16 2337.29 1367.99C2336.65 1366.83 2336.25 1365.48 2336.1 1363.95C2335.92 1362.42 2336 1360.73 2336.33 1358.89C2336.75 1356.54 2337.4 1354.66 2338.28 1353.24C2339.16 1351.8 2340.26 1350.73 2341.59 1350.04C2342.91 1349.33 2344.46 1348.96 2346.21 1348.92C2347.95 1348.86 2349.89 1349.01 2352.02 1349.4C2354.63 1349.86 2356.94 1350.49 2358.92 1351.27C2360.91 1352.05 2362.52 1353.07 2363.77 1354.35C2365.02 1355.62 2365.86 1357.2 2366.3 1359.08C2366.74 1360.95 2366.72 1363.24 2366.24 1365.93L2364.99 1372.94L2363.31 1372.64ZM2354.8 1362.16C2355.08 1360.58 2354.52 1359.36 2353.13 1358.48C2351.71 1357.61 2349.62 1356.92 2346.86 1356.42C2345.75 1356.23 2344.68 1356.12 2343.65 1356.11C2342.63 1356.08 2341.73 1356.17 2340.94 1356.38C2340.15 1356.59 2339.51 1356.92 2339 1357.38C2338.47 1357.81 2338.14 1358.4 2338.01 1359.16C2337.87 1359.91 2337.98 1360.59 2338.32 1361.2C2338.64 1361.78 2339.13 1362.31 2339.8 1362.78C2340.46 1363.25 2341.28 1363.65 2342.24 1364C2343.21 1364.32 2344.25 1364.59 2345.37 1364.78C2348.13 1365.28 2350.33 1365.35 2351.97 1364.99C2353.59 1364.6 2354.53 1363.66 2354.8 1362.16Z" fill="#383448"/>
<rect x="2323.44" y="1264.39" width="134.33" height="90.8648" rx="45.4324" transform="rotate(-79.8632 2323.44 1264.39)" fill="#D5D4DF" stroke="#4C5A51" stroke-width="1.80556"/>
<path d="M2365.38 1220.33L2367.28 1226.03L2365.18 1227.12L2362.42 1219.46L2363.8 1211.75L2392.95 1216.97L2391.51 1225L2365.38 1220.33ZM2397.29 1198.34C2396.93 1200.38 2396.24 1202.12 2395.23 1203.56C2394.25 1204.99 2393 1206.11 2391.48 1206.94C2389.93 1207.77 2388.14 1208.28 2386.1 1208.49C2384.06 1208.68 2381.84 1208.56 2379.41 1208.12C2376.99 1207.69 2374.86 1207.03 2373.01 1206.15C2371.17 1205.25 2369.68 1204.15 2368.54 1202.84C2367.38 1201.53 2366.58 1200.04 2366.15 1198.36C2365.71 1196.66 2365.67 1194.79 2366.03 1192.75C2366.4 1190.72 2367.08 1188.99 2368.08 1187.57C2369.07 1186.12 2370.33 1184.98 2371.88 1184.16C2373.41 1183.31 2375.19 1182.79 2377.22 1182.6C2379.26 1182.39 2381.49 1182.5 2383.92 1182.94C2386.34 1183.37 2388.47 1184.04 2390.31 1184.94C2392.15 1185.82 2393.65 1186.93 2394.82 1188.26C2395.96 1189.56 2396.74 1191.07 2397.16 1192.77C2397.61 1194.45 2397.65 1196.31 2397.29 1198.34ZM2395.62 1198.04C2395.87 1196.61 2394.96 1195.3 2392.87 1194.1C2390.79 1192.88 2387.33 1191.83 2382.48 1190.97C2377.63 1190.1 2374.02 1189.88 2371.65 1190.31C2369.27 1190.71 2367.96 1191.62 2367.7 1193.05C2367.45 1194.48 2368.36 1195.81 2370.44 1197.03C2372.53 1198.23 2376 1199.26 2380.84 1200.13C2385.69 1200.99 2389.3 1201.23 2391.67 1200.83C2394.05 1200.4 2395.36 1199.47 2395.62 1198.04Z" fill="#383448"/>
<rect x="2351.15" y="1109.39" width="134.33" height="90.8648" rx="45.4324" transform="rotate(-79.8632 2351.15 1109.39)" fill="#D5D4DF" stroke="#4C5A51" stroke-width="1.80556"/>
<path d="M2393.67 1062.1L2395.57 1067.8L2393.47 1068.89L2390.71 1061.23L2392.09 1053.52L2421.24 1058.74L2419.8 1066.77L2393.67 1062.1ZM2397.4 1041.23L2399.31 1046.93L2397.2 1048.02L2394.44 1040.36L2395.82 1032.65L2424.97 1037.87L2423.53 1045.9L2397.4 1041.23Z" fill="#383448"/>
<rect x="2378.86" y="954.391" width="134.33" height="90.8648" rx="45.4324" transform="rotate(-79.8632 2378.86 954.391)" fill="#D5D4DF" stroke="#4C5A51" stroke-width="1.80556"/>
<path d="M2421.09 908.711L2423 914.416L2420.89 915.502L2418.13 907.845L2419.51 900.139L2448.66 905.351L2447.23 913.384L2421.09 908.711ZM2446.61 898.562C2444.94 898.263 2443.58 897.671 2442.54 896.784C2441.48 895.869 2440.59 894.811 2439.88 893.609C2439.15 892.402 2438.53 891.128 2438.02 889.786C2437.48 888.441 2436.92 887.177 2436.33 885.997C2435.72 884.812 2435 883.796 2434.17 882.948C2433.36 882.077 2432.28 881.522 2430.95 881.283C2428.38 880.824 2426.48 880.735 2425.26 881.016C2424.03 881.273 2423.33 881.934 2423.14 883C2422.96 883.994 2423.38 884.845 2424.41 885.553C2425.41 886.232 2427.23 886.808 2429.87 887.281L2428.44 895.313C2427.01 895.058 2425.78 894.564 2424.76 893.831C2423.75 893.075 2422.95 892.145 2422.38 891.041C2421.77 889.933 2421.4 888.678 2421.25 887.276C2421.1 885.85 2421.18 884.325 2421.47 882.701C2421.76 881.078 2422.21 879.635 2422.84 878.371C2423.47 877.084 2424.26 876.024 2425.21 875.194C2426.14 874.335 2427.21 873.738 2428.42 873.404C2429.63 873.046 2430.95 872.995 2432.38 873.251C2434.15 873.567 2435.57 874.183 2436.63 875.098C2437.67 875.984 2438.53 877.026 2439.22 878.224C2439.91 879.422 2440.48 880.687 2440.94 882.02C2441.4 883.353 2441.93 884.61 2442.52 885.79C2443.08 886.967 2443.79 887.993 2444.63 888.869C2445.48 889.72 2446.62 890.274 2448.05 890.53L2449.47 890.783L2451.92 877.08L2453.59 877.379L2449.7 899.115L2446.61 898.562Z" fill="#383448"/>
<rect x="2230.34" y="1785.09" width="190.916" height="90.8648" rx="45.4324" transform="rotate(-79.8632 2230.34 1785.09)" fill="#D5D4DF" stroke="#4C5A51" stroke-width="1.80556"/>
<path d="M2304.07 1714.08C2299.17 1712.55 2294.57 1710.59 2290.27 1708.2C2285.97 1705.78 2281.99 1702.88 2278.32 1699.5L2275.96 1712.69L2274.29 1712.39L2278.11 1691.02L2279.78 1691.32C2283.48 1694.7 2287.54 1697.66 2291.96 1700.17C2296.37 1702.66 2300.88 1704.62 2305.51 1706.05L2304.07 1714.08Z" fill="#383448"/>
<rect x="829.689" y="2192.27" width="136.79" height="92.5395" rx="46.2697" transform="rotate(-97.5747 829.689 2192.27)" fill="#D5D4DF" stroke="#4C5A51" stroke-width="1.80556"/>
<path d="M855.956 2135.79L859.571 2140.73L857.864 2142.44L852.819 2135.87L851.768 2127.97L881.653 2123.99L882.748 2132.23L855.956 2135.79ZM871.896 2110.8C874.107 2110.5 875.793 2109.87 876.955 2108.91C878.116 2107.95 878.612 2106.83 878.444 2105.56C878.275 2104.3 877.505 2103.35 876.132 2102.72C874.759 2102.1 872.968 2101.93 870.757 2102.23C868.571 2102.52 866.891 2103.19 865.718 2104.26C864.521 2105.33 864.031 2106.68 864.249 2108.32L864.521 2110.37L862.807 2110.6L862.535 2108.55C862.337 2107.06 861.641 2106.02 860.449 2105.42C859.229 2104.8 857.638 2104.62 855.675 2104.88C853.713 2105.14 852.219 2105.69 851.193 2106.53C850.165 2107.35 849.726 2108.33 849.878 2109.48C850.037 2110.67 850.769 2111.52 852.076 2112.03C853.357 2112.54 854.979 2112.67 856.942 2112.41L857.95 2120.27C855.342 2120.62 853.185 2119.9 851.48 2118.1C849.772 2116.28 848.666 2113.48 848.164 2109.7C847.93 2107.94 847.891 2106.32 848.047 2104.83C848.203 2103.34 848.563 2102.06 849.126 2100.97C849.661 2099.86 850.39 2098.97 851.311 2098.29C852.231 2097.61 853.338 2097.19 854.63 2097.01C855.3 2096.92 856.012 2096.96 856.766 2097.11C857.516 2097.24 858.242 2097.47 858.944 2097.81C859.646 2098.14 860.31 2098.57 860.936 2099.1C861.537 2099.62 862.022 2100.23 862.391 2100.91C862.568 2100.15 862.9 2099.42 863.385 2098.69C863.867 2097.95 864.448 2097.28 865.127 2096.68C865.778 2096.06 866.506 2095.55 867.311 2095.14C868.088 2094.71 868.886 2094.44 869.706 2094.33C872.563 2093.95 874.891 2094.72 876.691 2096.66C878.512 2098.57 879.68 2101.46 880.195 2105.33C880.71 2109.21 880.338 2112.3 879.079 2114.62C877.844 2116.93 875.799 2118.28 872.942 2118.66L871.896 2110.8Z" fill="#383448"/>
<rect x="808.559" y="2033.37" width="136.79" height="92.5395" rx="46.2697" transform="rotate(-97.5747 808.559 2033.37)" fill="#D5D4DF" stroke="#4C5A51" stroke-width="1.80556"/>
<path d="M835.046 1978.54L838.661 1983.48L836.954 1985.19L831.909 1978.62L830.858 1970.72L860.743 1966.74L861.838 1974.98L835.046 1978.54ZM851.242 1961.17L828.127 1950.18L827.037 1941.98L848.425 1939.14L847.855 1934.85L849.569 1934.62L850.139 1938.91L856.921 1938.01L858.011 1946.2L851.229 1947.11L853.068 1960.93L851.242 1961.17ZM849.515 1947.33L834.35 1949.35L850.814 1957.1L849.515 1947.33Z" fill="#383448"/>
<rect x="787.427" y="1874.47" width="186.884" height="92.5395" rx="46.2697" transform="rotate(-97.5747 787.427 1874.47)" fill="#D5D4DF" stroke="#4C5A51" stroke-width="1.80556"/>
<path d="M810.393 1793.15L814.008 1798.09L812.301 1799.8L807.255 1793.23L806.205 1785.33L836.089 1781.36L837.184 1789.59L810.393 1793.15ZM828.479 1767.19C830.053 1766.85 831.233 1766.32 832.02 1765.58C832.807 1764.85 833.137 1764 833.012 1763.06C832.843 1761.79 831.944 1760.93 830.315 1760.46C828.661 1760 826.443 1759.95 823.66 1760.32C820.953 1760.68 818.923 1761.29 817.571 1762.16C816.216 1762.99 815.623 1764.05 815.792 1765.31C816.026 1767.08 817.61 1768.05 820.543 1768.25L821.553 1775.85L805.094 1776.97L802.433 1756.96L804.147 1756.74L805.822 1769.33L815.845 1768.57C815.307 1768.13 814.844 1767.6 814.457 1766.97C814.07 1766.34 813.818 1765.59 813.703 1764.72C813.24 1761.24 813.716 1758.45 815.129 1756.34C816.539 1754.2 819.033 1752.9 822.61 1752.42C826.038 1751.97 828.78 1752.63 830.836 1754.4C832.914 1756.15 834.211 1758.96 834.726 1762.83C834.947 1764.5 834.987 1766.03 834.846 1767.44C834.726 1768.82 834.434 1770.05 833.97 1771.12C833.528 1772.17 832.935 1773.03 832.191 1773.71C831.422 1774.4 830.521 1774.84 829.488 1775.06L828.479 1767.19Z" fill="#383448"/>
</svg>
