<svg width="3023" height="3020" viewBox="0 0 3023 3020" fill="none" xmlns="http://www.w3.org/2000/svg">
<path d="M1308.91 2699.61L1966.49 2450.99C1974.8 2447.92 1984.19 2451.35 1988.34 2459.29L2002.42 2486.01C2006.4 2493.42 2014.88 2497.03 2022.83 2494.68L2214.04 2439.07C2223.06 2436.54 2228.3 2427.33 2226.31 2418.31L2219.45 2387.61C2217.47 2379.12 2222.16 2370.64 2230.11 2367.39L2659.29 2199.29C2663.62 2197.67 2667.23 2194.24 2669.04 2189.9L2686.73 2148.56C2689.44 2142.06 2695.76 2137.9 2702.8 2137.9H2757.87C2766.36 2137.9 2773.58 2131.94 2775.2 2123.64L2809.51 1944.17C2810.77 1937.67 2808.24 1930.99 2803.01 1927.01L2744.15 1881.15C2739.09 1877.18 2736.56 1870.86 2737.47 1864.54L2909.72 776.153C2910.98 767.667 2918.38 761.347 2927.05 761.347H3000.36C3010.11 761.347 3017.87 753.403 3017.87 743.833V538.903C3017.87 530.055 3011.37 522.653 3002.7 521.389L2601.69 464.875C2592.3 463.611 2583.63 469.93 2582.01 479.139L2304.31 2046.54C2303.23 2052.68 2299.08 2057.74 2293.12 2059.9L1212.31 2466.69C1202.92 2470.31 1198.41 2480.78 1202.38 2489.99L1286.52 2689.86C1290.13 2698.53 1300.06 2702.86 1308.91 2699.61Z" fill="#F3E2DB" stroke="#4C5A51" stroke-width="9.40026"/>
<path d="M2392.79 5H846.328C837.662 5 830.62 10.7778 830.62 18V345.889C830.62 352.931 837.662 358.889 846.328 358.889H2392.97C2401.63 358.889 2408.68 353.111 2408.68 345.889V18C2408.5 10.7778 2401.45 5 2392.79 5Z" fill="#F3E2DB" stroke="#4C5A51" stroke-width="9.40026"/>
<path d="M1154.36 413.056H2072.66C2095.09 413.056 2113.29 431.249 2113.29 453.681V474.444C2113.29 496.876 2095.09 515.07 2072.66 515.07H1154.36C1131.92 515.07 1113.73 496.876 1113.73 474.444V453.681C1113.73 431.249 1131.92 413.056 1154.36 413.056Z" fill="#D5D4DF" stroke="black" stroke-width="1.80556"/>
<path d="M1514.56 471.375V473.722C1514.56 477.695 1515.29 480.583 1516.73 482.208C1518.17 483.833 1520.16 484.917 1522.69 484.917C1525.22 484.917 1527.2 484.014 1528.65 482.208C1530.09 480.403 1530.99 477.514 1530.99 473.542C1530.99 471.917 1530.81 470.472 1530.45 469.389C1530.09 468.125 1529.55 467.222 1528.83 466.319C1528.11 465.417 1527.2 464.694 1525.94 464.153C1524.67 463.611 1523.23 463.069 1521.24 462.708C1518.72 462.167 1516.19 461.625 1514.02 460.903C1511.67 460.181 1509.69 459.458 1507.88 458.375C1506.08 457.292 1504.81 456.028 1503.73 454.403C1502.65 452.778 1502.11 450.792 1502.11 448.445C1502.11 446.458 1502.65 444.653 1503.91 443.208C1504.99 441.764 1506.62 440.5 1508.42 439.597C1510.41 438.694 1512.58 437.792 1514.92 437.431C1517.45 436.889 1519.98 436.708 1522.69 436.708C1525.94 436.708 1528.83 437.07 1531.36 437.611C1533.88 438.153 1536.23 439.056 1538.04 440.32C1540.02 441.403 1541.47 442.847 1542.37 444.653C1543.45 446.278 1543.99 448.264 1543.99 450.431V452.597H1530.27V450.792C1530.27 448.625 1530.09 447 1529.73 445.556C1529.37 444.111 1528.83 443.028 1528.11 442.125C1527.38 441.222 1526.66 440.5 1525.76 440.139C1524.86 439.778 1523.77 439.597 1522.51 439.597C1521.42 439.597 1520.52 439.778 1519.62 440.139C1518.72 440.5 1517.99 441.042 1517.27 441.764C1516.55 442.486 1516.01 443.569 1515.65 444.653C1515.29 445.736 1515.11 447.181 1515.11 448.806C1515.11 451.875 1516.01 454.222 1517.63 456.208C1519.26 458.194 1522.15 459.458 1526.12 460.361C1528.65 460.903 1530.99 461.445 1533.16 462.167C1535.33 462.708 1537.13 463.611 1538.76 464.514C1540.38 465.417 1541.65 466.861 1542.55 468.306C1543.45 469.75 1543.99 471.736 1543.99 474.083C1543.99 476.431 1543.45 478.597 1542.37 480.403C1541.47 482.208 1540.02 483.653 1538.04 484.736C1536.23 485.82 1533.88 486.722 1531.36 487.264C1528.83 487.806 1525.76 488.167 1522.69 488.167C1519.44 488.167 1516.55 487.806 1514.02 487.264C1511.49 486.722 1509.15 486 1507.34 484.736C1505.54 483.653 1504.09 482.208 1503.01 480.403C1502.11 478.597 1501.56 476.611 1501.56 474.083V471.736H1514.56V471.375ZM1547.79 438.514H1589.31V441.222H1547.79V438.514ZM1562.05 447.181H1547.79V444.472H1589.31V447.181H1575.05V486.181H1562.05V447.181ZM1603.4 438.514H1618.2L1634.63 486.181H1620.91L1619.11 480.222H1602.49L1600.69 486.181H1586.97L1603.4 438.514ZM1616.4 471.556L1610.8 453.5L1605.2 471.556H1616.4ZM1618.2 477.514L1617.12 474.264H1604.3L1603.22 477.514H1618.2ZM1660.27 464.514H1684.29V467.042C1684.29 470.833 1683.74 474.083 1682.66 476.792C1681.58 479.5 1680.13 481.667 1677.97 483.292C1675.98 484.917 1673.63 486 1670.74 486.722C1667.86 487.444 1664.61 487.806 1660.99 487.806C1653.23 487.806 1647.09 485.639 1642.94 481.486C1638.79 477.333 1636.62 470.833 1636.62 462.167C1636.62 453.5 1638.79 447 1642.94 442.847C1647.09 438.694 1653.23 436.528 1660.99 436.528C1664.24 436.528 1667.31 436.889 1670.02 437.611C1672.73 438.333 1675.26 439.417 1677.24 440.681C1679.23 442.125 1681.04 443.931 1682.12 446.097C1683.38 448.264 1684.11 450.792 1684.29 453.861H1670.74C1670.74 450.792 1670.56 448.264 1670.02 446.458C1669.48 444.472 1668.76 442.847 1667.86 441.764C1666.95 440.681 1665.87 439.778 1664.79 439.417C1663.52 438.875 1662.44 438.694 1661.17 438.694C1659.73 438.694 1658.29 439.056 1656.84 439.778C1655.4 440.5 1654.31 441.583 1653.23 443.389C1652.15 445.195 1651.42 447.542 1650.7 450.431C1650.16 453.5 1649.8 457.292 1649.8 461.986C1649.8 466.681 1650.16 470.472 1650.7 473.542C1651.42 476.611 1652.15 478.958 1653.23 480.764C1654.31 482.569 1655.4 483.653 1656.84 484.375C1658.29 485.097 1659.73 485.458 1661.17 485.458C1662.62 485.458 1663.88 485.278 1665.15 484.736C1666.41 484.195 1667.49 483.292 1668.4 482.028C1669.3 480.764 1670.02 478.958 1670.56 476.431C1671.11 474.083 1671.47 471.014 1671.47 467.042H1660.63V464.514H1660.27ZM1660.27 458.375H1684.29V461.083H1660.27V458.375ZM1691.51 438.514H1727.08V441.222H1704.69V448.806H1727.08V451.514H1704.69V460H1727.08V462.708H1704.69V471.375H1727.08V474.083H1704.69V483.292H1727.08V486H1691.51V438.514Z" fill="#383448"/>
<path d="M2185.69 413.056H2366.97C2389.4 413.056 2407.59 431.249 2407.59 453.681V474.444C2407.59 496.876 2389.4 515.07 2366.97 515.07H2185.69C2163.26 515.07 2145.06 496.876 2145.06 474.444V453.681C2145.06 431.249 2163.26 413.056 2185.69 413.056Z" fill="#D5D4DF" stroke="black" stroke-width="1.80556"/>
<path d="M2193.45 484.917C2196.16 484.917 2198.69 484.375 2200.86 483.292C2203.02 482.208 2205.01 480.764 2206.63 478.597C2208.26 476.611 2209.52 474.083 2210.43 471.195C2211.33 468.306 2211.87 464.875 2211.87 461.083V439.778H2194.18V437.07H2223.97C2224.51 437.07 2224.87 437.25 2225.23 437.611C2225.59 437.972 2225.77 438.333 2225.77 438.875V460.181C2225.77 463.792 2225.23 467.042 2224.15 469.75C2223.24 472.458 2221.8 474.806 2220.18 476.792C2218.55 478.778 2216.56 480.403 2214.4 481.667C2212.23 482.931 2209.88 484.014 2207.54 484.917C2205.19 485.639 2202.84 486.181 2200.49 486.542C2198.15 486.903 2195.8 487.083 2193.81 487.083V484.917H2193.45ZM2231.73 437.25H2244.91V487.083H2231.73V437.25ZM2251.77 440.5H2262.06V436.167H2275.24V440.5H2285.54V443.208H2251.95V440.5H2251.77ZM2250.69 466.32H2261.88V462.889C2258.45 462.347 2255.93 461.264 2254.3 459.639C2252.68 458.014 2251.95 456.208 2251.95 453.861C2251.95 450.972 2253.4 448.625 2256.11 447C2258.81 445.375 2262.97 444.472 2268.56 444.472C2274.16 444.472 2278.13 445.375 2280.84 447C2283.55 448.625 2284.99 450.972 2284.99 453.861C2284.99 456.208 2284.27 458.014 2282.65 459.639C2281.02 461.264 2278.68 462.167 2275.06 462.889V466.32H2277.05C2277.95 466.32 2279.04 466.32 2279.94 466.32C2281.02 466.32 2281.93 466.139 2282.83 466.139C2283.73 465.958 2284.63 465.958 2285.54 465.778C2286.44 465.597 2287.16 465.417 2287.7 465.236V437.25H2300.88V470.833H2287.7V468.125C2286.44 468.486 2284.63 468.847 2282.65 469.028C2280.66 469.208 2278.68 469.208 2276.69 469.208H2250.51V466.32H2250.69ZM2268.56 461.083C2269.29 461.083 2269.83 461.083 2270.37 460.903C2270.91 460.722 2271.27 460.361 2271.45 459.82C2271.63 459.278 2271.99 458.556 2271.99 457.653C2272.18 456.75 2272.18 455.486 2272.18 454.042C2272.18 452.597 2272.18 451.333 2271.99 450.431C2271.81 449.528 2271.63 448.806 2271.45 448.264C2271.09 447.722 2270.73 447.361 2270.37 447.181C2270.01 447 2269.29 446.82 2268.56 446.82C2267.84 446.82 2267.3 447 2266.76 447.181C2266.4 447.361 2266.04 447.722 2265.68 448.264C2265.31 448.806 2265.13 449.528 2265.13 450.431C2264.95 451.333 2264.95 452.597 2264.95 454.042C2264.95 455.486 2264.95 456.75 2265.13 457.653C2265.31 458.556 2265.49 459.278 2265.68 459.82C2266.04 460.361 2266.4 460.722 2266.76 460.903C2267.3 461.083 2267.84 461.083 2268.56 461.083ZM2250.69 472.82H2299.44C2299.98 472.82 2300.34 473 2300.52 473.361C2300.88 473.722 2301.06 474.083 2301.06 474.625V487.083H2287.88V475.528H2250.69V472.82ZM2305.04 483.833C2306.3 483.833 2307.38 483.472 2308.65 482.75C2309.91 482.028 2310.99 481.125 2311.9 479.861C2312.8 478.597 2313.7 476.972 2314.24 475.167C2314.79 473.361 2315.15 471.195 2315.15 468.847V437.25H2327.43V468.847C2327.43 471.556 2326.88 473.903 2325.62 476.07C2324.36 478.236 2322.73 480.042 2320.74 481.486C2318.76 482.931 2316.41 484.014 2313.7 484.736C2310.99 485.458 2308.11 486 2305.04 486V483.833ZM2340.61 437.25H2353.79V458.556H2359.02V461.806H2353.79V487.083H2340.61V437.25ZM2326.88 479.861C2326.88 478.056 2327.43 476.611 2328.51 475.528C2329.59 474.445 2331.22 473.722 2333.02 473.722C2334.83 473.722 2336.27 474.264 2337.36 475.528C2338.44 476.611 2339.16 478.056 2339.16 479.861C2339.16 481.667 2338.62 483.111 2337.36 484.195C2336.27 485.278 2334.83 486 2333.02 486C2331.22 486 2329.77 485.458 2328.51 484.195C2327.43 483.292 2326.88 481.667 2326.88 479.861Z" fill="#383448"/>
<path d="M1536.59 163.167H1543.81V156.667H1555.73V162.986H1562.95V165.695H1536.59V163.167ZM1578.66 157.75H1589.13V207.764H1578.66V157.75ZM1566.38 195.667H1561.87C1561.51 198.014 1560.79 200 1559.88 201.625C1558.98 203.25 1558.08 204.514 1556.99 205.597C1555.91 206.681 1554.65 207.403 1553.38 207.945C1552.12 208.486 1550.86 208.667 1549.59 208.667C1547.97 208.667 1546.52 208.306 1544.9 207.403C1543.27 206.681 1542.01 205.417 1540.74 203.792C1539.48 202.167 1538.58 200 1537.86 197.472C1537.13 194.945 1536.77 191.875 1536.77 188.445C1536.77 184.833 1537.13 181.945 1537.86 179.417C1538.58 176.889 1539.66 174.722 1540.74 173.097C1542.01 171.472 1543.27 170.208 1544.9 169.486C1546.52 168.764 1547.97 168.403 1549.59 168.403C1551.58 168.403 1553.56 169.125 1555.55 170.389C1557.54 171.653 1559.16 173.639 1560.24 176.347H1566.38V157.75H1576.13V207.764H1566.38V195.667ZM1549.59 206.139C1550.13 206.139 1550.49 205.958 1550.86 205.417C1551.22 205.056 1551.58 204.153 1551.76 202.889C1551.94 201.625 1552.12 200 1552.12 197.653C1552.12 195.306 1552.3 192.417 1552.3 188.625C1552.3 185.014 1552.3 181.945 1552.12 179.778C1552.12 177.431 1551.94 175.806 1551.76 174.542C1551.58 173.278 1551.22 172.556 1550.86 172.195C1550.49 171.833 1550.13 171.472 1549.59 171.472C1549.05 171.472 1548.69 171.653 1548.33 172.195C1547.97 172.556 1547.79 173.458 1547.61 174.542C1547.43 175.806 1547.24 177.611 1547.24 179.778C1547.24 182.125 1547.06 185.014 1547.06 188.625C1547.06 192.417 1547.06 195.306 1547.24 197.653C1547.24 200 1547.43 201.625 1547.61 202.889C1547.79 204.153 1548.15 205.056 1548.33 205.417C1548.87 205.958 1549.23 206.139 1549.59 206.139ZM1566.38 192.958V179.236H1561.33C1562.05 181.945 1562.59 185.014 1562.59 188.625C1562.59 189.347 1562.59 190.07 1562.59 190.792C1562.59 191.514 1562.41 192.056 1562.41 192.778H1566.38V192.958ZM1592.2 172.736C1592.2 167.861 1593.65 163.889 1596.54 161.181C1599.43 158.472 1603.76 157.208 1609.36 157.208C1614.95 157.208 1619.29 158.472 1622.18 161.181C1625.06 163.889 1626.51 167.681 1626.51 172.736C1626.51 177.611 1625.06 181.403 1622.18 184.292C1619.29 187 1614.95 188.264 1609.36 188.264C1603.76 188.264 1599.43 187 1596.54 184.292C1593.65 181.403 1592.2 177.611 1592.2 172.736ZM1631.02 157.75H1644.2V197.472H1631.02V157.75ZM1609.36 186.097C1610.26 186.097 1610.8 185.917 1611.34 185.375C1611.88 184.833 1612.24 184.111 1612.61 183.028C1612.97 181.945 1613.15 180.681 1613.33 178.875C1613.51 177.25 1613.51 175.083 1613.51 172.556C1613.51 170.028 1613.51 168.042 1613.33 166.417C1613.15 164.792 1612.97 163.347 1612.61 162.264C1612.24 161.181 1611.88 160.458 1611.34 159.917C1610.8 159.375 1610.08 159.195 1609.36 159.195C1608.63 159.195 1607.91 159.375 1607.37 159.917C1606.83 160.458 1606.47 161.181 1606.11 162.264C1605.74 163.347 1605.56 164.611 1605.38 166.417C1605.2 168.042 1605.2 170.208 1605.2 172.556C1605.2 174.903 1605.2 177.07 1605.38 178.875C1605.56 180.5 1605.74 181.945 1606.11 183.028C1606.47 184.111 1606.83 184.833 1607.37 185.375C1607.91 185.736 1608.63 186.097 1609.36 186.097ZM1606.65 190.431V203.25C1606.65 203.792 1606.83 204.153 1607.01 204.514C1607.37 204.875 1607.73 205.056 1608.27 205.056H1644.38V207.764H1600.15C1598.16 207.764 1596.54 207.222 1595.27 205.958C1594.01 204.695 1593.47 203.25 1593.47 201.264V190.611H1606.65V190.431ZM1668.58 160.639H1648.9V157.931H1678.51C1679.41 157.931 1680.31 158.292 1680.86 158.833C1681.4 159.375 1681.76 160.278 1681.76 161.181V181.403H1668.76V160.639H1668.58ZM1647.81 185.556H1652.51V169.667H1665.69V184.472C1665.69 185.195 1666.05 185.556 1666.77 185.556H1674.36C1676.34 185.556 1678.15 185.556 1679.95 185.375C1681.76 185.195 1683.38 184.833 1684.47 184.472V157.931H1697.65V174.722H1702.34V177.972H1697.65V197.653H1684.47V187.361C1683.2 187.722 1681.58 188.083 1679.77 188.264C1677.97 188.445 1675.98 188.445 1673.99 188.445H1647.81V185.556ZM1661.72 191.333V203.431C1661.72 203.972 1661.9 204.333 1662.08 204.695C1662.44 205.056 1662.8 205.236 1663.34 205.236H1697.83V207.945H1655.22C1654.31 207.945 1653.41 207.764 1652.51 207.403C1651.79 207.042 1651.06 206.5 1650.34 205.778C1649.8 205.056 1649.44 204.333 1649.08 203.431C1648.72 202.528 1648.54 201.625 1648.54 200.722V191.514H1661.72V191.333Z" fill="#383448"/>
<path d="M747.925 941L756.411 735.528C756.772 728.486 754.967 721.445 751.175 715.306L695.022 623.042C689.966 614.556 688.522 604.445 691.05 594.875L736.369 427.861C741.605 408.903 730.411 389.042 711.453 383.806L210.591 241.347C191.091 235.75 170.869 247.306 165.814 266.986L6.02206 884.847C0.605389 905.792 14.8693 926.917 36.3554 929.625L216.55 952.556C232.439 954.542 245.078 967 247.605 982.889L247.966 985.597C250.314 1000.76 262.05 1012.86 277.216 1015.57L394.036 1036.33C403.966 1038.14 414.258 1035.61 422.203 1029.47L424.55 1027.67C434.119 1020.44 446.578 1018.28 457.953 1022.07L572.605 1060.53C583.258 1064.14 594.994 1062.51 604.203 1056.19L732.217 969.528C741.605 962.847 747.564 952.375 747.925 941Z" fill="#F3E2DB" stroke="#4C5A51" stroke-width="9.40026"/>
<path d="M290.218 673.055C291.662 673.055 292.926 672.694 294.371 671.972C295.815 671.25 296.898 670.167 297.982 668.903C299.065 667.639 299.968 666.014 300.509 664.028C301.051 662.222 301.412 660.055 301.232 657.708L301.051 653.917L290.398 654.278L290.218 651.569L300.871 651.208L300.69 646.875L313.69 646.514L313.871 650.847L325.246 650.486V653.194L313.148 653.555L313.329 657.347C313.509 660.055 312.787 662.403 311.704 664.569C310.44 666.736 308.815 668.542 306.648 670.167C304.482 671.792 301.954 672.875 299.246 673.778C296.357 674.68 293.468 675.222 290.218 675.222V673.055ZM328.676 660.236L319.468 660.597L319.287 657.347L328.496 656.986L328.134 646.875L341.315 646.514L342.218 674.139L329.037 674.5L328.676 660.236ZM312.426 668.361C312.426 666.555 312.787 665.111 313.871 663.847C314.954 662.583 316.398 662.042 318.204 662.042C320.009 662.042 321.454 662.583 322.537 663.667C323.801 664.75 324.343 666.194 324.343 668C324.343 669.805 323.801 671.25 322.718 672.514C321.634 673.778 320.19 674.319 318.384 674.319C316.579 674.319 314.954 673.778 313.871 672.694C313.148 671.611 312.426 670.167 312.426 668.361ZM292.204 688.403C292.204 686.778 292.565 685.153 293.468 683.889C294.371 682.625 295.815 681.361 297.801 680.458C299.787 679.555 302.496 678.653 305.565 678.111C308.815 677.569 312.607 677.208 317.121 677.028C321.634 676.847 325.426 677.028 328.676 677.389C331.926 677.75 334.454 678.292 336.621 679.194C338.607 679.917 340.232 681 341.134 682.264C342.218 683.528 342.579 684.972 342.759 686.597C342.759 688.222 342.398 689.847 341.496 691.111C340.593 692.375 339.148 693.639 337.162 694.542C335.176 695.444 332.648 696.347 329.398 696.889C326.148 697.43 322.357 697.792 317.843 697.972C313.329 698.153 309.537 697.972 306.287 697.611C303.037 697.25 300.509 696.708 298.343 695.805C296.357 695.083 294.732 694 293.829 692.736C292.746 691.653 292.204 690.028 292.204 688.403ZM305.204 688.042C305.384 690.75 306.468 692.736 308.634 693.819C310.801 695.083 313.871 695.625 317.662 695.444C321.454 695.264 324.523 694.542 326.509 693.278C328.676 692.014 329.579 690.028 329.579 687.319C329.579 684.611 328.315 682.625 326.148 681.542C323.982 680.278 320.912 679.736 317.121 679.917C313.329 680.097 310.259 680.819 308.273 682.083C306.107 683.347 305.204 685.333 305.204 688.042ZM347.093 656.805C347.093 655 347.454 653.375 348.357 651.93C349.259 650.486 350.704 649.222 352.69 648.139C354.676 647.055 357.384 646.333 360.634 645.611C363.884 645.069 367.857 644.528 372.551 644.528C377.246 644.347 381.218 644.528 384.468 644.889C387.718 645.25 390.426 645.972 392.412 646.875C394.579 647.778 396.023 648.861 396.926 650.305C398.009 651.75 398.371 653.194 398.551 655C398.732 656.805 398.19 658.43 397.287 659.875C396.384 661.319 394.94 662.583 392.954 663.667C390.968 664.75 388.259 665.472 385.009 666.194C381.759 666.736 377.787 667.097 373.273 667.278C368.579 667.458 364.607 667.278 361.357 666.917C358.107 666.555 355.398 665.833 353.412 664.93C351.426 664.028 349.801 662.944 348.898 661.5C347.634 660.055 347.093 658.611 347.093 656.805ZM360.093 656.264C360.093 657.347 360.454 658.43 360.996 659.333C361.537 660.236 362.44 661.139 363.523 662.042C364.607 662.764 365.871 663.305 367.496 663.847C369.121 664.208 370.926 664.389 372.912 664.389C374.898 664.389 376.704 664.028 378.329 663.486C379.954 662.944 381.218 662.222 382.301 661.5C383.384 660.597 384.107 659.694 384.648 658.611C385.19 657.528 385.371 656.444 385.371 655.361C385.19 652.472 384.107 650.486 381.94 649.042C379.773 647.597 376.523 647.055 372.551 647.236C368.398 647.417 365.329 648.139 363.162 649.764C360.996 651.389 359.912 653.555 360.093 656.264ZM347.454 672.514L398.732 670.889V673.597L381.579 674.139L381.94 686.055L368.218 686.597L367.857 674.68L347.273 675.403L347.454 672.514ZM361.537 680.278L361.898 691.111C361.898 691.653 362.079 692.014 362.44 692.375C362.801 692.736 363.162 692.736 363.704 692.736L399.273 691.472V694.18L355.579 695.625C353.593 695.625 351.968 695.083 350.704 694C349.44 692.917 348.898 691.292 348.718 689.305L348.357 680.639L361.537 680.278ZM422.023 646.514L402.343 647.236L402.162 644.528L431.773 643.625C432.676 643.625 433.579 643.805 434.121 644.528C434.662 645.069 435.023 645.972 435.023 646.875L435.746 667.097L422.746 667.458L422.023 646.514ZM401.982 672.153L406.676 671.972L406.134 656.083L419.315 655.722L419.857 670.528C419.857 671.25 420.218 671.611 420.94 671.611L428.523 671.43C430.509 671.43 432.315 671.25 434.121 671.069C435.926 670.889 437.371 670.528 438.634 669.986L437.732 643.444L450.912 643.083L451.454 659.875L456.148 659.694L456.329 662.944L451.634 663.125L452.357 682.805L439.176 683.167L438.815 672.875C437.551 673.417 435.926 673.778 434.121 673.958C432.315 674.139 430.329 674.319 428.343 674.319L402.343 675.222L401.982 672.153ZM416.246 677.389L416.607 689.305C416.607 689.847 416.787 690.208 417.148 690.569C417.509 690.93 417.871 690.93 418.412 690.93L452.898 689.847V692.555L410.287 694C409.384 694 408.482 693.819 407.579 693.458C406.857 693.097 406.134 692.555 405.412 692.014C404.871 691.472 404.329 690.75 403.968 689.847C403.607 688.944 403.426 688.042 403.426 687.139L403.065 677.93L416.246 677.389Z" fill="#383448"/>
<path d="M1812.66 2373.89C1812.12 2372.26 1811.94 2370.64 1812.3 2369.01C1812.66 2367.39 1813.74 2365.76 1815.19 2364.14C1816.81 2362.51 1818.98 2360.89 1821.87 2359.44C1824.76 2357.82 1828.37 2356.19 1832.7 2354.75C1837.04 2353.12 1840.83 2352.04 1844.08 2351.5C1847.33 2350.78 1850.04 2350.6 1852.38 2350.96C1854.55 2351.14 1856.36 2351.86 1857.8 2352.76C1859.24 2353.67 1860.15 2355.11 1860.69 2356.74C1861.23 2358.36 1861.41 2359.99 1861.05 2361.61C1860.69 2363.24 1859.61 2364.86 1857.98 2366.49C1856.36 2368.11 1854.19 2369.74 1851.3 2371.18C1848.41 2372.81 1844.8 2374.25 1840.47 2375.87C1836.13 2377.5 1832.34 2378.58 1829.09 2379.31C1825.84 2379.85 1823.13 2380.21 1820.79 2379.85C1818.62 2379.67 1816.81 2378.94 1815.37 2378.04C1814.29 2376.96 1813.2 2375.51 1812.66 2373.89ZM1824.94 2369.37C1825.3 2370.46 1825.84 2371.36 1826.74 2372.08C1827.65 2372.81 1828.73 2373.35 1829.99 2373.89C1831.26 2374.25 1832.7 2374.43 1834.33 2374.43C1835.95 2374.25 1837.76 2373.89 1839.74 2373.17C1841.73 2372.44 1843.36 2371.72 1844.62 2370.64C1845.88 2369.74 1846.97 2368.65 1847.69 2367.57C1848.41 2366.49 1848.77 2365.22 1848.95 2364.14C1849.13 2363.06 1848.95 2361.97 1848.59 2360.89C1847.69 2358.18 1845.88 2356.56 1843.36 2356.01C1840.83 2355.47 1837.58 2355.83 1833.79 2357.1C1829.99 2358.54 1827.29 2360.17 1825.66 2362.33C1824.22 2364.32 1823.86 2366.67 1824.94 2369.37ZM1818.08 2389.24L1866.47 2371.72L1867.37 2374.25L1818.98 2391.76L1818.08 2389.24ZM1833.61 2391.76L1837.22 2402.06C1837.4 2402.42 1837.58 2402.78 1837.94 2403.14C1838.3 2403.32 1838.84 2403.32 1839.2 2403.14L1872.61 2391.04L1873.51 2393.57L1832.34 2408.37C1830.54 2409.1 1828.73 2408.92 1827.29 2408.19C1825.84 2407.47 1824.58 2406.21 1824.04 2404.4L1821.15 2396.28L1833.61 2391.76ZM1869.9 2367.21C1872.43 2366.31 1874.77 2365.04 1876.58 2363.78C1878.38 2362.33 1879.83 2360.53 1880.91 2358.72C1881.99 2356.74 1882.54 2354.57 1882.54 2352.04C1882.54 2349.51 1881.99 2346.62 1880.91 2343.56L1880.01 2341.21L1863.58 2347.17L1862.68 2344.64L1908.9 2327.85L1909.8 2330.37L1893.19 2336.33L1894.09 2338.68C1895.54 2342.65 1895.9 2346.26 1895.18 2349.51C1894.45 2352.58 1892.83 2355.47 1890.48 2358C1888.13 2360.35 1885.24 2362.69 1881.63 2364.5C1878.2 2366.31 1874.41 2367.93 1870.44 2369.37L1869.9 2367.21ZM1901.86 2350.42C1901.13 2348.43 1901.13 2346.62 1901.86 2345C1902.58 2343.37 1904.02 2342.11 1906.01 2341.39C1907.99 2340.67 1909.8 2340.67 1911.43 2341.57C1913.05 2342.29 1914.13 2343.74 1914.86 2345.54C1915.58 2347.53 1915.58 2349.33 1914.86 2350.96C1914.13 2352.58 1912.69 2353.67 1910.88 2354.39C1908.9 2355.11 1907.09 2355.11 1905.29 2354.39C1903.84 2353.85 1902.58 2352.58 1901.86 2350.42ZM1872.79 2374.97L1921.18 2357.46L1922.08 2359.99L1904.38 2366.49L1909.44 2380.75L1896.62 2385.44L1891.56 2371.18L1873.87 2377.68L1872.79 2374.97ZM1939.77 2323.15L1933.27 2330.37L1930.02 2328.21L1938.51 2318.28L1950.43 2313.94L1966.68 2358.72L1954.4 2363.24L1939.77 2323.15ZM1978.41 2305.64L1959.81 2312.32L1958.91 2309.79L1986.72 2299.68C1987.62 2299.32 1988.52 2299.32 1989.24 2299.86C1989.97 2300.22 1990.51 2300.76 1990.87 2301.85L1997.73 2320.99L1985.45 2325.5L1978.41 2305.64ZM1967.4 2336.15L1971.73 2334.53L1966.31 2319.54L1978.59 2315.03L1983.65 2328.93C1983.83 2329.65 1984.37 2329.83 1985.09 2329.65L1992.31 2327.12C1994.12 2326.4 1995.93 2325.68 1997.55 2324.96C1999.18 2324.24 2000.62 2323.33 2001.52 2322.43L1992.49 2297.51L2004.77 2293L2010.55 2308.71L2014.88 2307.08L2015.97 2310.15L2011.63 2311.78L2018.31 2330.19L2006.04 2334.71L2002.43 2324.96C2001.34 2325.86 2000.08 2326.58 1998.27 2327.49C1996.65 2328.21 1994.84 2328.93 1992.86 2329.65L1968.3 2338.5L1967.4 2336.15ZM1982.56 2336.87L1986.72 2348.07C1986.9 2348.43 1987.08 2348.79 1987.44 2348.97C1987.8 2349.15 1988.34 2349.15 1988.7 2348.97L2021.2 2337.24L2022.11 2339.76L1982.02 2354.21C1981.12 2354.57 1980.22 2354.57 1979.31 2354.57C1978.41 2354.57 1977.69 2354.21 1976.79 2353.85C1976.06 2353.49 1975.34 2352.94 1974.8 2352.22C1974.26 2351.5 1973.72 2350.78 1973.36 2349.87L1970.11 2341.21L1982.56 2336.87Z" fill="#383448"/>
<path d="M2526.94 1288.93C2526.94 1287.12 2527.48 1285.5 2528.38 1284.24C2529.29 1282.79 2530.73 1281.71 2532.9 1280.62C2534.88 1279.72 2537.59 1278.82 2540.84 1278.46C2544.09 1277.92 2548.06 1277.74 2552.76 1277.74C2557.45 1277.74 2561.43 1277.92 2564.68 1278.46C2567.93 1279 2570.63 1279.72 2572.62 1280.62C2574.61 1281.53 2576.23 1282.79 2577.13 1284.24C2578.04 1285.68 2578.58 1287.12 2578.58 1288.93C2578.58 1290.74 2578.04 1292.36 2577.13 1293.62C2576.23 1295.07 2574.79 1296.15 2572.62 1297.24C2570.63 1298.14 2567.93 1298.86 2564.68 1299.4C2561.43 1299.94 2557.45 1300.12 2552.76 1300.12C2548.06 1300.12 2544.09 1299.94 2540.84 1299.4C2537.59 1298.86 2534.88 1298.14 2532.9 1297.24C2530.91 1296.33 2529.47 1295.07 2528.38 1293.62C2527.3 1292.18 2526.94 1290.74 2526.94 1288.93ZM2539.94 1288.93C2539.94 1290.01 2540.12 1291.1 2540.66 1292C2541.2 1292.9 2542.11 1293.99 2543.01 1294.71C2544.09 1295.43 2545.36 1296.15 2546.98 1296.69C2548.61 1297.24 2550.41 1297.42 2552.4 1297.42C2554.38 1297.42 2556.19 1297.24 2557.81 1296.69C2559.44 1296.15 2560.7 1295.61 2561.79 1294.71C2562.87 1293.81 2563.59 1292.9 2564.13 1292C2564.68 1290.92 2565.04 1289.83 2565.04 1288.93C2565.04 1286.04 2563.95 1283.87 2561.79 1282.43C2559.62 1280.99 2556.55 1280.26 2552.4 1280.26C2548.25 1280.26 2545.18 1280.99 2543.01 1282.43C2541.02 1283.87 2539.94 1286.04 2539.94 1288.93ZM2526.94 1305.18H2578.22V1307.89H2526.94V1305.18ZM2540.48 1312.94V1323.78C2540.48 1324.32 2540.66 1324.68 2540.84 1325.04C2541.2 1325.4 2541.56 1325.58 2542.11 1325.58H2577.68V1328.29H2533.98C2532 1328.29 2530.37 1327.75 2529.29 1326.49C2528.02 1325.22 2527.48 1323.78 2527.48 1321.79V1313.12H2540.48V1312.94ZM2582.91 1302.29C2585.62 1302.29 2588.15 1301.93 2590.5 1301.21C2592.66 1300.49 2594.65 1299.4 2596.27 1297.96C2597.9 1296.51 2599.16 1294.53 2600.06 1292.18C2600.97 1289.83 2601.51 1286.94 2601.51 1283.69V1281.17H2584V1278.46H2633.29V1281.17H2615.77V1283.69C2615.77 1288.03 2614.87 1291.46 2613.06 1294.17C2611.26 1296.87 2608.91 1299.04 2605.84 1300.49C2602.77 1301.93 2599.34 1303.01 2595.37 1303.56C2591.4 1304.1 2587.43 1304.46 2583.09 1304.46V1302.29H2582.91ZM2618.84 1297.24C2618.84 1295.25 2619.38 1293.44 2620.65 1292.18C2621.91 1290.92 2623.72 1290.19 2625.88 1290.19C2627.87 1290.19 2629.68 1290.92 2630.94 1292.18C2632.2 1293.44 2632.93 1295.07 2632.93 1297.24C2632.93 1299.4 2632.2 1301.03 2630.94 1302.29C2629.68 1303.56 2628.05 1304.28 2625.88 1304.28C2623.72 1304.28 2622.09 1303.56 2620.65 1302.29C2619.38 1301.03 2618.84 1299.4 2618.84 1297.24ZM2582.91 1310.42H2634.19V1313.12H2615.41V1328.29H2601.69V1313.12H2582.91V1310.42ZM2652.79 1321.97C2652.79 1319.26 2653.33 1316.92 2654.41 1314.93C2655.5 1312.94 2656.94 1311.32 2658.75 1309.87C2660.37 1308.43 2662.36 1306.99 2664.34 1305.9C2666.33 1304.64 2668.13 1303.37 2669.94 1302.11C2671.75 1300.85 2673.01 1299.4 2674.09 1297.78C2675.18 1296.15 2675.72 1294.35 2675.72 1292.18C2675.72 1288.03 2675.36 1284.96 2674.45 1283.15C2673.73 1281.35 2672.47 1280.44 2670.66 1280.44C2669.04 1280.44 2667.77 1281.35 2667.05 1283.15C2666.33 1284.96 2665.79 1288.03 2665.79 1292.36H2652.61C2652.61 1290.01 2652.97 1288.03 2653.87 1286.04C2654.77 1284.24 2656.04 1282.61 2657.66 1281.53C2659.29 1280.26 2661.09 1279.36 2663.26 1278.64C2665.43 1277.92 2667.95 1277.74 2670.66 1277.74C2673.37 1277.74 2675.72 1278.1 2677.88 1278.64C2680.05 1279.36 2682.04 1280.26 2683.66 1281.53C2685.29 1282.79 2686.55 1284.24 2687.45 1286.04C2688.36 1287.85 2688.9 1290.01 2688.9 1292.36C2688.9 1295.25 2688.36 1297.6 2687.09 1299.58C2686.01 1301.57 2684.56 1303.19 2682.94 1304.64C2681.31 1306.08 2679.33 1307.35 2677.34 1308.43C2675.36 1309.51 2673.55 1310.78 2671.75 1312.04C2670.12 1313.31 2668.68 1314.75 2667.41 1316.19C2666.33 1317.82 2665.79 1319.81 2665.79 1322.15V1324.5H2688.18V1327.21H2652.61V1321.97H2652.79ZM2712.73 1280.99H2693.05V1278.28H2722.66C2723.56 1278.28 2724.47 1278.64 2725.01 1279.18C2725.55 1279.72 2725.91 1280.62 2725.91 1281.53V1301.75H2712.91V1280.99H2712.73ZM2691.97 1306.08H2696.66V1290.19H2709.84V1305C2709.84 1305.72 2710.2 1306.08 2710.93 1306.08H2718.51C2720.5 1306.08 2722.3 1306.08 2724.11 1305.9C2725.91 1305.72 2727.36 1305.36 2728.62 1305V1278.46H2741.8V1295.25H2746.5V1298.5H2741.8V1318.18H2728.62V1307.89C2727.36 1308.25 2725.73 1308.61 2723.93 1308.79C2722.12 1308.97 2720.13 1308.97 2718.15 1308.97H2691.97V1306.08ZM2705.87 1311.86V1323.96C2705.87 1324.5 2706.05 1324.86 2706.23 1325.22C2706.59 1325.58 2706.95 1325.76 2707.49 1325.76H2741.98V1328.47H2699.37C2698.29 1328.47 2697.38 1328.29 2696.66 1327.93C2695.94 1327.57 2695.22 1327.03 2694.5 1326.31C2693.95 1325.58 2693.41 1324.86 2693.23 1323.96C2692.87 1323.06 2692.69 1322.15 2692.69 1321.25V1312.04H2705.87V1311.86Z" fill="#383448"/>
<path d="M178.814 1267.62L562.133 1218.87C572.425 1217.61 582.175 1223.93 585.064 1233.86L597.883 1277.38C600.592 1286.58 609.258 1292.9 618.828 1292.54L654.217 1291.28C663.967 1290.92 672.633 1297.24 675.342 1306.63L735.106 1519.14C737.272 1526.72 734.925 1535.03 729.147 1540.44L714.522 1553.99C709.467 1558.68 706.939 1565.54 708.022 1572.4L794.147 2209.4C794.147 2210.12 794.328 2210.85 794.328 2211.57C794.689 2224.75 807.147 2234.32 819.967 2231.43L833.328 2228.54C844.883 2226.01 856.258 2233.42 858.606 2244.97L905.37 2475C907.717 2486.56 900.133 2497.93 888.397 2500.1L877.203 2502.08C866.008 2504.07 858.425 2514.72 860.05 2525.92L922.342 2948.78C923.967 2960.33 916.022 2971.17 904.467 2972.79L619.008 3014.14C607.814 3015.76 597.342 3008.18 595.175 2996.99L542.453 2716.04C540.828 2707.56 534.147 2700.69 525.661 2699.25L485.397 2691.49C476.731 2689.86 469.87 2682.82 468.425 2674.15L385.55 2159.93C383.564 2147.65 392.592 2136.28 405.05 2135.37L427.981 2133.93C440.8 2133.03 450.008 2120.93 447.3 2108.47L390.606 1842.33C388.439 1832.4 379.592 1825.36 369.481 1825.54L251.217 1827.71C240.383 1827.89 231.356 1819.94 229.911 1809.47L160.578 1291.46C158.953 1279.9 167.078 1269.25 178.814 1267.62Z" fill="#F3E2DB" stroke="#4C5A51" stroke-width="9.40026"/>
<path d="M594.994 2442.5C593.911 2443.04 592.466 2443.58 591.022 2443.76C589.577 2444.12 588.133 2444.31 586.689 2444.31L577.3 2444.67C575.314 2444.67 573.689 2444.13 572.425 2443.04C571.161 2441.96 570.619 2440.33 570.439 2438.35L568.994 2395.56L591.203 2394.83L591.383 2397.54L581.272 2397.9L582.716 2440.15C582.716 2440.69 582.897 2441.06 583.258 2441.24C583.619 2441.6 583.98 2441.6 584.522 2441.6H587.23C588.675 2441.6 590.119 2441.42 591.383 2441.06C592.828 2440.69 594.091 2440.33 595.175 2439.79L593.73 2394.83L605.286 2394.47L606.008 2416.32L608.716 2416.14L607.994 2394.29L619.911 2393.93L621.536 2443.76L609.619 2444.13L608.716 2418.85L606.008 2419.03L606.911 2443.76L595.536 2444.13L594.994 2442.5ZM624.064 2404.58C623.883 2400.61 625.327 2397.72 628.036 2395.74C630.925 2393.75 635.258 2392.67 640.855 2392.49C646.453 2392.31 650.786 2393.03 653.855 2394.83C656.925 2396.64 658.369 2399.53 658.55 2403.32C658.73 2407.29 657.286 2410.18 654.397 2412.17C651.508 2414.15 647.355 2415.24 641.577 2415.42C635.98 2415.6 631.647 2414.87 628.577 2413.07C625.869 2411.44 624.244 2408.56 624.064 2404.58ZM662.522 2392.49L675.702 2392.12L676.425 2414.69L663.244 2415.06L662.522 2392.49ZM641.758 2413.61C642.661 2413.61 643.203 2413.43 643.744 2413.07C644.286 2412.71 644.647 2412.17 645.008 2411.44C645.369 2410.72 645.55 2409.64 645.55 2408.56C645.55 2407.29 645.73 2405.85 645.55 2404.22C645.369 2400.79 645.008 2398.44 644.466 2397C643.925 2395.56 642.841 2394.83 641.216 2395.01C639.591 2395.01 638.508 2395.74 637.966 2397.18C637.425 2398.63 637.244 2400.97 637.425 2404.4C637.425 2406.03 637.605 2407.47 637.786 2408.74C637.966 2410 638.147 2410.9 638.508 2411.63C638.869 2412.35 639.23 2412.89 639.772 2413.25C640.133 2413.43 640.855 2413.61 641.758 2413.61ZM677.869 2439.25L678.05 2441.96L632.008 2443.4C630.564 2443.4 629.3 2443.04 628.397 2442.32C627.494 2441.6 626.952 2440.69 626.952 2439.43C626.952 2438.17 627.314 2437.08 628.216 2436.36C629.119 2435.64 630.383 2435.1 631.828 2435.1L664.328 2434.01L664.147 2431.12L631.286 2432.21C629.841 2432.21 628.758 2431.85 627.855 2431.12C626.952 2430.4 626.591 2429.32 626.591 2428.24C626.591 2427.15 626.952 2426.07 627.675 2425.35C628.577 2424.44 629.661 2424.08 631.105 2423.9L663.966 2422.82L663.786 2419.93L627.494 2421.19L627.314 2418.49L672.091 2417.04C673.536 2417.04 674.619 2417.4 675.522 2418.13C676.425 2418.85 676.966 2419.75 676.966 2421.01C676.966 2422.28 676.605 2423.18 675.702 2424.08C674.98 2424.81 673.716 2425.35 672.453 2425.35L639.591 2426.43L639.772 2429.32L672.633 2428.24C674.078 2428.24 675.161 2428.6 676.064 2429.32C676.966 2430.04 677.508 2431.13 677.508 2432.21C677.508 2433.29 677.147 2434.38 676.244 2435.28C675.522 2436.18 674.258 2436.54 672.994 2436.54L640.133 2437.63L640.314 2440.51L677.869 2439.25ZM700.258 2393.93L680.578 2394.65L680.397 2391.94L710.008 2391.04C710.911 2391.04 711.814 2391.22 712.355 2391.94C712.897 2392.49 713.258 2393.39 713.258 2394.29L713.98 2414.51L700.98 2414.87L700.258 2393.93ZM680.216 2419.75L684.911 2419.57L684.369 2403.68L697.55 2403.32L698.091 2418.13C698.091 2418.85 698.452 2419.21 699.175 2419.21L706.758 2419.03C708.744 2419.03 710.55 2418.85 712.355 2418.67C714.161 2418.31 715.605 2418.12 716.869 2417.58L715.966 2391.04L729.147 2390.68L729.689 2407.47L734.383 2407.29L734.564 2410.54L729.869 2410.72L730.591 2430.4L717.411 2430.76L717.05 2420.47C715.786 2421.01 714.161 2421.38 712.355 2421.56C710.55 2421.74 708.564 2421.92 706.577 2421.92L680.578 2422.82L680.216 2419.75ZM694.48 2424.99L694.841 2436.9C694.841 2437.44 695.022 2437.81 695.383 2438.17C695.744 2438.53 696.105 2438.53 696.647 2438.53L731.133 2437.44V2440.15L688.522 2441.6C687.619 2441.6 686.716 2441.42 685.814 2441.06C685.091 2440.69 684.369 2440.33 683.647 2439.61C683.105 2439.07 682.564 2438.17 682.202 2437.44C681.841 2436.54 681.661 2435.64 681.661 2434.74L681.3 2425.53L694.48 2424.99Z" fill="#383448"/>
<path d="M395.12 1503.43L408.301 1503.07L408.662 1516.25L413.356 1516.07L413.537 1519.32L408.843 1519.5L409.204 1532.86L396.023 1533.22L395.12 1503.43ZM359.912 1531.24C361.176 1531.24 362.44 1530.88 363.704 1530.15C364.968 1529.43 366.051 1528.35 366.954 1527.08C367.856 1525.82 368.759 1524.19 369.301 1522.21C369.843 1520.4 370.204 1518.24 370.023 1515.89L369.662 1504.33L381.94 1503.97L382.301 1515.53C382.481 1518.24 381.94 1520.58 380.676 1522.75C379.593 1524.92 377.968 1526.72 375.801 1528.35C373.815 1529.79 371.468 1531.06 368.579 1531.96C365.87 1532.86 362.981 1533.22 359.731 1533.4L359.912 1531.24ZM382.12 1526.36C382.12 1524.56 382.481 1523.11 383.565 1521.85C384.648 1520.58 386.093 1520.04 387.898 1520.04C389.704 1520.04 391.148 1520.58 392.412 1521.67C393.676 1522.75 394.218 1524.19 394.218 1526C394.218 1527.81 393.676 1529.25 392.593 1530.51C391.509 1531.6 390.065 1532.32 388.259 1532.32C386.454 1532.32 385.009 1531.96 383.745 1530.88C382.843 1529.79 382.12 1528.35 382.12 1526.36ZM361.356 1545.5C361.356 1543.88 361.718 1542.43 362.62 1541.17C363.523 1539.9 364.968 1538.82 366.773 1537.92C368.759 1537.01 371.287 1536.29 374.176 1535.75C377.245 1535.21 380.856 1534.85 385.009 1534.67C389.162 1534.49 392.954 1534.67 396.023 1535.03C399.093 1535.39 401.62 1535.93 403.606 1536.65C405.593 1537.38 407.037 1538.46 408.12 1539.72C409.023 1540.99 409.565 1542.25 409.745 1543.88C409.745 1545.5 409.384 1546.94 408.481 1548.21C407.579 1549.47 406.134 1550.56 404.329 1551.46C402.343 1552.36 399.995 1553.08 396.926 1553.63C393.856 1554.17 390.245 1554.53 386.093 1554.71C381.94 1554.89 378.148 1554.71 375.079 1554.35C372.009 1553.99 369.481 1553.44 367.495 1552.72C365.509 1552 364.065 1550.92 362.981 1549.83C361.898 1548.57 361.356 1547.13 361.356 1545.5ZM374.537 1545.14C374.537 1546.22 374.898 1547.31 375.44 1548.21C375.981 1549.11 376.884 1549.83 377.787 1550.38C378.87 1550.92 379.954 1551.46 381.398 1551.64C382.843 1552 384.287 1552 385.912 1552C387.537 1552 389.162 1551.64 390.426 1551.28C391.69 1550.92 392.954 1550.38 393.856 1549.65C394.759 1549.11 395.481 1548.21 396.023 1547.31C396.565 1546.4 396.745 1545.32 396.745 1544.24C396.745 1543.15 396.384 1542.07 395.843 1541.17C395.301 1540.26 394.579 1539.54 393.495 1539C392.412 1538.46 391.329 1537.92 389.884 1537.74C388.44 1537.38 386.995 1537.38 385.37 1537.38C383.745 1537.38 382.301 1537.74 380.856 1538.1C379.593 1538.46 378.329 1539 377.426 1539.72C376.523 1540.26 375.801 1541.17 375.259 1542.07C374.718 1542.97 374.356 1543.88 374.537 1545.14ZM417.87 1522.57C420.579 1522.57 423.106 1522.03 425.273 1521.13C427.44 1520.22 429.426 1519.14 430.87 1517.88C432.495 1516.43 433.579 1514.99 434.481 1513.18C435.384 1511.38 435.745 1509.39 435.745 1507.4L435.565 1501.99L449.648 1501.44L449.829 1506.86C450.009 1509.75 449.106 1512.46 447.481 1514.63C445.856 1516.79 443.509 1518.6 440.62 1520.04C437.731 1521.49 434.301 1522.57 430.329 1523.29C426.356 1524.01 422.384 1524.56 418.051 1524.74L417.87 1522.57ZM459.579 1523.29C457.412 1523.29 455.787 1522.75 454.343 1521.49C453.079 1520.22 452.356 1518.6 452.356 1516.43C452.356 1514.44 452.898 1512.64 454.162 1511.38C455.426 1510.11 457.051 1509.39 459.218 1509.39C461.204 1509.39 463.009 1509.93 464.273 1511.19C465.537 1512.46 466.259 1514.08 466.259 1516.07C466.259 1518.24 465.718 1519.86 464.454 1521.31C463.19 1522.57 461.565 1523.29 459.579 1523.29ZM417.69 1528.35L468.968 1526.72V1529.43L417.69 1531.06V1528.35ZM418.773 1543.88C418.773 1542.25 419.134 1540.81 420.037 1539.54C420.94 1538.28 422.384 1537.19 424.37 1536.29C426.356 1535.39 428.884 1534.67 432.134 1534.13C435.384 1533.58 439.176 1533.22 443.69 1533.04C448.204 1532.86 451.995 1533.04 455.245 1533.22C458.495 1533.58 461.023 1534.13 463.009 1534.85C464.995 1535.57 466.62 1536.47 467.523 1537.74C468.426 1539 468.968 1540.26 469.148 1541.89C469.148 1543.51 468.787 1544.96 467.884 1546.22C466.981 1547.49 465.537 1548.57 463.551 1549.47C461.565 1550.38 459.037 1551.1 455.787 1551.64C452.718 1552.18 448.745 1552.54 444.231 1552.72C439.718 1552.9 435.926 1552.72 432.676 1552.54C429.426 1552.18 426.898 1551.64 424.912 1550.92C422.926 1550.19 421.481 1549.29 420.398 1548.03C419.315 1546.94 418.954 1545.5 418.773 1543.88ZM431.954 1543.33C431.954 1545.86 433.037 1547.67 435.204 1548.57C437.37 1549.65 440.259 1550.01 444.231 1550.01C448.023 1549.83 451.093 1549.29 453.079 1548.03C455.065 1546.94 456.148 1545.14 455.968 1542.61C455.968 1540.08 454.704 1538.46 452.718 1537.38C450.551 1536.29 447.662 1535.93 443.87 1535.93C440.079 1536.11 437.009 1536.65 435.023 1537.92C432.856 1539.18 431.773 1540.99 431.954 1543.33ZM492.259 1502.89L472.579 1503.61V1500.9L502.19 1500C503.093 1500 503.995 1500.18 504.537 1500.9C505.079 1501.44 505.44 1502.35 505.44 1503.25L506.162 1523.47L493.162 1523.83L492.259 1502.89ZM472.218 1528.53L476.912 1528.35L476.37 1512.64L489.551 1512.28L490.093 1527.08C490.093 1527.81 490.454 1528.17 491.176 1528.17L498.759 1527.99C500.745 1527.99 502.551 1527.81 504.356 1527.63C506.162 1527.44 507.606 1527.08 508.87 1526.54L507.968 1500L521.148 1499.64L521.69 1516.43L526.384 1516.25L526.565 1519.5L521.87 1519.68L522.593 1539.36L509.412 1539.72L508.87 1528.89C507.606 1529.43 505.981 1529.79 504.176 1529.97C502.37 1530.15 500.384 1530.33 498.398 1530.33L472.398 1531.24L472.218 1528.53ZM486.481 1533.94L486.843 1545.86C486.843 1546.4 487.023 1546.76 487.384 1546.94C487.745 1547.31 488.106 1547.31 488.648 1547.31L523.134 1546.22V1548.93L480.523 1550.38C479.62 1550.38 478.718 1550.19 477.815 1549.83C477.093 1549.47 476.37 1548.93 475.648 1548.39C475.106 1547.85 474.565 1546.94 474.204 1546.22C473.843 1545.32 473.662 1544.42 473.662 1543.51L473.301 1534.31L486.481 1533.94Z" fill="#383448"/>
<rect x="1170.87" y="2364.01" width="273.917" height="84.5008" rx="42.2504" transform="rotate(-20.6025 1170.87 2364.01)" fill="#D5D4DF" stroke="black" stroke-width="1.80556"/>
<path d="M1268.48 2367.99C1269.85 2367.47 1271.05 2366.84 1272.06 2366.09C1273.1 2365.33 1273.94 2364.5 1274.58 2363.6C1275.21 2362.67 1275.63 2361.71 1275.84 2360.7C1276.07 2359.68 1276.06 2358.65 1275.82 2357.62L1266.42 2361.15L1265.87 2359.67L1275.33 2356.11L1274.33 2353.44L1282.44 2350.39L1283.44 2353.07L1292.52 2349.65L1293.08 2351.13L1283.48 2354.74C1283.83 2356.25 1283.68 2357.7 1283.03 2359.1C1282.39 2360.47 1281.39 2361.76 1280.04 2362.98C1278.71 2364.19 1277.08 2365.32 1275.14 2366.36C1273.21 2367.41 1271.14 2368.35 1268.93 2369.18L1268.48 2367.99ZM1287.08 2359.23C1286.69 2358.18 1286.69 2357.21 1287.09 2356.32C1287.51 2355.41 1288.26 2354.74 1289.36 2354.33C1290.41 2353.94 1291.38 2353.95 1292.27 2354.37C1293.16 2354.78 1293.8 2355.5 1294.19 2356.55C1294.6 2357.63 1294.6 2358.62 1294.21 2359.52C1293.81 2360.41 1293.08 2361.05 1292.03 2361.45C1290.93 2361.86 1289.93 2361.87 1289.03 2361.47C1288.13 2361.05 1287.48 2360.3 1287.08 2359.23ZM1269.87 2372.09L1280.53 2368.08L1279.22 2364.61L1286.62 2361.82L1287.71 2364.72C1287.86 2365.11 1288.12 2365.23 1288.51 2365.08L1297.68 2361.63L1298.24 2363.12L1270.43 2373.57L1269.87 2372.09ZM1272.97 2380.33C1272.66 2379.49 1272.63 2378.67 1272.89 2377.86C1273.16 2377.02 1273.76 2376.19 1274.7 2375.35C1275.64 2374.48 1276.96 2373.6 1278.64 2372.73C1280.34 2371.84 1282.44 2370.93 1284.95 2369.98C1287.46 2369.04 1289.64 2368.34 1291.48 2367.9C1293.34 2367.44 1294.9 2367.24 1296.17 2367.27C1297.44 2367.28 1298.45 2367.52 1299.19 2367.98C1299.94 2368.41 1300.47 2369.04 1300.78 2369.87C1301.1 2370.71 1301.11 2371.54 1300.83 2372.35C1300.58 2373.18 1299.98 2374.02 1299.02 2374.87C1298.09 2375.71 1296.77 2376.57 1295.07 2377.46C1293.39 2378.33 1291.3 2379.24 1288.79 2380.19C1286.28 2381.13 1284.09 2381.83 1282.23 2382.29C1280.39 2382.73 1278.83 2382.95 1277.55 2382.94C1276.3 2382.92 1275.29 2382.69 1274.53 2382.24C1273.81 2381.8 1273.29 2381.17 1272.97 2380.33ZM1280.05 2377.67C1280.53 2378.93 1281.45 2379.63 1282.82 2379.75C1284.2 2379.89 1286 2379.55 1288.23 2378.71C1290.46 2377.87 1292.05 2376.94 1292.99 2375.93C1293.94 2374.93 1294.18 2373.8 1293.7 2372.54C1293.22 2371.25 1292.29 2370.54 1290.92 2370.42C1289.55 2370.28 1287.74 2370.63 1285.51 2371.46C1283.28 2372.3 1281.69 2373.23 1280.75 2374.25C1279.8 2375.24 1279.57 2376.38 1280.05 2377.67ZM1300.17 2360.4L1310.54 2356.51L1309.34 2353.32L1302.81 2355.78C1301.73 2356.18 1300.75 2356.18 1299.87 2355.78C1298.98 2355.38 1298.34 2354.64 1297.93 2353.57L1295.2 2346.29L1321.69 2336.34L1322.25 2337.82L1302.87 2345.1L1305.5 2352.09C1305.59 2352.34 1305.75 2352.53 1305.96 2352.64C1306.19 2352.73 1306.43 2352.72 1306.69 2352.63L1325.65 2345.5L1326.21 2346.98L1316.74 2350.54L1317.71 2353.11C1317.86 2353.52 1318.13 2353.65 1318.52 2353.51L1327.98 2349.95L1328.54 2351.43L1300.73 2361.89L1300.17 2360.4ZM1303.26 2368.61C1302.94 2367.78 1302.92 2366.95 1303.18 2366.15C1303.45 2365.31 1304.05 2364.47 1304.99 2363.63C1305.94 2362.78 1307.26 2361.92 1308.94 2361.04C1310.64 2360.16 1312.74 2359.24 1315.25 2358.3C1317.76 2357.36 1319.94 2356.66 1321.78 2356.21C1323.64 2355.76 1325.2 2355.54 1326.46 2355.56C1327.73 2355.57 1328.74 2355.8 1329.47 2356.26C1330.22 2356.69 1330.75 2357.32 1331.07 2358.16C1331.38 2359 1331.4 2359.82 1331.12 2360.64C1330.87 2361.47 1330.27 2362.31 1329.31 2363.15C1328.39 2364.02 1327.07 2364.89 1325.37 2365.77C1323.69 2366.65 1321.6 2367.56 1319.09 2368.5C1316.58 2369.45 1314.39 2370.15 1312.53 2370.6C1310.69 2371.05 1309.13 2371.26 1307.84 2371.23C1306.59 2371.21 1305.58 2370.97 1304.82 2370.52C1304.09 2370.09 1303.57 2369.45 1303.26 2368.61ZM1310.34 2365.95C1310.82 2367.24 1311.75 2367.94 1313.12 2368.07C1314.5 2368.21 1316.3 2367.86 1318.53 2367.02C1320.76 2366.18 1322.35 2365.26 1323.29 2364.24C1324.24 2363.25 1324.47 2362.11 1323.99 2360.82C1323.51 2359.55 1322.59 2358.86 1321.22 2358.74C1319.84 2358.59 1318.04 2358.94 1315.81 2359.78C1313.58 2360.62 1311.99 2361.55 1311.05 2362.56C1310.1 2363.56 1309.86 2364.68 1310.34 2365.95ZM1350.46 2339.92L1347.27 2341.12C1347.02 2342.61 1346.33 2343.95 1345.18 2345.14C1344.04 2346.33 1342.44 2347.31 1340.41 2348.07C1337.34 2349.23 1334.73 2349.36 1332.59 2348.48C1330.44 2347.59 1328.87 2345.83 1327.88 2343.19C1326.88 2340.53 1326.9 2338.17 1327.94 2336.12C1328.97 2334.04 1331.02 2332.42 1334.09 2331.27C1336.24 2330.46 1338.14 2330.15 1339.8 2330.34C1341.48 2330.51 1342.92 2331.15 1344.12 2332.24L1347.14 2331.1L1345.7 2327.27L1352.82 2324.6L1360.91 2346.13L1353.8 2348.81L1350.46 2339.92ZM1339.96 2346.88C1340.41 2346.71 1340.74 2346.44 1340.94 2346.07C1341.14 2345.7 1341.22 2345.19 1341.18 2344.55C1341.13 2343.91 1340.97 2343.12 1340.69 2342.2C1340.41 2341.25 1340.02 2340.12 1339.53 2338.81C1339.04 2337.5 1338.59 2336.4 1338.18 2335.5C1337.77 2334.6 1337.37 2333.91 1336.99 2333.41C1336.6 2332.9 1336.21 2332.57 1335.81 2332.42C1335.41 2332.28 1334.99 2332.29 1334.54 2332.46C1334.09 2332.63 1333.76 2332.9 1333.56 2333.27C1333.37 2333.63 1333.31 2334.14 1333.35 2334.78C1333.39 2335.4 1333.55 2336.19 1333.83 2337.13C1334.11 2338.08 1334.5 2339.21 1334.99 2340.52C1335.49 2341.83 1335.94 2342.93 1336.35 2343.83C1336.75 2344.71 1337.15 2345.4 1337.54 2345.92C1337.93 2346.43 1338.31 2346.77 1338.69 2346.92C1339.08 2347.06 1339.51 2347.05 1339.96 2346.88ZM1349.9 2338.44L1347.7 2332.58L1345.25 2333.5C1345.82 2334.29 1346.28 2335.17 1346.65 2336.14C1347.06 2337.23 1347.29 2338.32 1347.36 2339.4L1349.9 2338.44ZM1339.18 2349.89L1341.81 2356.88C1341.9 2357.14 1342.06 2357.32 1342.27 2357.44C1342.51 2357.54 1342.77 2357.55 1343.05 2357.44L1362.58 2350.1L1363.14 2351.58L1339.16 2360.59C1338.07 2361 1337.07 2361 1336.18 2360.57C1335.29 2360.17 1334.65 2359.43 1334.24 2358.36L1332.07 2352.57L1339.18 2349.89Z" fill="#383448"/>
<rect x="1447.54" y="2260" width="124.981" height="84.5008" rx="42.2504" transform="rotate(-20.6025 1447.54 2260)" fill="#D5D4DF" stroke="black" stroke-width="1.80556"/>
<path d="M1514.69 2267.57L1511.03 2271.81L1509.16 2270.64L1513.98 2264.78L1520.8 2262.22L1530.51 2288.03L1523.39 2290.71L1514.69 2267.57Z" fill="#383448"/>
<rect x="1584.81" y="2208.4" width="124.981" height="84.5008" rx="42.2504" transform="rotate(-20.6025 1584.81 2208.4)" fill="#D5D4DF" stroke="black" stroke-width="1.80556"/>
<path d="M1652.32 2239.05C1651.76 2237.57 1651.59 2236.2 1651.8 2234.94C1652.03 2233.66 1652.45 2232.44 1653.08 2231.3C1653.69 2230.14 1654.42 2229.03 1655.25 2227.99C1656.07 2226.92 1656.82 2225.87 1657.48 2224.83C1658.14 2223.78 1658.61 2222.72 1658.89 2221.66C1659.2 2220.59 1659.13 2219.46 1658.69 2218.28C1657.84 2216.01 1657 2214.45 1656.2 2213.6C1655.41 2212.74 1654.54 2212.49 1653.6 2212.85C1652.72 2213.18 1652.24 2213.92 1652.16 2215.08C1652.09 2216.21 1652.5 2217.94 1653.38 2220.28L1646.27 2222.95C1645.79 2221.69 1645.6 2220.47 1645.7 2219.31C1645.83 2218.13 1646.19 2217.05 1646.8 2216.07C1647.4 2215.06 1648.23 2214.16 1649.28 2213.37C1650.35 2212.58 1651.6 2211.91 1653.04 2211.37C1654.48 2210.83 1655.85 2210.51 1657.16 2210.41C1658.49 2210.3 1659.72 2210.43 1660.83 2210.79C1661.96 2211.12 1662.95 2211.7 1663.79 2212.51C1664.66 2213.31 1665.33 2214.34 1665.8 2215.61C1666.39 2217.17 1666.57 2218.6 1666.35 2219.89C1666.13 2221.14 1665.71 2222.33 1665.08 2223.45C1664.45 2224.57 1663.71 2225.63 1662.86 2226.63C1662.01 2227.64 1661.26 2228.66 1660.59 2229.69C1659.92 2230.7 1659.43 2231.75 1659.13 2232.85C1658.85 2233.93 1658.95 2235.11 1659.43 2236.37L1659.9 2237.63L1672.04 2233.07L1672.59 2234.55L1653.34 2241.78L1652.32 2239.05Z" fill="#383448"/>
<rect x="1908.67" y="2086.65" width="146.366" height="84.5008" rx="42.2504" transform="rotate(-20.6025 1908.67 2086.65)" fill="#D5D4DF" stroke="black" stroke-width="1.80556"/>
<path d="M1980.45 2110.4L1985.48 2087.54L1992.56 2084.87L1999.51 2103.35L2003.21 2101.96L2003.76 2103.44L2000.06 2104.83L2002.26 2110.69L1995.18 2113.35L1992.98 2107.49L1981.04 2111.98L1980.45 2110.4ZM1992.42 2106.01L1987.5 2092.91L1983.99 2109.18L1992.42 2106.01Z" fill="#383448"/>
<rect x="2065.95" y="2027.53" width="146.366" height="84.5008" rx="42.2504" transform="rotate(-20.6025 2065.95 2027.53)" fill="#D5D4DF" stroke="black" stroke-width="1.80556"/>
<path d="M2145.78 2051.19C2146.4 2052.52 2147.12 2053.47 2147.94 2054.01C2148.76 2054.56 2149.58 2054.69 2150.39 2054.38C2151.49 2053.97 2152.07 2052.99 2152.15 2051.44C2152.22 2049.87 2151.81 2047.88 2150.9 2045.48C2150.02 2043.14 2149.06 2041.46 2148.01 2040.43C2146.99 2039.4 2145.93 2039.08 2144.83 2039.5C2143.31 2040.07 2142.77 2041.68 2143.2 2044.33L2136.63 2046.8L2132.23 2032.37L2149.52 2025.87L2150.08 2027.35L2139.2 2031.44L2141.94 2040.21C2142.22 2039.65 2142.6 2039.12 2143.08 2038.65C2143.56 2038.17 2144.18 2037.79 2144.93 2037.51C2147.94 2036.38 2150.52 2036.23 2152.7 2037.05C2154.89 2037.87 2156.57 2039.82 2157.73 2042.91C2158.84 2045.88 2158.82 2048.46 2157.66 2050.65C2156.53 2052.87 2154.3 2054.6 2150.95 2055.86C2149.51 2056.4 2148.15 2056.75 2146.86 2056.92C2145.61 2057.1 2144.46 2057.09 2143.4 2056.9C2142.38 2056.72 2141.49 2056.37 2140.73 2055.84C2139.96 2055.3 2139.38 2054.59 2138.97 2053.71L2145.78 2051.19Z" fill="#383448"/>
<rect x="1722.07" y="2156.8" width="177.681" height="84.5008" rx="42.2504" transform="rotate(-20.6025 1722.07 2156.8)" fill="#D5D4DF" stroke="black" stroke-width="1.80556"/>
<path d="M1814.89 2173.37C1815.61 2175.28 1816.52 2176.66 1817.62 2177.49C1818.71 2178.33 1819.81 2178.54 1820.9 2178.13C1822 2177.72 1822.68 2176.84 1822.96 2175.49C1823.23 2174.13 1823.01 2172.5 1822.29 2170.59C1821.58 2168.7 1820.63 2167.35 1819.44 2166.52C1818.24 2165.67 1816.93 2165.52 1815.52 2166.05L1813.75 2166.71L1813.19 2165.23L1814.96 2164.57C1816.25 2164.08 1817.04 2163.25 1817.33 2162.06C1817.63 2160.85 1817.46 2159.39 1816.82 2157.7C1816.19 2156 1815.38 2154.78 1814.42 2154.04C1813.48 2153.3 1812.51 2153.11 1811.53 2153.48C1810.5 2153.87 1809.89 2154.69 1809.71 2155.96C1809.51 2157.21 1809.74 2158.68 1810.37 2160.38L1803.57 2162.9C1802.72 2160.65 1802.92 2158.57 1804.17 2156.68C1805.44 2154.79 1807.71 2153.22 1810.97 2152C1812.49 2151.43 1813.93 2151.06 1815.29 2150.89C1816.65 2150.72 1817.87 2150.78 1818.95 2151.05C1820.05 2151.3 1821 2151.77 1821.79 2152.45C1822.59 2153.13 1823.2 2154.03 1823.61 2155.14C1823.83 2155.72 1823.95 2156.36 1823.97 2157.07C1824.01 2157.76 1823.95 2158.46 1823.8 2159.15C1823.64 2159.85 1823.4 2160.53 1823.06 2161.19C1822.71 2161.84 1822.27 2162.39 1821.74 2162.86C1822.45 2162.87 1823.18 2163.01 1823.92 2163.29C1824.69 2163.57 1825.41 2163.95 1826.08 2164.43C1826.76 2164.88 1827.37 2165.43 1827.9 2166.06C1828.45 2166.66 1828.85 2167.32 1829.12 2168.03C1830.05 2170.49 1829.83 2172.73 1828.48 2174.73C1827.16 2176.75 1824.82 2178.39 1821.47 2179.64C1818.13 2180.9 1815.29 2181.21 1812.97 2180.56C1810.65 2179.94 1809.03 2178.4 1808.1 2175.93L1814.89 2173.37Z" fill="#383448"/>
<rect x="2202.5" y="1940.09" width="134.33" height="90.8648" rx="45.4324" transform="rotate(-79.8632 2202.5 1940.09)" fill="#D5D4DF" stroke="#4C5A51" stroke-width="1.80556"/>
<path d="M2246.41 1877.23C2246.05 1879.26 2246.63 1880.98 2248.15 1882.38C2249.68 1883.77 2252.13 1884.77 2255.5 1885.38C2254.3 1883.84 2253.88 1882.04 2254.25 1879.98C2254.88 1876.46 2256.23 1873.9 2258.32 1872.3C2260.38 1870.7 2263.24 1870.22 2266.9 1870.87C2268.5 1871.16 2269.86 1871.69 2270.97 1872.46C2272.09 1873.21 2272.96 1874.17 2273.61 1875.34C2274.25 1876.5 2274.65 1877.85 2274.8 1879.37C2274.97 1880.91 2274.9 1882.59 2274.57 1884.43C2274.14 1886.81 2273.49 1888.71 2272.61 1890.12C2271.73 1891.54 2270.63 1892.61 2269.3 1893.32C2267.98 1894.01 2266.45 1894.39 2264.71 1894.45C2262.96 1894.49 2261.01 1894.31 2258.88 1893.93C2256.26 1893.46 2253.96 1892.84 2251.97 1892.06C2249.99 1891.28 2248.37 1890.25 2247.12 1888.98C2245.88 1887.71 2245.03 1886.13 2244.59 1884.25C2244.15 1882.37 2244.18 1880.09 2244.66 1877.4L2245.91 1870.38L2247.58 1870.68L2246.41 1877.23ZM2272.89 1884.17C2273.02 1883.44 2272.91 1882.78 2272.57 1882.16C2272.26 1881.56 2271.76 1881.02 2271.1 1880.55C2270.43 1880.08 2269.63 1879.69 2268.68 1879.37C2267.72 1879.02 2266.67 1878.75 2265.53 1878.54C2262.74 1878.04 2260.54 1877.99 2258.92 1878.37C2257.31 1878.74 2256.37 1879.67 2256.1 1881.17C2255.82 1882.74 2256.38 1883.97 2257.8 1884.85C2259.2 1885.72 2261.27 1886.41 2264.04 1886.9C2265.18 1887.11 2266.25 1887.22 2267.27 1887.26C2268.27 1887.26 2269.17 1887.16 2269.95 1886.95C2270.74 1886.74 2271.39 1886.42 2271.89 1885.98C2272.42 1885.53 2272.75 1884.92 2272.89 1884.17Z" fill="#383448"/>
<rect x="2267.88" y="1574.39" width="134.33" height="90.8648" rx="45.4324" transform="rotate(-79.8632 2267.88 1574.39)" fill="#D5D4DF" stroke="#4C5A51" stroke-width="1.80556"/>
<path d="M2322.04 1523.03C2321.16 1524.2 2320.06 1525.04 2318.74 1525.55C2317.42 1526.07 2315.97 1526.18 2314.37 1525.9C2313.03 1525.66 2311.93 1525.2 2311.05 1524.52C2310.15 1523.83 2309.47 1522.96 2309 1521.9C2308.55 1520.82 2308.28 1519.57 2308.21 1518.16C2308.14 1516.74 2308.25 1515.19 2308.56 1513.49C2308.86 1511.8 2309.29 1510.3 2309.85 1509C2310.41 1507.67 2311.09 1506.58 2311.9 1505.73C2312.7 1504.87 2313.64 1504.28 2314.73 1503.94C2315.79 1503.58 2316.99 1503.52 2318.32 1503.76C2319.92 1504.05 2321.28 1504.66 2322.38 1505.61C2323.49 1506.56 2324.2 1507.74 2324.53 1509.15C2324.93 1508.44 2325.43 1507.82 2326.02 1507.28C2326.6 1506.7 2327.26 1506.25 2327.99 1505.9C2328.73 1505.54 2329.55 1505.29 2330.45 1505.18C2331.35 1505.04 2332.3 1505.06 2333.29 1505.24C2334.72 1505.49 2335.92 1506.03 2336.9 1506.86C2337.88 1507.66 2338.64 1508.67 2339.17 1509.89C2339.7 1511.11 2340.02 1512.5 2340.11 1514.07C2340.23 1515.64 2340.13 1517.31 2339.82 1519.08C2339.5 1520.85 2339.01 1522.45 2338.36 1523.89C2337.73 1525.3 2336.95 1526.49 2336.03 1527.45C2335.11 1528.41 2334.05 1529.09 2332.85 1529.5C2331.65 1529.91 2330.34 1529.99 2328.91 1529.74C2326.9 1529.38 2325.28 1528.61 2324.07 1527.44C2322.83 1526.25 2322.16 1524.78 2322.04 1523.03ZM2322.51 1515.99C2322.63 1515.36 2322.57 1514.79 2322.33 1514.27C2322.08 1513.75 2321.68 1513.29 2321.15 1512.9C2320.63 1512.5 2319.98 1512.17 2319.23 1511.91C2318.48 1511.63 2317.67 1511.41 2316.8 1511.25C2315.92 1511.1 2315.11 1511.03 2314.36 1511.04C2313.59 1511.03 2312.91 1511.12 2312.32 1511.32C2311.72 1511.48 2311.23 1511.77 2310.86 1512.18C2310.46 1512.58 2310.2 1513.11 2310.08 1513.77C2309.97 1514.42 2310.03 1514.99 2310.26 1515.49C2310.48 1515.97 2310.84 1516.41 2311.34 1516.8C2311.83 1517.17 2312.43 1517.47 2313.16 1517.73C2313.87 1517.98 2314.66 1518.19 2315.53 1518.34C2316.4 1518.5 2317.24 1518.58 2318.03 1518.6C2318.84 1518.59 2319.55 1518.51 2320.18 1518.35C2320.81 1518.16 2321.34 1517.88 2321.76 1517.5C2322.15 1517.12 2322.4 1516.62 2322.51 1515.99ZM2338.29 1518.81C2338.55 1517.33 2338.14 1516.06 2337.06 1514.99C2335.98 1513.92 2334.33 1513.19 2332.13 1512.79C2331.04 1512.6 2330.03 1512.54 2329.12 1512.63C2328.18 1512.71 2327.35 1512.92 2326.64 1513.24C2325.92 1513.53 2325.33 1513.94 2324.89 1514.46C2324.44 1514.98 2324.16 1515.58 2324.04 1516.26C2323.92 1516.92 2323.98 1517.56 2324.22 1518.21C2324.46 1518.82 2324.87 1519.41 2325.44 1519.96C2326 1520.49 2326.7 1520.95 2327.56 1521.35C2328.39 1521.75 2329.35 1522.05 2330.44 1522.24C2332.64 1522.64 2334.44 1522.53 2335.82 1521.93C2337.21 1521.3 2338.03 1520.26 2338.29 1518.81Z" fill="#383448"/>
<rect x="2295.6" y="1419.39" width="134.33" height="90.8648" rx="45.4324" transform="rotate(-79.8632 2295.6 1419.39)" fill="#D5D4DF" stroke="#4C5A51" stroke-width="1.80556"/>
<path d="M2363.18 1372.64L2364.35 1366.14C2364.72 1364.08 2364.14 1362.35 2362.61 1360.95C2361.09 1359.55 2358.64 1358.55 2355.27 1357.95C2356.47 1359.52 2356.88 1361.32 2356.52 1363.35C2355.89 1366.86 2354.54 1369.42 2352.48 1371.03C2350.42 1372.64 2347.55 1373.11 2343.86 1372.45C2342.26 1372.17 2340.91 1371.65 2339.79 1370.9C2338.68 1370.13 2337.8 1369.16 2337.16 1367.99C2336.52 1366.83 2336.12 1365.48 2335.97 1363.95C2335.79 1362.42 2335.87 1360.73 2336.2 1358.89C2336.62 1356.54 2337.27 1354.66 2338.15 1353.24C2339.03 1351.8 2340.13 1350.73 2341.46 1350.04C2342.78 1349.33 2344.33 1348.96 2346.08 1348.92C2347.82 1348.86 2349.75 1349.01 2351.89 1349.4C2354.5 1349.86 2356.81 1350.49 2358.79 1351.27C2360.78 1352.05 2362.39 1353.07 2363.64 1354.35C2364.89 1355.62 2365.73 1357.2 2366.17 1359.08C2366.61 1360.95 2366.59 1363.24 2366.11 1365.93L2364.86 1372.94L2363.18 1372.64ZM2354.67 1362.16C2354.95 1360.58 2354.39 1359.36 2353 1358.48C2351.58 1357.61 2349.49 1356.92 2346.73 1356.42C2345.61 1356.23 2344.55 1356.12 2343.52 1356.11C2342.5 1356.08 2341.6 1356.17 2340.81 1356.38C2340.02 1356.59 2339.38 1356.92 2338.87 1357.38C2338.34 1357.81 2338.01 1358.4 2337.88 1359.16C2337.74 1359.91 2337.85 1360.59 2338.19 1361.2C2338.51 1361.78 2339 1362.31 2339.67 1362.78C2340.33 1363.25 2341.15 1363.65 2342.11 1364C2343.08 1364.32 2344.12 1364.59 2345.23 1364.78C2348 1365.28 2350.2 1365.35 2351.84 1364.99C2353.46 1364.6 2354.4 1363.66 2354.67 1362.16Z" fill="#383448"/>
<rect x="2323.31" y="1264.39" width="134.33" height="90.8648" rx="45.4324" transform="rotate(-79.8632 2323.31 1264.39)" fill="#D5D4DF" stroke="#4C5A51" stroke-width="1.80556"/>
<path d="M2365.25 1220.33L2367.15 1226.03L2365.05 1227.12L2362.29 1219.46L2363.67 1211.75L2392.82 1216.97L2391.38 1225L2365.25 1220.33ZM2397.16 1198.34C2396.8 1200.38 2396.11 1202.12 2395.1 1203.56C2394.12 1204.99 2392.87 1206.11 2391.35 1206.94C2389.8 1207.77 2388.01 1208.28 2385.97 1208.49C2383.93 1208.68 2381.7 1208.56 2379.28 1208.12C2376.86 1207.69 2374.73 1207.03 2372.88 1206.15C2371.04 1205.25 2369.55 1204.15 2368.41 1202.84C2367.24 1201.53 2366.45 1200.04 2366.02 1198.36C2365.58 1196.66 2365.54 1194.79 2365.9 1192.75C2366.26 1190.72 2366.95 1188.99 2367.95 1187.57C2368.94 1186.12 2370.2 1184.98 2371.75 1184.16C2373.28 1183.31 2375.06 1182.79 2377.09 1182.6C2379.13 1182.39 2381.36 1182.5 2383.78 1182.94C2386.21 1183.37 2388.34 1184.04 2390.18 1184.94C2392.02 1185.82 2393.52 1186.93 2394.69 1188.26C2395.83 1189.56 2396.61 1191.07 2397.03 1192.77C2397.48 1194.45 2397.52 1196.31 2397.16 1198.34ZM2395.49 1198.04C2395.74 1196.61 2394.83 1195.3 2392.74 1194.1C2390.66 1192.88 2387.2 1191.83 2382.35 1190.97C2377.5 1190.1 2373.89 1189.88 2371.51 1190.31C2369.14 1190.71 2367.83 1191.62 2367.57 1193.05C2367.32 1194.48 2368.23 1195.81 2370.31 1197.03C2372.4 1198.23 2375.86 1199.26 2380.71 1200.13C2385.56 1200.99 2389.17 1201.23 2391.54 1200.83C2393.92 1200.4 2395.23 1199.47 2395.49 1198.04Z" fill="#383448"/>
<rect x="2351.02" y="1109.39" width="134.33" height="90.8648" rx="45.4324" transform="rotate(-79.8632 2351.02 1109.39)" fill="#D5D4DF" stroke="#4C5A51" stroke-width="1.80556"/>
<path d="M2393.54 1062.1L2395.44 1067.8L2393.34 1068.89L2390.58 1061.23L2391.96 1053.52L2421.11 1058.74L2419.67 1066.77L2393.54 1062.1ZM2397.27 1041.23L2399.18 1046.93L2397.07 1048.02L2394.31 1040.36L2395.69 1032.65L2424.84 1037.87L2423.4 1045.9L2397.27 1041.23Z" fill="#383448"/>
<rect x="2378.73" y="954.391" width="134.33" height="90.8648" rx="45.4324" transform="rotate(-79.8632 2378.73 954.391)" fill="#E69696" stroke="#4C5A51" stroke-width="1.80556"/>
<path d="M2420.96 908.711L2422.87 914.416L2420.76 915.502L2418 907.845L2419.38 900.139L2448.53 905.351L2447.1 913.384L2420.96 908.711ZM2446.48 898.562C2444.81 898.263 2443.45 897.671 2442.41 896.784C2441.35 895.869 2440.46 894.811 2439.75 893.608C2439.02 892.402 2438.4 891.128 2437.89 889.786C2437.35 888.44 2436.79 887.177 2436.2 885.997C2435.59 884.812 2434.87 883.796 2434.05 882.948C2433.23 882.077 2432.15 881.522 2430.82 881.283C2428.25 880.824 2426.35 880.735 2425.13 881.016C2423.9 881.273 2423.2 881.934 2423.01 883C2422.83 883.994 2423.25 884.845 2424.28 885.553C2425.28 886.232 2427.1 886.808 2429.74 887.28L2428.31 895.313C2426.88 895.058 2425.65 894.564 2424.64 893.831C2423.62 893.075 2422.82 892.144 2422.25 891.041C2421.64 889.933 2421.27 888.678 2421.12 887.276C2420.97 885.85 2421.05 884.325 2421.34 882.701C2421.63 881.078 2422.08 879.634 2422.71 878.371C2423.34 877.083 2424.13 876.024 2425.08 875.194C2426.01 874.335 2427.08 873.738 2428.29 873.404C2429.5 873.046 2430.82 872.995 2432.25 873.251C2434.02 873.567 2435.44 874.182 2436.5 875.097C2437.54 875.984 2438.4 877.026 2439.09 878.224C2439.78 879.422 2440.35 880.687 2440.81 882.02C2441.27 883.353 2441.8 884.61 2442.39 885.79C2442.95 886.967 2443.66 887.993 2444.5 888.869C2445.35 889.72 2446.49 890.274 2447.92 890.53L2449.34 890.783L2451.79 877.08L2453.46 877.379L2449.57 899.115L2446.48 898.562Z" fill="#383448"/>
<rect x="2230.21" y="1785.09" width="190.916" height="90.8648" rx="45.4324" transform="rotate(-79.8632 2230.21 1785.09)" fill="#D5D4DF" stroke="#4C5A51" stroke-width="1.80556"/>
<path d="M2303.94 1714.08C2299.04 1712.55 2294.43 1710.59 2290.14 1708.2C2285.84 1705.78 2281.86 1702.88 2278.19 1699.5L2275.83 1712.69L2274.16 1712.39L2277.98 1691.02L2279.65 1691.32C2283.35 1694.71 2287.41 1697.66 2291.83 1700.17C2296.24 1702.66 2300.75 1704.62 2305.37 1706.05L2303.94 1714.08Z" fill="#383448"/>
<rect x="829.559" y="2192.27" width="136.79" height="92.5395" rx="46.2697" transform="rotate(-97.5747 829.559 2192.27)" fill="#D5D4DF" stroke="#4C5A51" stroke-width="1.80556"/>
<path d="M855.827 2135.79L859.442 2140.73L857.735 2142.44L852.689 2135.87L851.639 2127.97L881.523 2123.99L882.618 2132.23L855.827 2135.79ZM871.767 2110.8C873.978 2110.5 875.664 2109.87 876.825 2108.91C877.986 2107.95 878.483 2106.83 878.314 2105.56C878.146 2104.3 877.375 2103.35 876.003 2102.72C874.63 2102.1 872.838 2101.93 870.627 2102.23C868.441 2102.52 866.762 2103.19 865.589 2104.26C864.391 2105.33 863.901 2106.68 864.119 2108.32L864.392 2110.37L862.678 2110.6L862.405 2108.55C862.207 2107.06 861.512 2106.02 860.32 2105.42C859.1 2104.8 857.508 2104.62 855.546 2104.88C853.583 2105.14 852.089 2105.69 851.064 2106.53C850.035 2107.35 849.597 2108.33 849.749 2109.48C849.907 2110.67 850.64 2111.52 851.946 2112.03C853.228 2112.54 854.85 2112.67 856.813 2112.41L857.821 2120.27C855.212 2120.62 853.056 2119.9 851.351 2118.1C849.642 2116.28 848.537 2113.48 848.035 2109.7C847.8 2107.94 847.761 2106.32 847.917 2104.83C848.073 2103.34 848.433 2102.06 848.997 2100.97C849.532 2099.86 850.26 2098.97 851.181 2098.29C852.102 2097.61 853.208 2097.19 854.5 2097.01C855.171 2096.92 855.883 2096.96 856.636 2097.11C857.387 2097.24 858.113 2097.47 858.815 2097.81C859.517 2098.14 860.181 2098.57 860.807 2099.1C861.407 2099.62 861.892 2100.23 862.262 2100.91C862.439 2100.15 862.77 2099.42 863.256 2098.69C863.738 2097.95 864.319 2097.28 864.998 2096.68C865.649 2096.06 866.377 2095.55 867.182 2095.14C867.959 2094.71 868.757 2094.44 869.577 2094.33C872.434 2093.95 874.762 2094.72 876.561 2096.66C878.382 2098.57 879.55 2101.46 880.066 2105.33C880.581 2109.21 880.209 2112.3 878.95 2114.62C877.715 2116.93 875.669 2118.28 872.813 2118.66L871.767 2110.8Z" fill="#383448"/>
<rect x="808.428" y="2033.37" width="136.79" height="92.5395" rx="46.2697" transform="rotate(-97.5747 808.428 2033.37)" fill="#D5D4DF" stroke="#4C5A51" stroke-width="1.80556"/>
<path d="M834.916 1978.54L838.531 1983.48L836.824 1985.19L831.778 1978.62L830.728 1970.72L860.612 1966.74L861.707 1974.98L834.916 1978.54ZM851.112 1961.17L827.996 1950.18L826.906 1941.98L848.295 1939.14L847.725 1934.85L849.439 1934.62L850.009 1938.91L856.791 1938.01L857.881 1946.2L851.099 1947.11L852.937 1960.93L851.112 1961.17ZM849.385 1947.33L834.219 1949.35L850.683 1957.1L849.385 1947.33Z" fill="#383448"/>
<rect x="787.297" y="1874.47" width="186.884" height="92.5395" rx="46.2697" transform="rotate(-97.5747 787.297 1874.47)" fill="#D5D4DF" stroke="#4C5A51" stroke-width="1.80556"/>
<path d="M810.263 1793.15L813.878 1798.1L812.171 1799.8L807.126 1793.23L806.075 1785.33L835.96 1781.36L837.055 1789.59L810.263 1793.15ZM828.35 1767.19C829.923 1766.85 831.104 1766.32 831.89 1765.58C832.677 1764.85 833.008 1764.01 832.882 1763.06C832.714 1761.79 831.815 1760.93 830.186 1760.46C828.531 1760 826.313 1759.95 823.531 1760.32C820.823 1760.68 818.794 1761.29 817.442 1762.16C816.087 1762.99 815.494 1764.05 815.662 1765.31C815.897 1767.08 817.48 1768.05 820.413 1768.25L821.424 1775.85L804.964 1776.97L802.303 1756.96L804.018 1756.74L805.692 1769.33L815.716 1768.57C815.178 1768.13 814.715 1767.6 814.328 1766.97C813.94 1766.34 813.689 1765.59 813.573 1764.72C813.111 1761.24 813.586 1758.45 815 1756.34C816.41 1754.2 818.903 1752.9 822.48 1752.42C825.909 1751.97 828.651 1752.63 830.707 1754.4C832.785 1756.15 834.081 1758.96 834.596 1762.83C834.818 1764.5 834.858 1766.03 834.717 1767.44C834.597 1768.82 834.305 1770.05 833.841 1771.12C833.398 1772.17 832.805 1773.03 832.061 1773.71C831.293 1774.4 830.392 1774.84 829.358 1775.06L828.35 1767.19Z" fill="#383448"/>
</svg>
