<svg width="324" height="323" viewBox="0 0 324 323" fill="none" xmlns="http://www.w3.org/2000/svg">
<path d="M140.997 287.649L210.947 261.194C211.829 260.862 212.818 261.237 213.263 262.07L214.759 264.913C215.172 265.702 216.079 266.084 216.93 265.84L237.278 259.916C238.229 259.641 238.799 258.67 238.58 257.706L237.841 254.443C237.635 253.542 238.123 252.628 238.981 252.289L284.646 234.412C285.109 234.231 285.484 233.867 285.685 233.41L287.569 229.015C287.863 228.326 288.539 227.881 289.284 227.881H295.136C296.031 227.881 296.8 227.243 296.969 226.366L300.625 207.28C300.756 206.592 300.493 205.884 299.936 205.452L293.677 200.58C293.139 200.161 292.87 199.485 292.976 198.815L311.296 83.042C311.44 82.1341 312.222 81.4641 313.143 81.4641H320.935C321.968 81.4641 322.8 80.625 322.8 79.5981V57.7886C322.8 56.8556 322.112 56.0667 321.191 55.9352L278.524 49.9239C277.529 49.7862 276.603 50.4562 276.428 51.4455L246.886 218.188C246.773 218.839 246.322 219.378 245.703 219.61L130.726 262.89C129.731 263.266 129.249 264.387 129.662 265.364L138.619 286.616C139.007 287.543 140.058 287.994 140.997 287.637V287.649Z" fill="#F3E2DB" stroke="#4C5A51"/>
<rect x="130.701" y="251.383" width="20.6558" height="8.16536" rx="4.08268" transform="rotate(-20.53 130.701 251.383)" fill="#D5D4DF" stroke="#4C5A51" stroke-width="0.2"/>
<rect x="152.368" y="243.269" width="20.6558" height="8.16536" rx="4.08268" transform="rotate(-20.53 152.368 243.269)" fill="#D5D4DF" stroke="#4C5A51" stroke-width="0.2"/>
<rect x="174.034" y="235.156" width="20.6558" height="8.16536" rx="4.08268" transform="rotate(-20.53 174.034 235.156)" fill="#D5D4DF" stroke="#4C5A51" stroke-width="0.2"/>
<rect x="195.7" y="227.042" width="20.6558" height="8.16536" rx="4.08268" transform="rotate(-20.53 195.7 227.042)" fill="#D5D4DF" stroke="#4C5A51" stroke-width="0.2"/>
<rect x="217.366" y="218.929" width="20.6558" height="8.16536" rx="4.08268" transform="rotate(-20.53 217.366 218.929)" fill="#D5D4DF" stroke="#4C5A51" stroke-width="0.2"/>
<path d="M134.961 253.413C135.15 253.342 135.315 253.255 135.455 253.152C135.599 253.047 135.714 252.933 135.803 252.809C135.89 252.682 135.948 252.548 135.977 252.409C136.009 252.269 136.009 252.128 135.975 251.985L134.678 252.47L134.602 252.266L135.908 251.777L135.77 251.408L136.889 250.989L137.027 251.358L138.279 250.889L138.356 251.093L137.032 251.589C137.08 251.797 137.059 251.998 136.969 252.19C136.881 252.378 136.743 252.556 136.556 252.724C136.372 252.891 136.147 253.046 135.88 253.19C135.613 253.334 135.327 253.463 135.022 253.577L134.961 253.413ZM137.528 252.208C137.473 252.063 137.474 251.93 137.53 251.808C137.587 251.682 137.691 251.59 137.842 251.534C137.987 251.479 138.121 251.481 138.245 251.54C138.367 251.596 138.455 251.696 138.509 251.841C138.565 251.989 138.565 252.126 138.511 252.251C138.455 252.373 138.355 252.461 138.21 252.515C138.059 252.572 137.921 252.573 137.796 252.518C137.672 252.46 137.583 252.357 137.528 252.208ZM135.152 253.979L136.622 253.429L136.443 252.949L137.464 252.566L137.614 252.966C137.634 253.019 137.67 253.036 137.724 253.016L138.99 252.542L139.066 252.746L135.229 254.183L135.152 253.979ZM135.578 255.116C135.535 255.001 135.531 254.887 135.567 254.776C135.605 254.66 135.688 254.545 135.817 254.429C135.948 254.309 136.129 254.189 136.361 254.068C136.595 253.947 136.886 253.821 137.232 253.691C137.579 253.562 137.879 253.466 138.133 253.405C138.39 253.342 138.605 253.314 138.779 253.32C138.955 253.321 139.094 253.354 139.196 253.417C139.299 253.476 139.372 253.564 139.415 253.679C139.459 253.795 139.461 253.909 139.422 254.021C139.387 254.135 139.304 254.251 139.172 254.368C139.043 254.484 138.861 254.602 138.627 254.724C138.395 254.844 138.106 254.97 137.759 255.099C137.413 255.229 137.111 255.325 136.855 255.387C136.601 255.449 136.386 255.479 136.21 255.477C136.036 255.474 135.898 255.442 135.793 255.38C135.693 255.319 135.621 255.232 135.578 255.116ZM136.555 254.75C136.621 254.925 136.748 255.021 136.936 255.038C137.126 255.058 137.375 255.01 137.683 254.895C137.991 254.78 138.21 254.652 138.34 254.512C138.471 254.375 138.504 254.22 138.438 254.045C138.372 253.867 138.244 253.77 138.055 253.753C137.866 253.733 137.617 253.78 137.309 253.896C137.001 254.011 136.782 254.139 136.652 254.278C136.521 254.415 136.489 254.573 136.555 254.75ZM139.333 252.373L140.763 251.838L140.598 251.398L139.697 251.735C139.549 251.791 139.414 251.791 139.292 251.735C139.17 251.68 139.081 251.578 139.025 251.43L138.65 250.426L142.305 249.057L142.381 249.262L139.707 250.263L140.068 251.227C140.082 251.262 140.103 251.288 140.133 251.304C140.164 251.316 140.198 251.315 140.233 251.302L142.849 250.322L142.926 250.526L141.62 251.015L141.753 251.371C141.774 251.427 141.811 251.445 141.864 251.425L143.17 250.936L143.247 251.14L139.409 252.577L139.333 252.373ZM139.757 253.506C139.714 253.39 139.71 253.277 139.746 253.165C139.784 253.05 139.867 252.934 139.996 252.818C140.128 252.702 140.31 252.583 140.541 252.462C140.776 252.341 141.066 252.215 141.413 252.085C141.759 251.956 142.059 251.86 142.313 251.799C142.57 251.736 142.785 251.707 142.958 251.709C143.134 251.711 143.273 251.743 143.375 251.807C143.478 251.866 143.551 251.953 143.594 252.069C143.637 252.184 143.64 252.298 143.601 252.411C143.566 252.525 143.483 252.64 143.351 252.757C143.223 252.876 143.042 252.996 142.807 253.118C142.576 253.238 142.286 253.363 141.94 253.493C141.594 253.623 141.292 253.719 141.035 253.781C140.781 253.843 140.566 253.871 140.389 253.867C140.215 253.864 140.077 253.831 139.972 253.769C139.872 253.709 139.8 253.621 139.757 253.506ZM140.734 253.14C140.801 253.317 140.928 253.415 141.117 253.432C141.307 253.452 141.556 253.404 141.864 253.289C142.171 253.174 142.39 253.046 142.52 252.906C142.651 252.769 142.684 252.612 142.617 252.434C142.552 252.26 142.425 252.164 142.236 252.147C142.046 252.127 141.797 252.174 141.489 252.29C141.181 252.405 140.963 252.533 140.833 252.672C140.702 252.809 140.669 252.965 140.734 253.14ZM146.271 249.557L145.831 249.722C145.797 249.927 145.701 250.112 145.543 250.276C145.384 250.439 145.165 250.574 144.883 250.679C144.46 250.838 144.101 250.856 143.805 250.734C143.509 250.612 143.293 250.368 143.157 250.004C143.02 249.637 143.023 249.312 143.166 249.028C143.309 248.742 143.592 248.52 144.015 248.361C144.311 248.25 144.574 248.208 144.803 248.233C145.035 248.258 145.233 248.346 145.398 248.497L145.815 248.34L145.617 247.812L146.599 247.444L147.712 250.415L146.73 250.783L146.271 249.557ZM144.822 250.515C144.884 250.492 144.929 250.455 144.957 250.404C144.986 250.352 144.997 250.283 144.99 250.194C144.984 250.105 144.962 249.997 144.924 249.869C144.886 249.738 144.832 249.583 144.765 249.402C144.697 249.222 144.635 249.069 144.578 248.945C144.522 248.821 144.467 248.725 144.415 248.657C144.361 248.586 144.307 248.54 144.252 248.52C144.198 248.5 144.139 248.502 144.077 248.525C144.015 248.549 143.97 248.586 143.941 248.637C143.916 248.687 143.907 248.756 143.913 248.845C143.918 248.931 143.94 249.039 143.979 249.17C144.018 249.3 144.071 249.456 144.139 249.637C144.206 249.817 144.268 249.97 144.325 250.094C144.38 250.215 144.435 250.311 144.488 250.382C144.542 250.453 144.595 250.499 144.647 250.52C144.701 250.54 144.76 250.538 144.822 250.515ZM146.195 249.353L145.892 248.545L145.554 248.671C145.632 248.78 145.696 248.901 145.746 249.035C145.803 249.186 145.835 249.335 145.844 249.484L146.195 249.353ZM144.714 250.93L145.075 251.894C145.088 251.929 145.11 251.955 145.139 251.971C145.172 251.986 145.207 251.986 145.246 251.972L147.942 250.962L148.018 251.166L144.71 252.405C144.559 252.462 144.421 252.461 144.298 252.402C144.176 252.347 144.087 252.245 144.032 252.097L143.733 251.298L144.714 250.93Z" fill="#383448"/>
<rect x="87.953" y="233.901" width="20.6558" height="8.16536" rx="4.08268" transform="rotate(-97.3869 87.953 233.901)" fill="#D5D4DF" stroke="#4C5A51" stroke-width="0.2"/>
<path d="M90.9793 227.79C90.9533 227.589 90.906 227.409 90.8374 227.249C90.7684 227.085 90.6835 226.947 90.5826 226.832C90.4785 226.718 90.362 226.631 90.2331 226.571C90.1038 226.509 89.9659 226.477 89.8192 226.477L89.9972 227.85L89.7809 227.878L89.6016 226.496L89.2113 226.546L89.0576 225.361L89.448 225.31L89.276 223.984L89.4924 223.956L89.6741 225.358C89.8878 225.359 90.0781 225.425 90.245 225.556C90.4083 225.685 90.5505 225.859 90.6715 226.08C90.7921 226.297 90.8921 226.551 90.9714 226.844C91.0508 227.137 91.1114 227.444 91.1533 227.767L90.9793 227.79ZM90.3901 225.016C90.2365 225.036 90.1066 225.005 90.0003 224.923C89.8905 224.839 89.8253 224.716 89.8045 224.556C89.7846 224.403 89.8172 224.273 89.9022 224.166C89.984 224.06 90.1018 223.997 90.2554 223.977C90.4122 223.956 90.5452 223.987 90.6546 224.068C90.7609 224.15 90.824 224.268 90.8439 224.422C90.8646 224.582 90.8343 224.716 90.7528 224.826C90.6678 224.932 90.5469 224.996 90.3901 225.016ZM91.5743 227.732L91.3725 226.175L90.8646 226.241L90.7243 225.159L91.1476 225.104C91.204 225.097 91.2286 225.065 91.2213 225.009L91.0475 223.668L91.2638 223.64L91.7906 227.704L91.5743 227.732ZM92.7782 227.576C92.656 227.592 92.5447 227.569 92.4444 227.509C92.3406 227.446 92.247 227.339 92.1635 227.187C92.0766 227.032 92.0007 226.829 91.9361 226.575C91.871 226.319 91.8146 226.008 91.7671 225.641C91.7195 225.274 91.6948 224.96 91.6928 224.699C91.6904 224.435 91.7118 224.218 91.7569 224.05C91.7984 223.879 91.8616 223.751 91.9463 223.667C92.0275 223.58 92.1292 223.528 92.2515 223.512C92.3737 223.497 92.4852 223.52 92.5859 223.584C92.6893 223.644 92.7829 223.751 92.8668 223.906C92.9502 224.058 93.0245 224.262 93.0896 224.518C93.1542 224.771 93.2104 225.081 93.2579 225.448C93.3055 225.815 93.3304 226.13 93.3328 226.394C93.3348 226.656 93.315 226.872 93.2734 227.043C93.2315 227.211 93.1683 227.339 93.084 227.426C93.0024 227.51 92.9005 227.56 92.7782 227.576ZM92.6441 226.541C92.8291 226.517 92.9514 226.415 93.0109 226.235C93.0736 226.055 93.0839 225.802 93.0416 225.476C92.9993 225.15 92.9249 224.907 92.8183 224.749C92.7148 224.59 92.5706 224.523 92.3856 224.547C92.1975 224.571 92.0736 224.674 92.0141 224.853C91.9514 225.034 91.9411 225.287 91.9834 225.613C92.0257 225.939 92.1001 226.181 92.2067 226.34C92.3102 226.498 92.456 226.565 92.6441 226.541ZM89.1893 223.573L89.0868 222.783L88.7294 222.829L88.5947 221.79L88.9521 221.744L88.8515 220.968L89.0678 220.94L89.4056 223.545L89.1893 223.573ZM88.5574 220.838L88.4226 219.799L89.5419 219.654L89.4944 219.287L89.753 219.253L89.8006 219.62L90.8541 219.484L90.9888 220.523L88.5574 220.838ZM90.4497 223.41C90.1361 223.45 89.8905 223.375 89.7128 223.185C89.5346 222.991 89.4183 222.684 89.3639 222.264C89.3094 221.844 89.3438 221.519 89.4671 221.289C89.5899 221.057 89.8081 220.92 90.1216 220.879C90.7393 220.799 91.1028 221.181 91.2121 222.024C91.3215 222.868 91.0673 223.33 90.4497 223.41ZM89.4908 222.248C89.4993 222.288 89.518 222.322 89.5472 222.35C89.5732 222.379 89.6174 222.4 89.6798 222.414C89.7387 222.426 89.8205 222.43 89.9252 222.426C90.0267 222.422 90.1575 222.41 90.3174 222.389C90.4773 222.368 90.6083 222.347 90.7106 222.324C90.8097 222.301 90.8878 222.277 90.9449 222.25C91.0017 222.221 91.0405 222.189 91.0615 222.154C91.0794 222.12 91.0857 222.082 91.0804 222.041C91.0752 222.001 91.0595 221.966 91.0335 221.938C91.0044 221.909 90.9588 221.89 90.8968 221.879C90.8343 221.865 90.7524 221.859 90.6508 221.863C90.5461 221.867 90.4138 221.879 90.2539 221.9C90.094 221.921 89.9645 221.942 89.8654 221.965C89.7632 221.987 89.6853 222.014 89.6317 222.043C89.5745 222.069 89.537 222.1 89.5191 222.134C89.4981 222.168 89.4887 222.206 89.4908 222.248ZM91.5697 223.307L91.0875 219.587C91.0822 219.547 91.0907 219.514 91.1129 219.488C91.1316 219.461 91.1597 219.444 91.1974 219.439L92.3731 219.287L92.5079 220.326L91.4215 220.467L91.7861 223.279L91.5697 223.307Z" fill="#383448"/>
<path d="M162.042 242.188L161.536 242.772L161.278 242.61L161.944 241.804L162.885 241.452L164.219 245.013L163.237 245.381L162.042 242.188Z" fill="#383448"/>
<path d="M184.195 237.092C184.118 236.888 184.095 236.699 184.124 236.526C184.156 236.349 184.215 236.182 184.301 236.024C184.386 235.864 184.486 235.712 184.601 235.568C184.715 235.421 184.817 235.276 184.909 235.133C185 234.988 185.065 234.842 185.105 234.696C185.148 234.548 185.138 234.393 185.077 234.23C184.96 233.916 184.845 233.701 184.734 233.584C184.626 233.465 184.506 233.431 184.376 233.48C184.255 233.525 184.188 233.628 184.177 233.787C184.168 233.942 184.224 234.182 184.345 234.504L183.363 234.872C183.298 234.697 183.272 234.529 183.286 234.369C183.303 234.207 183.354 234.058 183.438 233.922C183.521 233.783 183.635 233.659 183.78 233.551C183.928 233.441 184.101 233.35 184.3 233.275C184.498 233.201 184.687 233.157 184.868 233.143C185.052 233.129 185.22 233.147 185.374 233.197C185.53 233.243 185.666 233.322 185.782 233.434C185.901 233.545 185.993 233.688 186.059 233.862C186.14 234.078 186.164 234.275 186.133 234.452C186.103 234.625 186.045 234.789 185.957 234.943C185.87 235.098 185.768 235.244 185.651 235.382C185.534 235.521 185.429 235.661 185.338 235.803C185.245 235.943 185.177 236.088 185.136 236.239C185.097 236.388 185.111 236.55 185.176 236.725L185.241 236.898L186.915 236.271L186.992 236.475L184.336 237.47L184.195 237.092Z" fill="#383448"/>
<path d="M206.539 228.097C206.637 228.36 206.762 228.55 206.914 228.666C207.065 228.781 207.216 228.811 207.367 228.754C207.518 228.697 207.613 228.576 207.651 228.389C207.689 228.203 207.659 227.978 207.56 227.714C207.463 227.454 207.332 227.267 207.168 227.153C207.002 227.036 206.822 227.014 206.626 227.087L206.382 227.178L206.306 226.974L206.55 226.883C206.728 226.816 206.836 226.701 206.876 226.537C206.918 226.37 206.895 226.169 206.808 225.935C206.72 225.701 206.61 225.533 206.477 225.431C206.347 225.328 206.214 225.302 206.078 225.353C205.936 225.406 205.852 225.52 205.827 225.695C205.8 225.867 205.83 226.07 205.918 226.304L204.979 226.65C204.863 226.339 204.891 226.054 205.063 225.793C205.239 225.532 205.552 225.317 206.002 225.148C206.212 225.07 206.411 225.019 206.598 224.996C206.785 224.973 206.954 224.981 207.103 225.019C207.254 225.054 207.385 225.118 207.494 225.212C207.604 225.306 207.687 225.43 207.745 225.584C207.775 225.664 207.791 225.753 207.794 225.85C207.799 225.945 207.791 226.041 207.77 226.137C207.748 226.233 207.714 226.327 207.667 226.418C207.62 226.507 207.559 226.584 207.485 226.649C207.583 226.649 207.684 226.669 207.786 226.708C207.891 226.746 207.99 226.799 208.083 226.865C208.177 226.928 208.261 227.003 208.334 227.09C208.409 227.174 208.465 227.264 208.502 227.362C208.629 227.702 208.6 228.011 208.413 228.287C208.23 228.564 207.907 228.79 207.445 228.963C206.983 229.136 206.592 229.177 206.272 229.088C205.953 229.002 205.729 228.788 205.602 228.448L206.539 228.097Z" fill="#383448"/>
<path d="M226.926 220.361L227.624 217.208L228.601 216.842L229.555 219.392L230.066 219.2L230.143 219.405L229.632 219.596L229.935 220.404L228.958 220.77L228.655 219.962L227.007 220.579L226.926 220.361ZM228.578 219.757L227.902 217.95L227.415 220.193L228.578 219.757Z" fill="#383448"/>
<rect x="237.095" y="203.89" width="10.2824" height="8.95956" rx="4.27616" transform="rotate(-80.0033 237.095 203.89)" fill="#D5D4DF" stroke="#4C5A51" stroke-width="0.3"/>
<rect x="247.686" y="143.801" width="10.2824" height="8.95956" rx="4.27616" transform="rotate(-80.0033 247.686 143.801)" fill="#D5D4DF" stroke="#4C5A51" stroke-width="0.3"/>
<rect x="239.197" y="191.836" width="10.2824" height="8.95956" rx="4.27616" transform="rotate(-80.0033 239.197 191.836)" fill="#D5D4DF" stroke="#4C5A51" stroke-width="0.3"/>
<rect x="249.789" y="131.747" width="10.2824" height="8.95956" rx="4.27616" transform="rotate(-80.0033 249.789 131.747)" fill="#D5D4DF" stroke="#4C5A51" stroke-width="0.3"/>
<rect x="241.3" y="179.782" width="10.2824" height="8.95956" rx="4.27616" transform="rotate(-80.0033 241.3 179.782)" fill="#D5D4DF" stroke="#4C5A51" stroke-width="0.3"/>
<rect x="251.892" y="119.693" width="10.2824" height="8.95956" rx="4.27616" transform="rotate(-80.0033 251.892 119.693)" fill="#D5D4DF" stroke="#4C5A51" stroke-width="0.3"/>
<rect x="243.402" y="167.728" width="10.2824" height="8.95956" rx="4.27616" transform="rotate(-80.0033 243.402 167.728)" fill="#D5D4DF" stroke="#4C5A51" stroke-width="0.3"/>
<rect x="253.994" y="107.639" width="10.2824" height="8.95956" rx="4.27616" transform="rotate(-80.0033 253.994 107.639)" fill="#D5D4DF" stroke="#4C5A51" stroke-width="0.3"/>
<rect x="245.505" y="155.674" width="10.2824" height="8.95956" rx="4.27616" transform="rotate(-80.0033 245.505 155.674)" fill="#E69696" stroke="#4C5A51" stroke-width="0.3"/>
<rect x="256.096" y="95.5857" width="10.2824" height="8.95956" rx="4.27616" transform="rotate(-80.0033 256.096 95.5857)" fill="#D5D4DF" stroke="#4C5A51" stroke-width="0.3"/>
<rect x="258.247" y="83.3801" width="10.2824" height="8.95956" rx="4.27616" transform="rotate(-80.0033 258.247 83.3801)" fill="#D5D4DF" stroke="#4C5A51" stroke-width="0.3"/>
<path d="M252.28 152.816L252.427 151.98C252.474 151.716 252.399 151.494 252.203 151.315C252.006 151.136 251.692 151.008 251.259 150.932C251.413 151.132 251.467 151.363 251.421 151.625C251.341 152.076 251.169 152.406 250.905 152.613C250.641 152.82 250.272 152.882 249.798 152.798C249.593 152.762 249.418 152.696 249.275 152.6C249.132 152.501 249.019 152.377 248.936 152.227C248.853 152.078 248.802 151.905 248.782 151.709C248.759 151.512 248.768 151.296 248.81 151.059C248.863 150.757 248.946 150.515 249.058 150.332C249.171 150.147 249.312 150.01 249.482 149.921C249.652 149.829 249.85 149.78 250.076 149.775C250.299 149.766 250.547 149.786 250.821 149.834C251.158 149.893 251.454 149.973 251.709 150.072C251.964 150.172 252.172 150.303 252.333 150.466C252.494 150.629 252.602 150.832 252.659 151.073C252.716 151.314 252.714 151.607 252.654 151.953L252.495 152.854L252.28 152.816ZM251.183 151.472C251.219 151.27 251.147 151.113 250.967 151.001C250.785 150.889 250.516 150.801 250.161 150.739C250.018 150.713 249.881 150.7 249.749 150.7C249.618 150.696 249.502 150.708 249.401 150.735C249.3 150.762 249.217 150.805 249.152 150.864C249.084 150.92 249.042 150.996 249.025 151.092C249.008 151.189 249.022 151.276 249.066 151.355C249.107 151.429 249.171 151.497 249.256 151.557C249.342 151.617 249.447 151.669 249.571 151.713C249.695 151.754 249.829 151.788 249.972 151.813C250.327 151.875 250.61 151.883 250.82 151.837C251.028 151.787 251.149 151.665 251.183 151.472Z" fill="#383448"/>
<path d="M248.415 164.371C248.301 164.522 248.16 164.63 247.991 164.696C247.822 164.763 247.635 164.778 247.43 164.742C247.258 164.712 247.116 164.653 247.003 164.566C246.887 164.478 246.799 164.366 246.74 164.23C246.681 164.091 246.646 163.931 246.636 163.75C246.627 163.568 246.641 163.369 246.679 163.151C246.718 162.933 246.773 162.74 246.844 162.573C246.916 162.403 247.003 162.262 247.106 162.152C247.209 162.042 247.33 161.965 247.469 161.922C247.606 161.876 247.759 161.867 247.931 161.898C248.136 161.934 248.31 162.013 248.452 162.134C248.595 162.255 248.687 162.406 248.729 162.587C248.78 162.497 248.844 162.416 248.921 162.347C248.995 162.273 249.079 162.214 249.173 162.17C249.268 162.122 249.373 162.091 249.488 162.076C249.604 162.058 249.726 162.06 249.853 162.082C250.037 162.115 250.192 162.184 250.318 162.289C250.444 162.392 250.541 162.521 250.61 162.678C250.679 162.834 250.72 163.013 250.732 163.215C250.748 163.416 250.736 163.631 250.696 163.858C250.656 164.086 250.594 164.291 250.51 164.476C250.43 164.657 250.331 164.81 250.213 164.934C250.095 165.057 249.959 165.146 249.805 165.199C249.651 165.252 249.482 165.262 249.299 165.23C249.04 165.185 248.833 165.087 248.676 164.937C248.517 164.784 248.43 164.595 248.415 164.371ZM248.473 163.467C248.487 163.386 248.479 163.312 248.449 163.246C248.416 163.179 248.365 163.12 248.297 163.07C248.229 163.019 248.147 162.977 248.05 162.944C247.953 162.908 247.849 162.88 247.737 162.86C247.625 162.841 247.521 162.832 247.424 162.834C247.325 162.833 247.237 162.844 247.162 162.87C247.085 162.891 247.022 162.929 246.974 162.981C246.923 163.033 246.89 163.101 246.876 163.185C246.861 163.269 246.869 163.343 246.899 163.406C246.927 163.469 246.973 163.525 247.038 163.575C247.101 163.621 247.179 163.661 247.272 163.693C247.363 163.725 247.464 163.751 247.577 163.771C247.689 163.791 247.796 163.802 247.898 163.804C248.001 163.802 248.093 163.791 248.174 163.77C248.255 163.746 248.322 163.71 248.376 163.661C248.426 163.613 248.459 163.548 248.473 163.467ZM250.5 163.824C250.533 163.634 250.48 163.47 250.341 163.333C250.201 163.196 249.99 163.103 249.706 163.053C249.566 163.028 249.437 163.022 249.32 163.033C249.199 163.044 249.093 163.07 249.002 163.112C248.909 163.15 248.834 163.203 248.777 163.27C248.72 163.337 248.684 163.414 248.669 163.501C248.654 163.585 248.662 163.669 248.692 163.751C248.723 163.83 248.776 163.905 248.85 163.976C248.922 164.043 249.012 164.103 249.122 164.154C249.229 164.205 249.352 164.243 249.492 164.267C249.776 164.317 250.006 164.303 250.183 164.225C250.361 164.144 250.467 164.011 250.5 163.824Z" fill="#383448"/>
<path d="M248.234 177.095C247.603 176.901 247.012 176.651 246.459 176.345C245.907 176.035 245.394 175.664 244.922 175.231L244.623 176.926L244.408 176.888L244.892 174.142L245.107 174.18C245.582 174.614 246.105 174.992 246.674 175.313C247.241 175.632 247.821 175.882 248.415 176.063L248.234 177.095Z" fill="#383448"/>
<path d="M242.816 187.182C242.77 187.444 242.845 187.664 243.042 187.843C243.238 188.022 243.553 188.15 243.985 188.226C243.831 188.029 243.777 187.798 243.823 187.533C243.903 187.082 244.076 186.753 244.344 186.546C244.608 186.339 244.976 186.277 245.446 186.36C245.651 186.396 245.826 186.464 245.969 186.563C246.112 186.659 246.225 186.781 246.308 186.931C246.391 187.08 246.443 187.253 246.463 187.449C246.486 187.646 246.476 187.862 246.435 188.099C246.381 188.404 246.298 188.648 246.185 188.83C246.073 189.013 245.932 189.15 245.761 189.242C245.592 189.331 245.395 189.38 245.172 189.389C244.947 189.394 244.697 189.372 244.423 189.324C244.086 189.265 243.791 189.185 243.535 189.086C243.28 188.986 243.072 188.855 242.911 188.692C242.751 188.529 242.642 188.326 242.585 188.085C242.528 187.844 242.53 187.551 242.591 187.205L242.749 186.304L242.964 186.342L242.816 187.182ZM246.219 188.066C246.236 187.972 246.222 187.887 246.178 187.808C246.137 187.73 246.074 187.661 245.988 187.601C245.902 187.541 245.799 187.491 245.677 187.45C245.554 187.406 245.419 187.371 245.272 187.345C244.914 187.282 244.631 187.276 244.423 187.326C244.216 187.373 244.095 187.493 244.061 187.686C244.026 187.888 244.099 188.045 244.282 188.158C244.461 188.27 244.728 188.357 245.083 188.419C245.229 188.445 245.368 188.46 245.499 188.464C245.627 188.464 245.742 188.451 245.843 188.423C245.944 188.396 246.027 188.355 246.091 188.299C246.159 188.24 246.202 188.162 246.219 188.066Z" fill="#383448"/>
<path d="M243.413 200.329C243.615 200.349 243.777 200.329 243.9 200.271C244.023 200.212 244.094 200.123 244.115 200.005C244.143 199.846 244.068 199.708 243.89 199.59C243.708 199.471 243.443 199.381 243.095 199.32C242.755 199.26 242.488 199.256 242.293 199.308C242.098 199.358 241.986 199.462 241.958 199.62C241.919 199.841 242.073 200.019 242.418 200.154L242.25 201.107L240.228 200.616L240.669 198.108L240.884 198.145L240.606 199.724L241.841 200.014C241.793 199.941 241.757 199.859 241.735 199.769C241.712 199.678 241.71 199.578 241.73 199.469C241.806 199.033 241.97 198.716 242.22 198.516C242.471 198.313 242.821 198.251 243.269 198.33C243.699 198.405 244.004 198.589 244.183 198.881C244.367 199.17 244.416 199.557 244.33 200.043C244.293 200.252 244.24 200.438 244.169 200.602C244.102 200.764 244.02 200.9 243.923 201.012C243.83 201.12 243.726 201.201 243.611 201.255C243.492 201.308 243.367 201.328 243.235 201.314L243.413 200.329Z" fill="#383448"/>
<path d="M251.346 141.601L251.593 142.333L251.323 142.473L250.966 141.491L251.141 140.5L254.886 141.16L254.704 142.193L251.346 141.601ZM255.438 138.767C255.392 139.029 255.304 139.252 255.175 139.438C255.05 139.622 254.889 139.767 254.694 139.873C254.496 139.98 254.265 140.047 254.004 140.074C253.743 140.099 253.456 140.084 253.145 140.029C252.834 139.974 252.559 139.891 252.322 139.778C252.086 139.663 251.894 139.521 251.747 139.354C251.597 139.187 251.494 138.995 251.439 138.78C251.381 138.561 251.375 138.321 251.421 138.059C251.467 137.798 251.555 137.576 251.683 137.393C251.809 137.206 251.971 137.06 252.17 136.954C252.366 136.844 252.594 136.776 252.856 136.752C253.117 136.724 253.404 136.738 253.715 136.793C254.027 136.847 254.3 136.933 254.537 137.048C254.774 137.16 254.967 137.302 255.117 137.473C255.264 137.64 255.365 137.833 255.42 138.051C255.478 138.267 255.484 138.505 255.438 138.767ZM255.223 138.729C255.255 138.545 255.137 138.377 254.869 138.224C254.601 138.067 254.156 137.934 253.533 137.825C252.911 137.715 252.447 137.688 252.142 137.743C251.837 137.795 251.669 137.913 251.636 138.097C251.604 138.281 251.722 138.451 251.989 138.607C252.258 138.76 252.703 138.892 253.326 139.002C253.949 139.111 254.412 139.14 254.717 139.088C255.022 139.032 255.191 138.913 255.223 138.729Z" fill="#383448"/>
<path d="M254.691 117.15L254.938 117.882L254.667 118.023L254.311 117.04L254.485 116.05L258.231 116.71L258.049 117.742L254.691 117.15ZM257.966 115.839C257.751 115.801 257.576 115.725 257.442 115.612C257.305 115.494 257.191 115.359 257.1 115.204C257.005 115.05 256.925 114.886 256.859 114.714C256.79 114.541 256.717 114.379 256.641 114.228C256.562 114.076 256.469 113.946 256.363 113.837C256.258 113.725 256.119 113.655 255.948 113.624C255.618 113.566 255.374 113.555 255.217 113.592C255.06 113.625 254.97 113.71 254.946 113.847C254.923 113.975 254.978 114.084 255.109 114.175C255.239 114.262 255.473 114.335 255.812 114.395L255.63 115.427C255.447 115.395 255.289 115.332 255.158 115.238C255.027 115.141 254.925 115.022 254.85 114.88C254.773 114.738 254.724 114.577 254.704 114.397C254.685 114.214 254.694 114.018 254.731 113.81C254.767 113.601 254.826 113.415 254.906 113.253C254.986 113.087 255.087 112.951 255.209 112.844C255.328 112.733 255.465 112.656 255.62 112.613C255.776 112.567 255.946 112.56 256.13 112.592C256.357 112.632 256.539 112.711 256.676 112.828C256.81 112.942 256.921 113.075 257.01 113.229C257.098 113.382 257.172 113.545 257.232 113.716C257.292 113.887 257.36 114.048 257.436 114.199C257.509 114.35 257.599 114.482 257.708 114.594C257.817 114.703 257.964 114.774 258.147 114.806L258.33 114.838L258.64 113.078L258.855 113.116L258.362 115.909L257.966 115.839Z" fill="#383448"/>
<path d="M256.83 105.007L257.077 105.739L256.807 105.879L256.45 104.897L256.624 103.907L260.37 104.567L260.188 105.599L256.83 105.007ZM259.699 102.608C259.976 102.657 260.203 102.645 260.379 102.574C260.556 102.502 260.658 102.387 260.686 102.228C260.714 102.069 260.657 101.926 260.516 101.798C260.375 101.671 260.166 101.582 259.888 101.534C259.614 101.485 259.387 101.503 259.205 101.587C259.02 101.67 258.91 101.814 258.873 102.019L258.828 102.276L258.613 102.238L258.659 101.981C258.692 101.795 258.648 101.642 258.527 101.525C258.404 101.404 258.22 101.321 257.974 101.278C257.728 101.235 257.527 101.244 257.371 101.307C257.216 101.366 257.126 101.468 257.101 101.611C257.075 101.76 257.131 101.89 257.268 102.001C257.403 102.112 257.593 102.189 257.839 102.232L257.661 103.217C257.334 103.159 257.102 102.99 256.965 102.709C256.829 102.425 256.803 102.046 256.886 101.573C256.925 101.352 256.982 101.155 257.058 100.982C257.133 100.809 257.226 100.668 257.335 100.559C257.441 100.446 257.563 100.366 257.699 100.32C257.836 100.273 257.985 100.264 258.147 100.293C258.231 100.307 258.316 100.338 258.401 100.385C258.486 100.429 258.564 100.485 258.636 100.552C258.708 100.619 258.771 100.696 258.826 100.783C258.879 100.869 258.914 100.961 258.932 101.057C258.982 100.973 259.05 100.896 259.136 100.828C259.223 100.757 259.318 100.698 259.423 100.652C259.524 100.603 259.631 100.569 259.744 100.55C259.854 100.528 259.96 100.525 260.063 100.543C260.421 100.607 260.671 100.789 260.814 101.09C260.961 101.389 260.991 101.781 260.905 102.267C260.82 102.752 260.657 103.11 260.417 103.341C260.181 103.572 259.884 103.656 259.526 103.593L259.699 102.608Z" fill="#383448"/>
<path d="M258.97 92.864L259.217 93.5961L258.946 93.7362L258.59 92.7537L258.764 91.7636L262.51 92.4235L262.328 93.4556L258.97 92.864ZM261.579 91.3917L259.218 89.1892L259.399 88.1617L262.08 88.634L262.174 88.0969L262.389 88.1347L262.294 88.6718L263.144 88.8216L262.963 89.8491L262.113 89.6993L261.808 91.432L261.579 91.3917ZM261.898 89.6615L259.998 89.3266L261.683 90.8851L261.898 89.6615Z" fill="#383448"/>
<path d="M261.12 80.6585L261.367 81.3906L261.097 81.5307L260.74 80.5482L260.914 79.5581L264.66 80.218L264.478 81.2501L261.12 80.6585ZM264.284 78.2246C264.486 78.2441 264.649 78.2245 264.771 78.1659C264.894 78.1073 264.966 78.0188 264.987 77.9005C265.015 77.7417 264.939 77.6032 264.761 77.4852C264.58 77.3665 264.315 77.2765 263.966 77.2151C263.627 77.1553 263.359 77.1515 263.164 77.2038C262.969 77.2529 262.858 77.3569 262.83 77.5156C262.791 77.7367 262.944 77.9146 263.289 78.0493L263.122 79.002L261.099 78.5109L261.541 76.0029L261.756 76.0407L261.478 77.6193L262.712 77.9091C262.664 77.8364 262.629 77.7547 262.606 77.6641C262.584 77.5734 262.582 77.4736 262.601 77.3646C262.678 76.9287 262.841 76.6108 263.092 76.4109C263.343 76.208 263.692 76.146 264.141 76.2249C264.57 76.3006 264.875 76.4843 265.055 76.776C265.238 77.0652 265.287 77.4526 265.201 77.9383C265.165 78.1469 265.111 78.3333 265.04 78.4974C264.973 78.659 264.892 78.7954 264.795 78.9068C264.702 79.0156 264.598 79.0968 264.482 79.1503C264.364 79.2033 264.238 79.2229 264.106 79.2092L264.284 78.2246Z" fill="#383448"/>
<path d="M252.661 128.671L252.908 129.403L252.638 129.543L252.281 128.56L252.456 127.57L256.201 128.23L256.019 129.262L252.661 128.671ZM253.134 125.989L253.38 126.721L253.11 126.861L252.754 125.878L252.928 124.888L256.674 125.548L256.492 126.58L253.134 125.989Z" fill="#383448"/>
<path d="M256.304 1.00003H91.7822C90.8553 1.00003 90.104 1.61496 90.104 2.37352V37.2489C90.104 38.0075 90.8553 38.6224 91.7822 38.6224H256.304C257.231 38.6224 257.982 38.0075 257.982 37.2489V2.37352C257.982 1.61496 257.231 1.00003 256.304 1.00003Z" fill="#F3E2DB" stroke="#4C5A51"/>
<rect x="120.239" y="44.4132" width="106.344" height="10.8654" rx="4.32616" fill="#D5D4DF" stroke="#4C5A51" stroke-width="0.2"/>
<path d="M162.883 50.4649V50.7178C162.883 51.1351 162.961 51.4386 163.117 51.6283C163.273 51.818 163.486 51.9129 163.755 51.9129C164.021 51.9129 164.232 51.818 164.388 51.6283C164.548 51.4386 164.628 51.1309 164.628 50.7052C164.628 50.5323 164.611 50.3827 164.577 50.2562C164.544 50.1298 164.487 50.0223 164.407 49.9337C164.331 49.841 164.225 49.7651 164.09 49.7061C163.96 49.6429 163.795 49.5902 163.597 49.548C163.327 49.489 163.068 49.4258 162.82 49.3583C162.575 49.2867 162.358 49.196 162.168 49.0864C161.983 48.9726 161.833 48.8314 161.719 48.6628C161.61 48.4942 161.555 48.2834 161.555 48.0305C161.555 47.8155 161.616 47.6279 161.738 47.4677C161.861 47.3076 162.023 47.1769 162.225 47.0757C162.428 46.9703 162.659 46.8923 162.921 46.8418C163.186 46.7912 163.462 46.7659 163.749 46.7659C164.086 46.7659 164.394 46.7996 164.672 46.867C164.95 46.9303 165.189 47.0251 165.387 47.1516C165.589 47.2738 165.745 47.4256 165.855 47.6068C165.964 47.7839 166.019 47.9883 166.019 48.2202V48.4415H164.565V48.2518C164.565 48.0284 164.546 47.8408 164.508 47.689C164.47 47.5373 164.415 47.415 164.343 47.3223C164.276 47.2254 164.192 47.1579 164.09 47.12C163.989 47.0778 163.875 47.0567 163.749 47.0567C163.639 47.0567 163.536 47.0757 163.439 47.1136C163.342 47.1516 163.258 47.2106 163.186 47.2907C163.115 47.3708 163.058 47.4741 163.016 47.6005C162.973 47.7228 162.952 47.8703 162.952 48.0431C162.952 48.3635 163.041 48.627 163.218 48.8335C163.399 49.0359 163.701 49.1813 164.122 49.2698C164.392 49.3288 164.643 49.39 164.875 49.4532C165.106 49.5164 165.307 49.6007 165.475 49.7061C165.648 49.8115 165.783 49.9464 165.88 50.1108C165.977 50.271 166.025 50.4775 166.025 50.7304C166.025 50.9876 165.971 51.2089 165.861 51.3944C165.756 51.5799 165.602 51.7316 165.399 51.8496C165.201 51.9719 164.963 52.0604 164.685 52.1152C164.407 52.1742 164.097 52.2037 163.755 52.2037C163.414 52.2037 163.104 52.1742 162.826 52.1152C162.548 52.0604 162.309 51.9719 162.111 51.8496C161.913 51.7274 161.759 51.5735 161.65 51.3881C161.544 51.2026 161.492 50.9792 161.492 50.7178V50.4649H162.883ZM166.405 46.9619H170.832V47.2528H166.405V46.9619ZM167.923 47.8914H166.405V47.6005H170.832V47.8914H169.314V52.033H167.923V47.8914ZM172.325 46.9619H173.899L175.644 52.033H174.19L173.994 51.407H172.23L172.034 52.033H170.58L172.325 46.9619ZM173.71 50.4775L173.115 48.5616L172.515 50.4775H173.71ZM173.906 51.1162L173.798 50.7684H172.426L172.318 51.1162H173.906ZM178.372 49.7314H180.92V49.9906C180.92 50.3995 180.863 50.7452 180.749 51.0276C180.635 51.3101 180.471 51.5377 180.256 51.7105C180.045 51.8834 179.786 52.0077 179.478 52.0836C179.17 52.1637 178.823 52.2037 178.435 52.2037C177.6 52.2037 176.957 51.9824 176.506 51.5398C176.059 51.0972 175.836 50.4122 175.836 49.4848C175.836 48.5574 176.059 47.8724 176.506 47.4298C176.957 46.9872 177.6 46.7659 178.435 46.7659C178.78 46.7659 179.099 46.8038 179.39 46.8797C179.685 46.9514 179.94 47.0631 180.155 47.2148C180.374 47.3666 180.549 47.5605 180.679 47.7965C180.81 48.0284 180.886 48.3045 180.907 48.6249H179.472C179.476 48.3045 179.451 48.0389 179.396 47.8282C179.341 47.6174 179.263 47.4509 179.162 47.3286C179.065 47.2064 178.953 47.1221 178.827 47.0757C178.7 47.0251 178.57 46.9998 178.435 46.9998C178.275 46.9998 178.121 47.0378 177.973 47.1136C177.826 47.1853 177.697 47.3139 177.587 47.4994C177.478 47.6848 177.389 47.9378 177.322 48.2581C177.259 48.5785 177.227 48.9874 177.227 49.4848C177.227 49.9822 177.259 50.3911 177.322 50.7115C177.389 51.0319 177.478 51.2869 177.587 51.4766C177.697 51.6621 177.826 51.7906 177.973 51.8623C178.121 51.9339 178.275 51.9698 178.435 51.9698C178.587 51.9698 178.728 51.9445 178.858 51.8939C178.989 51.8433 179.103 51.7464 179.2 51.603C179.297 51.4639 179.373 51.2679 179.427 51.015C179.486 50.7621 179.516 50.4312 179.516 50.0223H178.372V49.7314ZM178.372 49.0864H180.92V49.3773H178.372V49.0864ZM181.709 46.9619H185.49V47.2528H183.1V48.0684H185.49V48.3593H183.1V49.2572H185.49V49.548H183.1V50.4649H185.49V50.7557H183.1V51.7421H185.49V52.033H181.709V46.9619Z" fill="#383448"/>
<rect x="229.944" y="44.4132" width="27.9377" height="10.8654" rx="4.32616" fill="#D5D4DF" stroke="#4C5A51" stroke-width="0.2"/>
<path d="M235.093 51.9129C235.383 51.9129 235.647 51.856 235.883 51.7421C236.123 51.6283 236.328 51.4639 236.496 51.2489C236.669 51.0297 236.802 50.7642 236.895 50.4522C236.992 50.1403 237.04 49.7841 237.04 49.3836V47.1263H235.149V46.8354H238.317C238.372 46.8354 238.414 46.8523 238.444 46.886C238.477 46.9197 238.494 46.9619 238.494 47.0125V49.2825C238.494 49.6661 238.44 50.0054 238.33 50.3005C238.225 50.5913 238.081 50.8422 237.9 51.0529C237.723 51.2637 237.516 51.4386 237.28 51.5777C237.048 51.7211 236.806 51.8349 236.553 51.9192C236.304 52.0035 236.054 52.0625 235.801 52.0962C235.548 52.13 235.312 52.1468 235.093 52.1468V51.9129ZM239.165 46.8354H240.562V52.1468H239.165V46.8354ZM241.298 47.1769H242.385V46.7153H243.783V47.1769H244.87V47.4677H241.298V47.1769ZM241.184 49.9337H242.385V49.5607C242.014 49.4974 241.744 49.3836 241.576 49.2192C241.411 49.0548 241.329 48.8525 241.329 48.6122C241.329 48.3045 241.475 48.0621 241.766 47.8851C242.056 47.7038 242.497 47.6132 243.087 47.6132C243.677 47.6132 244.116 47.7038 244.402 47.8851C244.693 48.0621 244.839 48.3045 244.839 48.6122C244.839 48.8525 244.754 49.0548 244.586 49.2192C244.421 49.3836 244.154 49.4974 243.783 49.5607V49.9337H243.998C244.099 49.9337 244.202 49.9316 244.307 49.9274C244.417 49.9232 244.52 49.9169 244.617 49.9084C244.718 49.8958 244.813 49.881 244.902 49.8642C244.99 49.8473 245.068 49.8284 245.136 49.8073V46.8291H246.533V50.3953H245.136V50.0981C244.992 50.1445 244.813 50.1782 244.598 50.1993C244.387 50.2162 244.175 50.2246 243.96 50.2246H241.184V49.9337ZM243.087 49.3773C243.163 49.3773 243.224 49.3689 243.27 49.352C243.321 49.3309 243.361 49.293 243.391 49.2382C243.42 49.1792 243.441 49.1012 243.454 49.0042C243.466 48.9031 243.473 48.7724 243.473 48.6122C243.473 48.452 243.466 48.3235 243.454 48.2265C243.441 48.1253 243.42 48.0474 243.391 47.9926C243.361 47.9335 243.321 47.8956 243.27 47.8787C243.224 47.8577 243.163 47.8471 243.087 47.8471C243.011 47.8471 242.948 47.8577 242.897 47.8787C242.851 47.8956 242.811 47.9335 242.777 47.9926C242.748 48.0474 242.727 48.1253 242.714 48.2265C242.701 48.3235 242.695 48.452 242.695 48.6122C242.695 48.7724 242.701 48.9031 242.714 49.0042C242.727 49.1012 242.748 49.1792 242.777 49.2382C242.811 49.293 242.851 49.3309 242.897 49.352C242.948 49.3689 243.011 49.3773 243.087 49.3773ZM241.184 50.6293H246.362C246.413 50.6293 246.453 50.6461 246.483 50.6799C246.516 50.7094 246.533 50.7515 246.533 50.8063V52.1405H245.136V50.9201H241.184V50.6293ZM246.965 51.7927C247.096 51.7927 247.224 51.7569 247.351 51.6852C247.482 51.6136 247.598 51.5103 247.699 51.3754C247.8 51.2363 247.882 51.0677 247.945 50.8696C248.009 50.6714 248.04 50.4459 248.04 50.193V46.8354H249.349V50.193C249.349 50.4796 249.286 50.7368 249.159 50.9644C249.033 51.192 248.86 51.3859 248.641 51.5461C248.426 51.7021 248.173 51.8201 247.882 51.9002C247.595 51.9845 247.29 52.0267 246.965 52.0267V51.7927ZM250.759 46.8354H252.156V49.0928H252.707V49.4469H252.156V52.1468H250.759V46.8354ZM249.286 51.3754C249.286 51.1815 249.345 51.0255 249.463 50.9075C249.585 50.7852 249.743 50.7241 249.937 50.7241C250.131 50.7241 250.287 50.7852 250.405 50.9075C250.527 51.0255 250.588 51.1815 250.588 51.3754C250.588 51.5693 250.527 51.7253 250.405 51.8433C250.287 51.9656 250.131 52.0267 249.937 52.0267C249.743 52.0267 249.585 51.9656 249.463 51.8433C249.345 51.7253 249.286 51.5693 249.286 51.3754Z" fill="#383448"/>
<path d="M165.222 17.6734H165.988V16.9968H167.265V17.6734H168.03V17.9642H165.222V17.6734ZM169.705 17.1106H170.812V22.422H169.705V17.1106ZM168.397 21.1448H167.922C167.876 21.3893 167.806 21.6 167.714 21.7771C167.625 21.9499 167.522 22.0932 167.404 22.207C167.286 22.3209 167.159 22.4052 167.024 22.46C166.89 22.5148 166.753 22.5422 166.613 22.5422C166.445 22.5422 166.278 22.5 166.114 22.4157C165.95 22.3356 165.802 22.2091 165.671 22.0363C165.545 21.8635 165.442 21.6422 165.362 21.3724C165.281 21.1026 165.241 20.7801 165.241 20.405C165.241 20.0298 165.281 19.7073 165.362 19.4375C165.442 19.1677 165.545 18.9464 165.671 18.7736C165.802 18.6008 165.95 18.4743 166.114 18.3942C166.278 18.3141 166.445 18.2741 166.613 18.2741C166.833 18.2741 167.043 18.3415 167.246 18.4764C167.452 18.6071 167.621 18.8179 167.752 19.1087H168.397V17.1106H169.44V22.422H168.397V21.1448ZM166.613 22.2513C166.664 22.2513 166.706 22.2281 166.74 22.1817C166.778 22.1396 166.807 22.0511 166.828 21.9162C166.85 21.7855 166.864 21.6 166.873 21.3597C166.881 21.1195 166.885 20.8012 166.885 20.405C166.885 20.0129 166.881 19.6968 166.873 19.4565C166.864 19.212 166.85 19.0244 166.828 18.8937C166.807 18.7631 166.778 18.6766 166.74 18.6345C166.706 18.5881 166.664 18.5649 166.613 18.5649C166.563 18.5649 166.519 18.5881 166.481 18.6345C166.447 18.6766 166.42 18.7631 166.399 18.8937C166.382 19.0244 166.369 19.212 166.361 19.4565C166.352 19.6968 166.348 20.0129 166.348 20.405C166.348 20.8012 166.352 21.1195 166.361 21.3597C166.369 21.6 166.382 21.7855 166.399 21.9162C166.42 22.0511 166.447 22.1396 166.481 22.1817C166.519 22.2281 166.563 22.2513 166.613 22.2513ZM168.397 20.8539V19.3996H167.859C167.943 19.6862 167.986 20.0214 167.986 20.405C167.986 20.4851 167.983 20.563 167.979 20.6389C167.975 20.7106 167.969 20.7822 167.96 20.8539H168.397ZM171.137 18.6977C171.137 18.1708 171.29 17.764 171.598 17.4774C171.91 17.1907 172.368 17.0474 172.97 17.0474C173.573 17.0474 174.028 17.1907 174.336 17.4774C174.648 17.764 174.804 18.1708 174.804 18.6977C174.804 19.2204 174.648 19.6272 174.336 19.9181C174.028 20.2047 173.573 20.3481 172.97 20.3481C172.368 20.3481 171.91 20.2047 171.598 19.9181C171.29 19.6272 171.137 19.2204 171.137 18.6977ZM175.266 17.1106H176.663V21.3408H175.266V17.1106ZM172.97 20.1141C173.059 20.1141 173.13 20.0888 173.185 20.0382C173.24 19.9876 173.284 19.9075 173.318 19.7979C173.352 19.6841 173.375 19.5387 173.388 19.3616C173.4 19.1804 173.407 18.9591 173.407 18.6977C173.407 18.4364 173.4 18.2172 173.388 18.0401C173.375 17.8589 173.352 17.7134 173.318 17.6038C173.284 17.49 173.24 17.4078 173.185 17.3572C173.13 17.3066 173.059 17.2814 172.97 17.2814C172.882 17.2814 172.81 17.3066 172.755 17.3572C172.701 17.4078 172.656 17.49 172.623 17.6038C172.589 17.7134 172.566 17.8589 172.553 18.0401C172.54 18.2172 172.534 18.4364 172.534 18.6977C172.534 18.9591 172.54 19.1804 172.553 19.3616C172.566 19.5387 172.589 19.6841 172.623 19.7979C172.656 19.9075 172.701 19.9876 172.755 20.0382C172.81 20.0888 172.882 20.1141 172.97 20.1141ZM172.679 20.582V21.9541C172.679 22.0047 172.694 22.0469 172.724 22.0806C172.757 22.1143 172.802 22.1312 172.856 22.1312H176.695V22.422H171.984C171.769 22.422 171.598 22.3567 171.472 22.226C171.345 22.0995 171.282 21.9309 171.282 21.7202V20.582H172.679ZM179.264 17.4078H177.165V17.117H180.307C180.413 17.117 180.497 17.1507 180.56 17.2181C180.623 17.2814 180.655 17.3657 180.655 17.471V19.6272H179.264V17.4078ZM177.051 20.0698H177.544V18.3816H178.941V19.956C178.941 20.0319 178.979 20.0698 179.055 20.0698H179.865C180.071 20.0698 180.269 20.0614 180.459 20.0445C180.653 20.0235 180.815 19.9897 180.946 19.9434V17.117H182.343V18.9001H182.836V19.2478H182.343V21.3345H180.946V20.2342C180.811 20.2806 180.644 20.3143 180.446 20.3354C180.248 20.3523 180.042 20.3607 179.827 20.3607H177.051V20.0698ZM178.537 20.6832V21.9604C178.537 22.011 178.552 22.0532 178.581 22.0869C178.615 22.1206 178.657 22.1375 178.707 22.1375H182.375V22.4283H177.835C177.73 22.4283 177.635 22.4073 177.55 22.3651C177.466 22.3272 177.392 22.2724 177.329 22.2007C177.27 22.1333 177.224 22.0532 177.19 21.9604C177.156 21.8719 177.139 21.775 177.139 21.6696V20.6832H178.537Z" fill="#383448"/>
<path d="M81.3256 100.568L82.2218 78.7044C82.2532 77.9516 82.0591 77.1999 81.6682 76.5551L75.7001 66.7415C75.1568 65.8448 75.0018 64.7598 75.2749 63.7421L80.1021 45.9768C80.6549 43.9536 79.4706 41.8565 77.4539 41.2844L24.1716 26.1309C22.1043 25.5417 19.9533 26.7722 19.4151 28.8575L2.40927 94.5921C1.83224 96.8291 3.34662 99.0593 5.63587 99.353L24.7983 101.793C26.4962 102.006 27.8424 103.321 28.0989 105.01L28.1395 105.291C28.3875 106.912 29.6451 108.198 31.2577 108.483L43.6801 110.683C44.7383 110.867 45.8255 110.606 46.6743 109.951L46.9308 109.754C47.9447 108.981 49.2711 108.756 50.4808 109.167L62.6718 113.26C63.8054 113.642 65.0521 113.47 66.0381 112.798L79.6469 103.575C80.6512 102.89 81.2779 101.773 81.3254 100.562L81.3256 100.568Z" fill="#F3E2DB" stroke="#4C5A51"/>
<path d="M32.6203 71.9154C32.7678 71.9106 32.9119 71.8699 33.0528 71.7935C33.1979 71.717 33.325 71.6095 33.4343 71.4709C33.5477 71.3279 33.6369 71.1563 33.7019 70.9559C33.767 70.7555 33.7953 70.5289 33.7869 70.2761L33.7733 69.8653L32.6421 69.9029L32.6324 69.6122L33.7636 69.5746L33.7481 69.107L35.1384 69.0608L35.1539 69.5285L36.3673 69.4882L36.377 69.7789L35.0814 69.8219L35.0951 70.2327C35.1046 70.5192 35.0457 70.7784 34.9184 71.0104C34.791 71.2381 34.6141 71.4359 34.3877 71.6037C34.1612 71.7673 33.8955 71.8963 33.5908 71.9908C33.2902 72.0851 32.9693 72.1379 32.6281 72.1493L32.6203 71.9154ZM36.7189 70.552L35.7331 70.5848L35.7216 70.2372L36.7074 70.2045L36.6715 69.1238L38.0682 69.0774L38.1659 72.0224L36.7693 72.0687L36.7189 70.552ZM34.9889 71.4193C34.9825 71.2255 35.0363 71.0676 35.1504 70.9457C35.2643 70.8196 35.4202 70.7533 35.6183 70.7467C35.8078 70.7404 35.9637 70.7964 36.0857 70.9147C36.2118 71.0286 36.278 71.1825 36.2845 71.3763C36.2908 71.5658 36.2348 71.7238 36.1167 71.85C36.0028 71.9761 35.8511 72.0423 35.6615 72.0486C35.4635 72.0552 35.3034 71.9993 35.1814 71.881C35.0594 71.7628 34.9952 71.6089 34.9889 71.4193ZM32.8328 73.5533C32.827 73.3764 32.8723 73.2167 32.9688 73.0743C33.0653 72.9319 33.2194 72.8108 33.4312 72.711C33.6471 72.6068 33.9227 72.5239 34.2581 72.4621C34.5976 72.4002 35.0076 72.3613 35.4879 72.3454C35.9681 72.3294 36.3798 72.3411 36.7227 72.3803C37.0656 72.4195 37.3461 72.484 37.5642 72.5738C37.7822 72.6593 37.944 72.77 38.0497 72.9056C38.1555 73.0413 38.2113 73.1976 38.2171 73.3746C38.2232 73.5557 38.1779 73.7175 38.0814 73.8599C37.9849 74.0023 37.8308 74.1234 37.619 74.2232C37.4073 74.3272 37.1317 74.4102 36.7921 74.4721C36.4526 74.534 36.0426 74.5729 35.5623 74.5888C35.082 74.6048 34.6704 74.5931 34.3275 74.5539C33.9888 74.5145 33.7083 74.45 33.486 74.3604C33.268 74.2748 33.1062 74.1642 33.0005 74.0286C32.8947 73.8929 32.8388 73.7345 32.8328 73.5533ZM34.2295 73.5069C34.2391 73.7976 34.3599 74.0045 34.5917 74.1276C34.8237 74.2548 35.144 74.3117 35.5527 74.2981C35.9613 74.2846 36.2772 74.2066 36.5002 74.0642C36.7234 73.9261 36.8302 73.7116 36.8205 73.4209C36.811 73.1344 36.6903 72.9297 36.4585 72.8066C36.2265 72.6793 35.9062 72.6225 35.4975 72.6361C35.0888 72.6496 34.773 72.7276 34.55 72.87C34.3268 73.0081 34.22 73.2205 34.2295 73.5069ZM38.6703 70.1899C38.664 70.0003 38.7069 69.8302 38.7989 69.6795C38.8949 69.5245 39.0487 69.3929 39.2602 69.2846C39.4758 69.172 39.7555 69.0847 40.0993 69.0227C40.4472 68.9563 40.8676 68.9149 41.3605 68.8986C41.8534 68.8822 42.2735 68.8957 42.6208 68.939C42.9722 68.9779 43.2571 69.0465 43.4754 69.1447C43.6979 69.2385 43.86 69.3597 43.962 69.5081C44.068 69.6522 44.1241 69.8191 44.1304 70.0087C44.1367 70.1982 44.0918 70.3685 43.9955 70.5193C43.9035 70.6699 43.7497 70.8016 43.5342 70.9142C43.3226 71.0224 43.043 71.1097 42.6951 71.1761C42.3513 71.2381 41.9329 71.2773 41.44 71.2937C40.9471 71.3101 40.5249 71.2988 40.1736 71.2598C39.8263 71.2165 39.5414 71.1479 39.319 71.0541C39.1006 70.9559 38.9384 70.8348 38.8324 70.6907C38.7306 70.5464 38.6766 70.3795 38.6703 70.1899ZM40.0606 70.1438C40.0644 70.2575 40.0955 70.3683 40.1539 70.476C40.2164 70.5793 40.3059 70.6734 40.4226 70.7581C40.5392 70.8386 40.6804 70.9014 40.8464 70.9465C41.0166 70.9914 41.2113 71.0103 41.4304 71.003C41.6494 70.9957 41.8403 70.9641 42.0029 70.9081C42.1698 70.8519 42.3087 70.7798 42.4196 70.6918C42.5304 70.5995 42.6115 70.4998 42.6628 70.3927C42.7181 70.2812 42.7439 70.1686 42.7401 70.0548C42.73 69.7515 42.6087 69.5277 42.3762 69.3836C42.1437 69.2395 41.8083 69.1747 41.3702 69.1893C40.932 69.2038 40.6017 69.2907 40.3792 69.4499C40.1567 69.6091 40.0505 69.8404 40.0606 70.1438ZM38.7259 71.8646L44.186 71.6834L44.1957 71.9741L42.3693 72.0347L42.4117 73.3112L40.9582 73.3595L40.9158 72.0829L38.7355 72.1553L38.7259 71.8646ZM40.2086 72.6948L40.2469 73.8513C40.2486 73.9018 40.2648 73.9435 40.2954 73.9762C40.3302 74.0088 40.3729 74.0242 40.4234 74.0226L44.2026 73.8971L44.2122 74.1878L39.561 74.3422C39.3503 74.3492 39.1796 74.2895 39.0489 74.1631C38.9183 74.0409 38.8495 73.8745 38.8425 73.6638L38.8119 72.7411L40.2086 72.6948ZM46.6453 69.0901L44.5472 69.1597L44.5376 68.869L47.6784 68.7648C47.7838 68.7613 47.8691 68.7922 47.9346 68.8575C47.9999 68.9186 48.0343 69.0018 48.0378 69.1071L48.1093 71.2621L46.719 71.3083L46.6453 69.0901ZM44.5218 71.824L45.0147 71.8077L44.9587 70.1204L46.3553 70.074L46.4076 71.6476C46.4101 71.7234 46.4493 71.7601 46.5251 71.7575L47.334 71.7307C47.5405 71.7238 47.7382 71.7088 47.9272 71.6857C48.1203 71.6582 48.2814 71.6191 48.4105 71.5684L48.3167 68.7436L49.7133 68.6972L49.7725 70.4793L50.2654 70.463L50.277 70.8105L49.784 70.8269L49.8533 72.9124L48.4566 72.9587L48.4201 71.8591C48.2869 71.91 48.1216 71.9492 47.9242 71.9768C47.7268 72.0002 47.5206 72.0155 47.3058 72.0227L44.5314 72.1148L44.5218 71.824ZM46.0273 72.3878L46.0696 73.6643C46.0713 73.7149 46.0875 73.7565 46.1181 73.7892C46.1529 73.8218 46.1956 73.8373 46.2461 73.8356L49.9115 73.7139L49.9212 74.0046L45.3837 74.1552C45.2784 74.1587 45.1829 74.1408 45.0972 74.1015C45.0117 74.0664 44.9361 74.0141 44.8706 73.9445C44.8093 73.8791 44.7603 73.8006 44.7236 73.709C44.6869 73.6216 44.6668 73.5253 44.6633 73.42L44.6306 72.4341L46.0273 72.3878Z" fill="#383448"/>
<path d="M194.534 252.86C194.47 252.681 194.458 252.506 194.499 252.335C194.543 252.157 194.648 251.985 194.816 251.816C194.987 251.643 195.226 251.474 195.533 251.308C195.844 251.138 196.231 250.969 196.695 250.801C197.159 250.634 197.562 250.517 197.906 250.451C198.252 250.379 198.544 250.357 198.782 250.383C199.023 250.403 199.215 250.469 199.357 250.578C199.503 250.683 199.608 250.824 199.672 251.002C199.737 251.181 199.746 251.357 199.701 251.53C199.66 251.701 199.555 251.874 199.384 252.048C199.217 252.216 198.978 252.385 198.667 252.556C198.359 252.721 197.973 252.887 197.51 253.055C197.046 253.223 196.641 253.342 196.294 253.413C195.951 253.479 195.659 253.502 195.418 253.482C195.18 253.455 194.988 253.39 194.843 253.286C194.702 253.18 194.599 253.038 194.534 252.86ZM195.843 252.387C195.881 252.494 195.945 252.59 196.034 252.674C196.125 252.753 196.239 252.815 196.377 252.859C196.512 252.9 196.666 252.916 196.838 252.908C197.014 252.898 197.205 252.856 197.411 252.781C197.617 252.707 197.789 252.618 197.926 252.514C198.067 252.41 198.177 252.298 198.256 252.18C198.333 252.058 198.379 251.938 198.395 251.821C198.413 251.697 198.403 251.582 198.364 251.475C198.261 251.19 198.076 251.014 197.811 250.949C197.545 250.884 197.206 250.926 196.794 251.075C196.381 251.224 196.094 251.408 195.932 251.628C195.769 251.849 195.739 252.101 195.843 252.387ZM195.123 254.489L200.261 252.632L200.36 252.905L195.222 254.763L195.123 254.489ZM196.771 254.768L197.164 255.856C197.181 255.903 197.209 255.938 197.249 255.96C197.292 255.98 197.337 255.981 197.385 255.964L200.941 254.679L201.04 254.952L196.663 256.534C196.465 256.606 196.284 256.602 196.121 256.522C195.959 256.446 195.842 256.309 195.77 256.111L195.456 255.243L196.771 254.768ZM200.631 252.162C200.905 252.063 201.142 251.939 201.344 251.79C201.544 251.637 201.698 251.455 201.806 251.246C201.919 251.035 201.978 250.796 201.984 250.53C201.99 250.259 201.932 249.957 201.812 249.624L201.721 249.374L199.973 250.006L199.874 249.733L204.798 247.953L204.897 248.226L203.137 248.862L203.227 249.112C203.382 249.54 203.417 249.922 203.332 250.258C203.251 250.592 203.086 250.891 202.836 251.156C202.589 251.416 202.279 251.647 201.904 251.85C201.531 252.047 201.133 252.222 200.709 252.376L200.631 252.162ZM204.033 250.374C203.958 250.168 203.961 249.978 204.042 249.806C204.126 249.628 204.275 249.5 204.489 249.423C204.695 249.348 204.885 249.353 205.059 249.438C205.232 249.519 205.356 249.663 205.43 249.869C205.508 250.083 205.506 250.276 205.425 250.449C205.344 250.622 205.2 250.745 204.994 250.82C204.78 250.897 204.585 250.896 204.408 250.817C204.235 250.736 204.11 250.588 204.033 250.374ZM200.928 252.982L206.066 251.125L206.165 251.399L204.28 252.08L204.826 253.59L203.458 254.085L202.912 252.574L201.027 253.256L200.928 252.982ZM208.057 247.467L207.374 248.238L207.033 248.019L207.932 246.954L209.193 246.498L210.917 251.268L209.602 251.743L208.057 247.467ZM212.181 245.593L210.207 246.307L210.108 246.033L213.064 244.965C213.163 244.929 213.254 244.932 213.336 244.974C213.417 245.012 213.475 245.08 213.511 245.179L214.244 247.207L212.936 247.68L212.181 245.593ZM211.005 248.849L211.469 248.681L210.895 247.093L212.209 246.618L212.744 248.099C212.77 248.17 212.819 248.193 212.89 248.167L213.651 247.892C213.846 247.822 214.029 247.747 214.202 247.666C214.377 247.58 214.518 247.494 214.625 247.406L213.664 244.747L214.978 244.272L215.585 245.949L216.048 245.782L216.167 246.109L215.703 246.276L216.412 248.239L215.098 248.714L214.724 247.679C214.613 247.769 214.468 247.857 214.289 247.944C214.108 248.027 213.917 248.105 213.715 248.179L211.104 249.122L211.005 248.849ZM212.611 248.92L213.045 250.121C213.062 250.169 213.091 250.204 213.13 250.225C213.173 250.246 213.218 250.247 213.266 250.23L216.715 248.983L216.814 249.257L212.544 250.8C212.445 250.836 212.349 250.848 212.255 250.837C212.163 250.83 212.075 250.804 211.991 250.758C211.913 250.715 211.842 250.655 211.779 250.579C211.717 250.508 211.668 250.422 211.632 250.323L211.297 249.395L212.611 248.92Z" fill="#383448"/>
<path d="M270.565 137.433C270.565 137.243 270.613 137.074 270.71 136.927C270.812 136.775 270.97 136.649 271.185 136.547C271.404 136.442 271.686 136.364 272.032 136.314C272.382 136.259 272.803 136.231 273.297 136.231C273.79 136.231 274.209 136.259 274.555 136.314C274.905 136.364 275.187 136.442 275.402 136.547C275.621 136.649 275.779 136.775 275.876 136.927C275.978 137.074 276.028 137.243 276.028 137.433C276.028 137.622 275.978 137.791 275.876 137.939C275.779 138.086 275.621 138.213 275.402 138.318C275.187 138.419 274.905 138.497 274.555 138.552C274.209 138.602 273.79 138.628 273.297 138.628C272.803 138.628 272.382 138.602 272.032 138.552C271.686 138.497 271.404 138.419 271.185 138.318C270.97 138.213 270.812 138.086 270.71 137.939C270.613 137.791 270.565 137.622 270.565 137.433ZM271.956 137.433C271.956 137.547 271.983 137.658 272.038 137.768C272.097 137.873 272.184 137.97 272.297 138.059C272.411 138.143 272.55 138.21 272.715 138.261C272.883 138.312 273.077 138.337 273.297 138.337C273.516 138.337 273.708 138.312 273.872 138.261C274.041 138.21 274.182 138.143 274.296 138.059C274.409 137.97 274.494 137.873 274.548 137.768C274.607 137.658 274.637 137.547 274.637 137.433C274.637 137.129 274.523 136.902 274.296 136.75C274.068 136.598 273.735 136.522 273.297 136.522C272.858 136.522 272.525 136.598 272.297 136.75C272.07 136.902 271.956 137.129 271.956 137.433ZM270.565 139.165H276.028V139.456H270.565V139.165ZM272.019 139.987V141.144C272.019 141.195 272.034 141.237 272.064 141.271C272.097 141.305 272.139 141.321 272.19 141.321H275.971V141.612H271.317C271.107 141.612 270.938 141.547 270.812 141.416C270.685 141.29 270.622 141.121 270.622 140.91V139.987H272.019ZM276.536 138.849C276.827 138.849 277.092 138.813 277.333 138.742C277.573 138.666 277.78 138.548 277.952 138.387C278.129 138.227 278.266 138.023 278.363 137.774C278.46 137.521 278.509 137.218 278.509 136.864V136.598H276.65V136.307H281.885V136.598H280.014V136.864C280.014 137.319 279.917 137.69 279.723 137.976C279.533 138.263 279.276 138.489 278.951 138.653C278.631 138.813 278.26 138.925 277.839 138.988C277.421 139.047 276.987 139.077 276.536 139.077V138.849ZM280.343 138.324C280.343 138.105 280.41 137.928 280.545 137.793C280.684 137.654 280.867 137.584 281.095 137.584C281.314 137.584 281.491 137.654 281.626 137.793C281.761 137.928 281.828 138.105 281.828 138.324C281.828 138.552 281.761 138.733 281.626 138.868C281.491 139.003 281.314 139.07 281.095 139.07C280.867 139.07 280.684 139.003 280.545 138.868C280.41 138.733 280.343 138.552 280.343 138.324ZM276.536 139.722H281.999V140.013H279.995V141.619H278.54V140.013H276.536V139.722ZM283.964 140.955C283.964 140.664 284.023 140.417 284.141 140.215C284.264 140.008 284.415 139.827 284.597 139.671C284.778 139.511 284.974 139.368 285.185 139.241C285.396 139.11 285.592 138.978 285.773 138.843C285.954 138.704 286.104 138.552 286.222 138.387C286.344 138.223 286.405 138.025 286.405 137.793C286.405 137.346 286.363 137.024 286.279 136.826C286.199 136.628 286.066 136.528 285.88 136.528C285.708 136.528 285.577 136.625 285.488 136.819C285.404 137.009 285.362 137.334 285.362 137.793H283.964C283.964 137.544 284.011 137.323 284.104 137.129C284.201 136.935 284.333 136.773 284.502 136.642C284.671 136.507 284.871 136.406 285.103 136.339C285.339 136.271 285.598 136.238 285.88 136.238C286.163 136.238 286.42 136.271 286.652 136.339C286.888 136.406 287.09 136.507 287.259 136.642C287.432 136.773 287.564 136.935 287.657 137.129C287.754 137.323 287.803 137.544 287.803 137.793C287.803 138.101 287.741 138.358 287.619 138.565C287.501 138.767 287.352 138.944 287.17 139.096C286.989 139.247 286.793 139.382 286.582 139.5C286.371 139.618 286.175 139.745 285.994 139.88C285.813 140.01 285.661 140.16 285.539 140.329C285.421 140.497 285.362 140.706 285.362 140.955V141.201H287.746V141.492H283.964V140.955ZM290.335 136.598H288.236V136.307H291.379C291.484 136.307 291.568 136.341 291.631 136.408C291.695 136.472 291.726 136.556 291.726 136.661V138.817H290.335V136.598ZM288.122 139.26H288.615V137.572H290.013V139.146C290.013 139.222 290.051 139.26 290.127 139.26H290.936C291.143 139.26 291.341 139.252 291.53 139.235C291.724 139.214 291.887 139.18 292.017 139.134V136.307H293.415V138.09H293.908V138.438H293.415V140.525H292.017V139.424C291.882 139.471 291.716 139.505 291.518 139.526C291.32 139.542 291.113 139.551 290.898 139.551H288.122V139.26ZM289.608 139.873V141.151C289.608 141.201 289.623 141.243 289.652 141.277C289.686 141.311 289.728 141.328 289.779 141.328H293.446V141.619H288.906C288.801 141.619 288.706 141.598 288.622 141.555C288.537 141.517 288.464 141.463 288.4 141.391C288.341 141.324 288.295 141.243 288.261 141.151C288.228 141.062 288.211 140.965 288.211 140.86V139.873H289.608Z" fill="#383448"/>
<path d="M20.7783 135.309L61.5555 130.115C62.6531 129.978 63.69 130.652 64.0008 131.713L65.357 136.348C65.6465 137.334 66.5641 137.999 67.59 137.965L71.362 137.84C72.3942 137.806 73.3247 138.483 73.6021 139.482L79.9509 162.083C80.1783 162.896 79.9317 163.769 79.312 164.341L77.7567 165.783C77.2222 166.284 76.9583 167.013 77.0575 167.736L86.2271 235.509C86.2359 235.584 86.2446 235.659 86.2471 235.734C86.2939 237.142 87.6051 238.157 88.9791 237.855L90.4028 237.544C91.6275 237.272 92.8374 238.065 93.091 239.291L98.0738 263.754C98.3278 264.992 97.5097 266.191 96.2711 266.42L95.0821 266.635C93.8868 266.85 93.0787 267.973 93.2564 269.176L99.8783 314.153C100.057 315.388 99.2058 316.531 97.9718 316.71L67.6073 321.101C66.4168 321.272 65.2945 320.476 65.0734 319.287L59.4722 289.4C59.3043 288.491 58.5916 287.775 57.6842 287.605L53.4049 286.789C52.4785 286.613 51.7588 285.872 51.6088 284.937L42.7856 230.241C42.573 228.932 43.5349 227.723 44.8596 227.635L47.2967 227.479C48.6652 227.389 49.637 226.104 49.3547 224.766L43.3233 196.448C43.1003 195.39 42.155 194.645 41.0787 194.668L28.4991 194.904C27.3538 194.923 26.3803 194.084 26.2301 192.955L18.8338 137.855C18.6675 136.62 19.5378 135.482 20.7787 135.322L20.7783 135.309Z" fill="#F3E2DB" stroke="#4C5A51"/>
<path d="M65.0497 260.159C64.9253 260.222 64.7855 260.269 64.6305 260.3C64.4797 260.33 64.3242 260.348 64.1641 260.353L63.1656 260.386C62.9507 260.393 62.778 260.336 62.6474 260.214C62.5168 260.091 62.448 259.925 62.441 259.714L62.29 255.164L64.6472 255.086L64.6569 255.377L63.5825 255.412L63.7317 259.906C63.7334 259.956 63.7494 259.996 63.7799 260.024C63.8147 260.057 63.8574 260.072 63.908 260.07L64.1924 260.061C64.344 260.056 64.4932 260.038 64.6398 260.008C64.7906 259.978 64.924 259.931 65.0401 259.868L64.881 255.078L66.1007 255.038L66.1781 257.37L66.4688 257.36L66.3914 255.028L67.668 254.986L67.8442 260.294L66.5676 260.336L66.4785 257.651L66.1878 257.66L66.2748 260.283L65.0552 260.323L65.0497 260.159ZM68.1509 256.127C68.137 255.71 68.2806 255.398 68.5816 255.189C68.8866 254.977 69.3404 254.861 69.9429 254.841C70.5453 254.821 71.0037 254.907 71.318 255.099C71.6363 255.286 71.8024 255.589 71.8162 256.006C71.8302 256.427 71.6847 256.744 71.3796 256.957C71.0788 257.169 70.6271 257.285 70.0247 257.305C69.4222 257.325 68.9617 257.239 68.6433 257.047C68.329 256.855 68.1649 256.549 68.1509 256.127ZM72.239 254.828L73.6356 254.781L73.7153 257.183L72.3187 257.229L72.239 254.828ZM70.0169 257.071C70.1054 257.068 70.1764 257.047 70.2299 257.007C70.2834 256.968 70.3257 256.907 70.3567 256.826C70.3878 256.745 70.4075 256.641 70.416 256.514C70.4244 256.387 70.4256 256.233 70.4196 256.052C70.4077 255.694 70.3698 255.44 70.3058 255.29C70.2417 255.141 70.1234 255.069 69.9506 255.074C69.7779 255.08 69.6645 255.16 69.6106 255.313C69.5567 255.467 69.5356 255.723 69.5475 256.081C69.5535 256.262 69.5649 256.416 69.5818 256.542C69.5986 256.668 69.6252 256.77 69.6616 256.849C69.6979 256.928 69.7441 256.986 69.8002 257.022C69.8562 257.058 69.9284 257.074 70.0169 257.071ZM73.8591 259.797L73.8687 260.088L68.9647 260.251C68.8046 260.256 68.6747 260.218 68.575 260.137C68.4754 260.06 68.4235 259.956 68.4192 259.826C68.4147 259.691 68.4596 259.582 68.5538 259.499C68.6481 259.415 68.7752 259.371 68.9353 259.366L72.3858 259.251L72.3758 258.948L68.8873 259.064C68.7399 259.069 68.6184 259.031 68.5229 258.949C68.4315 258.864 68.3838 258.76 68.3797 258.638C68.3757 258.516 68.4165 258.411 68.5022 258.324C68.5919 258.232 68.7105 258.184 68.858 258.179L72.3464 258.063L72.3363 257.76L68.475 257.888L68.4654 257.597L73.2304 257.439C73.3778 257.434 73.4973 257.475 73.5887 257.56C73.6842 257.641 73.7339 257.743 73.738 257.865C73.742 257.987 73.6992 258.094 73.6094 258.186C73.5238 258.273 73.4072 258.319 73.2597 258.324L69.7713 258.44L69.7814 258.743L73.2698 258.627C73.4173 258.622 73.5367 258.663 73.6281 258.748C73.7236 258.829 73.7734 258.931 73.7774 259.053C73.7815 259.175 73.7386 259.282 73.6489 259.374C73.5632 259.461 73.4466 259.507 73.2992 259.512L69.8108 259.628L69.8208 259.931L73.8591 259.797ZM76.245 254.992L74.1468 255.062L74.1372 254.771L77.278 254.667C77.3834 254.663 77.4687 254.694 77.5342 254.759C77.5995 254.82 77.6339 254.904 77.6374 255.009L77.7089 257.164L76.3186 257.21L76.245 254.992ZM74.1214 257.726L74.6143 257.71L74.5583 256.022L75.955 255.976L76.0072 257.549C76.0097 257.625 76.0489 257.662 76.1247 257.659L76.9336 257.633C77.1401 257.626 77.3378 257.611 77.5268 257.588C77.7199 257.56 77.881 257.521 78.0101 257.47L77.9163 254.645L79.313 254.599L79.3721 256.381L79.865 256.365L79.8766 256.712L79.3836 256.729L79.4529 258.814L78.0562 258.861L78.0197 257.761C77.8865 257.812 77.7212 257.851 77.5238 257.879C77.3264 257.902 77.1202 257.917 76.9054 257.925L74.1311 258.017L74.1214 257.726ZM75.6269 258.29L75.6692 259.566C75.6709 259.617 75.6871 259.658 75.7177 259.691C75.7525 259.724 75.7952 259.739 75.8457 259.737L79.5111 259.616L79.5208 259.907L74.9833 260.057C74.878 260.061 74.7825 260.043 74.6968 260.003C74.6113 259.968 74.5357 259.916 74.4702 259.846C74.4089 259.781 74.3599 259.702 74.3232 259.611C74.2865 259.524 74.2665 259.427 74.263 259.322L74.2302 258.336L75.6269 258.29Z" fill="#383448"/>
<path d="M43.7973 160.247L45.1939 160.201L45.2407 161.61L45.7337 161.594L45.7452 161.941L45.2523 161.958L45.2995 163.379L43.9028 163.426L43.7973 160.247ZM40.0427 163.206C40.1817 163.201 40.3174 163.161 40.4499 163.085C40.5823 163.009 40.6989 162.902 40.7998 162.763C40.9047 162.621 40.9855 162.449 41.0421 162.249C41.103 162.049 41.1292 161.822 41.1208 161.57L41.0799 160.337L42.388 160.294L42.4289 161.526C42.4385 161.813 42.3817 162.072 42.2586 162.304C42.1354 162.531 41.9649 162.729 41.7469 162.896C41.533 163.06 41.28 163.188 40.9878 163.282C40.6956 163.372 40.383 163.422 40.0502 163.434L40.0427 163.206ZM42.4048 162.704C42.3985 162.514 42.4523 162.356 42.5662 162.23C42.6843 162.104 42.8403 162.038 43.0341 162.031C43.2279 162.025 43.3858 162.081 43.5078 162.199C43.6341 162.317 43.7003 162.471 43.7066 162.661C43.713 162.854 43.6572 163.014 43.5391 163.141C43.425 163.262 43.2711 163.327 43.0773 163.333C42.8835 163.339 42.7235 163.286 42.5975 163.172C42.4754 163.054 42.4112 162.898 42.4048 162.704ZM40.1945 164.732C40.1888 164.559 40.2322 164.406 40.3248 164.272C40.4214 164.134 40.5715 164.017 40.775 163.922C40.9826 163.822 41.2478 163.744 41.5707 163.687C41.8935 163.63 42.2804 163.594 42.7312 163.579C43.182 163.564 43.5703 163.574 43.8963 163.61C44.2264 163.645 44.4963 163.706 44.7058 163.791C44.9194 163.873 45.0769 163.979 45.1782 164.111C45.2837 164.238 45.3393 164.388 45.345 164.561C45.3507 164.734 45.3052 164.887 45.2084 165.021C45.1159 165.155 44.9657 165.27 44.758 165.365C44.5547 165.465 44.2894 165.543 43.9624 165.6C43.6395 165.657 43.2527 165.693 42.8019 165.708C42.3511 165.723 41.9627 165.713 41.6367 165.677C41.3108 165.642 41.041 165.581 40.8272 165.495C40.6179 165.414 40.4604 165.309 40.355 165.182C40.2538 165.055 40.2003 164.905 40.1945 164.732ZM41.5912 164.686C41.5952 164.808 41.6262 164.916 41.6842 165.012C41.7463 165.102 41.8289 165.178 41.9321 165.237C42.0397 165.301 42.1657 165.348 42.31 165.377C42.4587 165.41 42.6195 165.423 42.7922 165.418C42.9692 165.412 43.1286 165.387 43.2706 165.345C43.4127 165.306 43.5353 165.252 43.6384 165.181C43.7417 165.114 43.8191 165.033 43.8708 164.939C43.9266 164.84 43.9524 164.73 43.9484 164.607C43.9443 164.485 43.9112 164.377 43.849 164.282C43.791 164.187 43.7083 164.109 43.6009 164.05C43.4933 163.986 43.3674 163.939 43.223 163.91C43.0785 163.877 42.9178 163.863 42.7408 163.869C42.5681 163.875 42.4086 163.899 42.2624 163.942C42.1203 163.981 41.9977 164.035 41.8946 164.106C41.7956 164.173 41.7182 164.255 41.6624 164.354C41.6109 164.453 41.5871 164.563 41.5912 164.686ZM46.2019 162.293C46.4926 162.283 46.7545 162.235 46.9878 162.147C47.2253 162.059 47.426 161.942 47.5899 161.798C47.758 161.653 47.8854 161.486 47.9719 161.298C48.0625 161.105 48.1042 160.901 48.0971 160.686L48.0778 160.105L49.5819 160.055L49.6012 160.636C49.6117 160.952 49.5258 161.225 49.3436 161.455C49.1657 161.684 48.9211 161.876 48.6099 162.03C48.2986 162.183 47.9356 162.301 47.5207 162.382C47.1059 162.463 46.6688 162.512 46.2096 162.527L46.2019 162.293ZM50.6395 162.373C50.4119 162.381 50.2285 162.32 50.0893 162.189C49.9498 162.055 49.8763 161.874 49.8688 161.646C49.8615 161.427 49.923 161.248 50.0534 161.109C50.1837 160.969 50.3626 160.896 50.5902 160.888C50.8092 160.881 50.9884 160.943 51.1277 161.073C51.267 161.203 51.3403 161.378 51.3476 161.597C51.3551 161.825 51.2938 162.01 51.1636 162.154C51.0332 162.293 50.8585 162.366 50.6395 162.373ZM46.1971 162.913L51.6573 162.732L51.6669 163.023L46.2068 163.204L46.1971 162.913ZM46.3086 164.554C46.303 164.386 46.3464 164.235 46.439 164.101C46.5358 163.967 46.6881 163.854 46.896 163.763C47.1079 163.667 47.3817 163.593 47.7173 163.54C48.0571 163.482 48.4671 163.445 48.9473 163.429C49.4276 163.413 49.8371 163.423 50.1757 163.458C50.5183 163.489 50.7964 163.545 51.01 163.626C51.2277 163.704 51.3871 163.806 51.4884 163.933C51.5938 164.06 51.6494 164.208 51.6549 164.377C51.6607 164.55 51.6151 164.701 51.5182 164.831C51.4256 164.964 51.2733 165.077 51.0612 165.168C50.8535 165.264 50.5797 165.338 50.2399 165.392C49.9043 165.449 49.4964 165.486 49.0162 165.502C48.5359 165.518 48.1243 165.508 47.7815 165.473C47.4431 165.442 47.165 165.386 46.9472 165.305C46.7337 165.228 46.5743 165.125 46.4688 164.998C46.3677 164.875 46.3143 164.727 46.3086 164.554ZM47.7052 164.508C47.714 164.773 47.8298 164.959 48.0527 165.066C48.2799 165.176 48.5978 165.225 49.0065 165.211C49.4152 165.198 49.7271 165.128 49.9423 165.003C50.1618 164.882 50.2671 164.689 50.2583 164.423C50.2495 164.158 50.1316 163.972 49.9045 163.866C49.6815 163.755 49.3657 163.706 48.957 163.72C48.5483 163.733 48.2343 163.803 48.0149 163.928C47.7996 164.049 47.6964 164.243 47.7052 164.508ZM54.1185 160.195L52.0204 160.265L52.0107 159.974L55.1516 159.87C55.2569 159.867 55.3423 159.898 55.4077 159.963C55.473 160.024 55.5074 160.107 55.5109 160.213L55.5824 162.368L54.1921 162.414L54.1185 160.195ZM51.9949 162.929L52.4879 162.913L52.4319 161.226L53.8285 161.179L53.8807 162.753C53.8832 162.829 53.9224 162.865 53.9983 162.863L54.8072 162.836C55.0136 162.829 55.2113 162.814 55.4004 162.791C55.5935 162.764 55.7546 162.725 55.8836 162.674L55.7899 159.849L57.1865 159.803L57.2456 161.585L57.7386 161.568L57.7501 161.916L57.2572 161.932L57.3264 164.018L55.9298 164.064L55.8933 162.965C55.76 163.015 55.5947 163.055 55.3974 163.082C55.1999 163.106 54.9938 163.121 54.7789 163.128L52.0046 163.22L51.9949 162.929ZM53.5004 163.493L53.5428 164.77C53.5445 164.82 53.5606 164.862 53.5912 164.895C53.626 164.927 53.6687 164.943 53.7193 164.941L57.3847 164.819L57.3943 165.11L52.8568 165.261C52.7515 165.264 52.656 165.246 52.5703 165.207C52.4848 165.172 52.4093 165.119 52.3437 165.05C52.2825 164.984 52.2335 164.906 52.1967 164.814C52.1601 164.727 52.14 164.631 52.1365 164.525L52.1038 163.54L53.5004 163.493Z" fill="#383448"/>
<g clip-path="url(#clip0_529_347)">
<path fill-rule="evenodd" clip-rule="evenodd" d="M86.7682 207.19L86.8065 207.218L86.8388 207.247L86.8703 207.263L86.8954 207.274L86.9696 207.288L87.0052 207.268L87.0411 207.254L87.0774 207.245L87.1082 207.25L87.1452 207.254L87.1767 207.27L87.1936 207.245L87.217 207.225L87.2468 207.211L87.2766 207.197L87.3007 207.19L87.3308 207.182L87.3613 207.18L87.3922 207.185L87.4539 207.193L87.5159 207.208L87.5468 207.213L87.5769 207.205L87.6609 207.176L87.745 207.146L87.8293 207.123L87.914 207.106L87.9506 207.104L87.994 207.114L88.0256 207.13L88.0636 207.153L88.1087 207.193L88.1701 207.196L88.2253 207.199L88.287 207.207L88.3426 207.216L88.3857 207.22L88.4348 207.223L88.5202 207.219L88.6039 207.183L88.7472 207.12L88.8969 207.062L88.9332 207.054L89.0369 207.048L89.0738 207.052L89.105 207.063L89.1427 207.079L89.1681 207.096L89.257 207.152L89.3459 207.208L89.4198 207.216L89.4937 207.224L89.5876 207.262L89.688 207.305L89.7321 207.327L89.7816 207.337L89.825 207.346L89.8741 207.35L89.8985 207.348L89.9226 207.341L89.9768 207.326L90.0313 207.316L90.0862 207.313L90.1415 207.316L90.1784 207.32L90.2211 207.318L90.2574 207.31L90.2998 207.301L90.378 207.278L90.4566 207.262L90.542 207.257L90.6278 207.258L90.6654 207.274L90.697 207.291L90.7285 207.307L90.8197 207.296L90.9051 207.291L90.9969 207.292L91.0834 207.305L91.1505 207.302L91.1806 207.294L91.2108 207.286L91.241 207.278L91.2708 207.264L91.3002 207.244L91.3297 207.224L91.3534 207.211L91.3771 207.197L91.4008 207.183L91.431 207.176L91.4855 207.166L91.516 207.165L91.5469 207.169L91.5842 207.179L91.6215 207.189L91.6893 207.198L91.7567 207.2L91.8306 207.208L91.8676 207.212L91.9052 207.228L91.9411 207.214L91.9652 207.206L92.0201 207.203L92.0448 207.208L92.0825 207.224L92.1205 207.247L92.3035 207.236L92.353 207.246L92.3964 207.255L92.4398 207.265L92.4839 207.287L92.5219 207.309L92.6796 207.392L92.724 207.42L92.7569 207.461L92.8231 207.549L92.7415 207.621L92.7002 207.648L92.6582 207.663L92.6098 207.672L92.5667 207.668L92.5172 207.659L92.4738 207.649L92.4301 207.633L92.3809 207.63L92.3009 207.622L92.2206 207.608L92.1779 207.611L92.1359 207.625L92.0871 207.628L92.045 207.643L91.9973 207.664L91.9553 207.678L91.9139 207.705L91.8726 207.732L91.8374 207.758L91.8025 207.791L91.7788 207.805L91.7612 207.818L91.7189 207.826L91.6701 207.829L91.6514 207.824L91.627 207.825L91.5704 207.798L91.5259 207.77L91.4477 207.793L91.3755 207.815L91.2965 207.826L91.2237 207.836L91.1071 207.83L90.9966 207.825L90.9474 207.821L90.9051 207.83L90.857 207.845L90.815 207.859L90.7675 207.886L90.7194 207.901L90.6649 207.911L90.549 207.917L90.4937 207.914L90.4259 207.906L90.3527 207.91L90.3225 207.918L90.2992 207.938L90.2345 207.984L90.1695 208.025L90.1454 208.032L90.1214 208.039L90.0912 208.047L90.0607 208.049L90.036 208.044L90.0051 208.04L89.9804 208.035L89.9549 208.018L89.8796 207.986L89.8044 207.953L89.7233 207.927L89.6423 207.901L89.5989 207.892L89.5494 207.882L89.5002 207.879L89.4511 207.876L89.3836 207.873L89.3219 207.865L89.2595 207.844L89.1971 207.823L89.1785 207.818L89.1599 207.813L89.1232 207.815L89.0812 207.829L89.0389 207.838L88.9972 207.859L88.9556 207.879L88.9017 207.901L88.8478 207.922L88.7936 207.937L88.7394 207.953L88.6848 207.962L88.6238 207.965L88.5686 207.962L88.5133 207.959L88.4577 207.95L88.4086 207.947L88.3533 207.944L88.2981 207.941L88.2554 207.944L88.2195 207.958L88.1775 207.972L88.1422 207.999L88.1192 208.025L88.0894 208.039L88.0596 208.053L88.0234 208.061L87.9742 208.057L87.9247 208.048L87.8135 208.03L87.7837 208.044L87.7478 208.058L87.7119 208.072L87.6753 208.074L87.6207 208.084L87.5655 208.081L87.5102 208.078L87.455 208.075L87.3933 208.066L87.3323 208.069L87.2977 208.108L87.2636 208.153L87.2165 208.186L87.187 208.206L87.1511 208.22L87.1149 208.229L87.0779 208.225L87.0471 208.22L87.022 208.209L86.9965 208.193L86.9772 208.175L86.9582 208.164L86.9334 208.159L86.8731 208.175L86.8067 208.191L86.7647 208.206L86.7159 208.208L86.6925 208.228L86.6753 208.247L86.6421 208.311L86.6496 208.335L86.6575 208.365L86.6609 208.426L86.6505 208.457L86.6396 208.482L86.6288 208.507L86.6119 208.533L86.6075 208.563L86.6032 208.594L86.6333 208.586L86.6635 208.579L86.7302 208.569L86.77 208.622L86.8062 208.613L86.8486 208.605L86.8974 208.602L86.9221 208.607L86.953 208.611L86.9842 208.622L87.0035 208.639L87.0426 208.68L87.0694 208.721L87.1027 208.768L87.1356 208.809L87.1969 208.811L87.3128 208.805L87.3735 208.795L87.3901 208.764L87.407 208.738L87.4473 208.693L87.5025 208.696L87.5703 208.705L87.6263 208.72L87.6886 208.741L87.7453 208.768L87.7897 208.796L87.8396 208.812L87.8582 208.817L87.9131 208.814L87.9372 208.806L88.0215 208.783L88.1185 208.765L88.1612 208.763L88.2103 208.766L88.2225 208.765L88.2588 208.757L88.2706 208.751L88.3417 208.71L88.4132 208.675L88.4613 208.66L88.5094 208.645L88.5335 208.638L88.5515 208.631L88.6449 208.552L88.6686 208.538L88.692 208.518L88.716 208.511L88.7397 208.497L88.819 208.493L88.8563 208.503L88.8875 208.513L88.9944 208.563L89.1008 208.605L89.1317 208.61L89.1622 208.608L89.1924 208.6L89.2225 208.592L89.252 208.572L89.2821 208.565L89.3187 208.562L89.3496 208.567L89.3991 208.576L89.4432 208.598L89.4662 208.572L89.4956 208.552L89.5251 208.532L89.561 208.518L89.5908 208.504L89.6271 208.496L89.6637 208.494L89.6945 208.498L89.7935 208.517L89.8868 208.542L90.1841 208.605L90.2895 208.63L90.3512 208.638L90.4122 208.635L90.4787 208.619L90.539 208.603L90.5867 208.582L90.6291 208.574L90.6833 208.558L90.8297 208.55L90.8792 208.559L90.9284 208.563L91.027 208.576L91.1311 208.576L91.229 208.576L91.3324 208.564L91.4113 208.554L91.491 208.555L91.5706 208.557L91.6503 208.559L91.6869 208.556L91.7171 208.549L91.753 208.534L91.7953 208.526L91.8377 208.517L91.8804 208.515L91.9278 208.488L91.9684 208.449L91.9986 208.441L92.0406 208.426L92.0768 208.418L92.1772 208.461L92.4608 208.39L92.488 208.438L92.3012 208.705L92.1756 208.755L92.0536 208.762L92.0176 208.776L91.9828 208.809L91.9411 208.83L91.8937 208.857L91.7975 208.887L91.689 208.917L91.5864 208.942L91.4773 208.96L91.3922 208.971L91.3075 208.988L91.2292 209.011L91.1513 209.04L91.0619 209.082L90.9785 209.123L90.9484 209.131L90.9243 209.138L90.8389 209.143L90.8142 209.138L90.7891 209.128L90.7582 209.123L90.7169 209.15L90.6756 209.177L90.6393 209.185L90.6031 209.193L90.5665 209.195L90.5295 209.191L90.4797 209.176L90.434 209.234L90.4228 209.253L90.4056 209.272L90.3819 209.285L90.3643 209.299L90.3219 209.307L90.2853 209.309L90.2545 209.305L90.2175 209.301L90.1867 209.297L90.1555 209.286L90.1243 209.276L90.0866 209.259L90.0293 209.22L90.0038 209.203L89.9727 209.192L89.9472 209.175L89.9164 209.171L89.8547 209.162L89.7876 209.166L89.691 209.19L89.5331 209.211L89.5148 209.212L89.4968 209.219L89.485 209.226L89.4735 209.239L89.4501 209.259L89.4206 209.279L89.3905 209.287L89.3603 209.295L89.3176 209.297L89.2742 209.287L89.1935 209.267L89.1512 209.276L89.0661 209.287L89.0234 209.289L88.9804 209.285L88.938 209.294L88.7581 209.359L88.5721 209.425L88.5301 209.44L88.4884 209.46L88.3706 209.54L88.3415 209.567L88.2998 209.587L88.2578 209.602L88.2154 209.61L88.1666 209.613L88.1175 209.61L87.753 209.551L87.6784 209.531L87.6035 209.504L87.4886 209.529L87.4456 209.526L87.4086 209.522L87.3713 209.512L87.353 209.513L87.3412 209.519L87.287 209.535L87.2392 209.556L87.2054 209.607L87.1946 209.632L87.1773 209.651L87.1367 209.69L87.1069 209.704L87.0645 209.713L87.0279 209.715L86.991 209.711L86.9472 209.695L86.9117 209.715L86.894 209.728L86.8768 209.748L86.863 209.828L86.8425 210.007L86.823 210.093L86.7973 210.181L86.8127 210.235L86.8189 210.345L86.8145 210.376L86.7976 210.401L86.7685 210.427L86.7509 210.44L86.7329 210.447L86.715 210.455L86.654 210.458L86.6224 210.441L86.5912 210.431L86.5336 210.385L86.5132 210.35L86.4931 210.32L86.4846 210.278L86.4805 210.205L86.4587 210.145L86.4247 210.086L86.3972 210.032L86.3697 209.978L86.354 209.918L86.3444 209.858L86.3212 209.663L86.3194 209.632L86.3058 209.609L86.2919 209.579L86.2722 209.556L86.24 209.527L86.2311 209.478L86.1853 209.426L86.1456 209.373L86.137 209.331L86.1407 209.288L86.1458 209.269L86.1569 209.25L86.162 209.231L86.1793 209.212L86.2026 209.192L86.2195 209.167L86.2364 209.141L86.2408 209.111L86.2353 208.799L86.2523 208.773L86.2692 208.748L86.2925 208.728L86.3159 208.709L86.2776 208.68L86.2453 208.651L86.2185 208.61L86.1978 208.568L86.1544 208.559L86.1282 208.529L86.1021 208.5L86.0878 208.464L86.0796 208.428L86.0776 208.392L86.0816 208.355L86.0982 208.323L86.0652 208.282L86.0381 208.235L86.0105 208.181L85.9895 208.133L85.9479 207.94L85.9197 207.874L85.8677 207.822L85.8409 207.781L85.8331 207.751L85.8256 207.727L85.8239 207.696L85.8286 207.671L85.8394 207.646L85.8502 207.621L85.9121 207.526L85.9676 207.425L86.0169 207.324L86.0598 207.218L86.0703 207.186L86.0994 207.16L86.1224 207.134L86.1583 207.12L86.1885 207.112L86.2187 207.104L86.222 207.055L86.2267 207.031L86.2375 207.005L86.2544 206.98L86.2713 206.955L86.289 206.941L86.3066 206.928L86.3306 206.921L86.3486 206.913L86.3129 206.824L86.2711 206.734L86.2507 206.699L86.2246 206.67L86.193 206.653L86.1554 206.637L86.1242 206.626L86.098 206.597L86.078 206.568L86.0515 206.533L86.0372 206.497L86.023 206.461L85.9839 206.42L85.951 206.379L85.9371 206.349L85.9347 206.307L85.9383 206.264L85.9481 206.22L85.9833 206.194L86.0006 206.174L86.0117 206.155L86.0262 206.087L86.035 206.025L86.0447 205.982L86.0552 205.951L86.0779 205.919L86.107 205.893L86.1832 205.833L86.2078 205.728L86.3064 205.741L86.3434 205.745L86.3603 205.719L86.3833 205.694L86.4128 205.674L86.4426 205.66L86.4785 205.645L86.5087 205.637L86.57 205.64L86.6256 205.649L86.6601 205.611L86.6838 205.597L86.7018 205.59L86.7259 205.582L86.7808 205.579L86.812 205.59L86.9385 205.662L87.0117 205.658L87.0615 205.673L87.0805 205.685L87.1056 205.695L87.1246 205.707L87.1952 205.764L87.3315 205.793L87.4678 205.822L87.5051 205.832L87.5427 205.848L87.58 205.858L87.6119 205.881L87.6366 205.886L87.6556 205.897L87.6804 205.901L87.7051 205.906L87.7776 205.89L87.8508 205.886L87.9244 205.888L87.9979 205.89L88.0267 205.857L88.0497 205.831L88.0734 205.818L88.1032 205.804L88.1334 205.796L88.2009 205.798L88.349 205.821L88.4171 205.835L88.5161 205.854L88.5527 205.852L88.5707 205.845L88.5883 205.831L88.7234 205.732L88.7708 205.705L88.8247 205.683L88.8786 205.662L88.9389 205.646L89.0548 205.64L89.11 205.643L89.1717 205.651L89.2331 205.654L89.2951 205.669L89.3389 205.685L89.383 205.707L89.4267 205.723L89.4711 205.751L89.5281 205.784L89.5525 205.783L89.5827 205.775L89.7378 205.705L89.7917 205.684L89.8463 205.674L89.8954 205.678L89.951 205.687L90.0198 205.713L90.0894 205.752L90.1209 205.769L90.146 205.78L90.2653 205.724L90.3069 205.703L90.3493 205.695L90.3981 205.692L90.4411 205.696L90.4659 205.7L90.4971 205.711L90.553 205.726L90.6208 205.734L90.6883 205.737L90.7489 205.727L90.8929 205.676L90.9166 205.663L90.9475 205.667L90.997 205.676L91.0407 205.692L91.0848 205.714L91.1228 205.736L91.216 205.762L91.2859 205.807L91.3673 205.839L91.449 205.877L91.5301 205.903L91.548 205.896L91.5721 205.888L91.6479 205.823L91.7317 205.898L91.7755 205.914L91.8013 205.937L91.8274 205.966L92.0184 206.096L92.0032 206.152L91.7717 206.171L91.7111 206.18L91.6443 206.19L91.5779 206.206L91.5115 206.222L91.4813 206.23L91.4512 206.238L91.4146 206.24L91.3837 206.236L91.3529 206.231L91.3163 206.233L91.1502 206.218L91.1075 206.221L91.0715 206.235L91.0123 206.269L90.9466 206.297L90.9225 206.305L90.8923 206.313L90.8683 206.32L90.8378 206.322L90.813 206.317L90.7883 206.312L90.7635 206.308L90.7384 206.297L90.6567 206.259L90.5753 206.227L90.5567 206.222L90.514 206.224L90.4899 206.231L90.4601 206.245L90.4303 206.259L90.4005 206.273L90.3151 206.278L90.2598 206.275L90.2039 206.26L90.154 206.244L90.11 206.222L90.0601 206.207L90.0171 206.203L89.9378 206.208L89.8954 206.216L89.8344 206.22L89.7737 206.229L89.7124 206.227L89.651 206.224L89.571 206.216L89.4849 206.209L89.3995 206.214L89.3145 206.225L89.2603 206.24L89.206 206.255L89.1464 206.283L89.0926 206.305L89.057 206.325L89.0211 206.339L88.9787 206.348L88.8998 206.358L88.8632 206.361L88.8201 206.357L88.7828 206.347L88.6526 206.317L88.634 206.312L88.6221 206.319L88.5391 206.367L88.4623 206.414L88.4033 206.454L88.3376 206.482L88.2716 206.504L88.2048 206.514L88.156 206.517L88.1007 206.514L88.0516 206.511L88.0021 206.501L87.9712 206.497L87.8858 206.502L87.851 206.534L87.8158 206.561L87.7978 206.568L87.7798 206.575L87.7619 206.582L87.7436 206.583L87.7188 206.579L87.7002 206.574L87.688 206.574L87.669 206.563L87.6117 206.523L87.5346 206.461L87.5106 206.468L87.4869 206.482L87.4567 206.489L87.3957 206.493L87.3584 206.483L87.3215 206.479L87.2903 206.468L87.2422 206.483L87.2178 206.485L87.1937 206.492L87.1632 206.494L87.1385 206.489L87.0893 206.486L87.0402 206.482L86.9181 206.489L86.9002 206.497L86.865 206.523L86.8477 206.542L86.843 206.567L86.8322 206.592L86.8429 206.781L86.8403 206.843L86.8312 206.898L86.8099 206.955L86.7761 207.005L86.7834 207.134L86.7682 207.19Z" fill="#1D1D1B"/>
<path fill-rule="evenodd" clip-rule="evenodd" d="M92.2323 207.497L92.1713 207.501L92.1107 207.51L92.0622 207.519L92.008 207.534L91.9538 207.55L91.9064 207.577L91.859 207.604L91.8115 207.631L91.7709 207.67L91.7299 207.703L91.712 207.71L91.7001 207.717L91.6818 207.718L91.6632 207.713L91.6255 207.697L91.5876 207.675L91.5621 207.658L91.5309 207.647L91.5004 207.649L91.4347 207.677L91.3625 207.7L91.2897 207.71L91.2229 207.72L91.1124 207.714L91.008 207.708L90.9711 207.703L90.9406 207.705L90.9104 207.713L90.8738 207.715L90.8436 207.723L90.8138 207.737L90.784 207.751L90.7244 207.779L90.6946 207.793L90.5543 207.801L90.5112 207.797L90.4621 207.794L90.3763 207.792L90.3336 207.795L90.2974 207.803L90.2737 207.817L90.2499 207.83L90.2205 207.85L90.1738 207.89L90.1202 207.917L90.0904 207.931L90.066 207.932L90.0352 207.928L89.9284 207.879L89.847 207.847L89.7595 207.815L89.6727 207.796L89.6167 207.78L89.5611 207.771L89.5056 207.762L89.4503 207.759L89.395 207.756L89.3459 207.753L89.2961 207.737L89.2462 207.722L89.2086 207.706L89.1716 207.702L89.1347 207.698L89.0981 207.7L89.0439 207.715L88.9957 207.73L88.948 207.751L88.9006 207.778L88.8589 207.799L88.8108 207.814L88.7688 207.829L88.7203 207.837L88.6719 207.846L88.5804 207.852L88.5312 207.848L88.4692 207.833L88.4139 207.83L88.2973 207.825L88.2668 207.826L88.2366 207.834L88.2004 207.843L88.1702 207.85L88.1465 207.864L88.1106 207.878L88.0639 207.918L88.0524 207.93L88.0405 207.937L88.0287 207.944L87.9799 207.947L87.949 207.942L87.8436 207.918L87.8188 207.913L87.7944 207.915L87.7704 207.922L87.7463 207.93L87.7047 207.95L87.6565 207.965L87.565 207.97L87.5159 207.967L87.4725 207.957L87.3925 207.95L87.3071 207.954L87.2952 207.961L87.2654 207.975L87.2366 208.007L87.2079 208.04L87.1791 208.072L87.15 208.098L87.1381 208.105L87.1202 208.112L87.0958 208.113L87.0707 208.103L87.0517 208.091L87.0198 208.069L86.9886 208.058L86.9574 208.048L86.9208 208.05L86.8479 208.06L86.7758 208.083L86.7334 208.091L86.6907 208.094L86.6728 208.101L86.6548 208.108L86.6142 208.147L86.5858 208.185L86.5066 208.3L86.5338 208.347L86.5409 208.365L86.5437 208.414L86.5386 208.433L86.5271 208.446L86.5156 208.458L86.5041 208.471L86.4889 208.527L86.4957 208.539L86.4974 208.57L86.4859 208.583L86.4744 208.595L86.4629 208.608L86.4324 208.61L86.3969 208.63L86.365 208.608L86.3388 208.579L86.3188 208.549L86.3045 208.513L86.2848 208.49L86.2658 208.479L86.2404 208.462L86.2156 208.457L86.2027 208.446L86.1956 208.428L86.1939 208.397L86.2104 208.366L86.2206 208.328L86.2188 208.298L86.2046 208.262L86.172 208.227L86.1455 208.192L86.1183 208.144L86.1037 208.102L86.0556 207.903L86.0135 207.808L85.9612 207.749L85.9476 207.726L85.9398 207.696L86.0075 207.594L86.0626 207.487L86.1174 207.373L86.166 207.26L86.1772 207.241L86.1948 207.228L86.2249 207.22L86.2494 207.219L86.2978 207.21L86.3158 207.203L86.3273 207.19L86.332 207.165L86.3367 207.141L86.3386 207.067L86.3498 207.048L86.3671 207.029L86.3857 207.034L86.4105 207.038L86.4312 207.08L86.4401 207.129L86.4798 207.181L86.5314 207.227L86.5504 207.239L86.5629 207.244L86.5876 207.249L86.6063 207.254L86.6307 207.252L86.6615 207.257L86.6866 207.268L86.706 207.285L86.7701 207.336L86.7891 207.347L86.8145 207.364L86.8335 207.375L86.8647 207.386L86.8959 207.396L86.9275 207.413L86.9461 207.418L86.9702 207.411L87 207.397L87.0359 207.382L87.0535 207.369L87.0776 207.362L87.0959 207.361L87.1145 207.366L87.1711 207.393L87.1898 207.398L87.2023 207.403L87.2267 207.402L87.2386 207.395L87.244 207.383L87.2667 207.351L87.2897 207.325L87.3134 207.311L87.3432 207.298L87.3802 207.302L87.4358 207.311L87.4914 207.32L87.5222 207.324L87.5531 207.328L87.5893 207.32L87.6195 207.312L87.6974 207.284L87.7696 207.261L87.8539 207.238L87.9325 207.221L87.9569 207.22L87.9756 207.225L87.9885 207.236L88.0275 207.277L88.0597 207.306L88.0723 207.311L88.1455 207.307L88.2068 207.31L88.2624 207.319L88.318 207.328L88.3797 207.337L88.435 207.34L88.4899 207.336L88.5506 207.327L88.5983 207.306L88.6522 207.284L88.7897 207.228L88.9334 207.17L88.9578 207.169L88.9818 207.162L89.0062 207.16L89.0249 207.165L89.0493 207.164L89.093 207.18L89.112 207.191L89.1883 207.242L89.265 207.299L89.284 207.31L89.3091 207.321L89.3277 207.326L89.3521 207.324L89.4077 207.333L89.463 207.336L89.5505 207.368L89.6383 207.406L89.6949 207.433L89.757 207.448L89.8129 207.463L89.8743 207.466L89.9166 207.457L89.959 207.449L90.0014 207.44L90.0437 207.432L90.0864 207.429L90.1295 207.433L90.2332 207.427L90.2816 207.418L90.3301 207.409L90.3962 207.387L90.469 207.377L90.5358 207.367L90.6032 207.369L90.6602 207.403L90.723 207.43L90.8073 207.407L90.8927 207.402L90.9785 207.403L91.0649 207.417L91.1141 207.42L91.1568 207.418L91.1991 207.409L91.2411 207.394L91.2832 207.38L91.3252 207.365L91.3607 207.345L91.3959 207.318L91.4254 207.298L91.4552 207.284L91.4918 207.282L91.5288 207.286L91.5596 207.291L91.5908 207.301L91.6278 207.305L91.6773 207.315L91.7142 207.319L91.7569 207.316L91.8183 207.319L91.8491 207.323L91.8807 207.34L91.8993 207.345L91.9176 207.344L91.9776 207.322L92.0142 207.32L92.0267 207.325L92.0393 207.331L92.0464 207.349L92.1085 207.363L92.2915 207.353L92.3284 207.357L92.3657 207.367L92.403 207.377L92.4346 207.394L92.4661 207.41L92.617 207.481L92.6428 207.504L92.6689 207.534L92.651 207.541L92.6273 207.554L92.5724 207.557L92.5415 207.553L92.5225 207.542L92.4852 207.532L92.454 207.521L92.3862 207.513L92.3062 207.505L92.2323 207.497ZM91.6444 208.675L91.6993 208.672L91.7596 208.656L91.7837 208.649L91.8138 208.641L91.844 208.633L91.8745 208.631L91.9527 208.609L91.9761 208.589L92.0002 208.581L92.0289 208.549L92.0648 208.535L92.1276 208.562L92.1713 208.578L92.2259 208.569L92.2621 208.56L92.2283 208.611L92.1504 208.64L92.1016 208.643L92.0463 208.64L92.0043 208.655L91.9508 208.682L91.9156 208.709L91.8563 208.743L91.7604 208.779L91.6581 208.809L91.5612 208.827L91.4643 208.844L91.3731 208.856L91.2765 208.88L91.1861 208.903L91.0963 208.939L91.0191 208.98L90.9354 209.015L90.8995 209.03L90.8629 209.032L90.8256 209.021L90.788 209.005L90.7693 209L90.7449 209.002L90.7208 209.009L90.6914 209.029L90.6558 209.049L90.6264 209.07L90.6084 209.077L90.5904 209.084L90.5721 209.085L90.5596 209.079L90.4854 209.065L90.4606 209.061L90.4304 209.068L90.4067 209.082L90.3898 209.107L90.3441 209.165L90.3269 209.184L90.3028 209.192L90.2476 209.189L90.192 209.18L90.1418 209.158L90.0973 209.13L90.059 209.102L90.0214 209.086L89.9776 209.07L89.9339 209.054L89.8969 209.05L89.8478 209.046L89.8051 209.049L89.7627 209.057L89.6719 209.075L89.5201 209.096L89.4838 209.104L89.4479 209.118L89.4124 209.138L89.3893 209.164L89.3714 209.171L89.3477 209.185L89.329 209.18L89.3043 209.175L89.2236 209.155L89.211 209.15L89.15 209.153L89.1202 209.167L88.9677 209.176L88.9071 209.186L88.7211 209.251L88.5351 209.317L88.4812 209.338L88.4273 209.36L88.3627 209.406L88.3041 209.452L88.2804 209.466L88.2567 209.48L88.2268 209.493L88.2028 209.501L88.1292 209.499L87.777 209.439L87.7146 209.419L87.6522 209.398L87.6149 209.387L87.5722 209.39L87.494 209.413L87.4452 209.415L87.4265 209.41L87.4014 209.4L87.377 209.401L87.3462 209.397L87.2919 209.412L87.2442 209.433L87.1961 209.448L87.1842 209.455L87.1663 209.462L87.1432 209.488L87.1044 209.557L87.0932 209.576L87.0759 209.596L87.0637 209.596L87.0519 209.603L87.0397 209.604L87.021 209.599L86.9651 209.583L86.9403 209.579L86.9102 209.587L86.8624 209.608L86.833 209.628L86.8038 209.654L86.7812 209.686L86.7707 209.717L86.7518 209.816L86.7445 209.902L86.7307 209.982L86.7111 210.069L86.6912 210.15L86.6862 210.169L86.6893 210.223L86.6978 210.266L86.706 210.302L86.7077 210.333L86.6959 210.339L86.6779 210.346L86.6464 210.33L86.6206 210.307L86.6074 210.289L86.6006 210.277L86.5934 210.259L86.5886 210.174L86.5597 210.096L86.5393 210.061L86.5189 210.025L86.4982 209.983L86.4775 209.942L86.4625 209.894L86.4536 209.845L86.4364 209.65L86.4275 209.602L86.4126 209.554L86.3857 209.512L86.3532 209.477L86.3518 209.453L86.3443 209.429L86.3246 209.406L86.2988 209.383L86.2727 209.354L86.2526 209.324L86.252 209.312L86.257 209.293L86.2919 209.261L86.32 209.216L86.348 209.172L86.3575 209.122L86.3476 208.841L86.3588 208.822L86.3703 208.809L86.4059 208.789L86.4777 208.76L86.5315 208.739L86.5373 208.733L86.5495 208.732L86.5559 208.738L86.5624 208.743L86.581 208.748L86.5932 208.748L86.6457 208.702L86.6637 208.695L86.6816 208.688L86.6952 208.711L86.7142 208.723L86.739 208.727L86.7576 208.732L86.8003 208.73L86.8366 208.722L86.9159 208.717L86.9349 208.728L86.9546 208.752L86.9746 208.781L87.0079 208.828L87.0411 208.875L87.0608 208.899L87.0798 208.91L87.1297 208.925L87.2032 208.927L87.3496 208.919L87.4225 208.909L87.4645 208.894L87.4797 208.838L87.4966 208.813L87.5458 208.816L87.5952 208.826L87.6393 208.847L87.6895 208.869L87.7462 208.897L87.8028 208.924L87.8459 208.928L87.8889 208.931L87.9255 208.929L87.9675 208.915L88.0522 208.897L88.1308 208.881L88.1918 208.877L88.2288 208.881L88.2651 208.873L88.3013 208.865L88.3311 208.851L88.3961 208.811L88.4619 208.782L88.4917 208.768L88.5279 208.76L88.552 208.753L88.576 208.745L88.5998 208.732L88.6231 208.712L88.7169 208.639L88.7406 208.626L88.7765 208.612L88.7884 208.605L88.8067 208.604L88.8253 208.609L88.8379 208.614L88.8884 208.642L88.9451 208.669L89.0013 208.691L89.0637 208.711L89.0888 208.722L89.1197 208.727L89.1746 208.724L89.2352 208.714L89.259 208.7L89.2827 208.687L89.3067 208.679L89.3311 208.678L89.362 208.682L89.3935 208.699L89.4437 208.721L89.4623 208.726L89.4864 208.718L89.4983 208.711L89.5159 208.698L89.5267 208.673L89.5439 208.654L89.5616 208.64L89.5853 208.627L89.6093 208.619L89.6334 208.612L89.6578 208.61L89.6825 208.615L89.769 208.629L89.8561 208.654L90.147 208.711L90.2653 208.747L90.3023 208.751L90.3453 208.755L90.4246 208.75L90.467 208.742L90.5093 208.733L90.5453 208.719L90.5812 208.705L90.6232 208.69L90.6594 208.682L90.7018 208.674L90.7441 208.665L90.7868 208.663L90.8238 208.667L90.9102 208.68L91.0146 208.686L91.1312 208.692L91.235 208.686L91.3444 208.674L91.4969 208.665L91.5705 208.667L91.6444 208.675Z" fill="#AEC90B"/>
<path fill-rule="evenodd" clip-rule="evenodd" d="M86.1855 206.525L86.1587 206.484L86.1376 206.436L86.1233 206.4L86.0904 206.359L86.0503 206.3L86.0737 206.28L86.0964 206.248L86.1129 206.217L86.1231 206.18L86.1376 206.111L86.1456 206.037L86.1507 206.019L86.1561 206.006L86.1676 205.993L86.1791 205.98L86.2319 205.941L86.2614 205.921L86.2725 205.902L86.284 205.889L86.2891 205.87L86.2942 205.852L86.3189 205.856L86.344 205.867L86.3752 205.878L86.3935 205.877L86.4115 205.869L86.4284 205.844L86.4388 205.813L86.45 205.794L86.4612 205.775L86.473 205.768L86.491 205.761L86.5028 205.754L86.515 205.753L86.5642 205.757L86.6137 205.766L86.6442 205.764L86.6689 205.769L86.6865 205.756L86.7038 205.736L86.7211 205.717L86.7444 205.697L86.8641 205.758L86.8892 205.769L86.914 205.774L86.9448 205.778L86.9936 205.775L87.0184 205.78L87.037 205.785L87.0499 205.796L87.1205 205.854L87.1456 205.864L87.1707 205.875L87.307 205.904L87.4433 205.933L87.4992 205.948L87.5813 205.993L87.6125 206.003L87.6437 206.014L87.681 206.024L87.7054 206.022L87.7294 206.015L87.7962 206.005L87.8633 206.001L87.9308 206.003L87.9982 206.006L88.0531 206.003L88.0707 205.989L88.088 205.97L88.1164 205.932L88.1279 205.919L88.1398 205.912L88.2628 205.923L88.3306 205.932L88.3866 205.947L88.4425 205.962L88.4981 205.971L88.5408 205.969L88.5832 205.96L88.6191 205.946L88.6546 205.926L88.7836 205.826L88.8253 205.806L88.8731 205.785L88.9151 205.77L88.9635 205.761L89.012 205.752L89.0608 205.749L89.1103 205.759L89.1533 205.763L89.2086 205.766L89.2645 205.781L89.3018 205.791L89.3398 205.813L89.3775 205.829L89.447 205.868L89.4789 205.891L89.5158 205.895L89.5589 205.899L89.5951 205.89L89.6314 205.882L89.7862 205.806L89.8164 205.798L89.8526 205.79L89.8831 205.788L89.914 205.793L89.9706 205.82L90.0272 205.848L90.0717 205.876L90.1154 205.892L90.1402 205.896L90.1585 205.895L90.1764 205.888L90.1944 205.881L90.3197 205.825L90.3438 205.817L90.3739 205.81L90.4044 205.808L90.4414 205.812L90.479 205.828L90.5221 205.832L90.5655 205.841L90.6089 205.851L90.737 205.844L90.7793 205.835L90.9291 205.778L90.9725 205.788L91.0101 205.804L91.0417 205.821L91.0796 205.843L91.1664 205.862L91.2424 205.907L91.3306 205.951L91.4181 205.983L91.5056 206.015L91.5788 206.01L91.6086 205.996L91.6442 205.976L91.676 205.999L91.7137 206.015L91.7334 206.038L91.7653 206.061L91.6921 206.065L91.6195 206.082L91.5528 206.091L91.4806 206.114L91.4627 206.121L91.3956 206.125L91.3525 206.121L91.3098 206.124L91.1864 206.106L91.1617 206.101L91.1068 206.105L91.0766 206.112L91.0464 206.12L91.0166 206.134L90.9574 206.168L90.8977 206.196L90.8737 206.203L90.8127 206.207L90.7876 206.196L90.6997 206.158L90.618 206.12L90.5933 206.115L90.5685 206.111L90.5499 206.106L90.5255 206.107L90.477 206.116L90.3933 206.151L90.351 206.16L90.2717 206.164L90.2405 206.154L90.2028 206.138L90.1404 206.117L90.0842 206.095L90.0289 206.092L89.9737 206.089L89.9248 206.092L89.8764 206.101L89.8218 206.11L89.7181 206.116L89.669 206.113L89.5764 206.1L89.4785 206.099L89.3866 206.098L89.2958 206.116L89.2294 206.132L89.163 206.148L89.1034 206.175L89.0376 206.204L89.0139 206.217L88.9841 206.231L88.9601 206.239L88.8381 206.246L88.8069 206.235L88.6763 206.2L88.5909 206.205L88.5672 206.218L88.4842 206.266L88.3958 206.326L88.3484 206.353L88.3007 206.374L88.2468 206.395L88.1922 206.405L88.1553 206.401L88.1126 206.403L88.0695 206.399L88.0261 206.39L87.9827 206.38L87.9397 206.376L87.897 206.379L87.8546 206.387L87.8424 206.388L87.8248 206.401L87.7903 206.44L87.7727 206.453L87.7612 206.466L87.7429 206.467L87.7242 206.462L87.6859 206.433L87.5831 206.348L87.558 206.337L87.5329 206.326L87.5207 206.327L87.5027 206.334L87.4909 206.341L87.4675 206.36L87.4438 206.374L87.4011 206.376L87.3703 206.372L87.3455 206.367L87.3204 206.356L87.2957 206.352L87.2713 206.353L87.2052 206.375L87.1564 206.378L87.1011 206.375L87.0459 206.372L86.9845 206.369L86.9296 206.372L86.8873 206.381L86.8453 206.396L86.8097 206.416L86.7748 206.449L86.7525 206.486L86.7305 206.531L86.7208 206.574L86.7235 206.623L86.7268 206.788L86.7292 206.831L86.7191 206.868L86.7029 206.905L86.6806 206.943L86.6751 206.956L86.6697 206.969L86.66 207.012L86.6665 207.128L86.6611 207.14L86.6557 207.153L86.6188 207.149L86.5937 207.138L86.5747 207.127L86.555 207.104L86.5357 207.086L86.5224 207.069L86.5088 207.045L86.4949 207.015L86.4874 206.991L86.4704 206.906L86.4415 206.829L86.4068 206.757L86.3718 206.679L86.3579 206.65L86.3382 206.626L86.2988 206.58L86.2734 206.563L86.2418 206.546L86.2167 206.535L86.1855 206.525Z" fill="#AEC90B"/>
</g>
<defs>
<clipPath id="clip0_529_347">
<rect width="4.92299" height="7.09631" fill="white" transform="translate(85.957 210.553) rotate(-93.2511)"/>
</clipPath>
</defs>
</svg>
