<svg width="324" height="323" viewBox="0 0 324 323" fill="none" xmlns="http://www.w3.org/2000/svg">
<path d="M141.197 287.649L211.147 261.194C212.03 260.862 213.018 261.237 213.463 262.07L214.959 264.913C215.372 265.702 216.279 266.084 217.131 265.84L237.478 259.916C238.43 259.641 238.999 258.67 238.78 257.706L238.042 254.443C237.835 253.542 238.323 252.628 239.181 252.289L284.846 234.412C285.309 234.231 285.685 233.868 285.885 233.41L287.769 229.015C288.063 228.326 288.739 227.881 289.484 227.881H295.336C296.231 227.881 297.001 227.243 297.17 226.366L300.825 207.28C300.956 206.592 300.693 205.884 300.136 205.452L293.877 200.58C293.339 200.161 293.07 199.485 293.176 198.815L311.496 83.0421C311.64 82.1341 312.423 81.4641 313.343 81.4641H321.135C322.168 81.4641 323 80.625 323 79.5981V57.7886C323 56.8556 322.312 56.0667 321.392 55.9352L278.725 49.9239C277.729 49.7862 276.803 50.4562 276.628 51.4455L247.086 218.188C246.973 218.839 246.522 219.378 245.903 219.61L130.926 262.89C129.931 263.266 129.449 264.387 129.862 265.364L138.819 286.616C139.207 287.543 140.258 287.994 141.197 287.637V287.649Z" fill="#F3E2DB" stroke="#4C5A51"/>
<rect x="130.902" y="251.383" width="20.6558" height="8.16536" rx="4.08268" transform="rotate(-20.53 130.902 251.383)" fill="#D5D4DF" stroke="#4C5A51" stroke-width="0.2"/>
<rect x="152.568" y="243.269" width="20.6558" height="8.16536" rx="4.08268" transform="rotate(-20.53 152.568 243.269)" fill="#D5D4DF" stroke="#4C5A51" stroke-width="0.2"/>
<rect x="174.234" y="235.156" width="20.6558" height="8.16536" rx="4.08268" transform="rotate(-20.53 174.234 235.156)" fill="#D5D4DF" stroke="#4C5A51" stroke-width="0.2"/>
<rect x="195.9" y="227.042" width="20.6558" height="8.16536" rx="4.08268" transform="rotate(-20.53 195.9 227.042)" fill="#D5D4DF" stroke="#4C5A51" stroke-width="0.2"/>
<rect x="217.566" y="218.929" width="20.6558" height="8.16536" rx="4.08268" transform="rotate(-20.53 217.566 218.929)" fill="#D5D4DF" stroke="#4C5A51" stroke-width="0.2"/>
<path d="M135.161 253.413C135.35 253.342 135.515 253.255 135.655 253.152C135.799 253.047 135.915 252.933 136.003 252.809C136.09 252.682 136.149 252.548 136.178 252.409C136.209 252.269 136.209 252.127 136.176 251.985L134.879 252.47L134.802 252.266L136.108 251.777L135.97 251.408L137.089 250.989L137.227 251.358L138.479 250.889L138.556 251.093L137.232 251.589C137.28 251.797 137.259 251.998 137.169 252.19C137.081 252.378 136.943 252.556 136.756 252.724C136.572 252.891 136.347 253.046 136.08 253.19C135.813 253.334 135.527 253.463 135.222 253.577L135.161 253.413ZM137.728 252.208C137.674 252.063 137.674 251.93 137.73 251.808C137.787 251.682 137.891 251.59 138.042 251.534C138.187 251.479 138.322 251.481 138.445 251.54C138.567 251.596 138.655 251.696 138.709 251.841C138.765 251.989 138.765 252.126 138.711 252.251C138.655 252.373 138.555 252.461 138.41 252.515C138.259 252.572 138.121 252.573 137.996 252.518C137.873 252.46 137.783 252.357 137.728 252.208ZM135.353 253.979L136.823 253.429L136.643 252.949L137.664 252.566L137.814 252.966C137.834 253.019 137.871 253.036 137.924 253.016L139.19 252.542L139.266 252.746L135.429 254.183L135.353 253.979ZM135.778 255.116C135.735 255.001 135.731 254.887 135.767 254.776C135.805 254.66 135.888 254.545 136.017 254.429C136.148 254.309 136.329 254.189 136.561 254.068C136.796 253.947 137.086 253.821 137.432 253.691C137.779 253.562 138.079 253.466 138.333 253.405C138.59 253.342 138.805 253.314 138.98 253.32C139.156 253.321 139.294 253.354 139.396 253.417C139.499 253.476 139.572 253.564 139.615 253.679C139.659 253.795 139.661 253.909 139.622 254.021C139.587 254.135 139.504 254.251 139.372 254.368C139.243 254.484 139.061 254.602 138.827 254.724C138.595 254.844 138.306 254.97 137.96 255.099C137.613 255.229 137.312 255.325 137.055 255.387C136.801 255.449 136.586 255.479 136.41 255.477C136.237 255.474 136.098 255.442 135.994 255.38C135.893 255.319 135.822 255.232 135.778 255.116ZM136.755 254.75C136.821 254.925 136.948 255.021 137.137 255.038C137.326 255.058 137.575 255.01 137.883 254.895C138.191 254.78 138.41 254.652 138.54 254.512C138.671 254.375 138.704 254.22 138.638 254.045C138.572 253.867 138.444 253.77 138.256 253.753C138.066 253.733 137.817 253.78 137.509 253.896C137.201 254.011 136.982 254.139 136.852 254.278C136.721 254.415 136.689 254.573 136.755 254.75ZM139.533 252.373L140.963 251.838L140.799 251.398L139.897 251.735C139.749 251.791 139.614 251.791 139.492 251.735C139.37 251.68 139.281 251.578 139.226 251.43L138.85 250.426L142.505 249.057L142.581 249.262L139.908 250.263L140.269 251.227C140.282 251.262 140.303 251.288 140.333 251.304C140.364 251.316 140.398 251.315 140.433 251.302L143.049 250.322L143.126 250.526L141.82 251.015L141.953 251.371C141.974 251.427 142.011 251.445 142.065 251.425L143.37 250.936L143.447 251.14L139.61 252.577L139.533 252.373ZM139.957 253.506C139.914 253.39 139.91 253.277 139.946 253.165C139.984 253.05 140.067 252.934 140.196 252.818C140.328 252.702 140.51 252.583 140.741 252.462C140.976 252.341 141.267 252.215 141.613 252.085C141.959 251.956 142.26 251.86 142.513 251.799C142.77 251.736 142.985 251.707 143.158 251.709C143.335 251.711 143.473 251.743 143.575 251.807C143.678 251.866 143.751 251.953 143.794 252.069C143.838 252.184 143.84 252.298 143.801 252.41C143.766 252.525 143.683 252.64 143.551 252.757C143.423 252.876 143.242 252.996 143.007 253.118C142.776 253.238 142.487 253.363 142.14 253.493C141.794 253.623 141.492 253.719 141.235 253.781C140.982 253.843 140.766 253.871 140.589 253.867C140.416 253.864 140.277 253.831 140.173 253.769C140.072 253.709 140.001 253.621 139.957 253.506ZM140.934 253.14C141.001 253.317 141.128 253.415 141.317 253.432C141.507 253.452 141.756 253.404 142.064 253.289C142.372 253.174 142.591 253.046 142.721 252.906C142.852 252.769 142.884 252.612 142.817 252.434C142.752 252.26 142.625 252.164 142.436 252.147C142.246 252.127 141.997 252.174 141.69 252.29C141.382 252.405 141.163 252.533 141.033 252.672C140.902 252.809 140.869 252.965 140.934 253.14ZM146.471 249.557L146.032 249.722C145.997 249.927 145.901 250.112 145.743 250.276C145.585 250.439 145.365 250.574 145.084 250.679C144.66 250.838 144.301 250.856 144.005 250.734C143.71 250.612 143.494 250.368 143.357 250.004C143.22 249.637 143.223 249.312 143.367 249.028C143.509 248.742 143.792 248.52 144.216 248.361C144.512 248.25 144.774 248.208 145.003 248.233C145.235 248.258 145.434 248.346 145.598 248.497L146.016 248.34L145.818 247.812L146.799 247.444L147.912 250.415L146.93 250.783L146.471 249.557ZM145.022 250.515C145.084 250.492 145.129 250.455 145.158 250.404C145.186 250.352 145.197 250.283 145.19 250.194C145.184 250.105 145.162 249.997 145.125 249.869C145.086 249.738 145.033 249.583 144.965 249.402C144.897 249.222 144.835 249.069 144.779 248.945C144.722 248.821 144.668 248.725 144.615 248.657C144.561 248.586 144.507 248.54 144.452 248.52C144.398 248.5 144.339 248.502 144.277 248.525C144.215 248.549 144.17 248.586 144.142 248.637C144.116 248.687 144.107 248.756 144.113 248.845C144.118 248.931 144.14 249.039 144.179 249.17C144.218 249.3 144.271 249.456 144.339 249.637C144.406 249.817 144.468 249.97 144.525 250.094C144.58 250.215 144.635 250.311 144.689 250.382C144.742 250.453 144.795 250.499 144.847 250.52C144.902 250.54 144.96 250.538 145.022 250.515ZM146.395 249.353L146.092 248.545L145.755 248.671C145.833 248.78 145.897 248.901 145.946 249.035C146.003 249.186 146.035 249.335 146.044 249.484L146.395 249.353ZM144.914 250.93L145.275 251.894C145.288 251.929 145.31 251.955 145.34 251.971C145.372 251.986 145.408 251.986 145.446 251.972L148.142 250.962L148.218 251.166L144.91 252.405C144.759 252.462 144.622 252.461 144.498 252.402C144.376 252.347 144.288 252.245 144.232 252.097L143.933 251.298L144.914 250.93Z" fill="#383448"/>
<rect x="88.1532" y="233.901" width="20.6558" height="8.16536" rx="4.08268" transform="rotate(-97.3869 88.1532 233.901)" fill="#D5D4DF" stroke="#4C5A51" stroke-width="0.2"/>
<path d="M91.1795 227.79C91.1535 227.589 91.1062 227.409 91.0376 227.249C90.9686 227.085 90.8837 226.947 90.7828 226.832C90.6787 226.718 90.5622 226.631 90.4333 226.571C90.304 226.509 90.166 226.477 90.0194 226.477L90.1974 227.85L89.9811 227.878L89.8018 226.496L89.4115 226.546L89.2578 225.361L89.6482 225.31L89.4762 223.984L89.6926 223.956L89.8743 225.358C90.088 225.359 90.2783 225.425 90.4452 225.556C90.6085 225.685 90.7507 225.859 90.8717 226.08C90.9923 226.297 91.0922 226.551 91.1716 226.844C91.251 227.137 91.3116 227.444 91.3535 227.767L91.1795 227.79ZM90.5903 225.016C90.4367 225.036 90.3068 225.005 90.2005 224.923C90.0907 224.839 90.0255 224.716 90.0047 224.556C89.9848 224.403 90.0173 224.273 90.1023 224.166C90.1842 224.06 90.302 223.997 90.4556 223.977C90.6124 223.956 90.7454 223.987 90.8548 224.068C90.9611 224.15 91.0242 224.268 91.0441 224.422C91.0648 224.582 91.0344 224.716 90.953 224.826C90.868 224.932 90.7471 224.996 90.5903 225.016ZM91.7745 227.732L91.5727 226.175L91.0647 226.241L90.9245 225.159L91.3478 225.104C91.4042 225.097 91.4288 225.065 91.4215 225.009L91.2477 223.668L91.464 223.64L91.9908 227.704L91.7745 227.732ZM92.9784 227.576C92.8562 227.592 92.7449 227.569 92.6446 227.509C92.5408 227.446 92.4472 227.339 92.3637 227.187C92.2768 227.032 92.2009 226.829 92.1362 226.575C92.0712 226.319 92.0148 226.008 91.9673 225.641C91.9197 225.274 91.8949 224.96 91.893 224.699C91.8906 224.435 91.9119 224.218 91.9571 224.05C91.9986 223.879 92.0618 223.751 92.1465 223.667C92.2276 223.58 92.3294 223.528 92.4516 223.512C92.5739 223.497 92.6854 223.52 92.7861 223.584C92.8895 223.644 92.9831 223.751 93.067 223.906C93.1504 224.058 93.2247 224.262 93.2897 224.518C93.3544 224.771 93.4106 225.081 93.4581 225.448C93.5057 225.815 93.5306 226.13 93.533 226.394C93.535 226.656 93.5152 226.872 93.4736 227.043C93.4317 227.211 93.3685 227.339 93.2842 227.426C93.2026 227.51 93.1007 227.56 92.9784 227.576ZM92.8443 226.541C93.0293 226.517 93.1516 226.415 93.2111 226.235C93.2738 226.055 93.284 225.802 93.2418 225.476C93.1995 225.15 93.1251 224.907 93.0185 224.749C92.915 224.59 92.7708 224.523 92.5858 224.547C92.3977 224.571 92.2738 224.674 92.2143 224.853C92.1516 225.034 92.1413 225.287 92.1836 225.613C92.2259 225.939 92.3003 226.181 92.4069 226.34C92.5104 226.498 92.6562 226.565 92.8443 226.541ZM89.3895 223.573L89.287 222.783L88.9296 222.829L88.7949 221.79L89.1523 221.744L89.0517 220.968L89.268 220.94L89.6058 223.545L89.3895 223.573ZM88.7576 220.838L88.6228 219.799L89.7421 219.654L89.6946 219.287L89.9532 219.253L90.0008 219.62L91.0542 219.484L91.189 220.523L88.7576 220.838ZM90.6499 223.41C90.3363 223.45 90.0907 223.375 89.913 223.185C89.7348 222.991 89.6185 222.684 89.5641 222.264C89.5096 221.844 89.544 221.519 89.6672 221.289C89.7901 221.057 90.0083 220.92 90.3218 220.879C90.9395 220.799 91.303 221.181 91.4123 222.024C91.5217 222.868 91.2675 223.33 90.6499 223.41ZM89.691 222.248C89.6995 222.288 89.7182 222.322 89.7474 222.35C89.7734 222.379 89.8176 222.4 89.88 222.414C89.9389 222.426 90.0207 222.43 90.1254 222.426C90.2269 222.422 90.3576 222.41 90.5175 222.389C90.6774 222.368 90.8085 222.347 90.9108 222.324C91.0099 222.301 91.088 222.277 91.1451 222.25C91.2019 222.221 91.2407 222.189 91.2617 222.154C91.2796 222.12 91.2859 222.082 91.2806 222.041C91.2754 222.001 91.2597 221.966 91.2337 221.938C91.2045 221.909 91.159 221.89 91.097 221.879C91.0345 221.865 90.9526 221.859 90.851 221.863C90.7463 221.867 90.614 221.879 90.4541 221.9C90.2942 221.921 90.1647 221.942 90.0656 221.965C89.9634 221.987 89.8855 222.014 89.8319 222.043C89.7747 222.069 89.7372 222.1 89.7193 222.134C89.6983 222.168 89.6889 222.206 89.691 222.248ZM91.7699 223.307L91.2877 219.587C91.2824 219.547 91.2908 219.514 91.3131 219.488C91.3318 219.461 91.3599 219.444 91.3976 219.439L92.5733 219.287L92.7081 220.326L91.6217 220.467L91.9863 223.279L91.7699 223.307Z" fill="#383448"/>
<path d="M162.242 242.188L161.737 242.772L161.479 242.61L162.144 241.804L163.085 241.452L164.419 245.013L163.438 245.381L162.242 242.188Z" fill="#383448"/>
<path d="M184.395 237.092C184.318 236.888 184.295 236.699 184.325 236.526C184.356 236.349 184.415 236.182 184.501 236.024C184.587 235.864 184.687 235.712 184.801 235.568C184.915 235.421 185.018 235.276 185.11 235.133C185.2 234.988 185.265 234.842 185.305 234.695C185.348 234.548 185.339 234.393 185.278 234.23C185.16 233.916 185.046 233.701 184.934 233.584C184.826 233.465 184.707 233.431 184.576 233.48C184.455 233.525 184.389 233.628 184.377 233.787C184.368 233.942 184.424 234.181 184.545 234.504L183.563 234.872C183.498 234.697 183.472 234.529 183.486 234.369C183.503 234.207 183.554 234.058 183.638 233.922C183.721 233.783 183.835 233.659 183.98 233.551C184.128 233.441 184.301 233.35 184.5 233.275C184.698 233.201 184.888 233.157 185.068 233.143C185.252 233.129 185.421 233.147 185.574 233.197C185.73 233.243 185.866 233.322 185.982 233.434C186.101 233.545 186.194 233.688 186.259 233.862C186.34 234.078 186.365 234.275 186.333 234.452C186.303 234.625 186.245 234.789 186.158 234.943C186.07 235.098 185.968 235.244 185.851 235.382C185.734 235.521 185.63 235.661 185.538 235.803C185.445 235.943 185.378 236.088 185.336 236.239C185.297 236.388 185.311 236.55 185.376 236.725L185.441 236.898L187.115 236.271L187.192 236.475L184.536 237.47L184.395 237.092Z" fill="#383448"/>
<path d="M206.739 228.097C206.838 228.36 206.963 228.55 207.114 228.665C207.265 228.781 207.416 228.81 207.567 228.754C207.718 228.697 207.813 228.576 207.851 228.389C207.889 228.203 207.859 227.978 207.76 227.714C207.663 227.454 207.532 227.267 207.368 227.153C207.202 227.036 207.022 227.014 206.827 227.087L206.582 227.178L206.506 226.974L206.75 226.883C206.928 226.816 207.037 226.701 207.077 226.537C207.118 226.37 207.096 226.169 207.008 225.935C206.92 225.701 206.81 225.533 206.677 225.431C206.548 225.328 206.415 225.302 206.278 225.353C206.136 225.406 206.052 225.52 206.027 225.695C206 225.867 206.031 226.07 206.118 226.304L205.179 226.65C205.063 226.339 205.091 226.054 205.264 225.793C205.439 225.532 205.752 225.317 206.202 225.148C206.412 225.07 206.611 225.019 206.798 224.996C206.985 224.973 207.154 224.981 207.303 225.019C207.455 225.054 207.585 225.118 207.694 225.212C207.804 225.306 207.887 225.43 207.945 225.584C207.975 225.664 207.991 225.753 207.994 225.85C207.999 225.945 207.991 226.041 207.97 226.137C207.948 226.233 207.914 226.327 207.868 226.418C207.82 226.507 207.759 226.584 207.685 226.649C207.783 226.649 207.884 226.669 207.986 226.708C208.092 226.746 208.191 226.799 208.283 226.865C208.377 226.928 208.461 227.003 208.534 227.09C208.61 227.174 208.665 227.264 208.702 227.362C208.829 227.702 208.8 228.011 208.613 228.287C208.43 228.564 208.107 228.79 207.646 228.963C207.184 229.136 206.793 229.177 206.472 229.088C206.153 229.002 205.929 228.788 205.802 228.448L206.739 228.097Z" fill="#383448"/>
<path d="M227.126 220.361L227.824 217.208L228.801 216.842L229.756 219.392L230.266 219.2L230.343 219.405L229.832 219.596L230.135 220.404L229.158 220.77L228.855 219.962L227.207 220.579L227.126 220.361ZM228.779 219.757L228.102 217.95L227.615 220.193L228.779 219.757Z" fill="#383448"/>
<rect x="237.295" y="203.89" width="10.2824" height="8.95956" rx="4.27616" transform="rotate(-80.0033 237.295 203.89)" fill="#D5D4DF" stroke="#4C5A51" stroke-width="0.3"/>
<rect x="247.887" y="143.801" width="10.2824" height="8.95956" rx="4.27616" transform="rotate(-80.0033 247.887 143.801)" fill="#D5D4DF" stroke="#4C5A51" stroke-width="0.3"/>
<rect x="239.397" y="191.836" width="10.2824" height="8.95956" rx="4.27616" transform="rotate(-80.0033 239.397 191.836)" fill="#D5D4DF" stroke="#4C5A51" stroke-width="0.3"/>
<rect x="249.989" y="131.747" width="10.2824" height="8.95956" rx="4.27616" transform="rotate(-80.0033 249.989 131.747)" fill="#D5D4DF" stroke="#4C5A51" stroke-width="0.3"/>
<rect x="241.5" y="179.782" width="10.2824" height="8.95956" rx="4.27616" transform="rotate(-80.0033 241.5 179.782)" fill="#D5D4DF" stroke="#4C5A51" stroke-width="0.3"/>
<rect x="252.092" y="119.693" width="10.2824" height="8.95956" rx="4.27616" transform="rotate(-80.0033 252.092 119.693)" fill="#D5D4DF" stroke="#4C5A51" stroke-width="0.3"/>
<rect x="243.602" y="167.728" width="10.2824" height="8.95956" rx="4.27616" transform="rotate(-80.0033 243.602 167.728)" fill="#D5D4DF" stroke="#4C5A51" stroke-width="0.3"/>
<rect x="254.194" y="107.639" width="10.2824" height="8.95956" rx="4.27616" transform="rotate(-80.0033 254.194 107.639)" fill="#D5D4DF" stroke="#4C5A51" stroke-width="0.3"/>
<rect x="245.705" y="155.674" width="10.2824" height="8.95956" rx="4.27616" transform="rotate(-80.0033 245.705 155.674)" fill="#D5D4DF" stroke="#4C5A51" stroke-width="0.3"/>
<rect x="256.296" y="95.5856" width="10.2824" height="8.95956" rx="4.27616" transform="rotate(-80.0033 256.296 95.5856)" fill="#D5D4DF" stroke="#4C5A51" stroke-width="0.3"/>
<rect x="258.447" y="83.3801" width="10.2824" height="8.95956" rx="4.27616" transform="rotate(-80.0033 258.447 83.3801)" fill="#D5D4DF" stroke="#4C5A51" stroke-width="0.3"/>
<path d="M252.48 152.817L252.627 151.981C252.674 151.716 252.599 151.494 252.403 151.315C252.206 151.136 251.892 151.008 251.459 150.932C251.613 151.132 251.667 151.363 251.621 151.625C251.542 152.077 251.37 152.406 251.105 152.613C250.841 152.82 250.472 152.882 249.999 152.798C249.793 152.762 249.619 152.696 249.475 152.6C249.332 152.501 249.219 152.377 249.136 152.227C249.053 152.078 249.002 151.905 248.982 151.709C248.959 151.512 248.968 151.296 249.01 151.059C249.063 150.757 249.146 150.515 249.258 150.332C249.371 150.147 249.512 150.01 249.682 149.921C249.852 149.829 250.05 149.78 250.276 149.775C250.499 149.766 250.748 149.786 251.022 149.834C251.358 149.893 251.654 149.973 251.909 150.072C252.164 150.172 252.372 150.303 252.533 150.466C252.694 150.629 252.803 150.832 252.86 151.073C252.917 151.314 252.915 151.607 252.854 151.953L252.695 152.854L252.48 152.817ZM251.383 151.472C251.419 151.27 251.347 151.113 251.168 151.001C250.985 150.889 250.716 150.801 250.362 150.739C250.218 150.713 250.081 150.7 249.949 150.7C249.818 150.696 249.702 150.708 249.601 150.735C249.5 150.762 249.417 150.805 249.352 150.864C249.285 150.92 249.242 150.996 249.225 151.092C249.208 151.189 249.222 151.276 249.266 151.355C249.307 151.429 249.371 151.497 249.457 151.557C249.542 151.617 249.647 151.669 249.771 151.713C249.895 151.754 250.029 151.788 250.172 151.813C250.527 151.875 250.81 151.883 251.02 151.837C251.228 151.787 251.349 151.665 251.383 151.472Z" fill="#383448"/>
<path d="M248.615 164.371C248.502 164.522 248.361 164.63 248.192 164.696C248.023 164.763 247.835 164.778 247.63 164.742C247.459 164.712 247.316 164.653 247.203 164.566C247.087 164.478 246.999 164.366 246.94 164.23C246.881 164.091 246.846 163.931 246.837 163.75C246.827 163.568 246.841 163.369 246.88 163.151C246.918 162.933 246.973 162.74 247.044 162.573C247.116 162.403 247.203 162.262 247.306 162.152C247.409 162.042 247.53 161.965 247.669 161.922C247.806 161.876 247.96 161.867 248.131 161.898C248.336 161.934 248.51 162.013 248.653 162.134C248.795 162.255 248.887 162.406 248.929 162.587C248.98 162.497 249.044 162.416 249.121 162.347C249.195 162.273 249.279 162.214 249.373 162.17C249.469 162.122 249.574 162.091 249.689 162.076C249.804 162.058 249.926 162.06 250.053 162.082C250.237 162.115 250.392 162.184 250.518 162.289C250.644 162.392 250.742 162.521 250.81 162.678C250.879 162.834 250.92 163.013 250.933 163.215C250.948 163.416 250.936 163.631 250.896 163.858C250.856 164.086 250.794 164.291 250.71 164.476C250.63 164.657 250.531 164.81 250.413 164.934C250.295 165.057 250.159 165.146 250.005 165.199C249.851 165.252 249.682 165.262 249.499 165.23C249.24 165.185 249.033 165.087 248.876 164.937C248.717 164.784 248.63 164.595 248.615 164.371ZM248.673 163.467C248.687 163.386 248.679 163.312 248.649 163.246C248.616 163.179 248.566 163.12 248.497 163.07C248.429 163.019 248.347 162.977 248.25 162.944C248.153 162.908 248.049 162.88 247.937 162.86C247.825 162.841 247.721 162.832 247.624 162.834C247.525 162.833 247.438 162.844 247.362 162.87C247.285 162.891 247.222 162.929 247.174 162.981C247.123 163.033 247.091 163.101 247.076 163.185C247.061 163.269 247.069 163.343 247.099 163.406C247.127 163.469 247.173 163.525 247.238 163.575C247.301 163.621 247.379 163.661 247.473 163.693C247.563 163.725 247.665 163.751 247.777 163.771C247.889 163.791 247.996 163.802 248.098 163.804C248.201 163.802 248.293 163.791 248.374 163.77C248.455 163.746 248.523 163.71 248.576 163.661C248.626 163.613 248.659 163.548 248.673 163.467ZM250.7 163.824C250.733 163.634 250.68 163.47 250.541 163.333C250.401 163.196 250.19 163.103 249.906 163.053C249.766 163.028 249.637 163.022 249.52 163.033C249.399 163.044 249.293 163.07 249.203 163.112C249.109 163.15 249.034 163.203 248.977 163.27C248.921 163.337 248.885 163.414 248.869 163.501C248.854 163.585 248.862 163.669 248.893 163.751C248.924 163.83 248.976 163.905 249.05 163.976C249.122 164.043 249.213 164.103 249.322 164.154C249.429 164.205 249.552 164.243 249.692 164.267C249.976 164.317 250.206 164.303 250.384 164.225C250.562 164.144 250.667 164.011 250.7 163.824Z" fill="#383448"/>
<path d="M248.434 177.095C247.803 176.901 247.212 176.651 246.659 176.345C246.107 176.035 245.594 175.664 245.122 175.231L244.823 176.926L244.608 176.888L245.092 174.142L245.307 174.18C245.783 174.614 246.305 174.992 246.875 175.313C247.441 175.632 248.022 175.882 248.616 176.063L248.434 177.095Z" fill="#383448"/>
<path d="M243.016 187.182C242.97 187.444 243.045 187.664 243.242 187.843C243.438 188.022 243.753 188.15 244.186 188.226C244.031 188.029 243.977 187.798 244.024 187.533C244.103 187.082 244.277 186.753 244.544 186.546C244.809 186.339 245.176 186.277 245.646 186.36C245.852 186.396 246.026 186.464 246.169 186.563C246.312 186.659 246.426 186.781 246.508 186.931C246.591 187.08 246.643 187.253 246.663 187.449C246.686 187.646 246.677 187.862 246.635 188.099C246.581 188.404 246.498 188.648 246.386 188.83C246.273 189.013 246.132 189.15 245.962 189.242C245.792 189.331 245.595 189.38 245.372 189.389C245.147 189.394 244.897 189.372 244.623 189.324C244.287 189.265 243.991 189.185 243.736 189.086C243.48 188.986 243.272 188.855 243.112 188.692C242.951 188.529 242.842 188.326 242.785 188.085C242.728 187.844 242.73 187.551 242.791 187.205L242.95 186.304L243.164 186.342L243.016 187.182ZM246.419 188.066C246.436 187.972 246.422 187.887 246.378 187.808C246.337 187.73 246.274 187.661 246.188 187.601C246.102 187.541 245.999 187.491 245.878 187.45C245.754 187.406 245.619 187.371 245.472 187.345C245.114 187.282 244.831 187.276 244.624 187.326C244.416 187.373 244.296 187.493 244.262 187.686C244.226 187.888 244.299 188.045 244.482 188.158C244.661 188.27 244.928 188.357 245.283 188.419C245.429 188.445 245.568 188.46 245.699 188.464C245.827 188.464 245.942 188.451 246.043 188.423C246.144 188.396 246.227 188.355 246.292 188.299C246.36 188.24 246.402 188.162 246.419 188.066Z" fill="#383448"/>
<path d="M243.613 200.329C243.815 200.349 243.977 200.329 244.1 200.271C244.223 200.212 244.295 200.123 244.315 200.005C244.343 199.846 244.268 199.708 244.09 199.59C243.909 199.471 243.644 199.381 243.295 199.32C242.955 199.26 242.688 199.256 242.493 199.308C242.298 199.358 242.186 199.462 242.158 199.62C242.12 199.841 242.273 200.019 242.618 200.154L242.45 201.107L240.428 200.616L240.87 198.108L241.084 198.145L240.806 199.724L242.041 200.014C241.993 199.941 241.957 199.859 241.935 199.769C241.912 199.678 241.911 199.578 241.93 199.469C242.007 199.033 242.17 198.716 242.421 198.516C242.671 198.313 243.021 198.251 243.469 198.33C243.899 198.405 244.204 198.589 244.383 198.881C244.567 199.17 244.616 199.557 244.53 200.043C244.493 200.252 244.44 200.438 244.369 200.602C244.302 200.764 244.22 200.9 244.124 201.012C244.031 201.12 243.926 201.201 243.811 201.255C243.693 201.308 243.567 201.328 243.435 201.314L243.613 200.329Z" fill="#383448"/>
<path d="M251.547 141.601L251.793 142.333L251.523 142.473L251.166 141.491L251.341 140.5L255.086 141.16L254.905 142.193L251.547 141.601ZM255.638 138.767C255.592 139.029 255.504 139.252 255.375 139.438C255.25 139.622 255.09 139.767 254.894 139.873C254.696 139.98 254.466 140.047 254.204 140.074C253.943 140.099 253.656 140.084 253.345 140.029C253.034 139.974 252.76 139.891 252.523 139.778C252.286 139.663 252.094 139.521 251.947 139.354C251.797 139.186 251.694 138.995 251.639 138.78C251.581 138.561 251.575 138.321 251.622 138.059C251.668 137.798 251.755 137.576 251.883 137.393C252.009 137.206 252.172 137.06 252.37 136.954C252.566 136.844 252.795 136.776 253.056 136.752C253.317 136.724 253.604 136.738 253.915 136.793C254.227 136.847 254.501 136.933 254.737 137.048C254.974 137.16 255.167 137.302 255.317 137.473C255.464 137.64 255.565 137.833 255.62 138.051C255.678 138.267 255.684 138.505 255.638 138.767ZM255.423 138.729C255.456 138.545 255.338 138.377 255.069 138.224C254.801 138.067 254.356 137.934 253.734 137.825C253.111 137.715 252.647 137.688 252.342 137.743C252.037 137.795 251.869 137.913 251.836 138.097C251.804 138.281 251.922 138.451 252.19 138.607C252.458 138.76 252.903 138.892 253.526 139.002C254.149 139.111 254.613 139.14 254.917 139.088C255.222 139.032 255.391 138.913 255.423 138.729Z" fill="#383448"/>
<path d="M254.891 117.15L255.138 117.882L254.868 118.023L254.511 117.04L254.685 116.05L258.431 116.71L258.249 117.742L254.891 117.15ZM258.166 115.839C257.951 115.801 257.776 115.725 257.642 115.612C257.506 115.494 257.392 115.359 257.3 115.204C257.205 115.05 257.125 114.886 257.059 114.714C256.99 114.542 256.917 114.379 256.841 114.228C256.762 114.076 256.669 113.946 256.563 113.837C256.458 113.725 256.319 113.655 256.148 113.624C255.818 113.566 255.574 113.555 255.417 113.592C255.26 113.625 255.17 113.71 255.146 113.847C255.123 113.975 255.178 114.084 255.31 114.175C255.439 114.262 255.673 114.335 256.012 114.395L255.831 115.427C255.647 115.395 255.489 115.332 255.358 115.238C255.228 115.141 255.125 115.022 255.05 114.88C254.973 114.738 254.924 114.577 254.904 114.397C254.885 114.214 254.894 114.018 254.931 113.81C254.968 113.601 255.026 113.415 255.106 113.253C255.187 113.087 255.288 112.951 255.409 112.844C255.528 112.733 255.665 112.656 255.821 112.613C255.977 112.567 256.146 112.56 256.33 112.592C256.557 112.632 256.739 112.711 256.876 112.828C257.01 112.942 257.121 113.075 257.21 113.229C257.298 113.382 257.372 113.545 257.432 113.716C257.492 113.887 257.56 114.048 257.636 114.199C257.709 114.35 257.8 114.482 257.908 114.594C258.017 114.703 258.164 114.774 258.348 114.806L258.53 114.839L258.84 113.078L259.055 113.116L258.563 115.909L258.166 115.839Z" fill="#383448"/>
<path d="M257.03 105.007L257.277 105.739L257.007 105.879L256.65 104.897L256.825 103.907L260.57 104.567L260.388 105.599L257.03 105.007ZM259.899 102.608C260.176 102.657 260.403 102.645 260.58 102.574C260.756 102.502 260.858 102.387 260.886 102.228C260.914 102.069 260.857 101.926 260.716 101.798C260.575 101.671 260.366 101.582 260.089 101.534C259.815 101.485 259.587 101.503 259.405 101.587C259.22 101.67 259.11 101.814 259.074 102.019L259.028 102.276L258.814 102.238L258.859 101.981C258.892 101.795 258.848 101.642 258.727 101.525C258.604 101.404 258.42 101.321 258.174 101.278C257.928 101.235 257.727 101.244 257.572 101.307C257.417 101.366 257.327 101.468 257.301 101.611C257.275 101.76 257.331 101.89 257.469 102.001C257.603 102.112 257.793 102.189 258.039 102.232L257.861 103.217C257.534 103.159 257.302 102.99 257.166 102.709C257.03 102.425 257.003 102.046 257.087 101.573C257.125 101.352 257.183 101.155 257.258 100.982C257.333 100.809 257.426 100.668 257.535 100.559C257.641 100.446 257.763 100.366 257.9 100.32C258.036 100.273 258.185 100.264 258.347 100.293C258.431 100.307 258.516 100.338 258.601 100.385C258.686 100.429 258.765 100.485 258.836 100.552C258.908 100.619 258.971 100.696 259.027 100.783C259.079 100.869 259.114 100.961 259.132 101.057C259.183 100.973 259.251 100.896 259.337 100.828C259.423 100.757 259.518 100.698 259.623 100.652C259.725 100.603 259.832 100.569 259.944 100.55C260.054 100.528 260.16 100.525 260.263 100.543C260.621 100.607 260.872 100.789 261.014 101.09C261.161 101.389 261.191 101.781 261.106 102.267C261.02 102.752 260.857 103.11 260.618 103.341C260.381 103.572 260.084 103.656 259.726 103.593L259.899 102.608Z" fill="#383448"/>
<path d="M259.17 92.864L259.417 93.5961L259.146 93.7363L258.79 92.7537L258.964 91.7636L262.71 92.4235L262.528 93.4557L259.17 92.864ZM261.779 91.3917L259.418 89.1892L259.599 88.1617L262.28 88.634L262.374 88.0969L262.589 88.1348L262.495 88.6719L263.345 88.8216L263.164 89.8491L262.314 89.6993L262.008 91.4321L261.779 91.3917ZM262.099 89.6615L260.198 89.3266L261.883 90.8851L262.099 89.6615Z" fill="#383448"/>
<path d="M261.32 80.6585L261.567 81.3906L261.297 81.5307L260.94 80.5482L261.115 79.5581L264.86 80.218L264.678 81.2501L261.32 80.6585ZM264.484 78.2246C264.686 78.2441 264.849 78.2245 264.971 78.1659C265.094 78.1073 265.166 78.0188 265.187 77.9005C265.215 77.7417 265.14 77.6032 264.961 77.4852C264.78 77.3665 264.515 77.2765 264.166 77.2151C263.827 77.1553 263.56 77.1515 263.364 77.2038C263.169 77.2529 263.058 77.3569 263.03 77.5156C262.991 77.7367 263.144 77.9146 263.49 78.0493L263.322 79.002L261.299 78.5109L261.741 76.0029L261.956 76.0407L261.678 77.6193L262.912 77.9091C262.864 77.8364 262.829 77.7547 262.806 77.6641C262.784 77.5734 262.782 77.4736 262.801 77.3646C262.878 76.9287 263.042 76.6108 263.292 76.4109C263.543 76.208 263.892 76.146 264.341 76.2249C264.77 76.3006 265.075 76.4843 265.255 76.776C265.438 77.0652 265.487 77.4526 265.402 77.9383C265.365 78.1469 265.311 78.3333 265.241 78.4974C265.174 78.659 265.092 78.7954 264.995 78.9068C264.902 79.0156 264.798 79.0968 264.682 79.1503C264.564 79.2033 264.439 79.2229 264.306 79.2092L264.484 78.2246Z" fill="#383448"/>
<path d="M252.861 128.671L253.108 129.403L252.838 129.543L252.481 128.56L252.656 127.57L256.401 128.23L256.219 129.262L252.861 128.671ZM253.334 125.989L253.581 126.721L253.31 126.861L252.954 125.878L253.128 124.888L256.874 125.548L256.692 126.58L253.334 125.989Z" fill="#383448"/>
<path d="M256.504 1.00002H91.9824C91.0555 1.00002 90.3042 1.61496 90.3042 2.37352V37.2489C90.3042 38.0075 91.0555 38.6224 91.9824 38.6224H256.504C257.431 38.6224 258.182 38.0075 258.182 37.2489V2.37352C258.182 1.61496 257.431 1.00002 256.504 1.00002Z" fill="#F3E2DB" stroke="#4C5A51"/>
<rect x="120.439" y="44.4132" width="106.344" height="10.8654" rx="4.32616" fill="#D5D4DF" stroke="#4C5A51" stroke-width="0.2"/>
<path d="M163.083 50.4649V50.7178C163.083 51.1351 163.161 51.4386 163.317 51.6283C163.473 51.818 163.686 51.9129 163.956 51.9129C164.221 51.9129 164.432 51.818 164.588 51.6283C164.748 51.4386 164.828 51.1309 164.828 50.7052C164.828 50.5323 164.811 50.3827 164.778 50.2562C164.744 50.1298 164.687 50.0223 164.607 49.9337C164.531 49.841 164.426 49.7651 164.291 49.7061C164.16 49.6429 163.996 49.5902 163.797 49.548C163.528 49.489 163.268 49.4258 163.02 49.3583C162.775 49.2867 162.558 49.196 162.368 49.0864C162.183 48.9726 162.033 48.8314 161.92 48.6628C161.81 48.4942 161.755 48.2834 161.755 48.0305C161.755 47.8155 161.816 47.6279 161.938 47.4677C162.061 47.3075 162.223 47.1769 162.425 47.0757C162.628 46.9703 162.86 46.8923 163.121 46.8417C163.386 46.7912 163.663 46.7659 163.949 46.7659C164.286 46.7659 164.594 46.7996 164.872 46.867C165.151 46.9303 165.389 47.0251 165.587 47.1516C165.789 47.2738 165.945 47.4256 166.055 47.6068C166.164 47.7839 166.219 47.9883 166.219 48.2202V48.4415H164.765V48.2518C164.765 48.0284 164.746 47.8408 164.708 47.689C164.67 47.5373 164.615 47.415 164.544 47.3223C164.476 47.2253 164.392 47.1579 164.291 47.12C164.19 47.0778 164.076 47.0567 163.949 47.0567C163.84 47.0567 163.736 47.0757 163.639 47.1136C163.542 47.1516 163.458 47.2106 163.386 47.2907C163.315 47.3708 163.258 47.4741 163.216 47.6005C163.174 47.7228 163.153 47.8703 163.153 48.0431C163.153 48.3635 163.241 48.627 163.418 48.8335C163.599 49.0359 163.901 49.1813 164.322 49.2698C164.592 49.3288 164.843 49.39 165.075 49.4532C165.307 49.5164 165.507 49.6007 165.675 49.7061C165.848 49.8115 165.983 49.9464 166.08 50.1108C166.177 50.271 166.226 50.4775 166.226 50.7304C166.226 50.9876 166.171 51.2089 166.061 51.3944C165.956 51.5798 165.802 51.7316 165.6 51.8496C165.401 51.9719 165.163 52.0604 164.885 52.1152C164.607 52.1742 164.297 52.2037 163.956 52.2037C163.614 52.2037 163.304 52.1742 163.026 52.1152C162.748 52.0604 162.51 51.9719 162.312 51.8496C162.113 51.7274 161.96 51.5735 161.85 51.388C161.745 51.2026 161.692 50.9792 161.692 50.7178V50.4649H163.083ZM166.606 46.9619H171.032V47.2527H166.606V46.9619ZM168.123 47.8914H166.606V47.6005H171.032V47.8914H169.514V52.033H168.123V47.8914ZM172.525 46.9619H174.099L175.845 52.033H174.39L174.194 51.407H172.43L172.234 52.033H170.78L172.525 46.9619ZM173.91 50.4775L173.315 48.5616L172.715 50.4775H173.91ZM174.106 51.1162L173.998 50.7684H172.626L172.519 51.1162H174.106ZM178.572 49.7314H181.12V49.9906C181.12 50.3995 181.063 50.7452 180.949 51.0276C180.835 51.3101 180.671 51.5377 180.456 51.7105C180.245 51.8834 179.986 52.0077 179.678 52.0836C179.371 52.1637 179.023 52.2037 178.635 52.2037C177.8 52.2037 177.157 51.9824 176.706 51.5398C176.26 51.0972 176.036 50.4122 176.036 49.4848C176.036 48.5574 176.26 47.8724 176.706 47.4298C177.157 46.9872 177.8 46.7659 178.635 46.7659C178.981 46.7659 179.299 46.8038 179.59 46.8797C179.885 46.9513 180.14 47.0631 180.355 47.2148C180.574 47.3666 180.749 47.5605 180.88 47.7965C181.01 48.0284 181.086 48.3045 181.107 48.6249H179.672C179.676 48.3045 179.651 48.0389 179.596 47.8282C179.541 47.6174 179.463 47.4509 179.362 47.3286C179.265 47.2064 179.153 47.1221 179.027 47.0757C178.901 47.0251 178.77 46.9998 178.635 46.9998C178.475 46.9998 178.321 47.0378 178.173 47.1136C178.026 47.1853 177.897 47.3139 177.788 47.4993C177.678 47.6848 177.59 47.9378 177.522 48.2581C177.459 48.5785 177.427 48.9874 177.427 49.4848C177.427 49.9822 177.459 50.3911 177.522 50.7115C177.59 51.0318 177.678 51.2869 177.788 51.4766C177.897 51.662 178.026 51.7906 178.173 51.8623C178.321 51.9339 178.475 51.9698 178.635 51.9698C178.787 51.9698 178.928 51.9445 179.059 51.8939C179.189 51.8433 179.303 51.7464 179.4 51.603C179.497 51.4639 179.573 51.2679 179.628 51.015C179.687 50.7621 179.716 50.4312 179.716 50.0223H178.572V49.7314ZM178.572 49.0864H181.12V49.3773H178.572V49.0864ZM181.909 46.9619H185.69V47.2527H183.3V48.0684H185.69V48.3593H183.3V49.2572H185.69V49.548H183.3V50.4649H185.69V50.7557H183.3V51.7421H185.69V52.033H181.909V46.9619Z" fill="#383448"/>
<rect x="230.144" y="44.4132" width="27.9377" height="10.8654" rx="4.32616" fill="#D5D4DF" stroke="#4C5A51" stroke-width="0.2"/>
<path d="M235.293 51.9129C235.584 51.9129 235.847 51.856 236.083 51.7421C236.323 51.6283 236.528 51.4639 236.696 51.2489C236.869 51.0297 237.002 50.7642 237.095 50.4522C237.192 50.1403 237.24 49.7841 237.24 49.3836V47.1263H235.35V46.8354H238.517C238.572 46.8354 238.614 46.8523 238.644 46.886C238.678 46.9197 238.695 46.9619 238.695 47.0125V49.2825C238.695 49.6661 238.64 50.0054 238.53 50.3005C238.425 50.5913 238.281 50.8422 238.1 51.0529C237.923 51.2637 237.717 51.4386 237.481 51.5777C237.249 51.7211 237.006 51.8349 236.753 51.9192C236.505 52.0035 236.254 52.0625 236.001 52.0962C235.748 52.13 235.512 52.1468 235.293 52.1468V51.9129ZM239.365 46.8354H240.762V52.1468H239.365V46.8354ZM241.498 47.1769H242.585V46.7153H243.983V47.1769H245.07V47.4677H241.498V47.1769ZM241.384 49.9337H242.585V49.5607C242.214 49.4974 241.945 49.3836 241.776 49.2192C241.612 49.0548 241.529 48.8525 241.529 48.6122C241.529 48.3045 241.675 48.0621 241.966 47.8851C242.257 47.7038 242.697 47.6132 243.287 47.6132C243.877 47.6132 244.316 47.7038 244.602 47.8851C244.893 48.0621 245.039 48.3045 245.039 48.6122C245.039 48.8525 244.954 49.0548 244.786 49.2192C244.621 49.3836 244.354 49.4974 243.983 49.5607V49.9337H244.198C244.299 49.9337 244.402 49.9316 244.508 49.9274C244.617 49.9232 244.72 49.9169 244.817 49.9084C244.919 49.8958 245.013 49.881 245.102 49.8642C245.19 49.8473 245.268 49.8284 245.336 49.8073V46.8291H246.733V50.3953H245.336V50.0981C245.193 50.1445 245.013 50.1782 244.798 50.1993C244.588 50.2162 244.375 50.2246 244.16 50.2246H241.384V49.9337ZM243.287 49.3773C243.363 49.3773 243.424 49.3689 243.471 49.352C243.521 49.3309 243.561 49.293 243.591 49.2382C243.62 49.1792 243.641 49.1012 243.654 49.0042C243.667 48.9031 243.673 48.7724 243.673 48.6122C243.673 48.452 243.667 48.3235 243.654 48.2265C243.641 48.1253 243.62 48.0474 243.591 47.9926C243.561 47.9335 243.521 47.8956 243.471 47.8787C243.424 47.8577 243.363 47.8471 243.287 47.8471C243.211 47.8471 243.148 47.8577 243.098 47.8787C243.051 47.8956 243.011 47.9335 242.977 47.9926C242.948 48.0474 242.927 48.1253 242.914 48.2265C242.902 48.3235 242.895 48.452 242.895 48.6122C242.895 48.7724 242.902 48.9031 242.914 49.0042C242.927 49.1012 242.948 49.1792 242.977 49.2382C243.011 49.293 243.051 49.3309 243.098 49.352C243.148 49.3689 243.211 49.3773 243.287 49.3773ZM241.384 50.6293H246.563C246.613 50.6293 246.653 50.6461 246.683 50.6799C246.716 50.7094 246.733 50.7515 246.733 50.8063V52.1405H245.336V50.9201H241.384V50.6293ZM247.165 51.7927C247.296 51.7927 247.425 51.7569 247.551 51.6852C247.682 51.6136 247.798 51.5103 247.899 51.3754C248 51.2363 248.082 51.0677 248.145 50.8696C248.209 50.6714 248.24 50.4459 248.24 50.193V46.8354H249.549V50.193C249.549 50.4796 249.486 50.7368 249.36 50.9644C249.233 51.192 249.06 51.3859 248.841 51.5461C248.626 51.7021 248.373 51.8201 248.082 51.9002C247.796 51.9845 247.49 52.0267 247.165 52.0267V51.7927ZM250.959 46.8354H252.357V49.0928H252.907V49.4469H252.357V52.1468H250.959V46.8354ZM249.486 51.3754C249.486 51.1815 249.545 51.0255 249.663 50.9075C249.785 50.7852 249.943 50.7241 250.137 50.7241C250.331 50.7241 250.487 50.7852 250.605 50.9075C250.727 51.0255 250.789 51.1815 250.789 51.3754C250.789 51.5693 250.727 51.7253 250.605 51.8433C250.487 51.9656 250.331 52.0267 250.137 52.0267C249.943 52.0267 249.785 51.9656 249.663 51.8433C249.545 51.7253 249.486 51.5693 249.486 51.3754Z" fill="#383448"/>
<path d="M165.423 17.6734H166.188V16.9968H167.465V17.6734H168.23V17.9642H165.423V17.6734ZM169.906 17.1106H171.012V22.422H169.906V17.1106ZM168.597 21.1448H168.123C168.076 21.3892 168.007 21.6 167.914 21.7771C167.825 21.9499 167.722 22.0932 167.604 22.207C167.486 22.3208 167.36 22.4052 167.225 22.46C167.09 22.5148 166.953 22.5422 166.814 22.5422C166.645 22.5422 166.479 22.5 166.314 22.4157C166.15 22.3356 166.002 22.2091 165.872 22.0363C165.745 21.8635 165.642 21.6422 165.562 21.3724C165.482 21.1026 165.442 20.7801 165.442 20.405C165.442 20.0298 165.482 19.7073 165.562 19.4375C165.642 19.1677 165.745 18.9464 165.872 18.7736C166.002 18.6008 166.15 18.4743 166.314 18.3942C166.479 18.3141 166.645 18.2741 166.814 18.2741C167.033 18.2741 167.244 18.3415 167.446 18.4764C167.653 18.6071 167.821 18.8179 167.952 19.1087H168.597V17.1106H169.64V22.422H168.597V21.1448ZM166.814 22.2513C166.864 22.2513 166.906 22.2281 166.94 22.1817C166.978 22.1396 167.008 22.0511 167.029 21.9162C167.05 21.7855 167.064 21.6 167.073 21.3597C167.081 21.1195 167.086 20.8012 167.086 20.405C167.086 20.0129 167.081 19.6968 167.073 19.4565C167.064 19.212 167.05 19.0244 167.029 18.8937C167.008 18.7631 166.978 18.6766 166.94 18.6345C166.906 18.5881 166.864 18.5649 166.814 18.5649C166.763 18.5649 166.719 18.5881 166.681 18.6345C166.647 18.6766 166.62 18.7631 166.599 18.8937C166.582 19.0244 166.569 19.212 166.561 19.4565C166.552 19.6968 166.548 20.0129 166.548 20.405C166.548 20.8012 166.552 21.1195 166.561 21.3597C166.569 21.6 166.582 21.7855 166.599 21.9162C166.62 22.0511 166.647 22.1396 166.681 22.1817C166.719 22.2281 166.763 22.2513 166.814 22.2513ZM168.597 20.8539V19.3996H168.059C168.144 19.6862 168.186 20.0214 168.186 20.405C168.186 20.485 168.184 20.563 168.179 20.6389C168.175 20.7106 168.169 20.7822 168.16 20.8539H168.597ZM171.337 18.6977C171.337 18.1708 171.491 17.764 171.798 17.4774C172.11 17.1907 172.568 17.0474 173.171 17.0474C173.773 17.0474 174.229 17.1907 174.536 17.4774C174.848 17.764 175.004 18.1708 175.004 18.6977C175.004 19.2204 174.848 19.6272 174.536 19.9181C174.229 20.2047 173.773 20.348 173.171 20.348C172.568 20.348 172.11 20.2047 171.798 19.9181C171.491 19.6272 171.337 19.2204 171.337 18.6977ZM175.466 17.1106H176.863V21.3408H175.466V17.1106ZM173.171 20.1141C173.259 20.1141 173.331 20.0888 173.385 20.0382C173.44 19.9876 173.485 19.9075 173.518 19.7979C173.552 19.6841 173.575 19.5387 173.588 19.3616C173.6 19.1804 173.607 18.9591 173.607 18.6977C173.607 18.4364 173.6 18.2172 173.588 18.0401C173.575 17.8589 173.552 17.7134 173.518 17.6038C173.485 17.49 173.44 17.4078 173.385 17.3572C173.331 17.3066 173.259 17.2813 173.171 17.2813C173.082 17.2813 173.01 17.3066 172.956 17.3572C172.901 17.4078 172.856 17.49 172.823 17.6038C172.789 17.7134 172.766 17.8589 172.753 18.0401C172.741 18.2172 172.734 18.4364 172.734 18.6977C172.734 18.9591 172.741 19.1804 172.753 19.3616C172.766 19.5387 172.789 19.6841 172.823 19.7979C172.856 19.9075 172.901 19.9876 172.956 20.0382C173.01 20.0888 173.082 20.1141 173.171 20.1141ZM172.88 20.582V21.9541C172.88 22.0047 172.894 22.0468 172.924 22.0806C172.958 22.1143 173.002 22.1312 173.057 22.1312H176.895V22.422H172.184C171.969 22.422 171.798 22.3567 171.672 22.226C171.545 22.0995 171.482 21.9309 171.482 21.7202V20.582H172.88ZM179.464 17.4078H177.365V17.1169H180.507C180.613 17.1169 180.697 17.1507 180.76 17.2181C180.824 17.2813 180.855 17.3657 180.855 17.471V19.6272H179.464V17.4078ZM177.251 20.0698H177.744V18.3816H179.142V19.956C179.142 20.0319 179.18 20.0698 179.255 20.0698H180.065C180.271 20.0698 180.469 20.0614 180.659 20.0445C180.853 20.0235 181.015 19.9897 181.146 19.9434V17.1169H182.543V18.9001H183.037V19.2478H182.543V21.3344H181.146V20.2342C181.011 20.2806 180.845 20.3143 180.647 20.3354C180.448 20.3523 180.242 20.3607 180.027 20.3607H177.251V20.0698ZM178.737 20.6832V21.9604C178.737 22.011 178.752 22.0532 178.781 22.0869C178.815 22.1206 178.857 22.1375 178.908 22.1375H182.575V22.4283H178.035C177.93 22.4283 177.835 22.4073 177.751 22.3651C177.666 22.3272 177.592 22.2724 177.529 22.2007C177.47 22.1333 177.424 22.0532 177.39 21.9604C177.356 21.8719 177.34 21.775 177.34 21.6696V20.6832H178.737Z" fill="#383448"/>
<path d="M81.5258 100.568L82.422 78.7044C82.4533 77.9516 82.2593 77.1999 81.8684 76.5551L75.9003 66.7415C75.357 65.8448 75.202 64.7598 75.4751 63.7421L80.3023 45.9768C80.8551 43.9536 79.6708 41.8565 77.6541 41.2844L24.3718 26.1309C22.3045 25.5417 20.1535 26.7722 19.6153 28.8575L2.60946 94.5921C2.03243 96.8291 3.54681 99.0594 5.83606 99.353L24.9985 101.793C26.6964 102.006 28.0426 103.321 28.2991 105.01L28.3397 105.291C28.5877 106.912 29.8453 108.198 31.4579 108.483L43.8803 110.683C44.9385 110.867 46.0257 110.606 46.8745 109.951L47.131 109.754C48.1449 108.981 49.4713 108.756 50.681 109.167L62.872 113.26C64.0056 113.642 65.2523 113.47 66.2383 112.798L79.8471 103.575C80.8514 102.89 81.4781 101.773 81.5256 100.562L81.5258 100.568Z" fill="#F3E2DB" stroke="#4C5A51"/>
<path d="M32.8205 71.9155C32.968 71.9106 33.1121 71.8699 33.253 71.7936C33.3981 71.717 33.5252 71.6095 33.6345 71.4709C33.7479 71.3279 33.8371 71.1563 33.9021 70.9559C33.9672 70.7555 33.9955 70.5289 33.9871 70.2761L33.9735 69.8653L32.8423 69.9029L32.8326 69.6122L33.9638 69.5746L33.9483 69.107L35.3386 69.0608L35.3541 69.5285L36.5675 69.4882L36.5771 69.7789L35.2816 69.8219L35.2953 70.2327C35.3048 70.5192 35.2459 70.7784 35.1186 71.0104C34.9912 71.2382 34.8143 71.4359 34.5879 71.6037C34.3614 71.7673 34.0957 71.8963 33.791 71.9908C33.4904 72.0851 33.1695 72.138 32.8283 72.1493L32.8205 71.9155ZM36.9191 70.552L35.9333 70.5848L35.9217 70.2372L36.9076 70.2045L36.8717 69.1238L38.2684 69.0775L38.3661 72.0224L36.9695 72.0688L36.9191 70.552ZM35.1891 71.4193C35.1827 71.2255 35.2365 71.0676 35.3506 70.9458C35.4645 70.8197 35.6204 70.7533 35.8185 70.7468C36.008 70.7405 36.1638 70.7964 36.2859 70.9147C36.412 71.0286 36.4782 71.1825 36.4847 71.3763C36.491 71.5659 36.435 71.7238 36.3169 71.85C36.203 71.9761 36.0513 72.0423 35.8617 72.0486C35.6637 72.0552 35.5036 71.9993 35.3816 71.8811C35.2596 71.7628 35.1954 71.6089 35.1891 71.4193ZM33.033 73.5533C33.0272 73.3764 33.0725 73.2167 33.169 73.0743C33.2655 72.9319 33.4196 72.8108 33.6314 72.711C33.8473 72.6068 34.1229 72.5239 34.4582 72.4621C34.7978 72.4002 35.2078 72.3613 35.6881 72.3454C36.1683 72.3294 36.58 72.3411 36.9229 72.3803C37.2658 72.4195 37.5463 72.484 37.7644 72.5738C37.9824 72.6594 38.1442 72.77 38.2499 72.9056C38.3557 73.0413 38.4115 73.1976 38.4173 73.3746C38.4234 73.5557 38.3781 73.7175 38.2816 73.8599C38.1851 74.0023 38.031 74.1234 37.8192 74.2232C37.6075 74.3272 37.3319 74.4102 36.9923 74.4721C36.6528 74.534 36.2428 74.5729 35.7625 74.5888C35.2822 74.6048 34.8706 74.5931 34.5277 74.5539C34.189 74.5145 33.9085 74.45 33.6862 74.3604C33.4682 74.2749 33.3064 74.1642 33.2006 74.0286C33.0949 73.8929 33.039 73.7345 33.033 73.5533ZM34.4297 73.507C34.4393 73.7977 34.5601 74.0045 34.7919 74.1276C35.0239 74.2548 35.3442 74.3117 35.7529 74.2981C36.1615 74.2846 36.4774 74.2066 36.7004 74.0642C36.9236 73.9261 37.0304 73.7116 37.0207 73.4209C37.0112 73.1345 36.8905 72.9297 36.6587 72.8066C36.4267 72.6794 36.1064 72.6225 35.6977 72.6361C35.289 72.6496 34.9732 72.7276 34.7502 72.87C34.527 73.0081 34.4202 73.2205 34.4297 73.507ZM38.8705 70.1899C38.8642 70.0003 38.907 69.8302 38.9991 69.6795C39.0951 69.5245 39.2489 69.3929 39.4604 69.2846C39.676 69.172 39.9557 69.0847 40.2995 69.0227C40.6474 68.9563 41.0678 68.9149 41.5607 68.8986C42.0536 68.8822 42.4737 68.8957 42.821 68.939C43.1724 68.9779 43.4573 69.0465 43.6756 69.1447C43.8981 69.2385 44.0602 69.3597 44.1622 69.5081C44.2682 69.6522 44.3243 69.8191 44.3306 70.0087C44.3369 70.1983 44.292 70.3685 44.1957 70.5193C44.1037 70.67 43.9499 70.8016 43.7344 70.9142C43.5228 71.0224 43.2432 71.1097 42.8953 71.1761C42.5515 71.2381 42.1331 71.2773 41.6402 71.2937C41.1473 71.3101 40.7251 71.2988 40.3738 71.2598C40.0265 71.2165 39.7416 71.148 39.5192 71.0541C39.3008 70.9559 39.1386 70.8348 39.0326 70.6907C38.9308 70.5464 38.8768 70.3795 38.8705 70.1899ZM40.2608 70.1438C40.2646 70.2575 40.2957 70.3683 40.3541 70.476C40.4166 70.5794 40.5061 70.6734 40.6228 70.7581C40.7394 70.8386 40.8806 70.9014 41.0466 70.9465C41.2168 70.9914 41.4115 71.0103 41.6306 71.003C41.8496 70.9957 42.0405 70.9641 42.2031 70.9081C42.37 70.8519 42.5089 70.7798 42.6198 70.6918C42.7306 70.5995 42.8117 70.4998 42.863 70.3927C42.9183 70.2812 42.9441 70.1686 42.9403 70.0548C42.9302 69.7515 42.8089 69.5278 42.5764 69.3836C42.3439 69.2395 42.0085 69.1747 41.5703 69.1893C41.1322 69.2038 40.8019 69.2907 40.5794 69.4499C40.3569 69.6091 40.2507 69.8404 40.2608 70.1438ZM38.9261 71.8646L44.3862 71.6834L44.3959 71.9741L42.5695 72.0347L42.6119 73.3113L41.1584 73.3595L41.116 72.0829L38.9357 72.1553L38.9261 71.8646ZM40.4087 72.6948L40.4471 73.8513C40.4488 73.9018 40.465 73.9435 40.4956 73.9762C40.5304 74.0088 40.5731 74.0242 40.6236 74.0226L44.4028 73.8971L44.4124 74.1878L39.7612 74.3422C39.5505 74.3492 39.3798 74.2895 39.2491 74.1631C39.1185 74.0409 39.0497 73.8745 39.0427 73.6638L39.0121 72.7412L40.4087 72.6948ZM46.8455 69.0901L44.7474 69.1597L44.7378 68.869L47.8786 68.7648C47.984 68.7613 48.0693 68.7922 48.1348 68.8575C48.2001 68.9186 48.2345 69.0018 48.2379 69.1071L48.3095 71.2621L46.9192 71.3083L46.8455 69.0901ZM44.722 71.8241L45.2149 71.8077L45.1589 70.1204L46.5555 70.074L46.6078 71.6476C46.6103 71.7234 46.6495 71.7601 46.7253 71.7576L47.5342 71.7307C47.7407 71.7239 47.9384 71.7089 48.1274 71.6857C48.3205 71.6582 48.4816 71.6191 48.6107 71.5684L48.5169 68.7436L49.9135 68.6972L49.9727 70.4793L50.4656 70.463L50.4772 70.8106L49.9842 70.8269L50.0535 72.9124L48.6568 72.9588L48.6203 71.8591C48.487 71.91 48.3217 71.9492 48.1244 71.9768C47.927 72.0003 47.7208 72.0155 47.506 72.0227L44.7316 72.1148L44.722 71.8241ZM46.2275 72.3878L46.2698 73.6643C46.2715 73.7149 46.2876 73.7565 46.3183 73.7892C46.3531 73.8218 46.3958 73.8373 46.4463 73.8356L50.1117 73.7139L50.1214 74.0046L45.5839 74.1553C45.4785 74.1588 45.3831 74.1408 45.2974 74.1015C45.2119 74.0664 45.1363 74.0141 45.0708 73.9445C45.0095 73.8791 44.9605 73.8006 44.9237 73.709C44.8871 73.6217 44.867 73.5253 44.8635 73.42L44.8308 72.4341L46.2275 72.3878Z" fill="#383448"/>
<path d="M194.735 252.86C194.67 252.681 194.658 252.506 194.699 252.335C194.743 252.157 194.849 251.985 195.016 251.817C195.187 251.643 195.426 251.474 195.734 251.308C196.044 251.138 196.431 250.969 196.895 250.801C197.359 250.634 197.763 250.517 198.106 250.451C198.453 250.379 198.745 250.357 198.983 250.383C199.223 250.403 199.415 250.469 199.558 250.578C199.703 250.683 199.808 250.824 199.872 251.002C199.937 251.181 199.947 251.357 199.902 251.53C199.861 251.701 199.755 251.874 199.585 252.048C199.417 252.216 199.178 252.385 198.867 252.556C198.559 252.721 198.174 252.887 197.71 253.055C197.246 253.223 196.841 253.342 196.495 253.413C196.151 253.479 195.859 253.502 195.618 253.482C195.38 253.456 195.189 253.39 195.043 253.286C194.902 253.18 194.799 253.038 194.735 252.86ZM196.043 252.387C196.082 252.494 196.145 252.59 196.234 252.674C196.325 252.753 196.44 252.815 196.577 252.859C196.712 252.9 196.866 252.916 197.038 252.908C197.214 252.898 197.405 252.856 197.611 252.781C197.817 252.707 197.989 252.618 198.126 252.514C198.268 252.41 198.377 252.298 198.456 252.18C198.533 252.058 198.579 251.938 198.595 251.821C198.613 251.697 198.603 251.582 198.564 251.475C198.461 251.19 198.277 251.015 198.011 250.949C197.745 250.884 197.406 250.926 196.994 251.075C196.582 251.224 196.294 251.408 196.132 251.628C195.969 251.849 195.94 252.101 196.043 252.387ZM195.324 254.489L200.461 252.632L200.56 252.905L195.422 254.763L195.324 254.489ZM196.971 254.768L197.364 255.856C197.381 255.903 197.41 255.938 197.449 255.96C197.492 255.98 197.537 255.982 197.585 255.964L201.141 254.679L201.24 254.952L196.863 256.534C196.665 256.606 196.484 256.602 196.321 256.522C196.159 256.446 196.042 256.309 195.97 256.111L195.657 255.243L196.971 254.768ZM200.832 252.162C201.105 252.063 201.343 251.939 201.544 251.79C201.744 251.637 201.899 251.456 202.007 251.246C202.119 251.035 202.178 250.796 202.185 250.53C202.19 250.259 202.132 249.957 202.012 249.624L201.922 249.374L200.173 250.006L200.074 249.733L204.998 247.953L205.097 248.226L203.337 248.862L203.427 249.112C203.582 249.54 203.617 249.922 203.532 250.258C203.451 250.592 203.286 250.891 203.036 251.156C202.79 251.416 202.479 251.647 202.104 251.85C201.731 252.047 201.333 252.222 200.909 252.376L200.832 252.162ZM204.233 250.374C204.158 250.168 204.162 249.979 204.243 249.806C204.326 249.628 204.475 249.5 204.689 249.423C204.895 249.348 205.085 249.353 205.259 249.438C205.432 249.519 205.556 249.663 205.63 249.869C205.708 250.083 205.706 250.276 205.625 250.449C205.544 250.622 205.4 250.745 205.194 250.82C204.98 250.897 204.785 250.896 204.608 250.817C204.435 250.736 204.31 250.588 204.233 250.374ZM201.128 252.982L206.266 251.125L206.365 251.399L204.48 252.08L205.026 253.59L203.658 254.085L203.112 252.574L201.227 253.256L201.128 252.982ZM208.257 247.467L207.574 248.238L207.233 248.019L208.132 246.954L209.393 246.498L211.117 251.268L209.803 251.743L208.257 247.467ZM212.382 245.593L210.407 246.307L210.308 246.033L213.264 244.965C213.363 244.929 213.454 244.932 213.536 244.974C213.617 245.012 213.675 245.08 213.711 245.179L214.444 247.207L213.136 247.68L212.382 245.593ZM211.205 248.849L211.669 248.681L211.095 247.093L212.409 246.618L212.945 248.099C212.97 248.17 213.019 248.193 213.09 248.167L213.851 247.892C214.046 247.822 214.229 247.747 214.402 247.666C214.577 247.58 214.718 247.494 214.825 247.406L213.864 244.748L215.179 244.272L215.785 245.949L216.249 245.782L216.367 246.109L215.903 246.276L216.612 248.239L215.298 248.714L214.924 247.679C214.813 247.769 214.668 247.857 214.489 247.944C214.308 248.027 214.117 248.105 213.915 248.179L211.304 249.122L211.205 248.849ZM212.811 248.92L213.245 250.122C213.263 250.169 213.291 250.204 213.33 250.225C213.373 250.246 213.419 250.247 213.466 250.23L216.915 248.983L217.014 249.257L212.744 250.8C212.645 250.836 212.549 250.848 212.455 250.837C212.363 250.83 212.275 250.804 212.191 250.758C212.113 250.715 212.042 250.655 211.979 250.579C211.917 250.508 211.868 250.422 211.832 250.323L211.497 249.395L212.811 248.92Z" fill="#383448"/>
<path d="M270.765 137.433C270.765 137.243 270.814 137.074 270.911 136.927C271.012 136.775 271.17 136.649 271.385 136.547C271.604 136.442 271.886 136.364 272.232 136.313C272.582 136.259 273.004 136.231 273.497 136.231C273.99 136.231 274.409 136.259 274.755 136.313C275.105 136.364 275.387 136.442 275.602 136.547C275.821 136.649 275.98 136.775 276.077 136.927C276.178 137.074 276.228 137.243 276.228 137.433C276.228 137.622 276.178 137.791 276.077 137.939C275.98 138.086 275.821 138.213 275.602 138.318C275.387 138.419 275.105 138.497 274.755 138.552C274.409 138.602 273.99 138.628 273.497 138.628C273.004 138.628 272.582 138.602 272.232 138.552C271.886 138.497 271.604 138.419 271.385 138.318C271.17 138.213 271.012 138.086 270.911 137.939C270.814 137.791 270.765 137.622 270.765 137.433ZM272.156 137.433C272.156 137.546 272.184 137.658 272.238 137.768C272.297 137.873 272.384 137.97 272.498 138.059C272.611 138.143 272.751 138.21 272.915 138.261C273.084 138.312 273.278 138.337 273.497 138.337C273.716 138.337 273.908 138.312 274.072 138.261C274.241 138.21 274.382 138.143 274.496 138.059C274.61 137.97 274.694 137.873 274.749 137.768C274.808 137.658 274.837 137.546 274.837 137.433C274.837 137.129 274.723 136.902 274.496 136.75C274.268 136.598 273.935 136.522 273.497 136.522C273.058 136.522 272.725 136.598 272.498 136.75C272.27 136.902 272.156 137.129 272.156 137.433ZM270.765 139.165H276.228V139.456H270.765V139.165ZM272.219 139.987V141.144C272.219 141.195 272.234 141.237 272.264 141.271C272.297 141.305 272.34 141.321 272.39 141.321H276.171V141.612H271.518C271.307 141.612 271.138 141.547 271.012 141.416C270.885 141.29 270.822 141.121 270.822 140.91V139.987H272.219ZM276.736 138.849C277.027 138.849 277.293 138.813 277.533 138.742C277.773 138.666 277.98 138.548 278.153 138.387C278.33 138.227 278.467 138.023 278.564 137.774C278.661 137.521 278.709 137.218 278.709 136.864V136.598H276.85V136.307H282.086V136.598H280.214V136.864C280.214 137.319 280.117 137.69 279.923 137.976C279.733 138.263 279.476 138.489 279.152 138.653C278.831 138.813 278.46 138.925 278.039 138.988C277.621 139.047 277.187 139.077 276.736 139.077V138.849ZM280.543 138.324C280.543 138.105 280.61 137.928 280.745 137.793C280.884 137.654 281.068 137.584 281.295 137.584C281.514 137.584 281.691 137.654 281.826 137.793C281.961 137.928 282.029 138.105 282.029 138.324C282.029 138.552 281.961 138.733 281.826 138.868C281.691 139.003 281.514 139.07 281.295 139.07C281.068 139.07 280.884 139.003 280.745 138.868C280.61 138.733 280.543 138.552 280.543 138.324ZM276.736 139.722H282.199V140.012H280.195V141.619H278.741V140.012H276.736V139.722ZM284.165 140.955C284.165 140.664 284.224 140.417 284.342 140.215C284.464 140.008 284.616 139.827 284.797 139.671C284.978 139.511 285.174 139.368 285.385 139.241C285.596 139.11 285.792 138.978 285.973 138.843C286.154 138.704 286.304 138.552 286.422 138.387C286.544 138.223 286.605 138.025 286.605 137.793C286.605 137.346 286.563 137.024 286.479 136.826C286.399 136.628 286.266 136.528 286.081 136.528C285.908 136.528 285.777 136.625 285.689 136.819C285.604 137.009 285.562 137.334 285.562 137.793H284.165C284.165 137.544 284.211 137.323 284.304 137.129C284.401 136.935 284.533 136.773 284.702 136.642C284.871 136.507 285.071 136.406 285.303 136.339C285.539 136.271 285.798 136.238 286.081 136.238C286.363 136.238 286.62 136.271 286.852 136.339C287.088 136.406 287.29 136.507 287.459 136.642C287.632 136.773 287.765 136.935 287.857 137.129C287.954 137.323 288.003 137.544 288.003 137.793C288.003 138.101 287.942 138.358 287.819 138.565C287.701 138.767 287.552 138.944 287.37 139.096C287.189 139.247 286.993 139.382 286.782 139.5C286.572 139.618 286.376 139.745 286.194 139.88C286.013 140.01 285.861 140.16 285.739 140.329C285.621 140.497 285.562 140.706 285.562 140.955V141.201H287.946V141.492H284.165V140.955ZM290.535 136.598H288.436V136.307H291.579C291.684 136.307 291.768 136.341 291.832 136.408C291.895 136.472 291.927 136.556 291.927 136.661V138.817H290.535V136.598ZM288.322 139.26H288.816V137.572H290.213V139.146C290.213 139.222 290.251 139.26 290.327 139.26H291.136C291.343 139.26 291.541 139.252 291.731 139.235C291.924 139.214 292.087 139.18 292.217 139.134V136.307H293.615V138.09H294.108V138.438H293.615V140.525H292.217V139.424C292.083 139.471 291.916 139.505 291.718 139.526C291.52 139.542 291.313 139.551 291.098 139.551H288.322V139.26ZM289.808 139.873V141.151C289.808 141.201 289.823 141.243 289.853 141.277C289.886 141.311 289.928 141.328 289.979 141.328H293.646V141.619H289.106C289.001 141.619 288.906 141.597 288.822 141.555C288.738 141.517 288.664 141.463 288.601 141.391C288.542 141.323 288.495 141.243 288.461 141.151C288.428 141.062 288.411 140.965 288.411 140.86V139.873H289.808Z" fill="#383448"/>
<path d="M20.9785 135.309L61.7557 130.115C62.8533 129.978 63.8902 130.652 64.2009 131.713L65.5572 136.348C65.8467 137.334 66.7643 137.999 67.7902 137.965L71.5622 137.84C72.5944 137.806 73.5249 138.483 73.8023 139.482L80.1511 162.083C80.3785 162.896 80.1319 163.769 79.5122 164.341L77.9569 165.783C77.4224 166.284 77.1585 167.013 77.2577 167.736L86.4273 235.509C86.4361 235.584 86.4448 235.659 86.4473 235.734C86.4941 237.142 87.8053 238.157 89.1792 237.855L90.603 237.544C91.8277 237.272 93.0376 238.065 93.2912 239.291L98.274 263.754C98.528 264.992 97.7099 266.191 96.4713 266.42L95.2823 266.635C94.087 266.85 93.2789 267.973 93.4566 269.176L100.079 314.153C100.257 315.388 99.406 316.531 98.172 316.71L67.8075 321.101C66.617 321.272 65.4947 320.476 65.2736 319.287L59.6724 289.4C59.5045 288.491 58.7918 287.775 57.8844 287.605L53.6051 286.789C52.6787 286.613 51.959 285.872 51.809 284.937L42.9858 230.241C42.7732 228.932 43.7351 227.723 45.0598 227.635L47.4969 227.479C48.8654 227.389 49.8372 226.104 49.5549 224.766L43.5235 196.448C43.3005 195.39 42.3552 194.645 41.2789 194.668L28.6993 194.904C27.5539 194.923 26.5805 194.084 26.4303 192.955L19.034 137.855C18.8677 136.62 19.738 135.482 20.9789 135.322L20.9785 135.309Z" fill="#F3E2DB" stroke="#4C5A51"/>
<path d="M65.2499 260.159C65.1255 260.222 64.9857 260.269 64.8307 260.3C64.6799 260.33 64.5244 260.348 64.3643 260.353L63.3658 260.386C63.1509 260.393 62.9782 260.336 62.8476 260.214C62.717 260.091 62.6482 259.925 62.6412 259.714L62.4902 255.164L64.8474 255.086L64.8571 255.377L63.7827 255.412L63.9319 259.906C63.9336 259.956 63.9496 259.996 63.9801 260.024C64.0149 260.057 64.0576 260.072 64.1082 260.07L64.3926 260.061C64.5442 260.056 64.6934 260.038 64.84 260.008C64.9908 259.978 65.1242 259.931 65.2403 259.868L65.0812 255.078L66.3009 255.038L66.3783 257.37L66.669 257.36L66.5916 255.028L67.8682 254.986L68.0444 260.294L66.7678 260.336L66.6787 257.651L66.388 257.66L66.475 260.283L65.2554 260.323L65.2499 260.159ZM68.3511 256.127C68.3372 255.71 68.4808 255.398 68.7818 255.189C69.0868 254.977 69.5406 254.861 70.1431 254.841C70.7455 254.821 71.2039 254.907 71.5182 255.099C71.8365 255.286 72.0026 255.589 72.0164 256.006C72.0304 256.427 71.8849 256.744 71.5798 256.957C71.279 257.169 70.8273 257.285 70.2249 257.305C69.6224 257.325 69.1619 257.239 68.8434 257.047C68.5292 256.855 68.3651 256.549 68.3511 256.127ZM72.4392 254.828L73.8358 254.781L73.9155 257.183L72.5189 257.229L72.4392 254.828ZM70.2171 257.071C70.3056 257.068 70.3766 257.047 70.4301 257.007C70.4836 256.968 70.5259 256.907 70.5569 256.826C70.588 256.745 70.6077 256.641 70.6162 256.514C70.6246 256.387 70.6258 256.233 70.6198 256.052C70.6079 255.694 70.57 255.44 70.506 255.29C70.4419 255.141 70.3236 255.069 70.1508 255.074C69.9781 255.08 69.8647 255.16 69.8108 255.313C69.7568 255.467 69.7358 255.723 69.7477 256.081C69.7537 256.262 69.7651 256.416 69.782 256.542C69.7988 256.668 69.8254 256.77 69.8618 256.849C69.8981 256.928 69.9443 256.986 70.0004 257.022C70.0564 257.058 70.1286 257.074 70.2171 257.071ZM74.0592 259.797L74.0689 260.088L69.1649 260.251C69.0048 260.256 68.8749 260.218 68.7752 260.137C68.6756 260.06 68.6237 259.956 68.6194 259.826C68.6149 259.691 68.6598 259.582 68.754 259.499C68.8482 259.415 68.9754 259.371 69.1355 259.366L72.586 259.251L72.576 258.948L69.0875 259.064C68.9401 259.069 68.8186 259.031 68.7231 258.949C68.6317 258.864 68.584 258.76 68.5799 258.638C68.5759 258.516 68.6167 258.411 68.7023 258.324C68.7921 258.232 68.9107 258.184 69.0582 258.179L72.5466 258.063L72.5365 257.76L68.6752 257.888L68.6656 257.597L73.4306 257.439C73.578 257.434 73.6975 257.475 73.7889 257.56C73.8844 257.641 73.9341 257.743 73.9382 257.865C73.9422 257.987 73.8994 258.094 73.8096 258.186C73.724 258.273 73.6074 258.319 73.4599 258.324L69.9715 258.44L69.9816 258.743L73.47 258.627C73.6175 258.622 73.7369 258.663 73.8283 258.748C73.9238 258.829 73.9736 258.931 73.9776 259.053C73.9817 259.175 73.9388 259.282 73.8491 259.374C73.7634 259.461 73.6468 259.507 73.4994 259.512L70.011 259.628L70.021 259.931L74.0592 259.797ZM76.4451 254.992L74.347 255.062L74.3374 254.771L77.4782 254.667C77.5836 254.663 77.6689 254.694 77.7344 254.759C77.7997 254.82 77.8341 254.904 77.8376 255.009L77.9091 257.164L76.5188 257.21L76.4451 254.992ZM74.3216 257.726L74.8145 257.71L74.7585 256.022L76.1552 255.976L76.2074 257.549C76.2099 257.625 76.2491 257.662 76.3249 257.659L77.1338 257.633C77.3403 257.626 77.538 257.611 77.727 257.588C77.9201 257.56 78.0812 257.521 78.2103 257.47L78.1165 254.645L79.5131 254.599L79.5723 256.381L80.0652 256.365L80.0768 256.712L79.5838 256.729L79.6531 258.814L78.2564 258.861L78.2199 257.761C78.0867 257.812 77.9214 257.851 77.724 257.879C77.5266 257.902 77.3204 257.917 77.1056 257.925L74.3313 258.017L74.3216 257.726ZM75.8271 258.29L75.8694 259.566C75.8711 259.617 75.8873 259.658 75.9179 259.691C75.9527 259.724 75.9954 259.739 76.0459 259.737L79.7113 259.616L79.721 259.906L75.1835 260.057C75.0782 260.061 74.9827 260.043 74.897 260.003C74.8115 259.968 74.7359 259.916 74.6704 259.846C74.6091 259.781 74.5601 259.702 74.5234 259.611C74.4867 259.524 74.4666 259.427 74.4632 259.322L74.4304 258.336L75.8271 258.29Z" fill="#383448"/>
<path d="M43.9975 160.247L45.3941 160.201L45.4409 161.61L45.9339 161.594L45.9454 161.941L45.4525 161.958L45.4997 163.379L44.103 163.426L43.9975 160.247ZM40.2428 163.206C40.3819 163.201 40.5176 163.161 40.6501 163.085C40.7825 163.009 40.8991 162.902 41 162.763C41.1049 162.621 41.1857 162.449 41.2423 162.249C41.3032 162.049 41.3294 161.822 41.321 161.57L41.2801 160.337L42.5882 160.294L42.6291 161.526C42.6387 161.813 42.5819 162.072 42.4588 162.304C42.3356 162.531 42.1651 162.729 41.9471 162.896C41.7332 163.06 41.4802 163.188 41.188 163.282C40.8958 163.372 40.5832 163.422 40.2504 163.433L40.2428 163.206ZM42.605 162.704C42.5987 162.514 42.6525 162.356 42.7664 162.23C42.8845 162.104 43.0405 162.038 43.2343 162.031C43.4281 162.025 43.586 162.081 43.708 162.199C43.8342 162.317 43.9005 162.471 43.9068 162.66C43.9132 162.854 43.8574 163.014 43.7393 163.141C43.6252 163.262 43.4713 163.327 43.2775 163.333C43.0837 163.339 42.9237 163.286 42.7976 163.172C42.6756 163.054 42.6114 162.897 42.605 162.704ZM40.3947 164.732C40.389 164.559 40.4324 164.406 40.525 164.272C40.6216 164.134 40.7717 164.017 40.9752 163.922C41.1828 163.822 41.448 163.744 41.7709 163.687C42.0937 163.63 42.4806 163.594 42.9314 163.579C43.3822 163.564 43.7705 163.574 44.0965 163.609C44.4266 163.645 44.6965 163.706 44.906 163.791C45.1196 163.873 45.2771 163.979 45.3784 164.111C45.4839 164.238 45.5395 164.388 45.5452 164.561C45.5509 164.734 45.5054 164.887 45.4086 165.021C45.3161 165.155 45.1659 165.27 44.9582 165.365C44.7549 165.465 44.4896 165.543 44.1626 165.6C43.8397 165.657 43.4529 165.693 43.0021 165.708C42.5513 165.723 42.1629 165.713 41.8369 165.677C41.511 165.642 41.2412 165.581 41.0274 165.495C40.818 165.414 40.6606 165.309 40.5552 165.182C40.4539 165.055 40.4005 164.905 40.3947 164.732ZM41.7914 164.686C41.7954 164.808 41.8264 164.916 41.8844 165.012C41.9465 165.102 42.0291 165.178 42.1323 165.237C42.2399 165.301 42.3659 165.348 42.5102 165.377C42.6589 165.41 42.8197 165.423 42.9924 165.418C43.1694 165.412 43.3288 165.387 43.4708 165.345C43.6129 165.306 43.7355 165.252 43.8386 165.181C43.9419 165.114 44.0193 165.033 44.071 164.939C44.1268 164.84 44.1526 164.73 44.1486 164.607C44.1445 164.485 44.1114 164.377 44.0492 164.282C43.9912 164.187 43.9085 164.109 43.8011 164.05C43.6935 163.986 43.5675 163.939 43.4232 163.91C43.2787 163.877 43.118 163.863 42.941 163.869C42.7683 163.875 42.6088 163.899 42.4626 163.942C42.3205 163.981 42.1979 164.035 42.0948 164.106C41.9958 164.173 41.9184 164.255 41.8626 164.354C41.8111 164.453 41.7873 164.563 41.7914 164.686ZM46.4021 162.293C46.6928 162.283 46.9547 162.235 47.188 162.147C47.4255 162.059 47.6262 161.942 47.7901 161.798C47.9582 161.653 48.0856 161.486 48.1721 161.298C48.2627 161.105 48.3044 160.901 48.2973 160.686L48.278 160.105L49.7821 160.055L49.8014 160.636C49.8119 160.952 49.726 161.225 49.5438 161.455C49.3659 161.684 49.1213 161.876 48.8101 162.03C48.4988 162.183 48.1358 162.301 47.7209 162.382C47.3061 162.463 46.869 162.512 46.4098 162.527L46.4021 162.293ZM50.8396 162.373C50.6121 162.381 50.4287 162.32 50.2895 162.189C50.15 162.055 50.0765 161.874 50.069 161.646C50.0617 161.427 50.1232 161.248 50.2536 161.109C50.3839 160.969 50.5628 160.896 50.7904 160.888C51.0094 160.881 51.1886 160.943 51.3279 161.073C51.4672 161.203 51.5405 161.378 51.5478 161.597C51.5553 161.825 51.494 162.01 51.3638 162.154C51.2334 162.293 51.0587 162.366 50.8396 162.373ZM46.3973 162.913L51.8575 162.732L51.8671 163.023L46.407 163.204L46.3973 162.913ZM46.5088 164.554C46.5032 164.386 46.5466 164.235 46.6392 164.101C46.736 163.967 46.8883 163.854 47.0962 163.763C47.3081 163.667 47.5819 163.593 47.9175 163.54C48.2572 163.482 48.6673 163.445 49.1475 163.429C49.6278 163.413 50.0373 163.423 50.3759 163.458C50.7185 163.489 50.9966 163.545 51.2102 163.626C51.4279 163.704 51.5873 163.806 51.6886 163.933C51.794 164.06 51.8495 164.208 51.8551 164.377C51.8609 164.55 51.8153 164.701 51.7184 164.831C51.6258 164.964 51.4735 165.077 51.2614 165.168C51.0537 165.264 50.7799 165.338 50.44 165.392C50.1045 165.449 49.6966 165.486 49.2164 165.502C48.7361 165.518 48.3245 165.508 47.9817 165.473C47.6433 165.442 47.3652 165.386 47.1473 165.305C46.9339 165.228 46.7744 165.125 46.669 164.998C46.5679 164.875 46.5145 164.727 46.5088 164.554ZM47.9054 164.508C47.9142 164.773 48.03 164.959 48.2529 165.066C48.4801 165.176 48.798 165.225 49.2067 165.211C49.6154 165.198 49.9273 165.128 50.1424 165.003C50.362 164.882 50.4673 164.689 50.4585 164.423C50.4497 164.158 50.3318 163.972 50.1047 163.866C49.8817 163.755 49.5659 163.706 49.1572 163.72C48.7485 163.733 48.4345 163.803 48.2151 163.928C47.9998 164.049 47.8966 164.243 47.9054 164.508ZM54.3187 160.195L52.2206 160.265L52.2109 159.974L55.3518 159.87C55.4571 159.867 55.5425 159.898 55.6079 159.963C55.6732 160.024 55.7076 160.107 55.7111 160.212L55.7826 162.367L54.3923 162.414L54.3187 160.195ZM52.1951 162.929L52.6881 162.913L52.6321 161.226L54.0287 161.179L54.0809 162.753C54.0834 162.829 54.1226 162.865 54.1985 162.863L55.0074 162.836C55.2138 162.829 55.4115 162.814 55.6006 162.791C55.7937 162.764 55.9548 162.724 56.0838 162.674L55.99 159.849L57.3867 159.803L57.4458 161.585L57.9388 161.568L57.9503 161.916L57.4574 161.932L57.5266 164.018L56.13 164.064L56.0935 162.965C55.9602 163.015 55.7949 163.055 55.5976 163.082C55.4001 163.106 55.194 163.121 54.9791 163.128L52.2048 163.22L52.1951 162.929ZM53.7006 163.493L53.743 164.77C53.7446 164.82 53.7608 164.862 53.7914 164.895C53.8262 164.927 53.8689 164.943 53.9195 164.941L57.5848 164.819L57.5945 165.11L53.057 165.261C52.9517 165.264 52.8562 165.246 52.7705 165.207C52.685 165.172 52.6095 165.119 52.5439 165.05C52.4827 164.984 52.4337 164.906 52.3969 164.814C52.3603 164.727 52.3402 164.631 52.3367 164.525L52.304 163.539L53.7006 163.493Z" fill="#383448"/>
<g clip-path="url(#clip0_401_1040)">
<path fill-rule="evenodd" clip-rule="evenodd" d="M86.9684 207.19L87.0067 207.218L87.039 207.247L87.0705 207.263L87.0956 207.274L87.1698 207.288L87.2054 207.268L87.2413 207.254L87.2776 207.245L87.3084 207.25L87.3454 207.254L87.3769 207.27L87.3938 207.245L87.4172 207.225L87.447 207.211L87.4768 207.197L87.5009 207.19L87.531 207.182L87.5615 207.18L87.5924 207.185L87.6541 207.193L87.7161 207.208L87.747 207.213L87.7771 207.205L87.8611 207.176L87.9452 207.146L88.0295 207.123L88.1142 207.106L88.1508 207.104L88.1942 207.114L88.2258 207.13L88.2638 207.153L88.3089 207.193L88.3703 207.196L88.4255 207.199L88.4872 207.207L88.5428 207.216L88.5858 207.22L88.635 207.223L88.7204 207.219L88.8041 207.183L88.9474 207.12L89.0971 207.062L89.1334 207.054L89.2371 207.048L89.274 207.052L89.3052 207.063L89.3429 207.079L89.3683 207.096L89.4572 207.152L89.5461 207.208L89.62 207.216L89.6938 207.224L89.7878 207.262L89.8882 207.305L89.9323 207.327L89.9817 207.337L90.0251 207.346L90.0743 207.35L90.0987 207.348L90.1228 207.341L90.177 207.326L90.2315 207.316L90.2864 207.313L90.3417 207.316L90.3786 207.32L90.4213 207.318L90.4576 207.31L90.4999 207.301L90.5782 207.278L90.6568 207.262L90.7422 207.257L90.828 207.258L90.8656 207.274L90.8972 207.291L90.9287 207.307L91.0199 207.296L91.1053 207.291L91.1971 207.292L91.2836 207.305L91.3507 207.302L91.3808 207.294L91.411 207.286L91.4412 207.278L91.471 207.264L91.5004 207.244L91.5299 207.224L91.5536 207.211L91.5773 207.197L91.601 207.183L91.6312 207.176L91.6857 207.166L91.7162 207.165L91.7471 207.169L91.7844 207.179L91.8217 207.189L91.8895 207.198L91.9569 207.2L92.0308 207.208L92.0678 207.212L92.1054 207.228L92.1413 207.214L92.1654 207.206L92.2203 207.203L92.245 207.208L92.2827 207.224L92.3207 207.247L92.5037 207.236L92.5532 207.246L92.5966 207.255L92.64 207.265L92.6841 207.287L92.7221 207.309L92.8798 207.392L92.9242 207.42L92.9571 207.461L93.0233 207.549L92.9417 207.621L92.9004 207.648L92.8584 207.663L92.8099 207.672L92.7669 207.668L92.7174 207.659L92.674 207.649L92.6303 207.633L92.5811 207.63L92.5011 207.622L92.4208 207.608L92.3781 207.611L92.3361 207.625L92.2872 207.628L92.2452 207.643L92.1975 207.664L92.1555 207.678L92.1141 207.705L92.0728 207.732L92.0376 207.758L92.0027 207.791L91.979 207.805L91.9614 207.818L91.9191 207.826L91.8703 207.829L91.8516 207.824L91.8272 207.825L91.7706 207.798L91.7261 207.77L91.6479 207.793L91.5757 207.815L91.4967 207.826L91.4239 207.836L91.3073 207.83L91.1968 207.825L91.1476 207.821L91.1053 207.83L91.0572 207.845L91.0152 207.859L90.9677 207.886L90.9196 207.901L90.8651 207.911L90.7492 207.917L90.6939 207.914L90.6261 207.906L90.5529 207.91L90.5227 207.918L90.4994 207.938L90.4347 207.984L90.3697 208.025L90.3456 208.032L90.3216 208.039L90.2914 208.047L90.2609 208.049L90.2362 208.044L90.2053 208.04L90.1806 208.035L90.1551 208.018L90.0798 207.986L90.0045 207.953L89.9235 207.927L89.8425 207.901L89.7991 207.892L89.7496 207.882L89.7004 207.879L89.6513 207.876L89.5838 207.873L89.5221 207.865L89.4597 207.844L89.3973 207.823L89.3787 207.818L89.36 207.813L89.3234 207.815L89.2814 207.829L89.2391 207.838L89.1974 207.859L89.1557 207.879L89.1019 207.901L89.048 207.922L88.9938 207.937L88.9396 207.953L88.885 207.962L88.824 207.965L88.7688 207.962L88.7135 207.959L88.6579 207.95L88.6088 207.947L88.5535 207.944L88.4983 207.941L88.4556 207.944L88.4197 207.958L88.3777 207.972L88.3424 207.999L88.3194 208.025L88.2896 208.039L88.2598 208.053L88.2235 208.061L88.1744 208.057L88.1249 208.048L88.0137 208.03L87.9839 208.044L87.948 208.058L87.9121 208.072L87.8755 208.074L87.8209 208.084L87.7657 208.081L87.7104 208.078L87.6552 208.075L87.5935 208.066L87.5325 208.069L87.4979 208.108L87.4638 208.153L87.4167 208.186L87.3872 208.206L87.3513 208.22L87.3151 208.229L87.2781 208.225L87.2473 208.22L87.2222 208.209L87.1967 208.193L87.1774 208.175L87.1584 208.164L87.1336 208.159L87.0733 208.175L87.0069 208.191L86.9649 208.206L86.9161 208.208L86.8927 208.228L86.8755 208.247L86.8423 208.311L86.8498 208.335L86.8577 208.365L86.8611 208.426L86.8507 208.457L86.8398 208.482L86.829 208.507L86.8121 208.533L86.8077 208.563L86.8034 208.594L86.8335 208.586L86.8637 208.579L86.9304 208.569L86.9702 208.622L87.0064 208.613L87.0488 208.605L87.0976 208.602L87.1223 208.607L87.1532 208.611L87.1844 208.622L87.2037 208.639L87.2427 208.68L87.2696 208.721L87.3028 208.768L87.3358 208.809L87.3971 208.811L87.513 208.805L87.5737 208.795L87.5903 208.764L87.6072 208.738L87.6475 208.693L87.7027 208.696L87.7705 208.705L87.8265 208.72L87.8888 208.741L87.9455 208.768L87.9899 208.796L88.0398 208.812L88.0584 208.817L88.1133 208.814L88.1374 208.806L88.2217 208.783L88.3187 208.765L88.3614 208.763L88.4105 208.766L88.4227 208.765L88.459 208.757L88.4708 208.751L88.5419 208.71L88.6134 208.675L88.6615 208.66L88.7096 208.645L88.7337 208.638L88.7516 208.631L88.8451 208.552L88.8688 208.538L88.8922 208.518L88.9162 208.511L88.9399 208.497L89.0192 208.493L89.0565 208.503L89.0877 208.513L89.1946 208.563L89.301 208.605L89.3319 208.61L89.3624 208.608L89.3925 208.6L89.4227 208.592L89.4522 208.572L89.4823 208.565L89.5189 208.562L89.5498 208.567L89.5993 208.576L89.6434 208.598L89.6664 208.572L89.6958 208.552L89.7253 208.532L89.7612 208.518L89.791 208.504L89.8273 208.496L89.8639 208.494L89.8947 208.498L89.9937 208.517L90.087 208.542L90.3843 208.605L90.4897 208.63L90.5514 208.638L90.6124 208.635L90.6789 208.619L90.7392 208.603L90.7869 208.582L90.8293 208.574L90.8835 208.558L91.0299 208.55L91.0794 208.559L91.1286 208.563L91.2272 208.576L91.3313 208.576L91.4292 208.576L91.5326 208.564L91.6115 208.554L91.6912 208.555L91.7708 208.557L91.8505 208.559L91.8871 208.556L91.9173 208.549L91.9532 208.534L91.9955 208.526L92.0379 208.517L92.0806 208.515L92.128 208.488L92.1686 208.449L92.1988 208.441L92.2408 208.426L92.277 208.418L92.3774 208.461L92.661 208.39L92.6882 208.438L92.5014 208.705L92.3758 208.755L92.2537 208.762L92.2178 208.776L92.183 208.809L92.1413 208.83L92.0939 208.857L91.9977 208.887L91.8892 208.917L91.7866 208.942L91.6775 208.96L91.5924 208.971L91.5077 208.988L91.4294 209.011L91.3515 209.04L91.2621 209.082L91.1787 209.123L91.1486 209.131L91.1245 209.138L91.0391 209.143L91.0144 209.138L90.9893 209.128L90.9584 209.123L90.9171 209.15L90.8758 209.177L90.8395 209.185L90.8033 209.193L90.7667 209.195L90.7297 209.191L90.6799 209.176L90.6342 209.234L90.623 209.253L90.6058 209.272L90.5821 209.285L90.5645 209.299L90.5221 209.307L90.4855 209.309L90.4546 209.305L90.4177 209.301L90.3868 209.297L90.3557 209.286L90.3245 209.276L90.2868 209.259L90.2295 209.22L90.204 209.203L90.1728 209.192L90.1474 209.175L90.1166 209.171L90.0549 209.162L89.9878 209.166L89.8912 209.19L89.7333 209.211L89.715 209.212L89.697 209.219L89.6852 209.226L89.6736 209.239L89.6503 209.259L89.6208 209.279L89.5907 209.287L89.5605 209.295L89.5178 209.297L89.4744 209.287L89.3937 209.267L89.3514 209.276L89.2663 209.287L89.2236 209.289L89.1805 209.285L89.1382 209.294L88.9583 209.359L88.7723 209.425L88.7303 209.44L88.6886 209.46L88.5708 209.54L88.5417 209.567L88.5 209.587L88.458 209.602L88.4156 209.61L88.3668 209.613L88.3177 209.61L87.9532 209.551L87.8786 209.531L87.8037 209.504L87.6888 209.529L87.6458 209.526L87.6088 209.522L87.5715 209.512L87.5532 209.513L87.5414 209.519L87.4872 209.535L87.4394 209.556L87.4056 209.607L87.3948 209.632L87.3775 209.651L87.3369 209.69L87.3071 209.704L87.2647 209.713L87.2281 209.715L87.1912 209.711L87.1474 209.695L87.1118 209.715L87.0942 209.728L87.077 209.748L87.0632 209.828L87.0427 210.007L87.0232 210.093L86.9975 210.181L87.0128 210.235L87.0191 210.345L87.0147 210.376L86.9978 210.401L86.9687 210.427L86.9511 210.44L86.9331 210.447L86.9152 210.455L86.8542 210.458L86.8226 210.441L86.7914 210.431L86.7337 210.385L86.7134 210.35L86.6933 210.32L86.6848 210.278L86.6806 210.205L86.6589 210.145L86.6249 210.086L86.5974 210.032L86.5699 209.978L86.5542 209.918L86.5446 209.858L86.5213 209.663L86.5196 209.632L86.506 209.609L86.4921 209.579L86.4724 209.556L86.4402 209.527L86.4313 209.478L86.3855 209.426L86.3458 209.373L86.3372 209.331L86.3409 209.288L86.346 209.269L86.3571 209.25L86.3622 209.231L86.3794 209.212L86.4028 209.192L86.4197 209.167L86.4366 209.141L86.441 209.111L86.4355 208.799L86.4525 208.773L86.4694 208.748L86.4927 208.728L86.5161 208.709L86.4778 208.68L86.4455 208.651L86.4187 208.61L86.398 208.568L86.3546 208.559L86.3284 208.529L86.3023 208.5L86.288 208.464L86.2798 208.428L86.2778 208.392L86.2818 208.355L86.2984 208.323L86.2654 208.282L86.2383 208.235L86.2107 208.181L86.1897 208.133L86.1481 207.94L86.1199 207.874L86.0679 207.822L86.0411 207.781L86.0333 207.751L86.0258 207.727L86.024 207.696L86.0288 207.671L86.0396 207.646L86.0504 207.621L86.1123 207.526L86.1678 207.425L86.2171 207.324L86.26 207.218L86.2705 207.186L86.2996 207.16L86.3226 207.134L86.3585 207.12L86.3887 207.112L86.4189 207.104L86.4222 207.055L86.4269 207.031L86.4377 207.005L86.4546 206.98L86.4715 206.955L86.4892 206.941L86.5068 206.928L86.5308 206.921L86.5488 206.913L86.5131 206.824L86.4713 206.734L86.4509 206.699L86.4248 206.67L86.3932 206.653L86.3556 206.637L86.3244 206.626L86.2982 206.597L86.2782 206.568L86.2517 206.533L86.2374 206.497L86.2232 206.461L86.1841 206.42L86.1512 206.379L86.1373 206.349L86.1348 206.307L86.1385 206.264L86.1483 206.22L86.1835 206.194L86.2008 206.174L86.2119 206.155L86.2264 206.087L86.2352 206.025L86.2449 205.982L86.2554 205.951L86.2781 205.919L86.3072 205.893L86.3834 205.833L86.408 205.728L86.5066 205.741L86.5436 205.745L86.5605 205.719L86.5835 205.694L86.613 205.674L86.6428 205.66L86.6787 205.645L86.7089 205.637L86.7702 205.64L86.8258 205.649L86.8603 205.611L86.884 205.597L86.902 205.59L86.9261 205.582L86.981 205.579L87.0122 205.59L87.1387 205.662L87.2119 205.658L87.2617 205.673L87.2807 205.685L87.3058 205.695L87.3248 205.707L87.3954 205.764L87.5317 205.793L87.668 205.822L87.7052 205.832L87.7429 205.848L87.7802 205.858L87.8121 205.881L87.8368 205.886L87.8558 205.897L87.8806 205.901L87.9053 205.906L87.9778 205.89L88.051 205.886L88.1246 205.888L88.1981 205.89L88.2269 205.857L88.2499 205.831L88.2736 205.818L88.3034 205.804L88.3336 205.796L88.4011 205.798L88.5492 205.821L88.6173 205.835L88.7163 205.854L88.7529 205.852L88.7709 205.845L88.7885 205.831L88.9236 205.732L88.971 205.705L89.0249 205.683L89.0788 205.662L89.1391 205.646L89.255 205.64L89.3102 205.643L89.3719 205.651L89.4333 205.654L89.4953 205.669L89.5391 205.685L89.5832 205.707L89.6269 205.723L89.6713 205.751L89.7283 205.784L89.7527 205.783L89.7829 205.775L89.938 205.705L89.9919 205.684L90.0465 205.674L90.0956 205.678L90.1512 205.687L90.22 205.713L90.2896 205.752L90.3211 205.769L90.3462 205.78L90.4654 205.724L90.5071 205.703L90.5495 205.695L90.5983 205.692L90.6413 205.696L90.6661 205.7L90.6973 205.711L90.7532 205.726L90.821 205.734L90.8885 205.737L90.9491 205.727L91.0931 205.676L91.1168 205.663L91.1477 205.667L91.1972 205.676L91.2409 205.692L91.285 205.714L91.323 205.736L91.4162 205.762L91.4861 205.807L91.5675 205.839L91.6492 205.877L91.7303 205.903L91.7482 205.896L91.7723 205.888L91.8481 205.823L91.9319 205.898L91.9757 205.914L92.0015 205.937L92.0276 205.966L92.2186 206.096L92.2034 206.152L91.9719 206.171L91.9113 206.18L91.8445 206.19L91.7781 206.206L91.7117 206.222L91.6815 206.23L91.6514 206.238L91.6148 206.24L91.5839 206.236L91.5531 206.231L91.5165 206.233L91.3504 206.218L91.3077 206.221L91.2717 206.235L91.2125 206.269L91.1468 206.297L91.1227 206.305L91.0925 206.313L91.0685 206.32L91.038 206.322L91.0132 206.317L90.9885 206.312L90.9637 206.308L90.9386 206.297L90.8569 206.259L90.7755 206.227L90.7569 206.222L90.7142 206.224L90.6901 206.231L90.6603 206.245L90.6305 206.259L90.6007 206.273L90.5153 206.278L90.46 206.275L90.4041 206.26L90.3542 206.244L90.3102 206.222L90.2603 206.207L90.2173 206.203L90.138 206.208L90.0956 206.216L90.0346 206.22L89.9739 206.229L89.9126 206.227L89.8512 206.224L89.7712 206.216L89.6851 206.209L89.5997 206.214L89.5147 206.225L89.4605 206.24L89.4062 206.255L89.3466 206.283L89.2928 206.305L89.2572 206.325L89.2213 206.339L89.1789 206.348L89.1 206.358L89.0634 206.361L89.0203 206.357L88.983 206.347L88.8528 206.317L88.8342 206.312L88.8223 206.319L88.7393 206.367L88.6625 206.414L88.6035 206.454L88.5378 206.482L88.4718 206.504L88.405 206.514L88.3562 206.517L88.3009 206.514L88.2518 206.511L88.2023 206.501L88.1714 206.497L88.086 206.502L88.0512 206.534L88.0159 206.561L87.998 206.568L87.98 206.575L87.9621 206.582L87.9438 206.583L87.919 206.579L87.9004 206.574L87.8882 206.574L87.8692 206.563L87.8119 206.523L87.7348 206.461L87.7108 206.468L87.6871 206.482L87.6569 206.489L87.5959 206.493L87.5586 206.483L87.5217 206.479L87.4905 206.468L87.4424 206.483L87.418 206.485L87.3939 206.492L87.3634 206.494L87.3387 206.489L87.2895 206.486L87.2404 206.482L87.1183 206.489L87.1004 206.497L87.0652 206.523L87.0479 206.542L87.0432 206.567L87.0324 206.592L87.0431 206.781L87.0405 206.843L87.0314 206.898L87.0101 206.955L86.9763 207.005L86.9836 207.134L86.9684 207.19Z" fill="#1D1D1B"/>
<path fill-rule="evenodd" clip-rule="evenodd" d="M92.4325 207.497L92.3715 207.501L92.3109 207.51L92.2624 207.519L92.2082 207.534L92.154 207.55L92.1066 207.577L92.0592 207.604L92.0117 207.631L91.9711 207.67L91.9301 207.703L91.9122 207.71L91.9003 207.717L91.882 207.718L91.8634 207.713L91.8257 207.697L91.7877 207.675L91.7623 207.658L91.7311 207.647L91.7006 207.649L91.6349 207.677L91.5627 207.7L91.4899 207.71L91.4231 207.72L91.3126 207.714L91.2082 207.708L91.1713 207.703L91.1407 207.705L91.1106 207.713L91.074 207.715L91.0438 207.723L91.014 207.737L90.9842 207.751L90.9246 207.779L90.8948 207.793L90.7545 207.801L90.7114 207.797L90.6623 207.794L90.5765 207.792L90.5338 207.795L90.4976 207.803L90.4739 207.817L90.4501 207.83L90.4207 207.85L90.374 207.89L90.3204 207.917L90.2906 207.931L90.2662 207.932L90.2354 207.928L90.1285 207.879L90.0472 207.847L89.9597 207.815L89.8729 207.796L89.8169 207.78L89.7613 207.771L89.7057 207.762L89.6505 207.759L89.5952 207.756L89.5461 207.753L89.4962 207.737L89.4464 207.722L89.4088 207.706L89.3718 207.702L89.3349 207.698L89.2983 207.7L89.244 207.715L89.1959 207.73L89.1482 207.751L89.1008 207.778L89.0591 207.799L89.011 207.814L88.969 207.829L88.9205 207.837L88.8721 207.846L88.7805 207.852L88.7314 207.848L88.6694 207.833L88.6141 207.83L88.4975 207.825L88.467 207.826L88.4368 207.834L88.4006 207.843L88.3704 207.85L88.3467 207.864L88.3108 207.878L88.2641 207.918L88.2526 207.93L88.2407 207.937L88.2289 207.944L88.1801 207.947L88.1492 207.942L88.0438 207.918L88.019 207.913L87.9946 207.915L87.9706 207.922L87.9465 207.93L87.9048 207.95L87.8567 207.965L87.7652 207.97L87.7161 207.967L87.6727 207.957L87.5927 207.95L87.5073 207.954L87.4954 207.961L87.4656 207.975L87.4368 208.007L87.4081 208.04L87.3793 208.072L87.3502 208.098L87.3383 208.105L87.3204 208.112L87.296 208.113L87.2709 208.103L87.2519 208.091L87.22 208.069L87.1888 208.058L87.1576 208.048L87.121 208.05L87.0481 208.06L86.976 208.083L86.9336 208.091L86.8909 208.094L86.873 208.101L86.855 208.108L86.8144 208.147L86.786 208.185L86.7068 208.3L86.734 208.347L86.7411 208.365L86.7439 208.414L86.7388 208.433L86.7273 208.446L86.7158 208.458L86.7043 208.471L86.6891 208.527L86.6959 208.539L86.6976 208.57L86.6861 208.583L86.6746 208.595L86.6631 208.608L86.6326 208.61L86.597 208.63L86.5652 208.608L86.539 208.579L86.519 208.549L86.5047 208.513L86.485 208.49L86.466 208.479L86.4406 208.462L86.4158 208.457L86.4029 208.446L86.3958 208.428L86.3941 208.397L86.4106 208.366L86.4208 208.328L86.419 208.298L86.4047 208.262L86.3722 208.227L86.3457 208.192L86.3185 208.144L86.3039 208.102L86.2558 207.903L86.2137 207.808L86.1614 207.749L86.1478 207.726L86.14 207.696L86.2077 207.594L86.2628 207.487L86.3176 207.373L86.3662 207.26L86.3774 207.241L86.395 207.228L86.4251 207.22L86.4495 207.219L86.498 207.21L86.516 207.203L86.5275 207.19L86.5322 207.165L86.5369 207.141L86.5388 207.067L86.55 207.048L86.5673 207.029L86.5859 207.034L86.6107 207.038L86.6314 207.08L86.6403 207.129L86.68 207.181L86.7316 207.227L86.7505 207.239L86.7631 207.244L86.7878 207.249L86.8065 207.254L86.8309 207.252L86.8617 207.257L86.8868 207.268L86.9062 207.285L86.9703 207.336L86.9893 207.347L87.0147 207.364L87.0337 207.375L87.0649 207.386L87.0961 207.396L87.1277 207.413L87.1463 207.418L87.1704 207.411L87.2002 207.397L87.2361 207.382L87.2537 207.369L87.2778 207.362L87.2961 207.361L87.3147 207.366L87.3713 207.393L87.39 207.398L87.4025 207.403L87.4269 207.402L87.4388 207.395L87.4442 207.383L87.4669 207.351L87.4899 207.325L87.5136 207.311L87.5434 207.298L87.5804 207.302L87.636 207.311L87.6915 207.32L87.7224 207.324L87.7532 207.328L87.7895 207.32L87.8197 207.312L87.8976 207.284L87.9697 207.261L88.0541 207.238L88.1327 207.221L88.1571 207.22L88.1758 207.225L88.1887 207.236L88.2277 207.277L88.2599 207.306L88.2725 207.311L88.3457 207.307L88.407 207.31L88.4626 207.319L88.5182 207.328L88.5799 207.337L88.6352 207.34L88.6901 207.336L88.7507 207.327L88.7985 207.306L88.8524 207.284L88.9899 207.228L89.1336 207.17L89.158 207.169L89.182 207.162L89.2064 207.16L89.2251 207.165L89.2495 207.164L89.2932 207.18L89.3122 207.191L89.3885 207.242L89.4652 207.299L89.4842 207.31L89.5093 207.321L89.5279 207.326L89.5523 207.324L89.6079 207.333L89.6632 207.336L89.7507 207.368L89.8385 207.406L89.8951 207.433L89.9572 207.448L90.0131 207.463L90.0745 207.466L90.1168 207.457L90.1592 207.449L90.2016 207.44L90.2439 207.432L90.2866 207.429L90.3297 207.433L90.4334 207.427L90.4818 207.418L90.5303 207.409L90.5964 207.387L90.6692 207.377L90.736 207.367L90.8034 207.369L90.8604 207.403L90.9231 207.43L91.0075 207.407L91.0929 207.402L91.1787 207.403L91.2651 207.417L91.3143 207.42L91.357 207.418L91.3993 207.409L91.4413 207.394L91.4834 207.38L91.5254 207.365L91.5609 207.345L91.5961 207.318L91.6256 207.298L91.6554 207.284L91.692 207.282L91.729 207.286L91.7598 207.291L91.791 207.301L91.828 207.305L91.8775 207.315L91.9144 207.319L91.9571 207.316L92.0185 207.319L92.0493 207.323L92.0809 207.34L92.0995 207.345L92.1178 207.344L92.1778 207.322L92.2144 207.32L92.2269 207.325L92.2395 207.331L92.2466 207.349L92.3087 207.363L92.4917 207.353L92.5286 207.357L92.5659 207.367L92.6032 207.377L92.6348 207.394L92.6663 207.41L92.8172 207.481L92.843 207.504L92.8691 207.534L92.8512 207.541L92.8275 207.554L92.7726 207.557L92.7417 207.553L92.7227 207.542L92.6854 207.532L92.6542 207.521L92.5864 207.513L92.5064 207.505L92.4325 207.497ZM91.8446 208.675L91.8995 208.672L91.9598 208.656L91.9839 208.649L92.014 208.641L92.0442 208.633L92.0747 208.631L92.1529 208.609L92.1763 208.589L92.2003 208.581L92.2291 208.549L92.265 208.535L92.3278 208.562L92.3715 208.578L92.4261 208.569L92.4623 208.56L92.4285 208.611L92.3506 208.64L92.3018 208.643L92.2465 208.64L92.2045 208.655L92.151 208.682L92.1158 208.709L92.0565 208.743L91.9606 208.779L91.8583 208.809L91.7614 208.827L91.6645 208.844L91.5733 208.856L91.4767 208.88L91.3863 208.903L91.2965 208.939L91.2193 208.98L91.1356 209.015L91.0997 209.03L91.0631 209.032L91.0258 209.021L90.9881 209.005L90.9695 209L90.9451 209.002L90.921 209.009L90.8916 209.029L90.856 209.049L90.8266 209.07L90.8086 209.077L90.7906 209.084L90.7723 209.085L90.7598 209.079L90.6855 209.065L90.6608 209.061L90.6306 209.068L90.6069 209.082L90.59 209.107L90.5443 209.165L90.5271 209.184L90.503 209.192L90.4478 209.189L90.3922 209.18L90.342 209.158L90.2975 209.13L90.2592 209.102L90.2216 209.086L90.1778 209.07L90.1341 209.054L90.0971 209.05L90.048 209.046L90.0053 209.049L89.9629 209.057L89.8721 209.075L89.7203 209.096L89.684 209.104L89.6481 209.118L89.6126 209.138L89.5895 209.164L89.5716 209.171L89.5479 209.185L89.5292 209.18L89.5045 209.175L89.4238 209.155L89.4112 209.15L89.3502 209.153L89.3204 209.167L89.1679 209.176L89.1073 209.186L88.9213 209.251L88.7353 209.317L88.6814 209.338L88.6275 209.36L88.5628 209.406L88.5043 209.452L88.4806 209.466L88.4569 209.48L88.427 209.493L88.403 209.501L88.3294 209.499L87.9772 209.439L87.9148 209.419L87.8524 209.398L87.8151 209.387L87.7724 209.39L87.6942 209.413L87.6453 209.415L87.6267 209.41L87.6016 209.4L87.5772 209.401L87.5464 209.397L87.4921 209.412L87.4444 209.433L87.3963 209.448L87.3844 209.455L87.3665 209.462L87.3434 209.488L87.3046 209.557L87.2934 209.576L87.2761 209.596L87.2639 209.596L87.2521 209.603L87.2399 209.604L87.2212 209.599L87.1653 209.583L87.1405 209.579L87.1104 209.587L87.0626 209.608L87.0331 209.628L87.004 209.654L86.9814 209.686L86.9709 209.717L86.952 209.816L86.9447 209.902L86.9309 209.982L86.9113 210.069L86.8914 210.15L86.8864 210.169L86.8895 210.223L86.898 210.266L86.9062 210.302L86.9079 210.333L86.8961 210.339L86.8781 210.346L86.8466 210.33L86.8208 210.307L86.8076 210.289L86.8008 210.277L86.7936 210.259L86.7888 210.174L86.7599 210.096L86.7395 210.061L86.7191 210.025L86.6984 209.983L86.6776 209.942L86.6627 209.894L86.6538 209.845L86.6366 209.65L86.6277 209.602L86.6128 209.554L86.5859 209.512L86.5534 209.477L86.552 209.453L86.5445 209.429L86.5248 209.406L86.499 209.383L86.4729 209.354L86.4528 209.324L86.4521 209.312L86.4572 209.293L86.4921 209.261L86.5202 209.216L86.5482 209.172L86.5577 209.122L86.5478 208.841L86.559 208.822L86.5705 208.809L86.6061 208.789L86.6779 208.76L86.7317 208.739L86.7375 208.733L86.7497 208.732L86.7561 208.738L86.7626 208.743L86.7812 208.748L86.7934 208.748L86.8459 208.702L86.8639 208.695L86.8818 208.688L86.8954 208.711L86.9144 208.723L86.9392 208.727L86.9578 208.732L87.0005 208.73L87.0368 208.722L87.1161 208.717L87.1351 208.728L87.1548 208.752L87.1748 208.781L87.2081 208.828L87.2413 208.875L87.261 208.899L87.28 208.91L87.3299 208.925L87.4034 208.927L87.5498 208.919L87.6227 208.909L87.6647 208.894L87.6799 208.838L87.6968 208.813L87.7459 208.816L87.7954 208.826L87.8395 208.847L87.8897 208.869L87.9464 208.897L88.003 208.924L88.046 208.928L88.0891 208.931L88.1257 208.929L88.1677 208.915L88.2524 208.897L88.331 208.881L88.392 208.877L88.429 208.881L88.4652 208.873L88.5015 208.865L88.5313 208.851L88.5963 208.811L88.6621 208.782L88.6919 208.768L88.7281 208.76L88.7522 208.753L88.7762 208.745L88.7999 208.732L88.8233 208.712L88.9171 208.639L88.9408 208.626L88.9767 208.612L88.9886 208.605L89.0069 208.604L89.0255 208.609L89.0381 208.614L89.0886 208.642L89.1452 208.669L89.2015 208.691L89.2639 208.711L89.289 208.722L89.3199 208.727L89.3748 208.724L89.4354 208.714L89.4591 208.7L89.4829 208.687L89.5069 208.679L89.5313 208.678L89.5622 208.682L89.5937 208.699L89.6439 208.721L89.6625 208.726L89.6866 208.718L89.6985 208.711L89.7161 208.698L89.7269 208.673L89.7441 208.654L89.7617 208.64L89.7855 208.627L89.8095 208.619L89.8336 208.612L89.858 208.61L89.8827 208.615L89.9692 208.629L90.0563 208.654L90.3472 208.711L90.4655 208.747L90.5025 208.751L90.5455 208.755L90.6248 208.75L90.6672 208.742L90.7095 208.733L90.7454 208.719L90.7814 208.705L90.8234 208.69L90.8596 208.682L90.902 208.674L90.9443 208.665L90.987 208.663L91.024 208.667L91.1104 208.68L91.2148 208.686L91.3314 208.692L91.4352 208.686L91.5446 208.674L91.6971 208.665L91.7707 208.667L91.8446 208.675Z" fill="#AEC90B"/>
<path fill-rule="evenodd" clip-rule="evenodd" d="M86.3857 206.525L86.3589 206.484L86.3378 206.436L86.3235 206.4L86.2906 206.359L86.2505 206.3L86.2739 206.28L86.2966 206.248L86.3131 206.217L86.3233 206.18L86.3377 206.111L86.3458 206.037L86.3509 206.019L86.3563 206.006L86.3678 205.993L86.3793 205.981L86.4321 205.941L86.4616 205.921L86.4727 205.902L86.4842 205.889L86.4893 205.87L86.4944 205.852L86.5191 205.856L86.5442 205.867L86.5754 205.878L86.5937 205.877L86.6116 205.869L86.6286 205.844L86.639 205.813L86.6502 205.794L86.6614 205.775L86.6732 205.768L86.6912 205.761L86.703 205.754L86.7152 205.753L86.7644 205.757L86.8139 205.766L86.8444 205.764L86.8691 205.769L86.8867 205.756L86.904 205.736L86.9213 205.717L86.9446 205.697L87.0643 205.758L87.0894 205.769L87.1142 205.774L87.145 205.778L87.1938 205.775L87.2186 205.78L87.2372 205.785L87.2501 205.796L87.3207 205.854L87.3458 205.864L87.3709 205.875L87.5072 205.904L87.6435 205.933L87.6994 205.948L87.7815 205.993L87.8127 206.003L87.8439 206.014L87.8812 206.024L87.9056 206.022L87.9296 206.015L87.9964 206.005L88.0635 206.001L88.1309 206.003L88.1984 206.006L88.2533 206.003L88.2709 205.989L88.2882 205.97L88.3166 205.932L88.3281 205.919L88.34 205.912L88.463 205.923L88.5308 205.932L88.5868 205.947L88.6427 205.962L88.6983 205.971L88.741 205.969L88.7834 205.96L88.8193 205.946L88.8548 205.926L88.9838 205.826L89.0255 205.806L89.0733 205.785L89.1153 205.77L89.1637 205.761L89.2122 205.752L89.261 205.749L89.3105 205.759L89.3535 205.763L89.4088 205.766L89.4647 205.781L89.502 205.791L89.54 205.813L89.5777 205.829L89.6472 205.868L89.6791 205.891L89.716 205.895L89.7591 205.899L89.7953 205.891L89.8316 205.882L89.9864 205.806L90.0166 205.798L90.0528 205.79L90.0833 205.788L90.1142 205.793L90.1708 205.82L90.2274 205.848L90.2719 205.876L90.3156 205.892L90.3404 205.896L90.3587 205.895L90.3766 205.888L90.3946 205.881L90.5199 205.825L90.544 205.817L90.5741 205.81L90.6046 205.808L90.6416 205.812L90.6792 205.828L90.7223 205.832L90.7657 205.842L90.8091 205.851L90.9372 205.844L90.9795 205.835L91.1293 205.778L91.1727 205.788L91.2103 205.804L91.2419 205.821L91.2798 205.843L91.3666 205.862L91.4426 205.907L91.5308 205.951L91.6183 205.983L91.7058 206.015L91.779 206.01L91.8088 205.996L91.8443 205.976L91.8762 205.999L91.9139 206.015L91.9336 206.038L91.9655 206.061L91.8922 206.065L91.8197 206.082L91.753 206.091L91.6808 206.114L91.6629 206.121L91.5957 206.125L91.5527 206.121L91.51 206.124L91.3866 206.106L91.3618 206.101L91.3069 206.105L91.2768 206.112L91.2466 206.12L91.2168 206.134L91.1576 206.168L91.0979 206.196L91.0739 206.203L91.0129 206.207L90.9878 206.196L90.8999 206.158L90.8182 206.12L90.7935 206.115L90.7687 206.111L90.7501 206.106L90.7257 206.107L90.6772 206.116L90.5935 206.151L90.5512 206.16L90.4719 206.164L90.4407 206.154L90.403 206.138L90.3406 206.117L90.2844 206.095L90.2291 206.092L90.1738 206.089L90.125 206.092L90.0766 206.101L90.022 206.11L89.9183 206.116L89.8692 206.113L89.7766 206.1L89.6787 206.099L89.5868 206.098L89.496 206.116L89.4296 206.132L89.3632 206.148L89.3036 206.175L89.2378 206.204L89.2141 206.217L89.1843 206.231L89.1603 206.239L89.0383 206.246L89.0071 206.235L88.8765 206.2L88.7911 206.205L88.7674 206.218L88.6844 206.266L88.596 206.326L88.5486 206.353L88.5009 206.374L88.447 206.396L88.3924 206.405L88.3555 206.401L88.3128 206.403L88.2697 206.399L88.2263 206.39L88.1829 206.38L88.1399 206.376L88.0972 206.379L88.0548 206.387L88.0426 206.388L88.025 206.401L87.9905 206.44L87.9729 206.453L87.9614 206.466L87.9431 206.467L87.9244 206.462L87.8861 206.433L87.7833 206.348L87.7582 206.337L87.7331 206.326L87.7209 206.327L87.7029 206.334L87.6911 206.341L87.6677 206.36L87.644 206.374L87.6013 206.376L87.5705 206.372L87.5457 206.367L87.5206 206.356L87.4959 206.352L87.4715 206.353L87.4054 206.375L87.3566 206.378L87.3013 206.375L87.2461 206.372L87.1847 206.369L87.1298 206.372L87.0875 206.381L87.0455 206.396L87.0099 206.416L86.975 206.449L86.9527 206.487L86.9307 206.531L86.921 206.574L86.9237 206.623L86.927 206.788L86.9294 206.831L86.9193 206.868L86.9031 206.906L86.8807 206.943L86.8753 206.956L86.8699 206.969L86.8602 207.012L86.8667 207.128L86.8613 207.14L86.8559 207.153L86.819 207.149L86.7939 207.138L86.7749 207.127L86.7552 207.104L86.7359 207.086L86.7226 207.069L86.709 207.045L86.6951 207.015L86.6876 206.991L86.6706 206.906L86.6417 206.829L86.607 206.757L86.572 206.68L86.558 206.65L86.5384 206.626L86.499 206.58L86.4735 206.563L86.442 206.546L86.4169 206.535L86.3857 206.525Z" fill="#AEC90B"/>
</g>
<defs>
<clipPath id="clip0_401_1040">
<rect width="4.92299" height="7.09631" fill="white" transform="translate(86.1572 210.553) rotate(-93.2511)"/>
</clipPath>
</defs>
</svg>
